<?xml version="1.0" encoding="UTF-8" standalone="no"?>
<!-- Created with Inkscape (http://www.inkscape.org/) -->

<svg
   xmlns:serif="http://www.serif.com/"
   xmlns:dc="http://purl.org/dc/elements/1.1/"
   xmlns:cc="http://creativecommons.org/ns#"
   xmlns:rdf="http://www.w3.org/1999/02/22-rdf-syntax-ns#"
   xmlns:svg="http://www.w3.org/2000/svg"
   xmlns="http://www.w3.org/2000/svg"
   xmlns:sodipodi="http://sodipodi.sourceforge.net/DTD/sodipodi-0.dtd"
   xmlns:inkscape="http://www.inkscape.org/namespaces/inkscape"
   width="45.827156mm"
   height="52.916664mm"
   viewBox="0 0 45.827156 52.916664"
   version="1.1"
   id="svg8"
   inkscape:version="0.92.4 (5da689c313, 2019-01-14)"
   sodipodi:docname="alertmanager.svg">
  <defs
     id="defs2" />
  <sodipodi:namedview
     id="base"
     pagecolor="#ffffff"
     bordercolor="#666666"
     borderopacity="1.0"
     inkscape:pageopacity="0.0"
     inkscape:pageshadow="2"
     inkscape:zoom="0.35"
     inkscape:cx="648.37864"
     inkscape:cy="208.57138"
     inkscape:document-units="mm"
     inkscape:current-layer="layer1"
     showgrid="false"
     fit-margin-top="0"
     fit-margin-left="0"
     fit-margin-right="0"
     fit-margin-bottom="0"
     inkscape:window-width="2560"
     inkscape:window-height="1361"
     inkscape:window-x="-9"
     inkscape:window-y="-9"
     inkscape:window-maximized="1" />
  <metadata
     id="metadata5">
    <rdf:RDF>
      <cc:Work
         rdf:about="">
        <dc:format>image/svg+xml</dc:format>
        <dc:type
           rdf:resource="http://purl.org/dc/dcmitype/StillImage" />
        <dc:title></dc:title>
      </cc:Work>
    </rdf:RDF>
  </metadata>
  <g
     inkscape:label="Layer 1"
     inkscape:groupmode="layer"
     id="layer1"
     transform="translate(198.76446,-151.10117)">
    

    

    <g
   id="g4678"
   transform="matrix(0.26458333,0,0,0.26458333,-1080.9382,-437.59674)">
        <g
   transform="translate(303.109,-925)"
   id="Alertmanager">
            <g
   transform="translate(3334.2,2985)"
   id="g5433">
                <g
   transform="translate(0,317.48)"
   id="path4950">
                    <path
   id="path4582"
   style="fill:#e97232;fill-rule:nonzero"
   d="m -303.109,-102.48 v 100 l 86.603,50 v -100 z"
   inkscape:connector-curvature="0" />

                </g>

                <g
   transform="translate(0,317.48)"
   id="path4952">
                    <path
   id="path4585"
   style="fill:#e99a60;fill-rule:nonzero"
   d="m -259.808,-127.48 43.302,-25 86.602,50 -86.602,50 -86.603,-50 z"
   inkscape:connector-curvature="0" />

                </g>

                <g
   transform="translate(0,317.48)"
   id="path4954">
                    <path
   id="path4588"
   style="fill:#cf5b27;fill-rule:nonzero"
   d="m -129.904,-102.48 v 100 l -86.602,50 v -100 z"
   inkscape:connector-curvature="0" />

                </g>

                <g
   transform="matrix(0.866025,0.5,0,1,-38.8685,462.54)"
   id="path4956">
                    <rect
   id="rect4591"
   style="fill:#a5522e;fill-rule:nonzero"
   height="83.333"
   width="8.3330002"
   y="-86.647003"
   x="-296.785" />

                </g>

                <g
   transform="matrix(0.866025,0.5,0,1,-24.4347,470.873)"
   serif:id="path4956"
   id="path49561">
                    <rect
   id="rect4594"
   style="fill:#a5522e;fill-rule:nonzero"
   height="83.333"
   width="8.3330002"
   y="-86.647003"
   x="-296.785" />

                </g>

                <g
   transform="matrix(0.866025,0.5,0,1,-10.001,479.206)"
   serif:id="path4956"
   id="path49562">
                    <rect
   id="rect4597"
   style="fill:#a5522e;fill-rule:nonzero"
   height="83.333"
   width="8.3330002"
   y="-86.647003"
   x="-296.785" />

                </g>

                <g
   transform="matrix(0.866025,0.5,0,1,4.43277,487.54)"
   serif:id="path4956"
   id="path49563">
                    <rect
   id="rect4600"
   style="fill:#a5522e;fill-rule:nonzero"
   height="83.333"
   width="8.3330002"
   y="-86.647003"
   x="-296.785" />

                </g>

                <g
   transform="matrix(0.866025,0.5,0,1,18.8665,495.873)"
   serif:id="path4956"
   id="path49564">
                    <rect
   id="rect4603"
   style="fill:#a5522e;fill-rule:nonzero"
   height="83.333"
   width="8.3330002"
   y="-86.647003"
   x="-296.785" />

                </g>

                <g
   transform="matrix(0.866025,0.5,0,1,-39.0619,463.261)"
   id="path4958">
                    <path
   id="path4606"
   style="fill:none;fill-rule:nonzero;stroke:#934521;stroke-width:1.63px"
   d="m -296.562,-87.48 v 83.333 h 8.334"
   inkscape:connector-curvature="0" />

                </g>

                <g
   transform="matrix(0.866025,0.5,0,1,-24.6281,471.595)"
   serif:id="path4958"
   id="path49581">
                    <path
   id="path4609"
   style="fill:none;fill-rule:nonzero;stroke:#934521;stroke-width:1.63px"
   d="m -296.562,-87.48 v 83.333 h 8.334"
   inkscape:connector-curvature="0" />

                </g>

                <g
   transform="matrix(0.866025,0.5,0,1,-10.1943,479.928)"
   serif:id="path4958"
   id="path49582">
                    <path
   id="path4612"
   style="fill:none;fill-rule:nonzero;stroke:#934521;stroke-width:1.63px"
   d="m -296.562,-87.48 v 83.333 h 8.334"
   inkscape:connector-curvature="0" />

                </g>

                <g
   transform="matrix(0.866025,0.5,0,1,4.23939,488.261)"
   serif:id="path4958"
   id="path49583">
                    <path
   id="path4615"
   style="fill:none;fill-rule:nonzero;stroke:#934521;stroke-width:1.63px"
   d="m -296.562,-87.48 v 83.333 h 8.334"
   inkscape:connector-curvature="0" />

                </g>

                <g
   transform="matrix(0.866025,0.5,0,1,18.6731,496.595)"
   serif:id="path4958"
   id="path49584">
                    <path
   id="path4618"
   style="fill:none;fill-rule:nonzero;stroke:#934521;stroke-width:1.63px"
   d="m -296.562,-87.48 v 83.333 h 8.334"
   inkscape:connector-curvature="0" />

                </g>

                <g
   transform="translate(0,317.48)"
   id="path4988">
                    <path
   id="path4621"
   style="fill:none;fill-rule:nonzero;stroke:#934521;stroke-width:1px"
   d="m -173.205,-77.48 v 100"
   inkscape:connector-curvature="0" />

                </g>

                <g
   transform="matrix(0.866025,-0.5,0,1,-20.3044,241.703)"
   id="path5062">
                    <path
   id="path4624"
   style="fill:#a5522e;fill-rule:nonzero"
   d="m -168.221,-73.314 h 33.333 v 8.334 h -33.333 z"
   inkscape:connector-curvature="0" />

                </g>

                <g
   transform="matrix(0.866025,-0.5,0,1,-20.3044,258.37)"
   serif:id="path5062"
   id="path50621">
                    <path
   id="path4627"
   style="fill:#a5522e;fill-rule:nonzero"
   d="m -168.221,-73.314 h 33.333 v 8.334 h -33.333 z"
   inkscape:connector-curvature="0" />

                </g>

                <g
   transform="matrix(0.866025,-0.5,0,1,-20.3044,283.37)"
   serif:id="path5062"
   id="path50622">
                    <path
   id="path4630"
   style="fill:#a5522e;fill-rule:nonzero"
   d="m -168.221,-73.314 h 33.333 v 8.334 h -33.333 z"
   inkscape:connector-curvature="0" />

                </g>

                <g
   transform="matrix(0.866025,-0.5,0,1,-20.3044,300.037)"
   serif:id="path5062"
   id="path50623">
                    <path
   id="path4633"
   style="fill:#a5522e;fill-rule:nonzero"
   d="m -168.221,-73.314 h 33.333 v 8.334 h -33.333 z"
   inkscape:connector-curvature="0" />

                </g>

                <g
   transform="matrix(0.866025,-0.5,0,1,-63.6057,325.037)"
   serif:id="path5062"
   id="path50624">
                    <path
   id="path4636"
   style="fill:#a5522e;fill-rule:nonzero"
   d="m -168.221,-73.314 h 33.333 v 8.334 h -33.333 z"
   inkscape:connector-curvature="0" />

                </g>

                <g
   transform="matrix(0.866025,-0.5,0,1,-63.6057,308.37)"
   serif:id="path5062"
   id="path50625">
                    <path
   id="path4639"
   style="fill:#a5522e;fill-rule:nonzero"
   d="m -168.221,-73.314 h 33.333 v 8.334 h -33.333 z"
   inkscape:connector-curvature="0" />

                </g>

                <g
   transform="matrix(0.866025,-0.5,0,1,-63.6057,283.37)"
   serif:id="path5062"
   id="path50626">
                    <path
   id="path4642"
   style="fill:#a5522e;fill-rule:nonzero"
   d="m -168.221,-73.314 h 33.333 v 8.334 h -33.333 z"
   inkscape:connector-curvature="0" />

                </g>

                <g
   transform="matrix(0.866025,-0.5,0,1,-63.6057,266.703)"
   serif:id="path5062"
   id="path50627">
                    <path
   id="path4645"
   style="fill:#a5522e;fill-rule:nonzero"
   d="m -168.221,-73.314 h 33.333 v 8.334 h -33.333 z"
   inkscape:connector-curvature="0" />

                </g>

                <g
   transform="matrix(0.866025,-0.5,0,1,-20.3044,250.037)"
   id="path5064">
                    <path
   id="path4648"
   style="fill:none;fill-rule:nonzero;stroke:#934521;stroke-width:2.82999992px"
   d="m -134.888,-81.647 v 8.333 h -33.333"
   inkscape:connector-curvature="0" />

                </g>

                <g
   transform="matrix(0.866025,-0.5,0,1,-20.3044,266.703)"
   serif:id="path5064"
   id="path50641">
                    <path
   id="path4651"
   style="fill:none;fill-rule:nonzero;stroke:#934521;stroke-width:2.82999992px"
   d="m -134.888,-81.647 v 8.333 h -33.333"
   inkscape:connector-curvature="0" />

                </g>

                <g
   transform="matrix(0.866025,-0.5,0,1,-20.3044,291.703)"
   serif:id="path5064"
   id="path50642">
                    <path
   id="path4654"
   style="fill:none;fill-rule:nonzero;stroke:#934521;stroke-width:2.82999992px"
   d="m -134.888,-81.647 v 8.333 h -33.333"
   inkscape:connector-curvature="0" />

                </g>

                <g
   transform="matrix(0.866025,-0.5,0,1,-20.3044,308.37)"
   serif:id="path5064"
   id="path50643">
                    <path
   id="path4657"
   style="fill:none;fill-rule:nonzero;stroke:#934521;stroke-width:2.82999992px"
   d="m -134.888,-81.647 v 8.333 h -33.333"
   inkscape:connector-curvature="0" />

                </g>

                <g
   transform="matrix(0.866025,-0.5,0,1,-63.6057,333.37)"
   serif:id="path5064"
   id="path50644">
                    <path
   id="path4660"
   style="fill:none;fill-rule:nonzero;stroke:#934521;stroke-width:2.82999992px"
   d="m -134.888,-81.647 v 8.333 h -33.333"
   inkscape:connector-curvature="0" />

                </g>

                <g
   transform="matrix(0.866025,-0.5,0,1,-63.6057,316.703)"
   serif:id="path5064"
   id="path50645">
                    <path
   id="path4663"
   style="fill:none;fill-rule:nonzero;stroke:#934521;stroke-width:2.82999992px"
   d="m -134.888,-81.647 v 8.333 h -33.333"
   inkscape:connector-curvature="0" />

                </g>

                <g
   transform="matrix(0.866025,-0.5,0,1,-63.6057,291.703)"
   serif:id="path5064"
   id="path50646">
                    <path
   id="path4666"
   style="fill:none;fill-rule:nonzero;stroke:#934521;stroke-width:2.82999992px"
   d="m -134.888,-81.647 v 8.333 h -33.333"
   inkscape:connector-curvature="0" />

                </g>

                <g
   transform="matrix(0.866025,-0.5,0,1,-63.6057,275.037)"
   serif:id="path5064"
   id="path50647">
                    <path
   id="path4669"
   style="fill:none;fill-rule:nonzero;stroke:#934521;stroke-width:2.82999992px"
   d="m -134.888,-81.647 v 8.333 h -33.333"
   inkscape:connector-curvature="0" />

                </g>

            </g>

            <g
   id="g4675"
   transform="matrix(0.266109,0.153638,-0.266109,0.153638,3096.56,3145.86)">
                <path
   id="path4673"
   style="fill:#ffffff;fill-rule:nonzero"
   d="m 216.2,4.6 c 74.4,0 135.4,60.3 135.3,133.6 -0.1,74.5 -60.9,133.9 -136.9,133.9 C 140.4,272 80.3,211.7 80.3,137.2 80.4,64.3 141.6,4.6 216.2,4.6 Z m -41.1,46.9 c 1.7,8.3 0,16.1 -2.5,23.8 -1.7,5.3 -4.2,10.4 -5.6,15.8 -2.4,8.9 -5.1,17.8 -6.1,26.8 -1.4,13 3.7,24.5 12.5,35.9 -14.3,-3 -27.3,-5.7 -40.5,-8.5 0.1,1.3 0,1.8 0.1,2.2 3.8,11.2 10.6,20.6 18.2,29.6 0.8,0.9 2.6,1.4 4,1.4 40.4,0.1 80.7,0.1 121.1,0 1.3,0 2.9,-0.2 3.7,-1 8.7,-9 15.3,-19.3 19.4,-32.3 -14.8,2.9 -28.9,5.6 -42.9,8.3 2.8,-5.5 6.1,-10.4 7.9,-15.7 C 270.7,119.6 268.1,102 259,85.4 251.7,72.1 244.9,58.8 248.6,42.8 240.9,50.4 237.9,60 236,70 c -1.9,9.8 -2.9,19.7 -4.4,29.7 -0.2,-0.3 -0.5,-0.5 -0.5,-0.8 -0.2,-1 -0.3,-2.1 -0.4,-3.1 -0.9,-16.3 -4.1,-32 -10.8,-46.9 -4,-8.8 -8.4,-17.8 -4.3,-28.3 -2.8,1.5 -5.3,2.9 -7.1,5 -5.4,6.2 -7.6,13.5 -8.1,21.6 -0.5,6.9 -1.2,13.9 -2.4,20.7 -1.4,7.1 -3.5,14.1 -8.3,20.7 -1.8,-14.3 -2,-28.2 -14.6,-37.1 z M 279.2,190.8 H 152.6 v 21.9 h 126.6 z m -101.5,33.1 c -0.1,18.2 18.6,31.8 41.6,30.8 19.1,-0.8 36,-15.8 34.6,-30.8 z"
   inkscape:connector-curvature="0" />

            </g>

        </g>

    </g>

</g>
</svg>
