<?xml version="1.0" encoding="UTF-8" standalone="no"?>
<!DOCTYPE svg PUBLIC "-//W3C//DTD SVG 1.1//EN" "http://www.w3.org/Graphics/SVG/1.1/DTD/svg11.dtd">
<svg width="100%" height="100%" viewBox="0 0 607 384" version="1.1" xmlns="http://www.w3.org/2000/svg" xmlns:xlink="http://www.w3.org/1999/xlink" xml:space="preserve" xmlns:serif="http://www.serif.com/" style="fill-rule:evenodd;clip-rule:evenodd;stroke-linejoin:round;stroke-miterlimit:2;">
    <g transform="matrix(1,0,0,1,-1169.13,-616.683)">
        <g transform="matrix(1,0,0,1,-1154.7,0.000725108)">
            <g id="Docker">
                <g transform="matrix(3.03109,1.75,-3.5,2.02073,8234.46,-4545.84)">
                    <rect x="550" y="2078.46" width="100" height="86.602" style="fill:rgb(81,78,129);"/>
                </g>
                <g transform="matrix(3.03109,-1.75,2.0354e-17,0.384899,-6617.89,5470.84)">
                    <rect x="3050" y="2165.06" width="100" height="86.603" style="fill:rgb(38,34,98);"/>
                </g>
                <g transform="matrix(3.0311,1.75,-5.64365e-17,0.384899,-6617.9,-4187.51)">
                    <rect x="2950" y="-476.314" width="100" height="86.602" style="fill:rgb(60,56,114);"/>
                </g>
            </g>
        </g>
        <g transform="matrix(0.46558,0.268803,-0.46558,0.268803,1468.83,751.972)">
            <g>
                <g>
                    <g>
                        <path d="M135.854,63.055L135.854,39.924L158.988,39.924L158.988,29.645L135.854,29.645L125.58,29.645L125.574,29.645L125.574,57.592L125.549,57.592L125.549,91.002L158.988,91.002L158.988,80.723L135.83,80.723L135.83,63.055L135.854,63.055Z" style="fill:white;fill-rule:nonzero;"/>
                        <path d="M88.799,29.645L78.52,29.645L78.52,91.002L88.799,91.002L88.799,68.178L105.985,91.002L117.069,91.002L97.339,63.055L117.069,63.055L117.069,52.773L117.069,39.923L117.069,29.645L106.788,29.645L88.799,29.645ZM106.787,52.773L88.799,52.773L88.799,39.923L106.787,39.923L106.787,52.773Z" style="fill:white;fill-rule:nonzero;"/>
                    </g>
                    <path d="M51.545,0L51.545,13.188L0,13.188L0,32.043L60.748,32.043L60.748,50.897L51.545,50.897L15.545,50.897L15.545,69.75L51.545,69.75L51.545,88.604L7.385,88.604L7.385,107.458L51.545,107.458L51.545,120.647L185.961,120.647L185.961,0L51.545,0ZM167.107,101.791L70.4,101.791L70.4,18.854L167.107,18.854L167.107,101.791Z" style="fill:white;fill-rule:nonzero;"/>
                </g>
                <g>
                    <path d="M74.613,154.425C75.068,154.245 75.502,154.039 75.914,153.807C76.957,153.219 77.859,152.485 78.594,151.625C79.332,150.762 79.907,149.762 80.297,148.654C80.686,147.552 80.885,146.338 80.885,145.042C80.885,143.54 80.59,142.064 80.008,140.655C79.418,139.229 78.539,137.996 77.389,136.977C76.715,136.401 75.989,135.941 75.231,135.609C74.497,135.29 73.71,135.047 72.893,134.886C72.1,134.732 71.254,134.63 70.381,134.584C69.531,134.541 68.631,134.519 67.701,134.519L51.549,134.519L51.549,170.734L57.922,170.734L57.922,156.034L65.461,156.034C66.242,156.034 66.992,156.154 67.684,156.389C68.379,156.626 69.016,156.963 69.579,157.388C70.149,157.819 70.657,158.337 71.087,158.931C71.525,159.53 71.878,160.199 72.138,160.902L75.583,170.734L82.472,170.734L78.611,160.151C77.617,157.52 76.277,155.604 74.613,154.425ZM74.355,145.042C74.355,146.016 74.222,146.841 73.962,147.496C73.72,148.102 73.355,148.577 72.841,148.946C72.296,149.339 71.573,149.63 70.685,149.81C69.734,150.005 68.574,150.105 67.234,150.105L57.921,150.105L57.921,140.134L67.909,140.134C70.157,140.134 71.831,140.548 72.878,141.363C73.873,142.139 74.355,143.341 74.355,145.042Z" style="fill:white;fill-rule:nonzero;"/>
                    <path d="M108.732,155.233C108.732,157.436 108.55,159.243 108.189,160.605C107.847,161.895 107.343,162.906 106.693,163.61C106.05,164.304 105.275,164.764 104.322,165.018C103.293,165.29 102.074,165.43 100.699,165.43C99.34,165.43 98.131,165.29 97.099,165.016C96.146,164.764 95.369,164.306 94.726,163.619C94.076,162.923 93.562,161.914 93.205,160.621C92.828,159.266 92.639,157.453 92.639,155.233L92.639,134.52L86.266,134.52L86.266,155.311C86.266,156.476 86.307,157.676 86.385,158.877C86.467,160.12 86.666,161.345 86.975,162.514C87.288,163.707 87.758,164.848 88.37,165.905C89.005,167.001 89.886,167.967 90.989,168.775C92.079,169.572 93.438,170.209 95.03,170.661C96.6,171.108 98.509,171.335 100.7,171.335C103.475,171.335 105.817,170.968 107.665,170.242C109.554,169.5 111.077,168.404 112.19,166.987C113.286,165.591 114.063,163.873 114.499,161.878C114.919,159.954 115.132,157.745 115.132,155.312L115.132,134.52L108.734,134.52L108.734,155.233L108.732,155.233Z" style="fill:white;fill-rule:nonzero;"/>
                    <path d="M143.686,159.598L127.092,134.52L120.984,134.52L120.984,170.734L127.121,170.734L127.121,145.691L143.793,170.734L149.848,170.734L149.848,134.52L143.686,134.52L143.686,159.598Z" style="fill:white;fill-rule:nonzero;"/>
                    <path d="M179.447,158.831C179.353,159.94 179.088,160.922 178.658,161.749C178.232,162.57 177.658,163.276 176.953,163.846C176.24,164.421 175.381,164.862 174.394,165.156C173.38,165.46 172.236,165.613 170.992,165.613C169.426,165.613 167.988,165.328 166.721,164.766C165.467,164.209 164.387,163.387 163.508,162.321C162.615,161.237 161.912,159.874 161.42,158.265C160.92,156.632 160.664,154.725 160.664,152.601C160.664,150.459 160.92,148.55 161.42,146.925C161.912,145.327 162.617,143.975 163.516,142.9C164.401,141.843 165.491,141.029 166.754,140.478C168.029,139.923 169.492,139.64 171.098,139.64C172.27,139.64 173.373,139.794 174.381,140.097C175.365,140.394 176.235,140.825 176.963,141.373C177.678,141.913 178.264,142.576 178.703,143.343C179.135,144.095 179.385,144.957 179.445,145.907L179.5,146.755L186.01,146.755L185.916,145.765C185.748,143.974 185.23,142.319 184.379,140.849C183.531,139.389 182.424,138.124 181.084,137.093C179.758,136.071 178.221,135.268 176.514,134.707C174.815,134.149 172.983,133.867 171.071,133.867C168.528,133.867 166.182,134.317 164.096,135.204C162,136.096 160.194,137.378 158.721,139.016C157.256,140.646 156.112,142.639 155.321,144.943C154.534,147.226 154.137,149.803 154.137,152.601C154.137,155.399 154.53,157.975 155.305,160.255C156.088,162.559 157.227,164.558 158.694,166.196C160.167,167.844 161.975,169.129 164.073,170.011C166.159,170.888 168.514,171.333 171.071,171.333C173.065,171.333 174.946,171.061 176.659,170.523C178.393,169.978 179.936,169.166 181.245,168.108C182.559,167.045 183.638,165.731 184.448,164.205C185.257,162.681 185.751,160.924 185.917,158.984L186.003,158.001L179.519,158.001L179.447,158.831Z" style="fill:white;fill-rule:nonzero;"/>
                </g>
            </g>
        </g>
    </g>
</svg>
