<?xml version="1.0" encoding="UTF-8" standalone="no"?>
<!DOCTYPE svg PUBLIC "-//W3C//DTD SVG 1.1//EN" "http://www.w3.org/Graphics/SVG/1.1/DTD/svg11.dtd">
<svg width="100%" height="100%" viewBox="0 0 347 218" version="1.1" xmlns="http://www.w3.org/2000/svg" xmlns:xlink="http://www.w3.org/1999/xlink" xml:space="preserve" xmlns:serif="http://www.serif.com/" style="fill-rule:evenodd;clip-rule:evenodd;stroke-linejoin:round;stroke-miterlimit:2;">
    <g transform="matrix(1,0,0,1,-173.205,-1300)">
        <g id="Base-image" serif:id="Base image" transform="matrix(1,0,0,1,-606.218,850)">
            <g transform="matrix(0.866025,-0.5,3.88578e-15,1.1547,-1.13687e-12,-8.10019e-13)">
                <rect x="1100" y="1039.23" width="200" height="14.434" style="fill:rgb(13,89,127);"/>
            </g>
            <g transform="matrix(0.866025,0.5,3.88578e-15,1.1547,-1.13687e-12,-6.39488e-13)">
                <rect x="900" y="86.603" width="200" height="14.434" style="fill:rgb(37,106,140);"/>
            </g>
            <g transform="matrix(0.866025,0.5,-0.914852,0.52819,1732.75,49.5938)">
                <rect x="-50" y="805.403" width="200" height="189.326" style="fill:rgb(61,122,153);"/>
            </g>
        </g>
        <g transform="matrix(-1,-9.61481e-17,2.88444e-16,-1,692.82,2800)">
            <g id="path58" transform="matrix(-0.581612,-0.335794,-0.581612,0.335794,367.461,1401.52)">
                <path d="M0,0L0,15.687L-11.296,4.379C-10.079,3.532 -8.932,2.836 -7.853,2.27C-6.774,1.703 -5.764,1.265 -4.823,0.932C-3.882,0.598 -3.009,0.37 -2.206,0.222C-1.402,0.075 -0.667,0.009 0,0M57.751,1.304C57.771,1.287 57.881,1.194 58.084,1.065C58.288,0.935 58.586,0.768 58.982,0.603C59.377,0.439 59.871,0.276 60.467,0.155C61.063,0.033 61.761,-0.047 62.565,-0.047C63.236,-0.047 63.976,0.012 64.787,0.153C65.599,0.295 66.48,0.52 67.432,0.852C68.385,1.185 69.408,1.625 70.502,2.196C71.596,2.768 72.761,3.472 73.997,4.332L65.425,12.729L37.015,41.245L24.549,28.776L7.733,46.117L-34.471,4.39C-33.236,3.53 -32.073,2.826 -30.98,2.254C-29.887,1.683 -28.865,1.243 -27.913,0.91C-26.962,0.578 -26.081,0.353 -25.27,0.212C-24.46,0.07 -23.72,0.011 -23.05,0.011C-22.246,0.011 -21.548,0.091 -20.953,0.213C-20.357,0.334 -19.864,0.497 -19.468,0.662C-19.072,0.826 -18.775,0.993 -18.571,1.123C-18.367,1.253 -18.257,1.346 -18.237,1.363L0.815,20.415L7.628,26.948L26.494,8.082L33.085,1.304C33.105,1.287 33.215,1.194 33.419,1.065C33.623,0.935 33.92,0.768 34.316,0.603C34.712,0.439 35.206,0.276 35.801,0.155C36.397,0.033 37.096,-0.047 37.9,-0.047C38.57,-0.047 39.311,0.012 40.122,0.153C40.933,0.295 41.815,0.52 42.767,0.852C43.719,1.185 44.742,1.625 45.836,2.196C46.93,2.768 48.095,3.472 49.331,4.332L34.192,19.157L37.01,21.975L50.111,8.874L57.751,1.304M57.588,80.32L94.807,15.838L57.588,-48.644L-16.875,-48.644L-54.094,15.838L-16.875,80.32L57.588,80.32Z" style="fill:white;fill-rule:nonzero;"/>
            </g>
            <g id="path62" transform="matrix(-0.581612,-0.335794,-0.581612,0.335794,336.436,1396.35)">
                <path d="M0,0L-9.913,9.895L-9.208,10.604L0.775,0.73L0,0Z" style="fill:white;fill-rule:nonzero;"/>
            </g>
        </g>
    </g>
</svg>
