<?xml version="1.0" encoding="UTF-8" standalone="no"?>
<!DOCTYPE svg PUBLIC "-//W3C//DTD SVG 1.1//EN" "http://www.w3.org/Graphics/SVG/1.1/DTD/svg11.dtd">
<svg width="100%" height="100%" viewBox="0 0 347 218" version="1.1" xmlns="http://www.w3.org/2000/svg" xmlns:xlink="http://www.w3.org/1999/xlink" xml:space="preserve" xmlns:serif="http://www.serif.com/" style="fill-rule:evenodd;clip-rule:evenodd;stroke-linejoin:round;stroke-miterlimit:2;">
    <g transform="matrix(1,0,0,1,-469.097,-1469.8)">
        <g id="Base-image" serif:id="Base image" transform="matrix(1,0,0,1,-310.326,1020.83)">
            <g transform="matrix(0.866025,-0.5,3.88578e-15,1.1547,-1.13687e-12,-8.10019e-13)">
                <rect x="1100" y="1039.23" width="200" height="14.434" style="fill:rgb(168,0,48);"/>
            </g>
            <g transform="matrix(0.866025,0.5,3.88578e-15,1.1547,-1.13687e-12,-6.39488e-13)">
                <rect x="900" y="86.603" width="200" height="14.434" style="fill:rgb(177,26,69);"/>
            </g>
            <g transform="matrix(0.866025,0.5,-0.914852,0.52819,1732.75,49.5938)">
                <rect x="-50" y="805.403" width="200" height="189.326" style="fill:rgb(185,51,89);"/>
            </g>
        </g>
        <g transform="matrix(0.600856,0.346904,-0.600856,0.346904,1678.76,943.039)">
            <g transform="matrix(1,0,0,1,0,1695.27)">
                <path d="M60.969,47.645C59.475,47.665 61.25,48.413 63.201,48.714C63.742,48.292 64.228,47.868 64.664,47.454C63.451,47.751 62.215,47.758 60.969,47.645" style="fill:white;fill-rule:nonzero;"/>
            </g>
            <g transform="matrix(1,0,0,1,0,1695.27)">
                <path d="M68.986,45.646C69.879,44.417 70.527,43.073 70.756,41.683C70.555,42.673 70.02,43.528 69.512,44.432C66.719,46.191 69.248,43.388 69.51,42.321C66.508,46.104 69.096,44.589 68.986,45.646" style="fill:white;fill-rule:nonzero;"/>
            </g>
            <g transform="matrix(1,0,0,1,0,1695.27)">
                <path d="M71.949,37.942C72.131,35.251 71.42,36.103 71.181,37.128C71.459,37.274 71.68,39.026 71.949,37.942" style="fill:white;fill-rule:nonzero;"/>
            </g>
            <g transform="matrix(1,0,0,1,0,1695.27)">
                <path d="M55.301,1.163C56.099,1.305 57.025,1.415 56.892,1.606C57.768,1.413 57.965,1.239 55.301,1.163" style="fill:white;fill-rule:nonzero;"/>
            </g>
            <g transform="matrix(1,0,0,1,0,1695.27)">
                <path d="M56.893,1.606L56.332,1.723L56.855,1.675L56.893,1.606" style="fill:white;fill-rule:nonzero;"/>
            </g>
            <g transform="matrix(1,0,0,1,0,1695.27)">
                <path d="M81.762,38.962C81.852,41.378 81.057,42.552 80.338,44.628L79.045,45.271C77.988,47.325 79.15,46.575 78.393,48.208C76.741,49.675 73.387,52.797 72.313,53.083C71.528,53.066 72.844,52.157 73.016,51.802C70.807,53.318 71.243,54.078 67.864,55.001L67.766,54.78C59.436,58.7 47.864,50.933 48.016,40.337C47.928,41.009 47.763,40.841 47.579,41.111C47.149,35.66 50.097,30.185 55.069,27.946C59.932,25.54 65.633,26.526 69.114,29.775C67.202,27.269 63.393,24.612 58.882,24.858C54.461,24.93 50.324,27.739 48.944,30.79C46.68,32.215 46.416,36.286 45.43,37.032C44.101,46.792 47.927,51.007 54.4,55.968C55.416,56.654 54.686,56.759 54.822,57.281C52.672,56.275 50.704,54.755 49.084,52.894C49.944,54.151 50.871,55.373 52.07,56.333C50.041,55.648 47.332,51.42 46.543,51.248C50.038,57.506 60.721,62.223 66.318,59.882C63.728,59.978 60.439,59.935 57.531,58.86C56.306,58.231 54.647,56.93 54.944,56.687C62.58,59.538 70.466,58.845 77.072,53.55C78.754,52.24 80.59,50.013 81.121,49.983C80.322,51.185 81.258,50.561 80.644,51.622C82.316,48.921 79.915,50.522 82.374,46.958L83.282,48.208C82.942,45.964 86.067,43.242 85.749,39.696C86.466,38.612 86.548,40.864 85.788,43.358C86.843,40.591 86.067,40.146 86.337,37.862C86.628,38.63 87.015,39.445 87.212,40.256C86.524,37.581 87.915,35.753 88.261,34.198C87.919,34.048 87.2,35.38 87.034,32.222C87.059,30.85 87.417,31.503 87.554,31.165C87.286,31.01 86.579,29.958 86.15,27.941C86.459,27.466 86.982,29.17 87.406,29.239C87.133,27.636 86.664,26.413 86.644,25.182C85.404,22.592 86.205,25.528 85.201,24.07C83.881,19.956 86.295,23.115 86.459,21.247C88.457,24.142 89.596,28.632 90.121,30.491C89.721,28.224 89.076,26.027 88.287,23.902C88.896,24.159 87.308,19.239 89.078,22.497C87.189,15.552 81,9.062 75.305,6.018C76,6.655 76.879,7.455 76.565,7.581C73.731,5.896 74.229,5.763 73.823,5.051C71.518,4.112 71.364,5.128 69.839,5.053C65.489,2.745 64.651,2.99 60.648,1.546L60.83,2.398C57.949,1.438 57.473,2.76 54.36,2.4C54.171,2.253 55.358,1.864 56.336,1.723C53.55,2.091 53.68,1.173 50.954,1.824C51.625,1.353 52.337,1.04 53.053,0.64C50.782,0.778 47.629,1.962 48.602,0.884C44.897,2.538 38.316,4.859 34.623,8.322L34.507,7.546C32.815,9.577 27.128,13.612 26.675,16.245L26.222,16.35C25.343,17.841 24.772,19.53 24.074,21.063C22.923,23.026 22.386,21.819 22.55,22.127C20.285,26.719 19.158,30.577 18.187,33.743C18.879,34.778 18.204,39.975 18.465,44.134C17.329,64.678 32.883,84.623 49.885,89.227C52.377,90.12 56.082,90.088 59.234,90.176C55.516,89.112 55.036,89.613 51.412,88.35C48.799,87.118 48.227,85.713 46.375,84.106L47.108,85.401C43.478,84.116 44.997,83.811 42.043,82.876L42.826,81.855C41.649,81.765 39.709,79.873 39.179,78.822L37.891,78.873C36.345,76.967 35.52,75.59 35.581,74.523L35.165,75.265C34.694,74.456 29.474,68.107 32.182,69.585C31.679,69.127 31.01,68.838 30.285,67.519L30.836,66.89C29.535,65.213 28.438,63.064 28.522,62.348C29.217,63.286 29.699,63.462 30.177,63.623C26.886,55.459 26.701,63.174 24.21,55.313L24.736,55.271C24.333,54.66 24.086,54.001 23.762,53.352L23.992,51.067C21.624,48.331 23.33,39.422 23.673,34.537C23.908,32.551 25.65,30.436 26.973,27.119L26.167,26.981C27.709,24.293 34.969,16.182 38.333,16.598C39.962,14.552 38.009,16.59 37.69,16.076C41.269,12.373 42.394,13.46 44.809,12.793C47.412,11.248 42.574,13.397 43.808,12.204C48.311,11.055 46.998,9.59 52.871,9.007C53.491,9.359 51.434,9.551 50.918,10.008C54.668,8.172 62.787,8.591 68.063,11.026C74.18,13.887 81.057,22.34 81.329,30.293L81.638,30.376C81.482,33.538 82.122,37.195 81.011,40.553L81.762,38.962" style="fill:white;fill-rule:nonzero;"/>
            </g>
            <g transform="matrix(1,0,0,1,0,1695.27)">
                <path d="M44.658,49.695L44.447,50.742C45.43,52.077 46.21,53.523 47.463,54.563C46.561,52.804 45.892,52.077 44.658,49.695" style="fill:white;fill-rule:nonzero;"/>
            </g>
            <g transform="matrix(1,0,0,1,0,1695.27)">
                <path d="M46.979,49.605C46.459,49.029 46.153,48.337 45.807,47.649C46.137,48.86 46.813,49.901 47.44,50.961L46.979,49.605" style="fill:white;fill-rule:nonzero;"/>
            </g>
            <g transform="matrix(1,0,0,1,0,1695.27)">
                <path d="M88.063,40.675L87.844,41.227C87.442,44.085 86.571,46.913 85.239,49.536C86.711,46.769 87.66,43.742 88.063,40.675" style="fill:white;fill-rule:nonzero;"/>
            </g>
            <g transform="matrix(1,0,0,1,0,1695.27)">
                <path d="M55.598,0.446C56.607,0.077 58.08,0.243 59.154,0C57.756,0.117 56.365,0.187 54.992,0.362L55.598,0.446" style="fill:white;fill-rule:nonzero;"/>
            </g>
            <g transform="matrix(1,0,0,1,0,1695.27)">
                <path d="M20.127,19.308C20.36,21.462 18.507,22.299 20.537,20.877C21.627,18.423 20.113,20.2 20.127,19.308" style="fill:white;fill-rule:nonzero;"/>
            </g>
            <g transform="matrix(1,0,0,1,0,1695.27)">
                <path d="M17.739,29.282C18.208,27.845 18.292,26.983 18.471,26.15C17.178,27.804 17.875,28.157 17.739,29.282" style="fill:white;fill-rule:nonzero;"/>
            </g>
            <g transform="matrix(1,0,0,1,0,1695.27)">
                <path d="M13.437,125.506C13.392,125.553 13.392,133.012 13.299,134.959C13.207,136.533 13.067,139.916 9.731,139.916C6.302,139.916 5.468,135.977 5.19,134.264C4.866,132.364 4.866,130.787 4.866,130.094C4.866,127.869 5.005,121.658 10.241,121.658C11.817,121.658 12.697,122.123 13.392,122.492L13.437,125.506ZM0,130.975C0,144.041 6.951,144.041 7.97,144.041C10.843,144.041 12.697,142.465 13.484,139.732L13.577,143.855C14.458,143.808 15.338,143.716 16.774,143.716C17.284,143.716 17.7,143.716 18.072,143.763C18.443,143.763 18.813,143.808 19.23,143.855C18.489,142.373 17.933,139.037 17.933,131.806C17.933,124.763 17.933,112.855 18.535,109.24C16.868,110.029 15.43,110.539 12.279,110.816C13.53,112.16 13.53,112.855 13.53,118.97C12.651,118.693 11.538,118.368 9.638,118.368C1.344,118.369 0,125.598 0,130.975" style="fill:white;fill-rule:nonzero;"/>
            </g>
            <g transform="matrix(1,0,0,1,0,1695.27)">
                <path d="M25.13,128.609C25.177,124.763 25.965,121.334 29.254,121.334C32.869,121.334 33.145,125.318 33.053,128.609L25.13,128.609ZM37.64,129.074C37.64,123.652 36.575,118.322 29.717,118.322C20.265,118.322 20.265,128.797 20.265,131.019C20.265,140.425 24.481,144.132 31.571,144.132C34.72,144.132 36.251,143.671 37.085,143.437C37.039,141.769 37.27,140.703 37.55,139.267C36.575,139.871 35.324,140.658 32.544,140.658C25.315,140.658 25.222,134.076 25.222,131.806L37.55,131.806L37.64,129.074" style="fill:white;fill-rule:nonzero;"/>
            </g>
            <g transform="matrix(1,0,0,1,0,1695.27)">
                <path d="M52.715,131.066C52.715,135.375 51.928,141.168 46.553,141.168C45.811,141.168 44.885,141.027 44.283,140.889C44.19,139.221 44.19,136.348 44.19,133.012C44.19,129.026 44.606,126.944 44.932,125.922C45.904,122.633 48.082,122.588 48.498,122.588C52.02,122.588 52.715,127.453 52.715,131.066ZM39.417,136.117C39.417,139.547 39.417,141.492 38.861,142.974C40.761,143.716 43.123,144.132 45.951,144.132C47.758,144.132 52.994,144.132 55.82,138.341C57.164,135.653 57.627,132.038 57.627,129.304C57.627,127.636 57.441,123.976 56.098,121.658C54.802,119.482 52.716,118.369 50.493,118.369C46.044,118.369 44.747,122.076 44.053,123.976C44.053,121.613 44.098,113.365 44.468,109.148C41.457,110.539 39.602,110.769 37.611,110.955C39.418,111.695 39.418,114.756 39.418,124.719L39.418,136.117" style="fill:white;fill-rule:nonzero;"/>
            </g>
            <g transform="matrix(1,0,0,1,0,1695.27)">
                <path d="M66.535,143.855C65.607,143.716 64.957,143.623 63.613,143.623C62.133,143.623 61.111,143.717 60.047,143.855C60.51,142.974 60.695,142.556 60.834,139.546C61.02,135.421 61.066,124.392 60.742,122.075C60.51,120.313 60.094,120.036 59.445,119.573C63.244,119.202 64.31,118.925 66.07,118.091C65.701,120.128 65.652,121.15 65.652,124.253C65.561,140.242 65.514,141.955 66.535,143.855" style="fill:white;fill-rule:nonzero;"/>
            </g>
            <g transform="matrix(1,0,0,1,0,1695.27)">
                <path d="M81.373,130.74C81.281,133.66 81.234,135.699 80.445,137.32C79.472,139.406 77.851,140.008 76.646,140.008C73.863,140.008 73.263,137.692 73.263,135.422C73.263,131.067 77.156,130.74 78.915,130.74L81.373,130.74ZM68.629,136.441C68.629,139.361 69.51,142.279 72.106,143.531C73.264,144.041 74.422,144.041 74.794,144.041C79.058,144.041 80.493,140.889 81.374,138.943C81.327,140.982 81.374,142.232 81.513,143.855C82.347,143.808 83.181,143.716 84.572,143.716C85.359,143.716 86.101,143.808 86.888,143.855C86.378,143.068 86.101,142.603 85.96,140.796C85.868,139.036 85.868,137.275 85.868,134.819L85.915,125.366C85.915,121.843 84.987,118.368 78.036,118.368C73.45,118.368 70.763,119.759 69.419,120.454C69.976,121.474 70.439,122.352 70.855,124.347C72.664,122.771 75.027,121.937 77.435,121.937C81.283,121.937 81.283,124.486 81.283,128.099C80.402,128.054 79.66,127.962 78.408,127.962C72.521,127.963 68.629,130.23 68.629,136.441" style="fill:white;fill-rule:nonzero;"/>
            </g>
            <g transform="matrix(1,0,0,1,0,1695.27)">
                <path d="M108.063,139.268C108.11,140.844 108.11,142.512 108.758,143.856C107.737,143.764 107.135,143.624 105.237,143.624C104.124,143.624 103.522,143.718 102.641,143.856C102.825,143.254 102.92,143.022 103.012,142.233C103.151,141.169 103.244,137.6 103.244,136.348L103.244,131.344C103.244,129.166 103.244,126.014 103.103,124.903C103.011,124.116 102.781,121.985 100.091,121.985C97.45,121.985 96.57,123.93 96.245,125.506C95.876,127.127 95.876,128.889 95.876,135.746C95.921,141.678 95.921,142.232 96.384,143.855C95.597,143.763 94.624,143.671 93.234,143.671C92.121,143.671 91.38,143.716 90.455,143.855C90.779,143.113 90.965,142.742 91.057,140.148C91.151,137.599 91.336,125.087 90.916,122.123C90.686,120.314 90.221,119.898 89.713,119.435C93.467,119.249 94.67,118.646 95.83,118.046L95.83,122.956C96.385,121.518 97.543,118.321 102.178,118.321C107.971,118.321 108.016,122.538 108.063,125.317L108.063,139.268" style="fill:white;fill-rule:nonzero;"/>
            </g>
            <g transform="matrix(1,0,0,1,0,1695.27)">
                <path d="M66.926,111.533L63.088,115.369L59.252,111.533L63.088,107.697L66.926,111.533" style="fill:white;fill-rule:nonzero;"/>
            </g>
        </g>
    </g>
</svg>
