<?xml version="1.0" encoding="UTF-8" standalone="no"?>
<svg
   xmlns:serif="http://www.serif.com/"
   xmlns:dc="http://purl.org/dc/elements/1.1/"
   xmlns:cc="http://creativecommons.org/ns#"
   xmlns:rdf="http://www.w3.org/1999/02/22-rdf-syntax-ns#"
   xmlns:svg="http://www.w3.org/2000/svg"
   xmlns="http://www.w3.org/2000/svg"
   xmlns:sodipodi="http://sodipodi.sourceforge.net/DTD/sodipodi-0.dtd"
   xmlns:inkscape="http://www.inkscape.org/namespaces/inkscape"
   sodipodi:docname="configuration_tone_metal.svg"
   inkscape:version="1.0 (4035a4fb49, 2020-05-01)"
   id="svg8"
   version="1.1"
   viewBox="0 0 37.656239 42.552135"
   height="42.552135mm"
   width="37.656239mm">
  <defs
     id="defs2" />
  <sodipodi:namedview
     inkscape:window-maximized="1"
     inkscape:window-y="-11"
     inkscape:window-x="-11"
     inkscape:window-height="1346"
     inkscape:window-width="2560"
     fit-margin-bottom="0"
     fit-margin-right="0"
     fit-margin-left="0"
     fit-margin-top="0"
     showgrid="false"
     inkscape:document-rotation="0"
     inkscape:current-layer="layer1"
     inkscape:document-units="mm"
     inkscape:cy="-44.210081"
     inkscape:cx="41.594953"
     inkscape:zoom="1.4"
     inkscape:pageshadow="2"
     inkscape:pageopacity="0.0"
     borderopacity="1.0"
     bordercolor="#666666"
     pagecolor="#ffffff"
     id="base" />
  <metadata
     id="metadata5">
    <rdf:RDF>
      <cc:Work
         rdf:about="">
        <dc:format>image/svg+xml</dc:format>
        <dc:type
           rdf:resource="http://purl.org/dc/dcmitype/StillImage" />
        <dc:title></dc:title>
      </cc:Work>
    </rdf:RDF>
  </metadata>
  <g
     transform="translate(-90.994182,-171.11409)"
     id="layer1"
     inkscape:groupmode="layer"
     inkscape:label="Layer 1">
    

    

    

    

    

    

    

    

    

    

    

    

    

    

    

    

    

    

    

    <g
   transform="matrix(0.26458333,0,0,0.26458333,-20.288299,-31.073356)"
   id="g2475">
        <g
   id="Config-metal"
   serif:id="Config metal"
   transform="translate(259.808,350)">
            <g
   transform="translate(-1695.97,-1037.47)"
   id="g2431">
                <path
   d="m 1912.47,1612.47 h 28.87 l 57.74,-33.33 -43.3,-25 v 12.69 c 0,11.98 -8.51,22.28 -20.28,24.55 -11.26,2.16 -23.03,4.43 -23.03,4.43 z"
   style="fill-opacity:0.2"
   id="path2429" />

            </g>

            <g
   id="Config-metal1"
   serif:id="Config metal"
   transform="matrix(1.28667,0,0,1.28667,-173.494,221.167)">
                <g
   id="path23103"
   transform="matrix(0.264583,0,0,0.264583,-2088.72,-3716.4)">
                    <path
   d="m 8876.32,14991.1 v -377.9 h 360.05 v 113.3 l -32.73,18.9 v 245.7 z"
   style="fill:#8da5b4;fill-rule:nonzero"
   id="path2433" />

                </g>

                <g
   id="path23128"
   transform="matrix(0.264583,0,0,0.264583,-2088.72,-3716.4)">
                    <path
   d="m 8909.06,14632.1 h 261.85 V 15010 H 8952.7 l -43.64,-25.2 z"
   style="fill:#f9f9f9;fill-rule:nonzero;stroke:#cccccc;stroke-width:3.78px"
   id="path2436" />

                </g>

                <g
   id="path23144"
   transform="matrix(0.264583,0,0,0.264583,-2088.72,-3716.4)">
                    <path
   d="m 9138.18,14650.9 -229.12,-18.8 v 352.7 l 43.62,28.8 185.5,15.3 z"
   style="fill:#f9f9f9;fill-rule:nonzero;stroke:#cccccc;stroke-width:3.78px"
   id="path2439" />

                </g>

                <g
   id="path23160"
   transform="matrix(0.264583,0,0,0.264583,-2088.72,-3716.4)">
                    <path
   d="m 8909.06,14632.1 196.38,37.7 v 378 l -130.92,-25.2 -65.46,-61.6 z"
   style="fill:#f9f9f9;fill-rule:nonzero;stroke:#cccccc;stroke-width:3.78px"
   id="path2442" />

                </g>

                <g
   id="path23160-5"
   transform="matrix(0.264583,0,0,0.264583,-2097.38,-3711.4)">
                    <path
   d="m 8941.79,14613.2 163.65,56.6 v 378 l -163.65,-94.5 z"
   style="fill:#f9f9f9;fill-rule:nonzero;stroke:#cccccc;stroke-width:3.78px"
   id="path2445" />

                </g>

                <g
   id="path23111"
   transform="matrix(0.264583,0,0,0.264583,-2088.72,-3716.4)">
                    <path
   d="m 8876.32,14613.2 196.39,113.3 v 113.4 l -32.73,18.9 v 226.8 l -163.66,-94.5 z"
   style="fill:#cdd8e1;fill-rule:nonzero"
   id="path2448" />

                </g>

                <g
   transform="matrix(0.866025,0.5,0,1.1547,0,0)"
   id="g2471">
                    <g
   transform="matrix(15.5441,0,0,15.5441,306.223,48.9595)"
   id="g2453">
                        <path
   d="M 0.258,-0.629 0.121,-0.066 C 0.117,-0.047 0.113,-0.033 0.109,-0.022 0.106,-0.011 0.101,-0.003 0.094,0.003 0.087,0.009 0.076,0.012 0.063,0.012 c -0.033,0 -0.05,-0.014 -0.05,-0.043 0,-0.007 0.003,-0.026 0.01,-0.056 L 0.159,-0.65 c 0.007,-0.03 0.014,-0.05 0.021,-0.061 0.006,-0.011 0.019,-0.017 0.038,-0.017 0.016,0 0.029,0.004 0.037,0.012 0.009,0.008 0.013,0.018 0.013,0.032 0,0.01 -0.003,0.028 -0.01,0.055 z"
   style="fill:#f5f7f9;fill-rule:nonzero"
   id="path2451" />

                    </g>

                    <g
   transform="matrix(15.5441,0,0,15.5441,310.587,48.9595)"
   id="g2457">
                        <path
   d="m 0.547,-0.153 c 0,0.017 -0.005,0.035 -0.015,0.053 -0.01,0.019 -0.025,0.037 -0.045,0.054 C 0.466,-0.029 0.441,-0.015 0.41,-0.004 0.379,0.006 0.344,0.011 0.305,0.011 0.223,0.011 0.159,-0.013 0.112,-0.061 0.066,-0.109 0.043,-0.173 0.043,-0.254 c 0,-0.055 0.011,-0.103 0.032,-0.145 0.021,-0.042 0.051,-0.074 0.092,-0.097 0.04,-0.023 0.087,-0.035 0.143,-0.035 0.035,0 0.066,0.005 0.095,0.015 0.029,0.01 0.053,0.023 0.073,0.039 0.02,0.016 0.036,0.033 0.046,0.051 0.011,0.019 0.016,0.035 0.016,0.051 0,0.016 -0.006,0.029 -0.018,0.041 -0.012,0.011 -0.026,0.016 -0.043,0.016 -0.011,0 -0.02,-0.003 -0.028,-0.008 C 0.444,-0.332 0.436,-0.341 0.427,-0.354 0.41,-0.379 0.393,-0.397 0.376,-0.41 0.358,-0.422 0.335,-0.428 0.308,-0.428 c -0.039,0 -0.071,0.015 -0.095,0.046 -0.024,0.031 -0.036,0.073 -0.036,0.126 0,0.025 0.003,0.048 0.009,0.069 0.006,0.021 0.015,0.039 0.027,0.054 0.012,0.015 0.026,0.026 0.042,0.034 0.017,0.007 0.035,0.011 0.055,0.011 0.027,0 0.05,-0.006 0.069,-0.018 0.019,-0.013 0.036,-0.032 0.05,-0.057 0.008,-0.015 0.017,-0.027 0.027,-0.035 0.009,-0.009 0.021,-0.013 0.034,-0.013 0.017,0 0.03,0.006 0.041,0.019 0.011,0.012 0.016,0.025 0.016,0.039 z"
   style="fill:#f5f7f9;fill-rule:nonzero"
   id="path2455" />

                    </g>

                    <g
   transform="matrix(15.5441,0,0,15.5441,319.824,48.9595)"
   id="g2461">
                        <path
   d="m 0.568,-0.259 c 0,0.04 -0.006,0.077 -0.019,0.11 -0.012,0.034 -0.03,0.062 -0.053,0.086 C 0.472,-0.038 0.444,-0.02 0.412,-0.007 0.379,0.006 0.342,0.012 0.302,0.012 0.261,0.012 0.225,0.006 0.193,-0.007 0.161,-0.02 0.133,-0.039 0.109,-0.063 0.086,-0.087 0.068,-0.116 0.055,-0.149 0.043,-0.182 0.037,-0.219 0.037,-0.259 c 0,-0.04 0.006,-0.077 0.019,-0.111 0.012,-0.033 0.03,-0.062 0.053,-0.086 0.023,-0.023 0.051,-0.042 0.084,-0.054 0.033,-0.013 0.069,-0.02 0.109,-0.02 0.04,0 0.077,0.007 0.11,0.02 0.032,0.013 0.061,0.031 0.084,0.055 0.024,0.024 0.041,0.053 0.054,0.086 0.012,0.034 0.018,0.07 0.018,0.11 z m -0.134,0 c 0,-0.054 -0.012,-0.096 -0.036,-0.127 -0.024,-0.03 -0.056,-0.045 -0.096,-0.045 -0.026,0 -0.049,0.007 -0.069,0.02 -0.02,0.014 -0.035,0.034 -0.046,0.06 -0.011,0.026 -0.016,0.057 -0.016,0.092 0,0.035 0.005,0.065 0.016,0.092 0.01,0.026 0.025,0.045 0.045,0.059 0.02,0.014 0.043,0.021 0.07,0.021 0.04,0 0.072,-0.015 0.096,-0.046 0.024,-0.03 0.036,-0.072 0.036,-0.126 z"
   style="fill:#f5f7f9;fill-rule:nonzero"
   id="path2459" />

                    </g>

                    <g
   transform="matrix(15.5441,0,0,15.5441,329.213,48.9595)"
   id="g2465">
                        <path
   d="m 0.19,-0.456 v 0.016 c 0.023,-0.031 0.049,-0.054 0.077,-0.068 0.028,-0.015 0.06,-0.022 0.096,-0.022 0.035,0 0.066,0.008 0.094,0.023 0.028,0.015 0.048,0.037 0.062,0.065 0.009,0.016 0.015,0.034 0.017,0.053 0.003,0.019 0.004,0.043 0.004,0.072 v 0.248 c 0,0.027 -0.006,0.047 -0.018,0.061 C 0.51,0.005 0.494,0.012 0.474,0.012 0.454,0.012 0.438,0.005 0.426,-0.009 0.413,-0.023 0.407,-0.043 0.407,-0.069 v -0.222 c 0,-0.044 -0.006,-0.078 -0.018,-0.101 -0.012,-0.023 -0.037,-0.035 -0.073,-0.035 -0.024,0 -0.045,0.007 -0.065,0.021 -0.02,0.015 -0.034,0.034 -0.043,0.059 -0.007,0.02 -0.01,0.057 -0.01,0.111 v 0.167 c 0,0.027 -0.006,0.047 -0.019,0.061 C 0.167,0.005 0.151,0.012 0.131,0.012 0.112,0.012 0.096,0.005 0.083,-0.009 0.071,-0.023 0.065,-0.043 0.065,-0.069 v -0.385 c 0,-0.025 0.005,-0.044 0.017,-0.057 0.011,-0.013 0.026,-0.019 0.045,-0.019 0.012,0 0.022,0.003 0.032,0.009 0.009,0.005 0.017,0.013 0.022,0.024 0.006,0.011 0.009,0.025 0.009,0.041 z"
   style="fill:#f5f7f9;fill-rule:nonzero"
   id="path2463" />

                    </g>

                    <g
   transform="matrix(15.5441,0,0,15.5441,338.601,48.9595)"
   id="g2469">
                        <path
   d="M 0.058,-0.518 H 0.09 v -0.04 c 0,-0.042 0.005,-0.075 0.016,-0.099 0.01,-0.025 0.028,-0.043 0.053,-0.054 0.026,-0.011 0.06,-0.017 0.104,-0.017 0.078,0 0.117,0.019 0.117,0.057 0,0.012 -0.004,0.023 -0.012,0.032 C 0.36,-0.63 0.35,-0.626 0.339,-0.626 0.334,-0.626 0.325,-0.627 0.312,-0.629 0.299,-0.631 0.289,-0.632 0.28,-0.632 c -0.024,0 -0.04,0.007 -0.047,0.021 -0.006,0.015 -0.01,0.035 -0.01,0.061 v 0.032 h 0.033 c 0.051,0 0.076,0.015 0.076,0.046 0,0.022 -0.007,0.035 -0.02,0.041 -0.014,0.006 -0.032,0.009 -0.056,0.009 H 0.223 v 0.353 c 0,0.027 -0.006,0.047 -0.019,0.06 C 0.192,0.005 0.176,0.012 0.156,0.012 0.137,0.012 0.121,0.005 0.109,-0.009 0.096,-0.022 0.09,-0.042 0.09,-0.069 V -0.422 H 0.053 c -0.02,0 -0.035,-0.004 -0.046,-0.013 -0.01,-0.009 -0.016,-0.021 -0.016,-0.035 0,-0.032 0.023,-0.048 0.067,-0.048 z"
   style="fill:#f5f7f9;fill-rule:nonzero"
   id="path2467" />

                    </g>

                </g>

            </g>

        </g>

    </g>

</g>
</svg>
