<?xml version="1.0" encoding="UTF-8" standalone="no"?>
<!-- Created with Inkscape (http://www.inkscape.org/) -->

<svg
   xmlns:serif="http://www.serif.com/"
   xmlns:dc="http://purl.org/dc/elements/1.1/"
   xmlns:cc="http://creativecommons.org/ns#"
   xmlns:rdf="http://www.w3.org/1999/02/22-rdf-syntax-ns#"
   xmlns:svg="http://www.w3.org/2000/svg"
   xmlns="http://www.w3.org/2000/svg"
   xmlns:sodipodi="http://sodipodi.sourceforge.net/DTD/sodipodi-0.dtd"
   xmlns:inkscape="http://www.inkscape.org/namespaces/inkscape"
   width="45.827156mm"
   height="52.916664mm"
   viewBox="0 0 45.827156 52.916664"
   version="1.1"
   id="svg8"
   inkscape:version="0.92.4 (5da689c313, 2019-01-14)"
   sodipodi:docname="container_tone_sapphire.svg">
  <defs
     id="defs2" />
  <sodipodi:namedview
     id="base"
     pagecolor="#ffffff"
     bordercolor="#666666"
     borderopacity="1.0"
     inkscape:pageopacity="0.0"
     inkscape:pageshadow="2"
     inkscape:zoom="0.35"
     inkscape:cx="-109.53395"
     inkscape:cy="-448.57145"
     inkscape:document-units="mm"
     inkscape:current-layer="layer1"
     showgrid="false"
     fit-margin-top="0"
     fit-margin-left="0"
     fit-margin-right="0"
     fit-margin-bottom="0"
     inkscape:window-width="2100"
     inkscape:window-height="1234"
     inkscape:window-x="3191"
     inkscape:window-y="-9"
     inkscape:window-maximized="1" />
  <metadata
     id="metadata5">
    <rdf:RDF>
      <cc:Work
         rdf:about="">
        <dc:format>image/svg+xml</dc:format>
        <dc:type
           rdf:resource="http://purl.org/dc/dcmitype/StillImage" />
        <dc:title></dc:title>
      </cc:Work>
    </rdf:RDF>
  </metadata>
  <g
     inkscape:label="Layer 1"
     inkscape:groupmode="layer"
     id="layer1"
     transform="translate(-1.7665713,22.767886)">
    

    

    

    

    

    

    

    

    

    

    

    

    

    

    

    <g
   id="g7004"
   transform="matrix(0.26458333,0,0,0.26458333,-260.17119,-266.18455)">
        <g
   transform="translate(1293.11,755)"
   id="g5433">
            <g
   transform="translate(0,317.48)"
   id="path4950">
                <path
   id="path6913"
   style="fill:#0772c1;fill-rule:nonzero"
   d="m -303.109,-102.48 v 100 l 86.603,50 v -100 z"
   inkscape:connector-curvature="0" />

            </g>

            <g
   transform="translate(0,317.48)"
   id="path4952">
                <path
   id="path6916"
   style="fill:#349bc2;fill-rule:nonzero"
   d="m -259.808,-127.48 43.302,-25 86.602,50 -86.602,50 -86.603,-50 z"
   inkscape:connector-curvature="0" />

            </g>

            <g
   transform="translate(0,317.48)"
   id="path4954">
                <path
   id="path6919"
   style="fill:#0c5094;fill-rule:nonzero"
   d="m -129.904,-102.48 v 100 l -86.602,50 v -100 z"
   inkscape:connector-curvature="0" />

            </g>

            <g
   transform="matrix(0.866025,0.5,0,1,-38.8685,462.54)"
   id="path4956">
                <rect
   id="rect6922"
   style="fill:#144678;fill-rule:nonzero"
   height="83.333"
   width="8.3330002"
   y="-86.647003"
   x="-296.785" />

            </g>

            <g
   transform="matrix(0.866025,0.5,0,1,-24.4347,470.873)"
   serif:id="path4956"
   id="path49561">
                <rect
   id="rect6925"
   style="fill:#144678;fill-rule:nonzero"
   height="83.333"
   width="8.3330002"
   y="-86.647003"
   x="-296.785" />

            </g>

            <g
   transform="matrix(0.866025,0.5,0,1,-10.001,479.206)"
   serif:id="path4956"
   id="path49562">
                <rect
   id="rect6928"
   style="fill:#144678;fill-rule:nonzero"
   height="83.333"
   width="8.3330002"
   y="-86.647003"
   x="-296.785" />

            </g>

            <g
   transform="matrix(0.866025,0.5,0,1,4.43277,487.54)"
   serif:id="path4956"
   id="path49563">
                <rect
   id="rect6931"
   style="fill:#144678;fill-rule:nonzero"
   height="83.333"
   width="8.3330002"
   y="-86.647003"
   x="-296.785" />

            </g>

            <g
   transform="matrix(0.866025,0.5,0,1,18.8665,495.873)"
   serif:id="path4956"
   id="path49564">
                <rect
   id="rect6934"
   style="fill:#144678;fill-rule:nonzero"
   height="83.333"
   width="8.3330002"
   y="-86.647003"
   x="-296.785" />

            </g>

            <g
   transform="matrix(0.866025,0.5,0,1,-39.0619,463.261)"
   id="path4958">
                <path
   id="path6937"
   style="fill:none;fill-rule:nonzero;stroke:#07396b;stroke-width:1.63px"
   d="m -296.562,-87.48 v 83.333 h 8.334"
   inkscape:connector-curvature="0" />

            </g>

            <g
   transform="matrix(0.866025,0.5,0,1,-24.6281,471.595)"
   serif:id="path4958"
   id="path49581">
                <path
   id="path6940"
   style="fill:none;fill-rule:nonzero;stroke:#07396b;stroke-width:1.63px"
   d="m -296.562,-87.48 v 83.333 h 8.334"
   inkscape:connector-curvature="0" />

            </g>

            <g
   transform="matrix(0.866025,0.5,0,1,-10.1943,479.928)"
   serif:id="path4958"
   id="path49582">
                <path
   id="path6943"
   style="fill:none;fill-rule:nonzero;stroke:#07396b;stroke-width:1.63px"
   d="m -296.562,-87.48 v 83.333 h 8.334"
   inkscape:connector-curvature="0" />

            </g>

            <g
   transform="matrix(0.866025,0.5,0,1,4.23939,488.261)"
   serif:id="path4958"
   id="path49583">
                <path
   id="path6946"
   style="fill:none;fill-rule:nonzero;stroke:#07396b;stroke-width:1.63px"
   d="m -296.562,-87.48 v 83.333 h 8.334"
   inkscape:connector-curvature="0" />

            </g>

            <g
   transform="matrix(0.866025,0.5,0,1,18.6731,496.595)"
   serif:id="path4958"
   id="path49584">
                <path
   id="path6949"
   style="fill:none;fill-rule:nonzero;stroke:#07396b;stroke-width:1.63px"
   d="m -296.562,-87.48 v 83.333 h 8.334"
   inkscape:connector-curvature="0" />

            </g>

            <g
   transform="translate(0,317.48)"
   id="path4988">
                <path
   id="path6952"
   style="fill:none;fill-rule:nonzero;stroke:#07396b;stroke-width:1px"
   d="m -173.205,-77.48 v 100"
   inkscape:connector-curvature="0" />

            </g>

            <g
   transform="matrix(0.866025,-0.5,0,1,-20.3044,241.703)"
   id="path5062">
                <path
   id="path6955"
   style="fill:#144678;fill-rule:nonzero"
   d="m -168.221,-73.314 h 33.333 v 8.334 h -33.333 z"
   inkscape:connector-curvature="0" />

            </g>

            <g
   transform="matrix(0.866025,-0.5,0,1,-20.3044,258.37)"
   serif:id="path5062"
   id="path50621">
                <path
   id="path6958"
   style="fill:#144678;fill-rule:nonzero"
   d="m -168.221,-73.314 h 33.333 v 8.334 h -33.333 z"
   inkscape:connector-curvature="0" />

            </g>

            <g
   transform="matrix(0.866025,-0.5,0,1,-20.3044,283.37)"
   serif:id="path5062"
   id="path50622">
                <path
   id="path6961"
   style="fill:#144678;fill-rule:nonzero"
   d="m -168.221,-73.314 h 33.333 v 8.334 h -33.333 z"
   inkscape:connector-curvature="0" />

            </g>

            <g
   transform="matrix(0.866025,-0.5,0,1,-20.3044,300.037)"
   serif:id="path5062"
   id="path50623">
                <path
   id="path6964"
   style="fill:#144678;fill-rule:nonzero"
   d="m -168.221,-73.314 h 33.333 v 8.334 h -33.333 z"
   inkscape:connector-curvature="0" />

            </g>

            <g
   transform="matrix(0.866025,-0.5,0,1,-63.6057,325.037)"
   serif:id="path5062"
   id="path50624">
                <path
   id="path6967"
   style="fill:#144678;fill-rule:nonzero"
   d="m -168.221,-73.314 h 33.333 v 8.334 h -33.333 z"
   inkscape:connector-curvature="0" />

            </g>

            <g
   transform="matrix(0.866025,-0.5,0,1,-63.6057,308.37)"
   serif:id="path5062"
   id="path50625">
                <path
   id="path6970"
   style="fill:#144678;fill-rule:nonzero"
   d="m -168.221,-73.314 h 33.333 v 8.334 h -33.333 z"
   inkscape:connector-curvature="0" />

            </g>

            <g
   transform="matrix(0.866025,-0.5,0,1,-63.6057,283.37)"
   serif:id="path5062"
   id="path50626">
                <path
   id="path6973"
   style="fill:#144678;fill-rule:nonzero"
   d="m -168.221,-73.314 h 33.333 v 8.334 h -33.333 z"
   inkscape:connector-curvature="0" />

            </g>

            <g
   transform="matrix(0.866025,-0.5,0,1,-63.6057,266.703)"
   serif:id="path5062"
   id="path50627">
                <path
   id="path6976"
   style="fill:#144678;fill-rule:nonzero"
   d="m -168.221,-73.314 h 33.333 v 8.334 h -33.333 z"
   inkscape:connector-curvature="0" />

            </g>

            <g
   transform="matrix(0.866025,-0.5,0,1,-20.3044,250.037)"
   id="path5064">
                <path
   id="path6979"
   style="fill:none;fill-rule:nonzero;stroke:#07396b;stroke-width:2.82999992px"
   d="m -134.888,-81.647 v 8.333 h -33.333"
   inkscape:connector-curvature="0" />

            </g>

            <g
   transform="matrix(0.866025,-0.5,0,1,-20.3044,266.703)"
   serif:id="path5064"
   id="path50641">
                <path
   id="path6982"
   style="fill:none;fill-rule:nonzero;stroke:#07396b;stroke-width:2.82999992px"
   d="m -134.888,-81.647 v 8.333 h -33.333"
   inkscape:connector-curvature="0" />

            </g>

            <g
   transform="matrix(0.866025,-0.5,0,1,-20.3044,291.703)"
   serif:id="path5064"
   id="path50642">
                <path
   id="path6985"
   style="fill:none;fill-rule:nonzero;stroke:#07396b;stroke-width:2.82999992px"
   d="m -134.888,-81.647 v 8.333 h -33.333"
   inkscape:connector-curvature="0" />

            </g>

            <g
   transform="matrix(0.866025,-0.5,0,1,-20.3044,308.37)"
   serif:id="path5064"
   id="path50643">
                <path
   id="path6988"
   style="fill:none;fill-rule:nonzero;stroke:#07396b;stroke-width:2.82999992px"
   d="m -134.888,-81.647 v 8.333 h -33.333"
   inkscape:connector-curvature="0" />

            </g>

            <g
   transform="matrix(0.866025,-0.5,0,1,-63.6057,333.37)"
   serif:id="path5064"
   id="path50644">
                <path
   id="path6991"
   style="fill:none;fill-rule:nonzero;stroke:#07396b;stroke-width:2.82999992px"
   d="m -134.888,-81.647 v 8.333 h -33.333"
   inkscape:connector-curvature="0" />

            </g>

            <g
   transform="matrix(0.866025,-0.5,0,1,-63.6057,316.703)"
   serif:id="path5064"
   id="path50645">
                <path
   id="path6994"
   style="fill:none;fill-rule:nonzero;stroke:#07396b;stroke-width:2.82999992px"
   d="m -134.888,-81.647 v 8.333 h -33.333"
   inkscape:connector-curvature="0" />

            </g>

            <g
   transform="matrix(0.866025,-0.5,0,1,-63.6057,291.703)"
   serif:id="path5064"
   id="path50646">
                <path
   id="path6997"
   style="fill:none;fill-rule:nonzero;stroke:#07396b;stroke-width:2.82999992px"
   d="m -134.888,-81.647 v 8.333 h -33.333"
   inkscape:connector-curvature="0" />

            </g>

            <g
   transform="matrix(0.866025,-0.5,0,1,-63.6057,275.037)"
   serif:id="path5064"
   id="path50647">
                <path
   id="path7000"
   style="fill:none;fill-rule:nonzero;stroke:#07396b;stroke-width:2.82999992px"
   d="m -134.888,-81.647 v 8.333 h -33.333"
   inkscape:connector-curvature="0" />

            </g>

        </g>

    </g>

</g>
</svg>
