<?xml version="1.0" encoding="UTF-8" standalone="no"?>
<!DOCTYPE svg PUBLIC "-//W3C//DTD SVG 1.1//EN" "http://www.w3.org/Graphics/SVG/1.1/DTD/svg11.dtd">
<svg width="100%" height="100%" viewBox="0 0 217 201" version="1.1" xmlns="http://www.w3.org/2000/svg" xmlns:xlink="http://www.w3.org/1999/xlink" xml:space="preserve" xmlns:serif="http://www.serif.com/" style="fill-rule:evenodd;clip-rule:evenodd;">
    <g transform="matrix(1,0,0,1,-317.543,-1050)">
        <g id="Container-metadata" serif:id="Container metadata" transform="matrix(1,0,0,1,1053.66,952.48)">
            <g transform="matrix(1,0,0,1,-2561.99,-1314.95)">
                <path d="M1912.47,1612.47L1941.34,1612.47L2042.38,1554.14L1999.08,1529.14L1999.08,1562.47L1912.47,1612.47Z" style="fill-opacity:0.2;"/>
            </g>
            <path id="Interior-left" serif:id="Interior left" d="M-562.916,147.52L-649.519,197.52L-570.133,243.353L-562.916,247.52L-562.916,147.52Z" style="fill:rgb(205,216,225);fill-rule:nonzero;"/>
            <path id="Floor" d="M-562.916,247.52L-649.519,197.52L-649.519,289.186L-649.519,297.52L-562.916,247.52Z" style="fill:rgb(241,244,247);fill-rule:nonzero;"/>
            <g id="Library">
            </g>
            <g id="Application">
            </g>
            <g id="Right-side" serif:id="Right side">
                <path id="path11251" d="M-736.121,147.52L-736.121,247.52L-649.519,297.52L-649.519,197.52L-736.121,147.52Z" style="fill:rgb(205,216,225);fill-rule:nonzero;"/>
                <g id="path11257" transform="matrix(0.866025,0.5,-4.80741e-17,1,-96.8812,361.566)">
                    <rect x="-729.798" y="163.353" width="8.333" height="83.333" style="fill:rgb(110,141,161);fill-rule:nonzero;"/>
                </g>
                <g id="path112571" serif:id="path11257" transform="matrix(0.866025,0.5,-4.80741e-17,1,-82.4474,369.899)">
                    <rect x="-729.798" y="163.353" width="8.333" height="83.333" style="fill:rgb(110,141,161);fill-rule:nonzero;"/>
                </g>
                <g id="path112572" serif:id="path11257" transform="matrix(0.866025,0.5,-4.80741e-17,1,-68.0136,378.232)">
                    <rect x="-729.798" y="163.353" width="8.333" height="83.333" style="fill:rgb(110,141,161);fill-rule:nonzero;"/>
                </g>
                <g id="path112573" serif:id="path11257" transform="matrix(0.866025,0.5,-4.80741e-17,1,-53.5799,386.566)">
                    <rect x="-729.798" y="163.353" width="8.333" height="83.333" style="fill:rgb(110,141,161);fill-rule:nonzero;"/>
                </g>
                <g id="path112574" serif:id="path11257" transform="matrix(0.866025,0.5,-4.80741e-17,1,-39.1462,394.899)">
                    <rect x="-729.798" y="163.353" width="8.333" height="83.333" style="fill:rgb(110,141,161);fill-rule:nonzero;"/>
                </g>
                <g id="path11259" transform="matrix(0.866025,0.5,-4.80741e-17,1,-96.8812,361.566)">
                    <path d="M-729.798,163.353L-729.798,246.686L-721.464,246.686" style="fill:none;fill-rule:nonzero;stroke:rgb(80,106,123);stroke-width:1.63px;"/>
                </g>
                <g id="path112591" serif:id="path11259" transform="matrix(0.866025,0.5,-4.80741e-17,1,-82.4474,369.899)">
                    <path d="M-729.798,163.353L-729.798,246.686L-721.464,246.686" style="fill:none;fill-rule:nonzero;stroke:rgb(80,106,123);stroke-width:1.63px;"/>
                </g>
                <g id="path112592" serif:id="path11259" transform="matrix(0.866025,0.5,-4.80741e-17,1,-68.0136,378.232)">
                    <path d="M-729.798,163.353L-729.798,246.686L-721.464,246.686" style="fill:none;fill-rule:nonzero;stroke:rgb(80,106,123);stroke-width:1.63px;"/>
                </g>
                <g id="path112593" serif:id="path11259" transform="matrix(0.866025,0.5,-4.80741e-17,1,-53.5799,386.566)">
                    <path d="M-729.798,163.353L-729.798,246.686L-721.464,246.686" style="fill:none;fill-rule:nonzero;stroke:rgb(80,106,123);stroke-width:1.63px;"/>
                </g>
                <g id="path112594" serif:id="path11259" transform="matrix(0.866025,0.5,-4.80741e-17,1,-39.1462,394.899)">
                    <path d="M-729.798,163.353L-729.798,246.686L-721.464,246.686" style="fill:none;fill-rule:nonzero;stroke:rgb(80,106,123);stroke-width:1.63px;"/>
                </g>
            </g>
            <path id="Top" d="M-692.82,122.52L-649.519,97.52L-562.916,147.52L-649.519,197.52L-736.121,147.52L-692.82,122.52Z" style="fill:rgb(241,244,247);fill-rule:nonzero;"/>
            <g id="Door-letft" serif:id="Door letft" transform="matrix(1,0,0,1,-43.3014,25.0001)">
                <path id="path11291" d="M-562.916,147.52L-519.615,122.52L-519.615,222.52L-562.916,247.52L-562.916,147.52Z" style="fill:rgb(141,165,180);fill-rule:nonzero;"/>
                <g id="path11295" transform="matrix(0.866025,-0.5,4.80741e-17,1,38.7341,-412.363)">
                    <rect x="-686.393" y="229.186" width="33.333" height="8.333" style="fill:rgb(110,141,161);fill-rule:nonzero;"/>
                </g>
                <g id="path112951" serif:id="path11295" transform="matrix(0.866025,-0.5,4.80741e-17,1,38.7341,-395.696)">
                    <rect x="-686.393" y="229.186" width="33.333" height="8.333" style="fill:rgb(110,141,161);fill-rule:nonzero;"/>
                </g>
                <g id="path112952" serif:id="path11295" transform="matrix(0.866025,-0.5,4.80741e-17,1,38.7341,-370.696)">
                    <rect x="-686.393" y="229.186" width="33.333" height="8.333" style="fill:rgb(110,141,161);fill-rule:nonzero;"/>
                </g>
                <g id="path112953" serif:id="path11295" transform="matrix(0.866025,-0.5,4.80741e-17,1,38.7341,-354.03)">
                    <rect x="-686.393" y="229.186" width="33.333" height="8.333" style="fill:rgb(110,141,161);fill-rule:nonzero;"/>
                </g>
                <g id="path11297" transform="matrix(0.866025,-0.5,4.80741e-17,1,39.9841,-410.585)">
                    <path d="M-654.503,226.686L-654.503,235.02L-687.836,235.02" style="fill:none;fill-rule:nonzero;stroke:rgb(80,106,123);stroke-width:2px;"/>
                </g>
                <g id="path112971" serif:id="path11297" transform="matrix(0.866025,-0.5,4.80741e-17,1,39.9841,-393.918)">
                    <path d="M-654.503,226.686L-654.503,235.02L-687.836,235.02" style="fill:none;fill-rule:nonzero;stroke:rgb(80,106,123);stroke-width:2px;"/>
                </g>
                <g id="path112972" serif:id="path11297" transform="matrix(0.866025,-0.5,4.80741e-17,1,39.9841,-368.918)">
                    <path d="M-654.503,226.686L-654.503,235.02L-687.836,235.02" style="fill:none;fill-rule:nonzero;stroke:rgb(80,106,123);stroke-width:2px;"/>
                </g>
                <g id="path112973" serif:id="path11297" transform="matrix(0.866025,-0.5,4.80741e-17,1,39.9841,-352.251)">
                    <path d="M-654.503,226.686L-654.503,235.02L-687.836,235.02" style="fill:none;fill-rule:nonzero;stroke:rgb(80,106,123);stroke-width:2px;"/>
                </g>
            </g>
            <g id="Door-right" serif:id="Door right" transform="matrix(1,0,0,1,43.3013,-25)">
                <path id="path11293" d="M-649.519,297.52L-649.519,197.52L-692.82,222.52L-692.82,322.52L-649.519,297.52Z" style="fill:rgb(141,165,180);fill-rule:nonzero;"/>
                <g id="path112954" serif:id="path11295" transform="matrix(0.866025,-0.5,4.80741e-17,1,-91.1697,-337.363)">
                    <rect x="-686.393" y="229.186" width="33.333" height="8.333" style="fill:rgb(110,141,161);fill-rule:nonzero;"/>
                </g>
                <g id="path112955" serif:id="path11295" transform="matrix(0.866025,-0.5,4.80741e-17,1,-91.1697,-320.696)">
                    <rect x="-686.393" y="229.186" width="33.333" height="8.333" style="fill:rgb(110,141,161);fill-rule:nonzero;"/>
                </g>
                <g id="path112956" serif:id="path11295" transform="matrix(0.866025,-0.5,4.80741e-17,1,-91.1697,-295.696)">
                    <rect x="-686.393" y="229.186" width="33.333" height="8.333" style="fill:rgb(110,141,161);fill-rule:nonzero;"/>
                </g>
                <g id="path112957" serif:id="path11295" transform="matrix(0.866025,-0.5,4.80741e-17,1,-91.1697,-279.03)">
                    <rect x="-686.393" y="229.186" width="33.333" height="8.333" style="fill:rgb(110,141,161);fill-rule:nonzero;"/>
                </g>
                <g id="path112974" serif:id="path11297" transform="matrix(0.866025,-0.5,4.80741e-17,1,-89.9197,-335.585)">
                    <path d="M-654.503,226.686L-654.503,235.02L-687.836,235.02" style="fill:none;fill-rule:nonzero;stroke:rgb(80,106,123);stroke-width:2px;"/>
                </g>
                <g id="path112975" serif:id="path11297" transform="matrix(0.866025,-0.5,4.80741e-17,1,-89.9197,-318.918)">
                    <path d="M-654.503,226.686L-654.503,235.02L-687.836,235.02" style="fill:none;fill-rule:nonzero;stroke:rgb(80,106,123);stroke-width:2px;"/>
                </g>
                <g id="path112976" serif:id="path11297" transform="matrix(0.866025,-0.5,4.80741e-17,1,-89.9197,-293.918)">
                    <path d="M-654.503,226.686L-654.503,235.02L-687.836,235.02" style="fill:none;fill-rule:nonzero;stroke:rgb(80,106,123);stroke-width:2px;"/>
                </g>
                <g id="path112977" serif:id="path11297" transform="matrix(0.866025,-0.5,4.80741e-17,1,-89.9197,-277.251)">
                    <path d="M-654.503,226.686L-654.503,235.02L-687.836,235.02" style="fill:none;fill-rule:nonzero;stroke:rgb(80,106,123);stroke-width:2px;"/>
                </g>
            </g>
            <g transform="matrix(1,0,0,1,-1089.75,-681.647)">
                <path d="M483.531,854.167L483.531,954.167" style="fill:none;stroke:rgb(80,106,123);stroke-width:1px;stroke-linejoin:round;stroke-miterlimit:1.5;"/>
            </g>
            <g transform="matrix(0.506732,0,0,0.506732,-1206.46,-459.288)">
                <g transform="matrix(0.649519,-0.375,5.55112e-17,1.1547,443.838,-356.25)">
                    <rect x="1050" y="1818.65" width="200" height="86.603" style="fill:rgb(105,135,153);"/>
                </g>
                <g transform="matrix(0.57735,-0.333333,3.58365e-17,0.659829,526.832,489.881)">
                    <g transform="matrix(42.75,0,0,49.875,1053.43,1883.72)">
                        <path d="M0.32,-0.108L0.205,-0.564L0.205,-0.07C0.205,-0.042 0.199,-0.022 0.187,-0.008C0.175,0.005 0.158,0.012 0.138,0.012C0.119,0.012 0.103,0.005 0.09,-0.008C0.078,-0.022 0.072,-0.042 0.072,-0.07L0.072,-0.636C0.072,-0.667 0.08,-0.689 0.096,-0.699C0.112,-0.71 0.134,-0.716 0.162,-0.716L0.207,-0.716C0.234,-0.716 0.254,-0.713 0.266,-0.708C0.278,-0.704 0.287,-0.695 0.293,-0.682C0.299,-0.669 0.306,-0.649 0.313,-0.62L0.417,-0.228L0.521,-0.62C0.528,-0.649 0.535,-0.669 0.541,-0.682C0.547,-0.695 0.556,-0.704 0.568,-0.708C0.58,-0.713 0.6,-0.716 0.627,-0.716L0.672,-0.716C0.7,-0.716 0.722,-0.71 0.738,-0.699C0.754,-0.689 0.762,-0.667 0.762,-0.636L0.762,-0.07C0.762,-0.042 0.756,-0.022 0.744,-0.008C0.732,0.005 0.715,0.012 0.695,0.012C0.676,0.012 0.66,0.005 0.647,-0.008C0.635,-0.022 0.629,-0.042 0.629,-0.07L0.629,-0.564L0.514,-0.108C0.507,-0.078 0.501,-0.057 0.496,-0.043C0.491,-0.029 0.482,-0.016 0.47,-0.005C0.457,0.007 0.439,0.012 0.417,0.012C0.4,0.012 0.386,0.009 0.374,0.001C0.362,-0.006 0.353,-0.015 0.347,-0.027C0.34,-0.038 0.335,-0.051 0.331,-0.065C0.328,-0.079 0.324,-0.093 0.32,-0.108Z" style="fill:white;fill-rule:nonzero;"/>
                    </g>
                    <g transform="matrix(42.75,0,0,49.875,1089.04,1883.72)">
                        <path d="M0.441,-0.226L0.18,-0.226C0.181,-0.196 0.187,-0.169 0.198,-0.146C0.21,-0.123 0.226,-0.105 0.246,-0.094C0.266,-0.082 0.287,-0.076 0.311,-0.076C0.327,-0.076 0.342,-0.078 0.355,-0.082C0.368,-0.086 0.381,-0.091 0.393,-0.099C0.405,-0.107 0.417,-0.116 0.427,-0.125C0.438,-0.134 0.451,-0.146 0.468,-0.162C0.475,-0.168 0.484,-0.171 0.497,-0.171C0.511,-0.171 0.522,-0.167 0.53,-0.16C0.539,-0.152 0.543,-0.142 0.543,-0.128C0.543,-0.116 0.538,-0.102 0.529,-0.086C0.519,-0.07 0.505,-0.054 0.486,-0.039C0.467,-0.024 0.443,-0.012 0.414,-0.002C0.385,0.007 0.352,0.012 0.315,0.012C0.229,0.012 0.163,-0.012 0.115,-0.061C0.068,-0.11 0.044,-0.176 0.044,-0.26C0.044,-0.299 0.05,-0.336 0.062,-0.369C0.073,-0.403 0.09,-0.432 0.113,-0.456C0.135,-0.48 0.163,-0.499 0.196,-0.511C0.229,-0.524 0.265,-0.531 0.305,-0.531C0.357,-0.531 0.402,-0.52 0.439,-0.498C0.476,-0.476 0.504,-0.447 0.523,-0.413C0.542,-0.378 0.551,-0.342 0.551,-0.306C0.551,-0.273 0.541,-0.251 0.522,-0.241C0.503,-0.231 0.476,-0.226 0.441,-0.226ZM0.18,-0.302L0.422,-0.302C0.419,-0.347 0.406,-0.381 0.385,-0.404C0.364,-0.427 0.336,-0.438 0.301,-0.438C0.268,-0.438 0.24,-0.427 0.219,-0.404C0.198,-0.381 0.185,-0.347 0.18,-0.302Z" style="fill:white;fill-rule:nonzero;"/>
                    </g>
                    <g transform="matrix(42.75,0,0,49.875,1114.44,1883.72)">
                        <path d="M0.076,-0.518L0.091,-0.518L0.091,-0.598C0.091,-0.62 0.091,-0.636 0.093,-0.649C0.094,-0.661 0.097,-0.671 0.102,-0.68C0.107,-0.689 0.115,-0.697 0.125,-0.702C0.134,-0.708 0.145,-0.711 0.157,-0.711C0.174,-0.711 0.189,-0.705 0.203,-0.692C0.212,-0.683 0.218,-0.673 0.22,-0.661C0.223,-0.649 0.224,-0.631 0.224,-0.609L0.224,-0.518L0.273,-0.518C0.292,-0.518 0.306,-0.514 0.316,-0.505C0.326,-0.496 0.331,-0.484 0.331,-0.47C0.331,-0.452 0.324,-0.44 0.31,-0.433C0.296,-0.425 0.275,-0.422 0.249,-0.422L0.224,-0.422L0.224,-0.177C0.224,-0.156 0.225,-0.14 0.226,-0.129C0.228,-0.117 0.232,-0.108 0.238,-0.101C0.244,-0.094 0.255,-0.091 0.269,-0.091C0.277,-0.091 0.287,-0.092 0.301,-0.095C0.314,-0.098 0.325,-0.099 0.332,-0.099C0.343,-0.099 0.352,-0.095 0.361,-0.086C0.37,-0.078 0.374,-0.067 0.374,-0.054C0.374,-0.033 0.362,-0.016 0.339,-0.005C0.315,0.007 0.282,0.012 0.238,0.012C0.196,0.012 0.165,0.005 0.143,-0.009C0.122,-0.023 0.108,-0.042 0.101,-0.067C0.094,-0.092 0.091,-0.125 0.091,-0.166L0.091,-0.422L0.073,-0.422C0.054,-0.422 0.039,-0.426 0.029,-0.436C0.019,-0.445 0.014,-0.456 0.014,-0.47C0.014,-0.484 0.019,-0.496 0.03,-0.505C0.041,-0.514 0.056,-0.518 0.076,-0.518Z" style="fill:white;fill-rule:nonzero;"/>
                    </g>
                    <g transform="matrix(42.75,0,0,49.875,1129.57,1883.72)">
                        <path d="M0.406,-0.063C0.374,-0.038 0.342,-0.019 0.312,-0.007C0.282,0.006 0.248,0.012 0.211,0.012C0.177,0.012 0.147,0.005 0.121,-0.008C0.095,-0.022 0.075,-0.04 0.061,-0.063C0.047,-0.086 0.04,-0.111 0.04,-0.138C0.04,-0.175 0.052,-0.206 0.075,-0.231C0.098,-0.257 0.13,-0.274 0.17,-0.283C0.178,-0.285 0.199,-0.29 0.233,-0.296C0.266,-0.303 0.295,-0.309 0.319,-0.315C0.343,-0.321 0.369,-0.328 0.397,-0.336C0.395,-0.371 0.388,-0.397 0.376,-0.413C0.363,-0.43 0.337,-0.438 0.298,-0.438C0.264,-0.438 0.239,-0.433 0.221,-0.424C0.204,-0.414 0.19,-0.4 0.177,-0.381C0.165,-0.362 0.157,-0.35 0.152,-0.344C0.147,-0.338 0.136,-0.335 0.119,-0.335C0.104,-0.335 0.091,-0.34 0.08,-0.349C0.069,-0.359 0.064,-0.371 0.064,-0.386C0.064,-0.41 0.072,-0.432 0.089,-0.455C0.105,-0.477 0.131,-0.495 0.167,-0.509C0.202,-0.524 0.245,-0.531 0.298,-0.531C0.356,-0.531 0.403,-0.524 0.436,-0.51C0.47,-0.496 0.493,-0.474 0.507,-0.444C0.521,-0.414 0.528,-0.375 0.528,-0.325C0.528,-0.294 0.528,-0.267 0.528,-0.246C0.527,-0.224 0.527,-0.2 0.527,-0.173C0.527,-0.148 0.531,-0.122 0.539,-0.094C0.548,-0.067 0.552,-0.05 0.552,-0.042C0.552,-0.028 0.545,-0.016 0.532,-0.005C0.52,0.007 0.505,0.012 0.489,0.012C0.475,0.012 0.462,0.006 0.448,-0.007C0.435,-0.02 0.421,-0.039 0.406,-0.063ZM0.397,-0.256C0.377,-0.249 0.349,-0.241 0.312,-0.233C0.274,-0.225 0.249,-0.219 0.234,-0.216C0.22,-0.212 0.206,-0.205 0.193,-0.194C0.18,-0.183 0.174,-0.167 0.174,-0.148C0.174,-0.128 0.181,-0.111 0.197,-0.096C0.212,-0.082 0.232,-0.075 0.257,-0.075C0.283,-0.075 0.308,-0.081 0.33,-0.093C0.352,-0.104 0.368,-0.119 0.379,-0.137C0.391,-0.157 0.397,-0.191 0.397,-0.237L0.397,-0.256Z" style="fill:white;fill-rule:nonzero;"/>
                    </g>
                    <g transform="matrix(42.75,0,0,49.875,1154.98,1883.72)">
                        <path d="M0.434,-0.064L0.434,-0.077C0.416,-0.057 0.399,-0.04 0.381,-0.027C0.364,-0.014 0.345,-0.004 0.324,0.002C0.304,0.009 0.282,0.012 0.258,0.012C0.226,0.012 0.196,0.005 0.169,-0.008C0.142,-0.022 0.118,-0.041 0.099,-0.066C0.079,-0.091 0.064,-0.12 0.053,-0.154C0.043,-0.188 0.038,-0.225 0.038,-0.264C0.038,-0.347 0.058,-0.412 0.099,-0.459C0.14,-0.506 0.193,-0.529 0.26,-0.529C0.298,-0.529 0.331,-0.522 0.357,-0.509C0.383,-0.496 0.409,-0.476 0.434,-0.448L0.434,-0.645C0.434,-0.672 0.44,-0.693 0.45,-0.707C0.461,-0.721 0.477,-0.728 0.497,-0.728C0.517,-0.728 0.533,-0.722 0.544,-0.709C0.555,-0.696 0.56,-0.677 0.56,-0.652L0.56,-0.064C0.56,-0.039 0.554,-0.02 0.542,-0.007C0.531,0.006 0.516,0.012 0.497,0.012C0.479,0.012 0.464,0.006 0.452,-0.008C0.44,-0.021 0.434,-0.04 0.434,-0.064ZM0.172,-0.26C0.172,-0.224 0.177,-0.193 0.189,-0.167C0.2,-0.142 0.215,-0.123 0.235,-0.11C0.254,-0.097 0.276,-0.091 0.299,-0.091C0.322,-0.091 0.344,-0.097 0.363,-0.109C0.382,-0.121 0.398,-0.14 0.409,-0.165C0.421,-0.191 0.427,-0.222 0.427,-0.26C0.427,-0.295 0.421,-0.326 0.409,-0.351C0.398,-0.377 0.382,-0.396 0.363,-0.41C0.343,-0.423 0.321,-0.43 0.298,-0.43C0.273,-0.43 0.252,-0.423 0.232,-0.409C0.213,-0.396 0.198,-0.376 0.188,-0.35C0.177,-0.324 0.172,-0.294 0.172,-0.26Z" style="fill:white;fill-rule:nonzero;"/>
                    </g>
                    <g transform="matrix(42.75,0,0,49.875,1181.7,1883.72)">
                        <path d="M0.406,-0.063C0.374,-0.038 0.342,-0.019 0.312,-0.007C0.282,0.006 0.248,0.012 0.211,0.012C0.177,0.012 0.147,0.005 0.121,-0.008C0.095,-0.022 0.075,-0.04 0.061,-0.063C0.047,-0.086 0.04,-0.111 0.04,-0.138C0.04,-0.175 0.052,-0.206 0.075,-0.231C0.098,-0.257 0.13,-0.274 0.17,-0.283C0.178,-0.285 0.199,-0.29 0.233,-0.296C0.266,-0.303 0.295,-0.309 0.319,-0.315C0.343,-0.321 0.369,-0.328 0.397,-0.336C0.395,-0.371 0.388,-0.397 0.376,-0.413C0.363,-0.43 0.337,-0.438 0.298,-0.438C0.264,-0.438 0.239,-0.433 0.221,-0.424C0.204,-0.414 0.19,-0.4 0.177,-0.381C0.165,-0.362 0.157,-0.35 0.152,-0.344C0.147,-0.338 0.136,-0.335 0.119,-0.335C0.104,-0.335 0.091,-0.34 0.08,-0.349C0.069,-0.359 0.064,-0.371 0.064,-0.386C0.064,-0.41 0.072,-0.432 0.089,-0.455C0.105,-0.477 0.131,-0.495 0.167,-0.509C0.202,-0.524 0.245,-0.531 0.298,-0.531C0.356,-0.531 0.403,-0.524 0.436,-0.51C0.47,-0.496 0.493,-0.474 0.507,-0.444C0.521,-0.414 0.528,-0.375 0.528,-0.325C0.528,-0.294 0.528,-0.267 0.528,-0.246C0.527,-0.224 0.527,-0.2 0.527,-0.173C0.527,-0.148 0.531,-0.122 0.539,-0.094C0.548,-0.067 0.552,-0.05 0.552,-0.042C0.552,-0.028 0.545,-0.016 0.532,-0.005C0.52,0.007 0.505,0.012 0.489,0.012C0.475,0.012 0.462,0.006 0.448,-0.007C0.435,-0.02 0.421,-0.039 0.406,-0.063ZM0.397,-0.256C0.377,-0.249 0.349,-0.241 0.312,-0.233C0.274,-0.225 0.249,-0.219 0.234,-0.216C0.22,-0.212 0.206,-0.205 0.193,-0.194C0.18,-0.183 0.174,-0.167 0.174,-0.148C0.174,-0.128 0.181,-0.111 0.197,-0.096C0.212,-0.082 0.232,-0.075 0.257,-0.075C0.283,-0.075 0.308,-0.081 0.33,-0.093C0.352,-0.104 0.368,-0.119 0.379,-0.137C0.391,-0.157 0.397,-0.191 0.397,-0.237L0.397,-0.256Z" style="fill:white;fill-rule:nonzero;"/>
                    </g>
                    <g transform="matrix(42.75,0,0,49.875,1206.04,1883.72)">
                        <path d="M0.076,-0.518L0.091,-0.518L0.091,-0.598C0.091,-0.62 0.091,-0.636 0.093,-0.649C0.094,-0.661 0.097,-0.671 0.102,-0.68C0.107,-0.689 0.115,-0.697 0.125,-0.702C0.134,-0.708 0.145,-0.711 0.157,-0.711C0.174,-0.711 0.189,-0.705 0.203,-0.692C0.212,-0.683 0.218,-0.673 0.22,-0.661C0.223,-0.649 0.224,-0.631 0.224,-0.609L0.224,-0.518L0.273,-0.518C0.292,-0.518 0.306,-0.514 0.316,-0.505C0.326,-0.496 0.331,-0.484 0.331,-0.47C0.331,-0.452 0.324,-0.44 0.31,-0.433C0.296,-0.425 0.275,-0.422 0.249,-0.422L0.224,-0.422L0.224,-0.177C0.224,-0.156 0.225,-0.14 0.226,-0.129C0.228,-0.117 0.232,-0.108 0.238,-0.101C0.244,-0.094 0.255,-0.091 0.269,-0.091C0.277,-0.091 0.287,-0.092 0.301,-0.095C0.314,-0.098 0.325,-0.099 0.332,-0.099C0.343,-0.099 0.352,-0.095 0.361,-0.086C0.37,-0.078 0.374,-0.067 0.374,-0.054C0.374,-0.033 0.362,-0.016 0.339,-0.005C0.315,0.007 0.282,0.012 0.238,0.012C0.196,0.012 0.165,0.005 0.143,-0.009C0.122,-0.023 0.108,-0.042 0.101,-0.067C0.094,-0.092 0.091,-0.125 0.091,-0.166L0.091,-0.422L0.073,-0.422C0.054,-0.422 0.039,-0.426 0.029,-0.436C0.019,-0.445 0.014,-0.456 0.014,-0.47C0.014,-0.484 0.019,-0.496 0.03,-0.505C0.041,-0.514 0.056,-0.518 0.076,-0.518Z" style="fill:white;fill-rule:nonzero;"/>
                    </g>
                    <g transform="matrix(42.75,0,0,49.875,1221.17,1883.72)">
                        <path d="M0.406,-0.063C0.374,-0.038 0.342,-0.019 0.312,-0.007C0.282,0.006 0.248,0.012 0.211,0.012C0.177,0.012 0.147,0.005 0.121,-0.008C0.095,-0.022 0.075,-0.04 0.061,-0.063C0.047,-0.086 0.04,-0.111 0.04,-0.138C0.04,-0.175 0.052,-0.206 0.075,-0.231C0.098,-0.257 0.13,-0.274 0.17,-0.283C0.178,-0.285 0.199,-0.29 0.233,-0.296C0.266,-0.303 0.295,-0.309 0.319,-0.315C0.343,-0.321 0.369,-0.328 0.397,-0.336C0.395,-0.371 0.388,-0.397 0.376,-0.413C0.363,-0.43 0.337,-0.438 0.298,-0.438C0.264,-0.438 0.239,-0.433 0.221,-0.424C0.204,-0.414 0.19,-0.4 0.177,-0.381C0.165,-0.362 0.157,-0.35 0.152,-0.344C0.147,-0.338 0.136,-0.335 0.119,-0.335C0.104,-0.335 0.091,-0.34 0.08,-0.349C0.069,-0.359 0.064,-0.371 0.064,-0.386C0.064,-0.41 0.072,-0.432 0.089,-0.455C0.105,-0.477 0.131,-0.495 0.167,-0.509C0.202,-0.524 0.245,-0.531 0.298,-0.531C0.356,-0.531 0.403,-0.524 0.436,-0.51C0.47,-0.496 0.493,-0.474 0.507,-0.444C0.521,-0.414 0.528,-0.375 0.528,-0.325C0.528,-0.294 0.528,-0.267 0.528,-0.246C0.527,-0.224 0.527,-0.2 0.527,-0.173C0.527,-0.148 0.531,-0.122 0.539,-0.094C0.548,-0.067 0.552,-0.05 0.552,-0.042C0.552,-0.028 0.545,-0.016 0.532,-0.005C0.52,0.007 0.505,0.012 0.489,0.012C0.475,0.012 0.462,0.006 0.448,-0.007C0.435,-0.02 0.421,-0.039 0.406,-0.063ZM0.397,-0.256C0.377,-0.249 0.349,-0.241 0.312,-0.233C0.274,-0.225 0.249,-0.219 0.234,-0.216C0.22,-0.212 0.206,-0.205 0.193,-0.194C0.18,-0.183 0.174,-0.167 0.174,-0.148C0.174,-0.128 0.181,-0.111 0.197,-0.096C0.212,-0.082 0.232,-0.075 0.257,-0.075C0.283,-0.075 0.308,-0.081 0.33,-0.093C0.352,-0.104 0.368,-0.119 0.379,-0.137C0.391,-0.157 0.397,-0.191 0.397,-0.237L0.397,-0.256Z" style="fill:white;fill-rule:nonzero;"/>
                    </g>
                </g>
                <g transform="matrix(0.866025,0.5,-5.55112e-17,1.1547,202.073,-133.333)">
                    <rect x="1058.33" y="822.724" width="8.333" height="86.603" style="fill:rgb(181,197,209);"/>
                </g>
                <g transform="matrix(0.649519,-0.375,1,0.57735,-3.60844,-14.5833)">
                    <rect x="-950" y="1739.27" width="200" height="7.217" style="fill:rgb(213,222,232);"/>
                </g>
                <g transform="matrix(1,0,0,1,209.289,-137.5)">
                    <path d="M930.977,1529.17L981.495,1500" style="fill:none;stroke:white;stroke-width:3.95px;stroke-linejoin:round;stroke-miterlimit:1.5;"/>
                </g>
                <g transform="matrix(1,0,0,1,288.675,-183.333)">
                    <path d="M916.544,1537.5L930.977,1529.17" style="fill:none;stroke:white;stroke-width:3.95px;stroke-linejoin:round;stroke-miterlimit:1.5;"/>
                </g>
                <g transform="matrix(1,0,0,1,288.675,-158.333)">
                    <path d="M916.544,1537.5L930.977,1529.17" style="fill:none;stroke:white;stroke-width:1.97px;stroke-linejoin:round;stroke-miterlimit:1.5;"/>
                </g>
                <g transform="matrix(0.866025,-0.5,4.80741e-17,1,376.127,341.176)">
                    <path d="M949.02,1533.33L949.02,1491.67" style="fill:none;stroke:white;stroke-width:1.4px;stroke-linejoin:round;stroke-miterlimit:1.5;"/>
                </g>
                <g transform="matrix(1,0,0,1,209.289,-129.167)">
                    <path d="M930.977,1529.17L967.062,1508.33" style="fill:none;stroke:white;stroke-width:1.97px;stroke-linejoin:round;stroke-miterlimit:1.5;"/>
                </g>
                <g transform="matrix(1,0,0,1,274.241,-166.667)">
                    <path d="M930.977,1529.17L967.062,1508.33" style="fill:none;stroke:white;stroke-width:1.97px;stroke-linejoin:round;stroke-miterlimit:1.5;"/>
                </g>
                <g transform="matrix(1,0,0,1,274.241,-158.333)">
                    <path d="M930.977,1529.17L967.062,1508.33" style="fill:none;stroke:white;stroke-width:1.97px;stroke-linejoin:round;stroke-miterlimit:1.5;"/>
                </g>
                <g transform="matrix(1,0,0,1,274.241,-141.667)">
                    <path d="M930.977,1529.17L967.062,1508.33" style="fill:none;stroke:white;stroke-width:1.97px;stroke-linejoin:round;stroke-miterlimit:1.5;"/>
                </g>
                <g transform="matrix(1,0,0,1,209.289,-120.833)">
                    <path d="M930.977,1529.17L967.062,1508.33" style="fill:none;stroke:white;stroke-width:1.97px;stroke-linejoin:round;stroke-miterlimit:1.5;"/>
                </g>
                <g transform="matrix(1,0,0,1,209.289,-112.5)">
                    <path d="M930.977,1529.17L967.062,1508.33" style="fill:none;stroke:white;stroke-width:1.97px;stroke-linejoin:round;stroke-miterlimit:1.5;"/>
                </g>
                <g transform="matrix(1,0,0,1,209.289,-104.167)">
                    <path d="M930.977,1529.17L967.062,1508.33" style="fill:none;stroke:white;stroke-width:1.97px;stroke-linejoin:round;stroke-miterlimit:1.5;"/>
                </g>
            </g>
        </g>
    </g>
</svg>
