<?xml version="1.0" encoding="UTF-8" standalone="no"?>
<!DOCTYPE svg PUBLIC "-//W3C//DTD SVG 1.1//EN" "http://www.w3.org/Graphics/SVG/1.1/DTD/svg11.dtd">
<svg width="100%" height="100%" viewBox="0 0 217 201" version="1.1" xmlns="http://www.w3.org/2000/svg" xmlns:xlink="http://www.w3.org/1999/xlink" xml:space="preserve" xmlns:serif="http://www.serif.com/" style="fill-rule:evenodd;clip-rule:evenodd;">
    <g transform="matrix(1,0,0,1,-86.6026,-1050)">
        <g id="Container-deconstructed" serif:id="Container deconstructed" transform="matrix(1,0,0,1,-1255.74,-58.3334)">
            <g transform="matrix(1,0,0,1,-483.532,-304.14)">
                <path d="M1912.47,1612.47L1955.78,1612.47L2020.73,1574.97L2013.51,1570.81L2042.38,1554.14L1999.08,1529.14L1999.08,1562.47L1912.47,1612.47Z" style="fill-opacity:0.2;"/>
            </g>
            <g transform="matrix(0.368521,-0.212765,1.9199e-17,0.488527,974.433,588.052)">
                <rect x="998.333" y="1602.15" width="235.001" height="187.639" style="fill:rgb(217,217,217);"/>
            </g>
            <g transform="matrix(0.368521,0.212765,0,0.488527,1061.04,113.23)">
                <rect x="998.333" y="1602.15" width="235.001" height="187.639" style="fill:rgb(230,230,230);"/>
            </g>
            <g transform="matrix(0.461538,0,0,0.461538,1269.06,608.333)">
                <g id="Base-image" serif:id="Base image" transform="matrix(1,0,0,1,-606.218,850)">
                    <g transform="matrix(0.938194,-0.541667,4.21506e-15,1.25093,-79.3857,-55.5556)">
                        <rect x="1100" y="1039.23" width="200" height="14.434" style="fill:rgb(13,89,127);"/>
                    </g>
                    <g transform="matrix(0.938194,0.541667,4.2096e-15,1.25093,-79.3857,-55.5556)">
                        <rect x="900" y="86.603" width="200" height="14.434" style="fill:rgb(37,106,140);"/>
                    </g>
                    <g transform="matrix(0.938194,0.541667,-0.99109,0.572206,1797.76,-1.82889)">
                        <rect x="-50" y="805.403" width="200" height="189.326" style="fill:rgb(61,122,153);"/>
                    </g>
                </g>
                <g>
                    <g id="path58" transform="matrix(0.800615,0.462235,0.800615,-0.462235,317.432,1397.91)">
                        <path d="M0,0L0,15.687L-11.296,4.379C-10.079,3.532 -8.932,2.836 -7.853,2.27C-6.774,1.703 -5.764,1.265 -4.823,0.932C-3.882,0.598 -3.009,0.37 -2.206,0.222C-1.402,0.075 -0.667,0.009 0,0M57.751,1.304C57.771,1.287 57.881,1.194 58.084,1.065C58.288,0.935 58.586,0.768 58.982,0.603C59.377,0.439 59.871,0.276 60.467,0.155C61.063,0.033 61.761,-0.047 62.565,-0.047C63.236,-0.047 63.976,0.012 64.787,0.153C65.599,0.295 66.48,0.52 67.432,0.852C68.385,1.185 69.408,1.625 70.502,2.196C71.596,2.768 72.761,3.472 73.997,4.332L65.425,12.729L37.015,41.245L24.549,28.776L7.733,46.117L-34.471,4.39C-33.236,3.53 -32.073,2.826 -30.98,2.254C-29.887,1.683 -28.865,1.243 -27.913,0.91C-26.962,0.578 -26.081,0.353 -25.27,0.212C-24.46,0.07 -23.72,0.011 -23.05,0.011C-22.246,0.011 -21.548,0.091 -20.953,0.213C-20.357,0.334 -19.864,0.497 -19.468,0.662C-19.072,0.826 -18.775,0.993 -18.571,1.123C-18.367,1.253 -18.257,1.346 -18.237,1.363L0.815,20.415L7.628,26.948L26.494,8.082L33.085,1.304C33.105,1.287 33.215,1.194 33.419,1.065C33.623,0.935 33.92,0.768 34.316,0.603C34.712,0.439 35.206,0.276 35.801,0.155C36.397,0.033 37.096,-0.047 37.9,-0.047C38.57,-0.047 39.311,0.012 40.122,0.153C40.933,0.295 41.815,0.52 42.767,0.852C43.719,1.185 44.742,1.625 45.836,2.196C46.93,2.768 48.095,3.472 49.331,4.332L34.192,19.157L37.01,21.975L50.111,8.874L57.751,1.304M57.588,80.32L94.807,15.838L57.588,-48.644L-16.875,-48.644L-54.094,15.838L-16.875,80.32L57.588,80.32Z" style="fill:white;fill-rule:nonzero;"/>
                    </g>
                    <g id="path62" transform="matrix(-0.581612,-0.335794,-0.581612,0.335794,336.436,1396.35)">
                        <path d="M0,0L-9.913,9.895L-9.208,10.604L0.775,0.73L0,0Z" style="fill:white;fill-rule:nonzero;"/>
                    </g>
                </g>
            </g>
            <g id="Folder" transform="matrix(0.582411,0,0,0.582411,1202.18,1085.84)">
                <g id="path23103" transform="matrix(0.264583,0,0,0.264583,-2088.72,-3716.4)">
                    <path d="M8876.32,14991.1L8876.32,14613.2L9236.37,14613.2L9236.37,14726.5L9203.64,14745.4L9203.64,14991.1L8876.32,14991.1Z" style="fill:rgb(211,188,95);fill-rule:nonzero;"/>
                </g>
                <g id="path23128" transform="matrix(0.264583,0,0,0.264583,-2088.72,-3716.4)">
                    <rect x="8909.06" y="14632.1" width="261.854" height="377.953" style="fill:rgb(249,249,249);fill-rule:nonzero;stroke:rgb(204,204,204);stroke-width:3.78px;"/>
                </g>
                <g id="path23144" transform="matrix(0.264583,0,0,0.264583,-2088.72,-3716.4)">
                    <path d="M9138.18,14650.9L8909.06,14632.1L8909.06,15010L9138.18,15028.9L9138.18,14650.9Z" style="fill:rgb(249,249,249);fill-rule:nonzero;stroke:rgb(204,204,204);stroke-width:3.78px;"/>
                </g>
                <g id="path23160" transform="matrix(0.264583,0,0,0.264583,-2088.72,-3716.4)">
                    <path d="M8909.06,14632.1L9105.44,14669.8L9105.44,15047.8L8909.06,15010L8909.06,14632.1Z" style="fill:rgb(249,249,249);fill-rule:nonzero;stroke:rgb(204,204,204);stroke-width:3.78px;"/>
                </g>
                <g id="path23160-5" transform="matrix(0.264583,0,0,0.264583,-2097.38,-3711.4)">
                    <path d="M8941.79,14613.2L9105.44,14669.8L9105.44,15047.8L8941.79,14953.3L8941.79,14613.2Z" style="fill:rgb(249,249,249);fill-rule:nonzero;stroke:rgb(204,204,204);stroke-width:3.78px;"/>
                </g>
                <g id="path23111" transform="matrix(0.264583,0,0,0.264583,-2088.72,-3716.4)">
                    <path d="M8876.32,14613.2L9072.71,14726.5L9072.71,14839.9L9039.98,14858.8L9039.98,15085.6L8876.32,14991.1L8876.32,14613.2Z" style="fill:rgb(222,205,135);fill-rule:nonzero;"/>
                </g>
                <g transform="matrix(0.866025,0.5,-5.55112e-17,1.1547,0,0)">
                    <g transform="matrix(18.887,0,0,18.887,302.387,50.1764)">
                        <path d="M0.258,-0.629L0.121,-0.066C0.117,-0.047 0.113,-0.033 0.109,-0.022C0.106,-0.011 0.101,-0.003 0.094,0.003C0.087,0.009 0.076,0.012 0.063,0.012C0.03,0.012 0.013,-0.002 0.013,-0.031C0.013,-0.038 0.016,-0.057 0.023,-0.087L0.159,-0.65C0.166,-0.68 0.173,-0.7 0.18,-0.711C0.186,-0.722 0.199,-0.728 0.218,-0.728C0.234,-0.728 0.247,-0.724 0.255,-0.716C0.264,-0.708 0.268,-0.698 0.268,-0.684C0.268,-0.674 0.265,-0.656 0.258,-0.629Z" style="fill:rgb(141,165,180);fill-rule:nonzero;"/>
                    </g>
                    <g transform="matrix(18.887,0,0,18.887,307.69,50.1764)">
                        <path d="M0.199,-0.647L0.199,-0.449C0.216,-0.469 0.233,-0.484 0.249,-0.496C0.265,-0.507 0.283,-0.516 0.302,-0.521C0.322,-0.527 0.343,-0.53 0.365,-0.53C0.399,-0.53 0.429,-0.523 0.455,-0.508C0.482,-0.494 0.502,-0.473 0.517,-0.446C0.527,-0.43 0.533,-0.412 0.536,-0.392C0.539,-0.373 0.541,-0.35 0.541,-0.324L0.541,-0.069C0.541,-0.042 0.535,-0.022 0.523,-0.008C0.51,0.005 0.494,0.012 0.474,0.012C0.43,0.012 0.408,-0.015 0.408,-0.069L0.408,-0.294C0.408,-0.337 0.402,-0.369 0.389,-0.392C0.376,-0.415 0.352,-0.427 0.317,-0.427C0.293,-0.427 0.272,-0.42 0.253,-0.406C0.234,-0.393 0.219,-0.375 0.21,-0.351C0.203,-0.331 0.199,-0.296 0.199,-0.245L0.199,-0.069C0.199,-0.042 0.193,-0.022 0.181,-0.009C0.17,0.005 0.153,0.012 0.132,0.012C0.088,0.012 0.066,-0.015 0.066,-0.069L0.066,-0.647C0.066,-0.674 0.072,-0.694 0.083,-0.708C0.095,-0.721 0.111,-0.728 0.132,-0.728C0.153,-0.728 0.17,-0.721 0.181,-0.708C0.193,-0.694 0.199,-0.674 0.199,-0.647Z" style="fill:rgb(141,165,180);fill-rule:nonzero;"/>
                    </g>
                    <g transform="matrix(18.887,0,0,18.887,319.098,50.1764)">
                        <path d="M0.076,-0.518L0.091,-0.518L0.091,-0.598C0.091,-0.62 0.091,-0.636 0.093,-0.649C0.094,-0.661 0.097,-0.671 0.102,-0.68C0.107,-0.689 0.115,-0.697 0.125,-0.702C0.134,-0.708 0.145,-0.711 0.157,-0.711C0.174,-0.711 0.189,-0.705 0.203,-0.692C0.212,-0.683 0.218,-0.673 0.22,-0.661C0.223,-0.649 0.224,-0.631 0.224,-0.609L0.224,-0.518L0.273,-0.518C0.292,-0.518 0.306,-0.514 0.316,-0.505C0.326,-0.496 0.331,-0.484 0.331,-0.47C0.331,-0.452 0.324,-0.44 0.31,-0.433C0.296,-0.425 0.275,-0.422 0.249,-0.422L0.224,-0.422L0.224,-0.177C0.224,-0.156 0.225,-0.14 0.226,-0.129C0.228,-0.117 0.232,-0.108 0.238,-0.101C0.244,-0.094 0.255,-0.091 0.269,-0.091C0.277,-0.091 0.287,-0.092 0.301,-0.095C0.314,-0.098 0.325,-0.099 0.332,-0.099C0.343,-0.099 0.352,-0.095 0.361,-0.086C0.37,-0.078 0.374,-0.067 0.374,-0.054C0.374,-0.033 0.362,-0.016 0.339,-0.005C0.315,0.007 0.282,0.012 0.238,0.012C0.196,0.012 0.165,0.005 0.143,-0.009C0.122,-0.023 0.108,-0.042 0.101,-0.067C0.094,-0.092 0.091,-0.125 0.091,-0.166L0.091,-0.422L0.073,-0.422C0.054,-0.422 0.039,-0.426 0.029,-0.436C0.019,-0.445 0.014,-0.456 0.014,-0.47C0.014,-0.484 0.019,-0.496 0.03,-0.505C0.041,-0.514 0.056,-0.518 0.076,-0.518Z" style="fill:rgb(141,165,180);fill-rule:nonzero;"/>
                    </g>
                    <g transform="matrix(18.887,0,0,18.887,325.784,50.1764)">
                        <path d="M0.512,-0.249L0.512,-0.072C0.512,-0.044 0.506,-0.023 0.493,-0.009C0.48,0.005 0.464,0.012 0.443,0.012C0.423,0.012 0.406,0.005 0.394,-0.009C0.381,-0.023 0.375,-0.044 0.375,-0.072L0.375,-0.284C0.375,-0.318 0.374,-0.344 0.372,-0.362C0.369,-0.381 0.363,-0.396 0.353,-0.408C0.343,-0.42 0.327,-0.426 0.305,-0.426C0.262,-0.426 0.233,-0.411 0.219,-0.381C0.205,-0.351 0.198,-0.308 0.198,-0.252L0.198,-0.072C0.198,-0.044 0.192,-0.023 0.179,-0.009C0.167,0.005 0.15,0.012 0.13,0.012C0.11,0.012 0.093,0.005 0.08,-0.009C0.067,-0.023 0.061,-0.044 0.061,-0.072L0.061,-0.453C0.061,-0.478 0.067,-0.497 0.078,-0.51C0.09,-0.523 0.105,-0.53 0.124,-0.53C0.142,-0.53 0.157,-0.524 0.17,-0.511C0.182,-0.499 0.188,-0.482 0.188,-0.461L0.188,-0.448C0.211,-0.476 0.236,-0.496 0.262,-0.509C0.289,-0.522 0.318,-0.529 0.35,-0.529C0.384,-0.529 0.412,-0.522 0.437,-0.509C0.461,-0.495 0.48,-0.475 0.496,-0.448C0.519,-0.476 0.543,-0.496 0.568,-0.509C0.594,-0.522 0.623,-0.529 0.654,-0.529C0.69,-0.529 0.722,-0.522 0.748,-0.507C0.774,-0.493 0.794,-0.472 0.807,-0.446C0.819,-0.422 0.824,-0.384 0.824,-0.332L0.824,-0.072C0.824,-0.044 0.818,-0.023 0.805,-0.009C0.792,0.005 0.776,0.012 0.755,0.012C0.735,0.012 0.718,0.005 0.705,-0.009C0.692,-0.023 0.686,-0.044 0.686,-0.072L0.686,-0.296C0.686,-0.325 0.685,-0.347 0.682,-0.365C0.68,-0.382 0.673,-0.396 0.663,-0.408C0.652,-0.42 0.636,-0.426 0.614,-0.426C0.596,-0.426 0.58,-0.421 0.564,-0.41C0.548,-0.4 0.536,-0.386 0.527,-0.368C0.517,-0.346 0.512,-0.306 0.512,-0.249Z" style="fill:rgb(141,165,180);fill-rule:nonzero;"/>
                    </g>
                    <g transform="matrix(18.887,0,0,18.887,342.495,50.1764)">
                        <path d="M0.069,-0.069L0.069,-0.647C0.069,-0.674 0.075,-0.694 0.087,-0.708C0.099,-0.721 0.115,-0.728 0.135,-0.728C0.155,-0.728 0.171,-0.721 0.184,-0.708C0.196,-0.694 0.202,-0.674 0.202,-0.647L0.202,-0.069C0.202,-0.042 0.196,-0.022 0.183,-0.008C0.171,0.005 0.155,0.012 0.135,0.012C0.115,0.012 0.099,0.005 0.087,-0.009C0.075,-0.023 0.069,-0.043 0.069,-0.069Z" style="fill:rgb(141,165,180);fill-rule:nonzero;"/>
                    </g>
                </g>
            </g>
            <g id="Folder1" serif:id="Folder" transform="matrix(0.582411,0,0,0.582411,1259.91,1052.5)">
                <g id="path231031" serif:id="path23103" transform="matrix(0.264583,0,0,0.264583,-2088.72,-3716.4)">
                    <path d="M8876.32,14991.1L8876.32,14613.2L9236.37,14613.2L9236.37,14726.5L9203.64,14745.4L9203.64,14991.1L8876.32,14991.1Z" style="fill:rgb(211,188,95);fill-rule:nonzero;"/>
                </g>
                <g id="path231281" serif:id="path23128" transform="matrix(0.264583,0,0,0.264583,-2088.72,-3716.4)">
                    <rect x="8909.06" y="14632.1" width="261.854" height="377.953" style="fill:rgb(249,249,249);fill-rule:nonzero;stroke:rgb(204,204,204);stroke-width:3.78px;"/>
                </g>
                <g id="path231441" serif:id="path23144" transform="matrix(0.264583,0,0,0.264583,-2088.72,-3716.4)">
                    <path d="M9138.18,14650.9L8909.06,14632.1L8909.06,15010L9138.18,15028.9L9138.18,14650.9Z" style="fill:rgb(249,249,249);fill-rule:nonzero;stroke:rgb(204,204,204);stroke-width:3.78px;"/>
                </g>
                <g id="path231601" serif:id="path23160" transform="matrix(0.264583,0,0,0.264583,-2088.72,-3716.4)">
                    <path d="M8909.06,14632.1L9105.44,14669.8L9105.44,15047.8L8909.06,15010L8909.06,14632.1Z" style="fill:rgb(249,249,249);fill-rule:nonzero;stroke:rgb(204,204,204);stroke-width:3.78px;"/>
                </g>
                <g id="path23160-51" serif:id="path23160-5" transform="matrix(0.264583,0,0,0.264583,-2097.38,-3711.4)">
                    <path d="M8941.79,14613.2L9105.44,14669.8L9105.44,15047.8L8941.79,14953.3L8941.79,14613.2Z" style="fill:rgb(249,249,249);fill-rule:nonzero;stroke:rgb(204,204,204);stroke-width:3.78px;"/>
                </g>
                <g id="path231111" serif:id="path23111" transform="matrix(0.264583,0,0,0.264583,-2088.72,-3716.4)">
                    <path d="M8876.32,14613.2L9072.71,14726.5L9072.71,14839.9L9039.98,14858.8L9039.98,15085.6L8876.32,14991.1L8876.32,14613.2Z" style="fill:rgb(222,205,135);fill-rule:nonzero;"/>
                </g>
                <g transform="matrix(0.866025,0.5,-5.55112e-17,1.1547,0,0)">
                    <g transform="matrix(18.887,0,0,18.887,302.185,50.1764)">
                        <path d="M0.258,-0.629L0.121,-0.066C0.117,-0.047 0.113,-0.033 0.109,-0.022C0.106,-0.011 0.101,-0.003 0.094,0.003C0.087,0.009 0.076,0.012 0.063,0.012C0.03,0.012 0.013,-0.002 0.013,-0.031C0.013,-0.038 0.016,-0.057 0.023,-0.087L0.159,-0.65C0.166,-0.68 0.173,-0.7 0.18,-0.711C0.186,-0.722 0.199,-0.728 0.218,-0.728C0.234,-0.728 0.247,-0.724 0.255,-0.716C0.264,-0.708 0.268,-0.698 0.268,-0.684C0.268,-0.674 0.265,-0.656 0.258,-0.629Z" style="fill:rgb(141,165,180);fill-rule:nonzero;"/>
                    </g>
                    <g transform="matrix(18.887,0,0,18.887,307.487,50.1764)">
                        <path d="M0.547,-0.153C0.547,-0.136 0.542,-0.118 0.532,-0.1C0.522,-0.081 0.507,-0.063 0.487,-0.046C0.466,-0.029 0.441,-0.015 0.41,-0.004C0.379,0.006 0.344,0.011 0.305,0.011C0.223,0.011 0.159,-0.013 0.112,-0.061C0.066,-0.109 0.043,-0.173 0.043,-0.254C0.043,-0.309 0.054,-0.357 0.075,-0.399C0.096,-0.441 0.126,-0.473 0.167,-0.496C0.207,-0.519 0.254,-0.531 0.31,-0.531C0.345,-0.531 0.376,-0.526 0.405,-0.516C0.434,-0.506 0.458,-0.493 0.478,-0.477C0.498,-0.461 0.514,-0.444 0.524,-0.426C0.535,-0.407 0.54,-0.391 0.54,-0.375C0.54,-0.359 0.534,-0.346 0.522,-0.334C0.51,-0.323 0.496,-0.318 0.479,-0.318C0.468,-0.318 0.459,-0.321 0.451,-0.326C0.444,-0.332 0.436,-0.341 0.427,-0.354C0.41,-0.379 0.393,-0.397 0.376,-0.41C0.358,-0.422 0.335,-0.428 0.308,-0.428C0.269,-0.428 0.237,-0.413 0.213,-0.382C0.189,-0.351 0.177,-0.309 0.177,-0.256C0.177,-0.231 0.18,-0.208 0.186,-0.187C0.192,-0.166 0.201,-0.148 0.213,-0.133C0.225,-0.118 0.239,-0.107 0.255,-0.099C0.272,-0.092 0.29,-0.088 0.31,-0.088C0.337,-0.088 0.36,-0.094 0.379,-0.106C0.398,-0.119 0.415,-0.138 0.429,-0.163C0.437,-0.178 0.446,-0.19 0.456,-0.198C0.465,-0.207 0.477,-0.211 0.49,-0.211C0.507,-0.211 0.52,-0.205 0.531,-0.192C0.542,-0.18 0.547,-0.167 0.547,-0.153Z" style="fill:rgb(141,165,180);fill-rule:nonzero;"/>
                    </g>
                    <g transform="matrix(18.887,0,0,18.887,318.711,50.1764)">
                        <path d="M0.568,-0.259C0.568,-0.219 0.562,-0.182 0.549,-0.149C0.537,-0.115 0.519,-0.087 0.496,-0.063C0.472,-0.038 0.444,-0.02 0.412,-0.007C0.379,0.006 0.342,0.012 0.302,0.012C0.261,0.012 0.225,0.006 0.193,-0.007C0.161,-0.02 0.133,-0.039 0.109,-0.063C0.086,-0.087 0.068,-0.116 0.055,-0.149C0.043,-0.182 0.037,-0.219 0.037,-0.259C0.037,-0.299 0.043,-0.336 0.056,-0.37C0.068,-0.403 0.086,-0.432 0.109,-0.456C0.132,-0.479 0.16,-0.498 0.193,-0.51C0.226,-0.523 0.262,-0.53 0.302,-0.53C0.342,-0.53 0.379,-0.523 0.412,-0.51C0.444,-0.497 0.473,-0.479 0.496,-0.455C0.52,-0.431 0.537,-0.402 0.55,-0.369C0.562,-0.335 0.568,-0.299 0.568,-0.259ZM0.434,-0.259C0.434,-0.313 0.422,-0.355 0.398,-0.386C0.374,-0.416 0.342,-0.431 0.302,-0.431C0.276,-0.431 0.253,-0.424 0.233,-0.411C0.213,-0.397 0.198,-0.377 0.187,-0.351C0.176,-0.325 0.171,-0.294 0.171,-0.259C0.171,-0.224 0.176,-0.194 0.187,-0.167C0.197,-0.141 0.212,-0.122 0.232,-0.108C0.252,-0.094 0.275,-0.087 0.302,-0.087C0.342,-0.087 0.374,-0.102 0.398,-0.133C0.422,-0.163 0.434,-0.205 0.434,-0.259Z" style="fill:rgb(141,165,180);fill-rule:nonzero;"/>
                    </g>
                    <g transform="matrix(18.887,0,0,18.887,330.118,50.1764)">
                        <path d="M0.19,-0.456L0.19,-0.44C0.213,-0.471 0.239,-0.494 0.267,-0.508C0.295,-0.523 0.327,-0.53 0.363,-0.53C0.398,-0.53 0.429,-0.522 0.457,-0.507C0.485,-0.492 0.505,-0.47 0.519,-0.442C0.528,-0.426 0.534,-0.408 0.536,-0.389C0.539,-0.37 0.54,-0.346 0.54,-0.317L0.54,-0.069C0.54,-0.042 0.534,-0.022 0.522,-0.008C0.51,0.005 0.494,0.012 0.474,0.012C0.454,0.012 0.438,0.005 0.426,-0.009C0.413,-0.023 0.407,-0.043 0.407,-0.069L0.407,-0.291C0.407,-0.335 0.401,-0.369 0.389,-0.392C0.377,-0.415 0.352,-0.427 0.316,-0.427C0.292,-0.427 0.271,-0.42 0.251,-0.406C0.231,-0.391 0.217,-0.372 0.208,-0.347C0.201,-0.327 0.198,-0.29 0.198,-0.236L0.198,-0.069C0.198,-0.042 0.192,-0.022 0.179,-0.008C0.167,0.005 0.151,0.012 0.131,0.012C0.112,0.012 0.096,0.005 0.083,-0.009C0.071,-0.023 0.065,-0.043 0.065,-0.069L0.065,-0.454C0.065,-0.479 0.07,-0.498 0.082,-0.511C0.093,-0.524 0.108,-0.53 0.127,-0.53C0.139,-0.53 0.149,-0.527 0.159,-0.521C0.168,-0.516 0.176,-0.508 0.181,-0.497C0.187,-0.486 0.19,-0.472 0.19,-0.456Z" style="fill:rgb(141,165,180);fill-rule:nonzero;"/>
                    </g>
                    <g transform="matrix(18.887,0,0,18.887,341.526,50.1764)">
                        <path d="M0.058,-0.518L0.09,-0.518L0.09,-0.558C0.09,-0.6 0.095,-0.633 0.106,-0.657C0.116,-0.682 0.134,-0.7 0.159,-0.711C0.185,-0.722 0.219,-0.728 0.263,-0.728C0.341,-0.728 0.38,-0.709 0.38,-0.671C0.38,-0.659 0.376,-0.648 0.368,-0.639C0.36,-0.63 0.35,-0.626 0.339,-0.626C0.334,-0.626 0.325,-0.627 0.312,-0.629C0.299,-0.631 0.289,-0.632 0.28,-0.632C0.256,-0.632 0.24,-0.625 0.233,-0.611C0.227,-0.596 0.223,-0.576 0.223,-0.55L0.223,-0.518L0.256,-0.518C0.307,-0.518 0.332,-0.503 0.332,-0.472C0.332,-0.45 0.325,-0.437 0.312,-0.431C0.298,-0.425 0.28,-0.422 0.256,-0.422L0.223,-0.422L0.223,-0.069C0.223,-0.042 0.217,-0.022 0.204,-0.009C0.192,0.005 0.176,0.012 0.156,0.012C0.137,0.012 0.121,0.005 0.109,-0.009C0.096,-0.022 0.09,-0.042 0.09,-0.069L0.09,-0.422L0.053,-0.422C0.033,-0.422 0.018,-0.426 0.007,-0.435C-0.003,-0.444 -0.009,-0.456 -0.009,-0.47C-0.009,-0.502 0.014,-0.518 0.058,-0.518Z" style="fill:rgb(141,165,180);fill-rule:nonzero;"/>
                    </g>
                </g>
            </g>
            <g transform="matrix(0.644342,0,0,0.644342,1224.93,1086.17)">
                <g transform="matrix(1,0,0,1,-66.7759,28.1136)">
                    <g transform="matrix(1,0,0,1,64.976,-112.486)">
                        <g>
                            <path d="M421.566,279.185C421.558,280.687 420.563,282.188 418.579,283.333C414.604,285.628 408.154,285.633 404.169,283.347L404.169,283.347L368.061,262.5L368.037,195.819L382.47,187.486L418.579,208.333L418.603,208.347C420.579,209.496 421.543,210.985 421.542,212.488L421.566,279.185Z" style="fill:url(#_Linear1);"/>
                        </g>
                        <g transform="matrix(1,0,0,1,-43.3013,8.33334)">
                            <path d="M461.88,200C465.863,202.3 465.863,206.034 461.88,208.333C457.897,210.633 451.43,210.633 447.446,208.333C447.446,208.333 411.362,187.5 411.362,187.5L425.772,179.153L461.88,200Z" style="fill:rgb(241,244,247);"/>
                        </g>
                        <g transform="matrix(0.938283,0,0,0.938283,48.1322,-87.1296)">
                            <path d="M345.056,299.218L352.272,295.051L390.73,317.255C392.722,318.405 392.722,320.272 390.73,321.422C388.739,322.571 385.505,322.571 383.514,321.422L345.056,299.218Z" style="fill:white;"/>
                        </g>
                    </g>
                    <g transform="matrix(1,0,0,1,59.559,-98.9469)">
                        <g>
                            <path d="M421.566,279.185C421.558,280.687 420.563,282.188 418.579,283.333C414.604,285.628 408.154,285.633 404.169,283.347L404.169,283.347L368.061,262.5L368.037,195.819L382.47,187.486L418.579,208.333L418.603,208.347C420.579,209.496 421.543,210.985 421.542,212.488L421.566,279.185Z" style="fill:url(#_Linear2);"/>
                        </g>
                        <g transform="matrix(1,0,0,1,-43.3013,8.33334)">
                            <path d="M461.88,200C465.863,202.3 465.863,206.034 461.88,208.333C457.897,210.633 451.43,210.633 447.446,208.333C447.446,208.333 411.362,187.5 411.362,187.5L425.772,179.153L461.88,200Z" style="fill:rgb(241,244,247);"/>
                        </g>
                        <g transform="matrix(0.938283,0,0,0.938283,48.1322,-87.1296)">
                            <path d="M345.056,299.218L352.272,295.051L390.73,317.255C392.722,318.405 392.722,320.272 390.73,321.422C388.739,322.571 385.505,322.571 383.514,321.422L345.056,299.218Z" style="fill:white;"/>
                        </g>
                    </g>
                    <g transform="matrix(1,0,0,1,38.2353,-94.5915)">
                        <g>
                            <path d="M421.566,279.185C421.558,280.687 420.563,282.188 418.579,283.333C414.604,285.628 408.154,285.633 404.169,283.347L404.169,283.347L368.061,262.5L368.037,195.819L382.47,187.486L418.579,208.333L418.603,208.347C420.579,209.496 421.543,210.985 421.542,212.488L421.566,279.185Z" style="fill:url(#_Linear3);"/>
                        </g>
                        <g transform="matrix(1,0,0,1,-43.3013,8.33334)">
                            <path d="M461.88,200C465.863,202.3 465.863,206.034 461.88,208.333C457.897,210.633 451.43,210.633 447.446,208.333C447.446,208.333 411.362,187.5 411.362,187.5L425.772,179.153L461.88,200Z" style="fill:rgb(241,244,247);"/>
                        </g>
                        <g transform="matrix(0.938283,0,0,0.938283,48.1322,-87.1296)">
                            <path d="M345.056,299.218L352.272,295.051L390.73,317.255C392.722,318.405 392.722,320.272 390.73,321.422C388.739,322.571 385.505,322.571 383.514,321.422L345.056,299.218Z" style="fill:white;"/>
                        </g>
                    </g>
                </g>
                <g transform="matrix(0.866025,0.5,-5.55112e-17,1.1547,79.6882,-37.675)">
                    <g transform="matrix(15.5197,0,0,15.5197,313.766,48.9507)">
                        <path d="M0.258,-0.629L0.121,-0.066C0.117,-0.047 0.113,-0.033 0.109,-0.022C0.106,-0.011 0.101,-0.003 0.094,0.003C0.087,0.009 0.076,0.012 0.063,0.012C0.03,0.012 0.013,-0.002 0.013,-0.031C0.013,-0.038 0.016,-0.057 0.023,-0.087L0.159,-0.65C0.166,-0.68 0.173,-0.7 0.18,-0.711C0.186,-0.722 0.199,-0.728 0.218,-0.728C0.234,-0.728 0.247,-0.724 0.255,-0.716C0.264,-0.708 0.268,-0.698 0.268,-0.684C0.268,-0.674 0.265,-0.656 0.258,-0.629Z" style="fill:rgb(141,165,180);fill-rule:nonzero;"/>
                    </g>
                    <g transform="matrix(15.5197,0,0,15.5197,318.123,48.9507)">
                        <path d="M0.069,-0.069L0.069,-0.647C0.069,-0.674 0.075,-0.694 0.087,-0.708C0.099,-0.721 0.115,-0.728 0.135,-0.728C0.155,-0.728 0.171,-0.721 0.184,-0.708C0.196,-0.694 0.202,-0.674 0.202,-0.647L0.202,-0.069C0.202,-0.042 0.196,-0.022 0.183,-0.008C0.171,0.005 0.155,0.012 0.135,0.012C0.115,0.012 0.099,0.005 0.087,-0.009C0.075,-0.023 0.069,-0.043 0.069,-0.069Z" style="fill:rgb(141,165,180);fill-rule:nonzero;"/>
                    </g>
                    <g transform="matrix(15.5197,0,0,15.5197,322.329,48.9507)">
                        <path d="M0.202,-0.454L0.202,-0.069C0.202,-0.042 0.196,-0.022 0.183,-0.008C0.17,0.005 0.154,0.012 0.135,0.012C0.115,0.012 0.099,0.005 0.087,-0.009C0.075,-0.023 0.069,-0.043 0.069,-0.069L0.069,-0.45C0.069,-0.477 0.075,-0.496 0.087,-0.51C0.099,-0.523 0.115,-0.53 0.135,-0.53C0.154,-0.53 0.17,-0.523 0.183,-0.51C0.196,-0.496 0.202,-0.478 0.202,-0.454ZM0.136,-0.592C0.118,-0.592 0.102,-0.597 0.089,-0.609C0.075,-0.62 0.069,-0.636 0.069,-0.657C0.069,-0.676 0.076,-0.692 0.089,-0.704C0.103,-0.716 0.118,-0.722 0.136,-0.722C0.153,-0.722 0.169,-0.717 0.182,-0.706C0.195,-0.694 0.202,-0.678 0.202,-0.657C0.202,-0.637 0.196,-0.621 0.183,-0.609C0.17,-0.598 0.154,-0.592 0.136,-0.592Z" style="fill:rgb(141,165,180);fill-rule:nonzero;"/>
                    </g>
                    <g transform="matrix(15.5197,0,0,15.5197,326.535,48.9507)">
                        <path d="M0.192,-0.652L0.192,-0.448C0.217,-0.474 0.243,-0.494 0.269,-0.508C0.295,-0.522 0.327,-0.529 0.365,-0.529C0.41,-0.529 0.448,-0.518 0.482,-0.497C0.515,-0.476 0.541,-0.446 0.559,-0.406C0.578,-0.366 0.587,-0.319 0.587,-0.264C0.587,-0.224 0.582,-0.187 0.572,-0.153C0.561,-0.119 0.546,-0.09 0.527,-0.065C0.507,-0.041 0.484,-0.022 0.456,-0.008C0.428,0.005 0.397,0.012 0.364,0.012C0.343,0.012 0.324,0.01 0.306,0.005C0.288,-0 0.272,-0.006 0.26,-0.014C0.247,-0.022 0.236,-0.031 0.227,-0.039C0.218,-0.048 0.207,-0.06 0.192,-0.077L0.192,-0.064C0.192,-0.039 0.186,-0.02 0.174,-0.007C0.162,0.006 0.146,0.012 0.128,0.012C0.109,0.012 0.094,0.006 0.083,-0.007C0.072,-0.02 0.066,-0.039 0.066,-0.064L0.066,-0.646C0.066,-0.673 0.071,-0.693 0.082,-0.707C0.093,-0.721 0.108,-0.728 0.128,-0.728C0.148,-0.728 0.164,-0.721 0.175,-0.708C0.186,-0.695 0.192,-0.676 0.192,-0.652ZM0.198,-0.256C0.198,-0.203 0.21,-0.162 0.235,-0.134C0.259,-0.105 0.291,-0.091 0.33,-0.091C0.364,-0.091 0.392,-0.105 0.417,-0.135C0.441,-0.164 0.453,-0.205 0.453,-0.26C0.453,-0.295 0.448,-0.325 0.438,-0.351C0.428,-0.376 0.414,-0.396 0.395,-0.409C0.376,-0.423 0.355,-0.43 0.33,-0.43C0.305,-0.43 0.282,-0.423 0.262,-0.409C0.242,-0.396 0.227,-0.376 0.215,-0.349C0.204,-0.323 0.198,-0.292 0.198,-0.256Z" style="fill:rgb(141,165,180);fill-rule:nonzero;"/>
                    </g>
                </g>
            </g>
            <g id="g28400" transform="matrix(0.57308,0,0,0.57308,-173.377,-614.942)">
                <g id="rect12456" transform="matrix(0.229136,0.132292,0,0.264583,2476.83,2597.48)">
                    <path d="M1285.04,1407.95L1285.04,1450.66C1271.4,1454.21 1258.32,1459.65 1246.18,1466.83L1215.93,1436.58L1162.49,1490.03L1192.72,1520.26C1185.58,1532.41 1180.17,1545.49 1176.65,1559.13L1133.86,1559.13L1133.86,1634.72L1176.57,1634.72C1180.12,1648.36 1185.56,1661.44 1192.74,1673.58L1162.49,1703.83L1215.93,1757.27L1246.17,1727.04C1258.31,1734.18 1271.4,1739.59 1285.04,1743.11L1285.04,1785.9L1360.63,1785.9L1360.63,1743.19C1374.27,1739.64 1387.35,1734.2 1399.49,1727.02L1429.74,1757.27L1483.18,1703.83L1452.95,1673.59C1460.09,1661.45 1465.5,1648.36 1469.02,1634.72L1511.81,1634.72L1511.81,1559.13L1469.1,1559.13C1465.55,1545.49 1460.11,1532.41 1452.93,1520.28L1483.18,1490.03L1429.74,1436.58L1399.5,1466.81C1387.36,1459.67 1374.27,1454.26 1360.63,1450.74L1360.63,1407.95L1285.04,1407.95ZM1322.84,1521.33C1364.3,1521.33 1398.42,1555.46 1398.42,1596.92C1398.42,1638.39 1364.3,1672.52 1322.84,1672.52C1281.37,1672.52 1247.24,1638.39 1247.24,1596.92C1247.24,1555.46 1281.37,1521.33 1322.84,1521.33Z" style="fill:rgb(141,165,180);fill-rule:nonzero;"/>
                </g>
                <g id="g28149">
                    <path id="path28063" d="M2762.62,3145L2771.28,3140L2771.28,3151.3L2762.62,3156.3L2762.62,3145" style="fill:rgb(204,204,204);fill-rule:nonzero;"/>
                    <path id="path28065" d="M2762.62,3156.3L2771.28,3151.3L2762.38,3150.44L2753.72,3155.44L2762.62,3156.3" style="fill:rgb(241,244,247);fill-rule:nonzero;"/>
                    <path id="path28067" d="M2753.72,3155.44L2762.38,3150.44L2755.45,3138.43L2746.79,3143.43L2753.72,3155.44" style="fill:rgb(141,165,180);fill-rule:nonzero;"/>
                    <path id="path28069" d="M2746.79,3143.43L2755.45,3138.43L2743.2,3145.5L2734.54,3150.5L2746.79,3143.43" style="fill-opacity:0.3;fill-rule:nonzero;"/>
                    <path id="path28071" d="M2734.54,3150.5L2743.2,3145.5L2750.13,3157.5L2741.47,3162.5L2734.54,3150.5" style="fill:rgb(204,204,204);fill-rule:nonzero;"/>
                    <path id="path28073" d="M2741.47,3162.5L2750.13,3157.5L2746.45,3165.66L2737.78,3170.66L2741.47,3162.5" style="fill:rgb(204,204,204);fill-rule:nonzero;"/>
                    <path id="path28077" d="M2727.98,3165L2736.64,3160L2736.64,3180L2727.98,3185L2727.98,3165" style="fill:rgb(204,204,204);fill-rule:nonzero;"/>
                    <path id="path28079" d="M2727.98,3185L2736.64,3180L2746.43,3185.65L2737.77,3190.65L2727.98,3185" style="fill:rgb(204,204,204);fill-rule:nonzero;"/>
                    <path id="path28081" d="M2737.77,3190.65L2746.43,3185.65L2750.13,3198.07L2741.47,3203.07L2737.77,3190.65" style="fill:rgb(204,204,204);fill-rule:nonzero;"/>
                    <path id="path28083" d="M2741.47,3203.07L2750.13,3198.07L2743.2,3202.07L2734.54,3207.07L2741.47,3203.07" style="fill-opacity:0.3;fill-rule:nonzero;"/>
                    <path id="path28085" d="M2734.54,3207.07L2743.2,3202.07L2755.45,3223.28L2746.79,3228.28L2734.54,3207.07" style="fill:rgb(204,204,204);fill-rule:nonzero;"/>
                    <path id="path28087" d="M2746.79,3228.28L2755.45,3223.28L2762.37,3219.28L2753.71,3224.28L2746.79,3228.28" style="fill-opacity:0.3;fill-rule:nonzero;"/>
                    <path id="path28089" d="M2753.71,3224.28L2762.37,3219.28L2771.28,3228.68L2762.62,3233.68L2753.71,3224.28" style="fill:rgb(204,204,204);fill-rule:nonzero;"/>
                    <path id="path28091" d="M2762.62,3233.68L2771.28,3228.68L2771.28,3240L2762.62,3245L2762.62,3233.68" style="fill:rgb(204,204,204);fill-rule:nonzero;"/>
                    <path id="path28093" d="M2762.62,3245L2771.28,3240L2788.6,3250L2779.94,3255L2762.62,3245" style="fill:rgb(204,204,204);fill-rule:nonzero;"/>
                    <path id="path28095" d="M2779.94,3255L2788.6,3250L2788.6,3238.7L2779.94,3243.7L2779.94,3255" style="fill:rgb(141,165,180);fill-rule:nonzero;"/>
                    <path id="path28097" d="M2779.94,3243.7L2788.6,3238.7L2797.51,3239.56L2788.85,3244.56L2779.94,3243.7" style="fill:rgb(204,204,204);fill-rule:nonzero;"/>
                    <path id="path28099" d="M2788.85,3244.56L2797.51,3239.56L2804.44,3251.57L2795.78,3256.57L2788.85,3244.56" style="fill:rgb(204,204,204);fill-rule:nonzero;"/>
                    <path id="path28101" d="M2795.78,3256.57L2804.44,3251.57L2816.68,3244.5L2808.02,3249.5L2795.78,3256.57" style="fill-opacity:0.3;fill-rule:nonzero;"/>
                    <path id="path28103" d="M2808.02,3249.5L2816.68,3244.5L2809.76,3232.5L2801.1,3237.5L2808.02,3249.5" style="fill:rgb(141,165,180);fill-rule:nonzero;"/>
                    <path id="path28105" d="M2801.1,3237.5L2809.76,3232.5L2813.44,3224.34L2804.78,3229.34L2801.1,3237.5" style="fill:rgb(141,165,180);fill-rule:nonzero;"/>
                    <path id="path28107" d="M2804.78,3229.34L2813.44,3224.34L2823.24,3230L2814.58,3235L2804.78,3229.34" style="fill:rgb(204,204,204);fill-rule:nonzero;"/>
                    <path id="path28109" d="M2814.58,3235L2823.24,3230L2823.24,3210L2814.58,3215L2814.58,3235" style="fill:rgb(141,165,180);fill-rule:nonzero;"/>
                    <path id="path28111" d="M2814.58,3215L2823.24,3210L2813.46,3204.35L2804.8,3209.35L2814.58,3215" style="fill:rgb(241,244,247);fill-rule:nonzero;"/>
                    <path id="path28113" d="M2804.8,3209.35L2813.46,3204.35L2809.75,3191.93L2801.09,3196.93L2804.8,3209.35" style="fill:rgb(141,165,180);fill-rule:nonzero;"/>
                    <path id="path28115" d="M2801.09,3196.93L2809.75,3191.93L2816.68,3187.93L2808.02,3192.93L2801.09,3196.93" style="fill-opacity:0.3;fill-rule:nonzero;"/>
                    <path id="path28117" d="M2808.02,3192.93L2816.68,3187.93L2804.44,3166.72L2795.78,3171.72L2808.02,3192.93" style="fill:rgb(141,165,180);fill-rule:nonzero;"/>
                    <path id="path28119" d="M2795.78,3171.72L2804.44,3166.72L2797.51,3170.72L2788.85,3175.72L2795.78,3171.72" style="fill-opacity:0.3;fill-rule:nonzero;"/>
                    <path id="path28121" d="M2788.85,3175.72L2797.51,3170.72L2788.6,3161.32L2779.94,3166.32L2788.85,3175.72" style="fill:rgb(241,244,247);fill-rule:nonzero;"/>
                    <path id="path28123" d="M2779.94,3166.32L2788.6,3161.32L2788.6,3150L2779.94,3155L2779.94,3166.32" style="fill:rgb(141,165,180);fill-rule:nonzero;"/>
                    <path id="path28125" d="M2779.94,3155L2788.6,3150L2771.28,3140L2762.62,3145L2779.94,3155" style="fill:rgb(241,244,247);fill-rule:nonzero;"/>
                    <path id="path28127" d="M2762.62,3145L2771.28,3140L2762.62,3145" style="fill-opacity:0.3;fill-rule:nonzero;"/>
                    <path id="path28145" d="M2771.28,3180L2779.94,3175L2771.28,3180" style="fill-opacity:0.3;fill-rule:nonzero;"/>
                    <path id="path28147" d="M2771.28,3180L2779.94,3175L2771.28,3180" style="fill-opacity:0.3;fill-rule:nonzero;"/>
                    <path id="path28075" d="M2737.78,3170.66L2746.45,3165.66L2736.64,3160L2727.98,3165L2737.78,3170.66" style="fill:rgb(241,244,247);fill-rule:nonzero;"/>
                </g>
                <g id="path20286" transform="matrix(0.229136,0.132292,0,0.264583,2468.17,2602.48)">
                    <path d="M1285.04,1407.95L1285.04,1450.66C1271.4,1454.21 1258.32,1459.65 1246.18,1466.83L1215.93,1436.58L1162.49,1490.03L1192.72,1520.26C1185.58,1532.41 1180.17,1545.49 1176.65,1559.13L1133.86,1559.13L1133.86,1634.72L1176.57,1634.72C1180.12,1648.36 1185.56,1661.44 1192.74,1673.58L1162.49,1703.83L1215.93,1757.27L1246.17,1727.04C1258.31,1734.18 1271.4,1739.59 1285.04,1743.11L1285.04,1785.9L1360.63,1785.9L1360.63,1743.19C1374.27,1739.64 1387.35,1734.2 1399.49,1727.02L1429.74,1757.27L1483.18,1703.83L1452.95,1673.59C1460.09,1661.45 1465.5,1648.36 1469.02,1634.72L1511.81,1634.72L1511.81,1559.13L1469.1,1559.13C1465.55,1545.49 1460.11,1532.41 1452.93,1520.28L1483.18,1490.03L1429.74,1436.58L1399.5,1466.81C1387.36,1459.67 1374.27,1454.26 1360.63,1450.74L1360.63,1407.95L1285.04,1407.95ZM1322.84,1521.33C1364.3,1521.33 1398.42,1555.46 1398.42,1596.92C1398.42,1638.39 1364.3,1672.52 1322.84,1672.52C1281.37,1672.52 1247.24,1638.39 1247.24,1596.92C1247.24,1555.46 1281.37,1521.33 1322.84,1521.33Z" style="fill:rgb(205,216,225);fill-rule:nonzero;"/>
                </g>
            </g>
            <g transform="matrix(0.471755,0,0,0.471755,926.691,624.288)">
                <g transform="matrix(0.649519,-0.375,5.55112e-17,1.1547,443.838,-356.25)">
                    <rect x="1050" y="1818.65" width="200" height="86.603" style="fill:rgb(105,135,153);"/>
                </g>
                <g transform="matrix(0.57735,-0.333333,3.58365e-17,0.659829,526.832,489.881)">
                    <g transform="matrix(42.75,0,0,49.875,1053.43,1883.72)">
                        <path d="M0.32,-0.108L0.205,-0.564L0.205,-0.07C0.205,-0.042 0.199,-0.022 0.187,-0.008C0.175,0.005 0.158,0.012 0.138,0.012C0.119,0.012 0.103,0.005 0.09,-0.008C0.078,-0.022 0.072,-0.042 0.072,-0.07L0.072,-0.636C0.072,-0.667 0.08,-0.689 0.096,-0.699C0.112,-0.71 0.134,-0.716 0.162,-0.716L0.207,-0.716C0.234,-0.716 0.254,-0.713 0.266,-0.708C0.278,-0.704 0.287,-0.695 0.293,-0.682C0.299,-0.669 0.306,-0.649 0.313,-0.62L0.417,-0.228L0.521,-0.62C0.528,-0.649 0.535,-0.669 0.541,-0.682C0.547,-0.695 0.556,-0.704 0.568,-0.708C0.58,-0.713 0.6,-0.716 0.627,-0.716L0.672,-0.716C0.7,-0.716 0.722,-0.71 0.738,-0.699C0.754,-0.689 0.762,-0.667 0.762,-0.636L0.762,-0.07C0.762,-0.042 0.756,-0.022 0.744,-0.008C0.732,0.005 0.715,0.012 0.695,0.012C0.676,0.012 0.66,0.005 0.647,-0.008C0.635,-0.022 0.629,-0.042 0.629,-0.07L0.629,-0.564L0.514,-0.108C0.507,-0.078 0.501,-0.057 0.496,-0.043C0.491,-0.029 0.482,-0.016 0.47,-0.005C0.457,0.007 0.439,0.012 0.417,0.012C0.4,0.012 0.386,0.009 0.374,0.001C0.362,-0.006 0.353,-0.015 0.347,-0.027C0.34,-0.038 0.335,-0.051 0.331,-0.065C0.328,-0.079 0.324,-0.093 0.32,-0.108Z" style="fill:white;fill-rule:nonzero;"/>
                    </g>
                    <g transform="matrix(42.75,0,0,49.875,1089.04,1883.72)">
                        <path d="M0.441,-0.226L0.18,-0.226C0.181,-0.196 0.187,-0.169 0.198,-0.146C0.21,-0.123 0.226,-0.105 0.246,-0.094C0.266,-0.082 0.287,-0.076 0.311,-0.076C0.327,-0.076 0.342,-0.078 0.355,-0.082C0.368,-0.086 0.381,-0.091 0.393,-0.099C0.405,-0.107 0.417,-0.116 0.427,-0.125C0.438,-0.134 0.451,-0.146 0.468,-0.162C0.475,-0.168 0.484,-0.171 0.497,-0.171C0.511,-0.171 0.522,-0.167 0.53,-0.16C0.539,-0.152 0.543,-0.142 0.543,-0.128C0.543,-0.116 0.538,-0.102 0.529,-0.086C0.519,-0.07 0.505,-0.054 0.486,-0.039C0.467,-0.024 0.443,-0.012 0.414,-0.002C0.385,0.007 0.352,0.012 0.315,0.012C0.229,0.012 0.163,-0.012 0.115,-0.061C0.068,-0.11 0.044,-0.176 0.044,-0.26C0.044,-0.299 0.05,-0.336 0.062,-0.369C0.073,-0.403 0.09,-0.432 0.113,-0.456C0.135,-0.48 0.163,-0.499 0.196,-0.511C0.229,-0.524 0.265,-0.531 0.305,-0.531C0.357,-0.531 0.402,-0.52 0.439,-0.498C0.476,-0.476 0.504,-0.447 0.523,-0.413C0.542,-0.378 0.551,-0.342 0.551,-0.306C0.551,-0.273 0.541,-0.251 0.522,-0.241C0.503,-0.231 0.476,-0.226 0.441,-0.226ZM0.18,-0.302L0.422,-0.302C0.419,-0.347 0.406,-0.381 0.385,-0.404C0.364,-0.427 0.336,-0.438 0.301,-0.438C0.268,-0.438 0.24,-0.427 0.219,-0.404C0.198,-0.381 0.185,-0.347 0.18,-0.302Z" style="fill:white;fill-rule:nonzero;"/>
                    </g>
                    <g transform="matrix(42.75,0,0,49.875,1114.44,1883.72)">
                        <path d="M0.076,-0.518L0.091,-0.518L0.091,-0.598C0.091,-0.62 0.091,-0.636 0.093,-0.649C0.094,-0.661 0.097,-0.671 0.102,-0.68C0.107,-0.689 0.115,-0.697 0.125,-0.702C0.134,-0.708 0.145,-0.711 0.157,-0.711C0.174,-0.711 0.189,-0.705 0.203,-0.692C0.212,-0.683 0.218,-0.673 0.22,-0.661C0.223,-0.649 0.224,-0.631 0.224,-0.609L0.224,-0.518L0.273,-0.518C0.292,-0.518 0.306,-0.514 0.316,-0.505C0.326,-0.496 0.331,-0.484 0.331,-0.47C0.331,-0.452 0.324,-0.44 0.31,-0.433C0.296,-0.425 0.275,-0.422 0.249,-0.422L0.224,-0.422L0.224,-0.177C0.224,-0.156 0.225,-0.14 0.226,-0.129C0.228,-0.117 0.232,-0.108 0.238,-0.101C0.244,-0.094 0.255,-0.091 0.269,-0.091C0.277,-0.091 0.287,-0.092 0.301,-0.095C0.314,-0.098 0.325,-0.099 0.332,-0.099C0.343,-0.099 0.352,-0.095 0.361,-0.086C0.37,-0.078 0.374,-0.067 0.374,-0.054C0.374,-0.033 0.362,-0.016 0.339,-0.005C0.315,0.007 0.282,0.012 0.238,0.012C0.196,0.012 0.165,0.005 0.143,-0.009C0.122,-0.023 0.108,-0.042 0.101,-0.067C0.094,-0.092 0.091,-0.125 0.091,-0.166L0.091,-0.422L0.073,-0.422C0.054,-0.422 0.039,-0.426 0.029,-0.436C0.019,-0.445 0.014,-0.456 0.014,-0.47C0.014,-0.484 0.019,-0.496 0.03,-0.505C0.041,-0.514 0.056,-0.518 0.076,-0.518Z" style="fill:white;fill-rule:nonzero;"/>
                    </g>
                    <g transform="matrix(42.75,0,0,49.875,1129.57,1883.72)">
                        <path d="M0.406,-0.063C0.374,-0.038 0.342,-0.019 0.312,-0.007C0.282,0.006 0.248,0.012 0.211,0.012C0.177,0.012 0.147,0.005 0.121,-0.008C0.095,-0.022 0.075,-0.04 0.061,-0.063C0.047,-0.086 0.04,-0.111 0.04,-0.138C0.04,-0.175 0.052,-0.206 0.075,-0.231C0.098,-0.257 0.13,-0.274 0.17,-0.283C0.178,-0.285 0.199,-0.29 0.233,-0.296C0.266,-0.303 0.295,-0.309 0.319,-0.315C0.343,-0.321 0.369,-0.328 0.397,-0.336C0.395,-0.371 0.388,-0.397 0.376,-0.413C0.363,-0.43 0.337,-0.438 0.298,-0.438C0.264,-0.438 0.239,-0.433 0.221,-0.424C0.204,-0.414 0.19,-0.4 0.177,-0.381C0.165,-0.362 0.157,-0.35 0.152,-0.344C0.147,-0.338 0.136,-0.335 0.119,-0.335C0.104,-0.335 0.091,-0.34 0.08,-0.349C0.069,-0.359 0.064,-0.371 0.064,-0.386C0.064,-0.41 0.072,-0.432 0.089,-0.455C0.105,-0.477 0.131,-0.495 0.167,-0.509C0.202,-0.524 0.245,-0.531 0.298,-0.531C0.356,-0.531 0.403,-0.524 0.436,-0.51C0.47,-0.496 0.493,-0.474 0.507,-0.444C0.521,-0.414 0.528,-0.375 0.528,-0.325C0.528,-0.294 0.528,-0.267 0.528,-0.246C0.527,-0.224 0.527,-0.2 0.527,-0.173C0.527,-0.148 0.531,-0.122 0.539,-0.094C0.548,-0.067 0.552,-0.05 0.552,-0.042C0.552,-0.028 0.545,-0.016 0.532,-0.005C0.52,0.007 0.505,0.012 0.489,0.012C0.475,0.012 0.462,0.006 0.448,-0.007C0.435,-0.02 0.421,-0.039 0.406,-0.063ZM0.397,-0.256C0.377,-0.249 0.349,-0.241 0.312,-0.233C0.274,-0.225 0.249,-0.219 0.234,-0.216C0.22,-0.212 0.206,-0.205 0.193,-0.194C0.18,-0.183 0.174,-0.167 0.174,-0.148C0.174,-0.128 0.181,-0.111 0.197,-0.096C0.212,-0.082 0.232,-0.075 0.257,-0.075C0.283,-0.075 0.308,-0.081 0.33,-0.093C0.352,-0.104 0.368,-0.119 0.379,-0.137C0.391,-0.157 0.397,-0.191 0.397,-0.237L0.397,-0.256Z" style="fill:white;fill-rule:nonzero;"/>
                    </g>
                    <g transform="matrix(42.75,0,0,49.875,1154.98,1883.72)">
                        <path d="M0.434,-0.064L0.434,-0.077C0.416,-0.057 0.399,-0.04 0.381,-0.027C0.364,-0.014 0.345,-0.004 0.324,0.002C0.304,0.009 0.282,0.012 0.258,0.012C0.226,0.012 0.196,0.005 0.169,-0.008C0.142,-0.022 0.118,-0.041 0.099,-0.066C0.079,-0.091 0.064,-0.12 0.053,-0.154C0.043,-0.188 0.038,-0.225 0.038,-0.264C0.038,-0.347 0.058,-0.412 0.099,-0.459C0.14,-0.506 0.193,-0.529 0.26,-0.529C0.298,-0.529 0.331,-0.522 0.357,-0.509C0.383,-0.496 0.409,-0.476 0.434,-0.448L0.434,-0.645C0.434,-0.672 0.44,-0.693 0.45,-0.707C0.461,-0.721 0.477,-0.728 0.497,-0.728C0.517,-0.728 0.533,-0.722 0.544,-0.709C0.555,-0.696 0.56,-0.677 0.56,-0.652L0.56,-0.064C0.56,-0.039 0.554,-0.02 0.542,-0.007C0.531,0.006 0.516,0.012 0.497,0.012C0.479,0.012 0.464,0.006 0.452,-0.008C0.44,-0.021 0.434,-0.04 0.434,-0.064ZM0.172,-0.26C0.172,-0.224 0.177,-0.193 0.189,-0.167C0.2,-0.142 0.215,-0.123 0.235,-0.11C0.254,-0.097 0.276,-0.091 0.299,-0.091C0.322,-0.091 0.344,-0.097 0.363,-0.109C0.382,-0.121 0.398,-0.14 0.409,-0.165C0.421,-0.191 0.427,-0.222 0.427,-0.26C0.427,-0.295 0.421,-0.326 0.409,-0.351C0.398,-0.377 0.382,-0.396 0.363,-0.41C0.343,-0.423 0.321,-0.43 0.298,-0.43C0.273,-0.43 0.252,-0.423 0.232,-0.409C0.213,-0.396 0.198,-0.376 0.188,-0.35C0.177,-0.324 0.172,-0.294 0.172,-0.26Z" style="fill:white;fill-rule:nonzero;"/>
                    </g>
                    <g transform="matrix(42.75,0,0,49.875,1181.7,1883.72)">
                        <path d="M0.406,-0.063C0.374,-0.038 0.342,-0.019 0.312,-0.007C0.282,0.006 0.248,0.012 0.211,0.012C0.177,0.012 0.147,0.005 0.121,-0.008C0.095,-0.022 0.075,-0.04 0.061,-0.063C0.047,-0.086 0.04,-0.111 0.04,-0.138C0.04,-0.175 0.052,-0.206 0.075,-0.231C0.098,-0.257 0.13,-0.274 0.17,-0.283C0.178,-0.285 0.199,-0.29 0.233,-0.296C0.266,-0.303 0.295,-0.309 0.319,-0.315C0.343,-0.321 0.369,-0.328 0.397,-0.336C0.395,-0.371 0.388,-0.397 0.376,-0.413C0.363,-0.43 0.337,-0.438 0.298,-0.438C0.264,-0.438 0.239,-0.433 0.221,-0.424C0.204,-0.414 0.19,-0.4 0.177,-0.381C0.165,-0.362 0.157,-0.35 0.152,-0.344C0.147,-0.338 0.136,-0.335 0.119,-0.335C0.104,-0.335 0.091,-0.34 0.08,-0.349C0.069,-0.359 0.064,-0.371 0.064,-0.386C0.064,-0.41 0.072,-0.432 0.089,-0.455C0.105,-0.477 0.131,-0.495 0.167,-0.509C0.202,-0.524 0.245,-0.531 0.298,-0.531C0.356,-0.531 0.403,-0.524 0.436,-0.51C0.47,-0.496 0.493,-0.474 0.507,-0.444C0.521,-0.414 0.528,-0.375 0.528,-0.325C0.528,-0.294 0.528,-0.267 0.528,-0.246C0.527,-0.224 0.527,-0.2 0.527,-0.173C0.527,-0.148 0.531,-0.122 0.539,-0.094C0.548,-0.067 0.552,-0.05 0.552,-0.042C0.552,-0.028 0.545,-0.016 0.532,-0.005C0.52,0.007 0.505,0.012 0.489,0.012C0.475,0.012 0.462,0.006 0.448,-0.007C0.435,-0.02 0.421,-0.039 0.406,-0.063ZM0.397,-0.256C0.377,-0.249 0.349,-0.241 0.312,-0.233C0.274,-0.225 0.249,-0.219 0.234,-0.216C0.22,-0.212 0.206,-0.205 0.193,-0.194C0.18,-0.183 0.174,-0.167 0.174,-0.148C0.174,-0.128 0.181,-0.111 0.197,-0.096C0.212,-0.082 0.232,-0.075 0.257,-0.075C0.283,-0.075 0.308,-0.081 0.33,-0.093C0.352,-0.104 0.368,-0.119 0.379,-0.137C0.391,-0.157 0.397,-0.191 0.397,-0.237L0.397,-0.256Z" style="fill:white;fill-rule:nonzero;"/>
                    </g>
                    <g transform="matrix(42.75,0,0,49.875,1206.04,1883.72)">
                        <path d="M0.076,-0.518L0.091,-0.518L0.091,-0.598C0.091,-0.62 0.091,-0.636 0.093,-0.649C0.094,-0.661 0.097,-0.671 0.102,-0.68C0.107,-0.689 0.115,-0.697 0.125,-0.702C0.134,-0.708 0.145,-0.711 0.157,-0.711C0.174,-0.711 0.189,-0.705 0.203,-0.692C0.212,-0.683 0.218,-0.673 0.22,-0.661C0.223,-0.649 0.224,-0.631 0.224,-0.609L0.224,-0.518L0.273,-0.518C0.292,-0.518 0.306,-0.514 0.316,-0.505C0.326,-0.496 0.331,-0.484 0.331,-0.47C0.331,-0.452 0.324,-0.44 0.31,-0.433C0.296,-0.425 0.275,-0.422 0.249,-0.422L0.224,-0.422L0.224,-0.177C0.224,-0.156 0.225,-0.14 0.226,-0.129C0.228,-0.117 0.232,-0.108 0.238,-0.101C0.244,-0.094 0.255,-0.091 0.269,-0.091C0.277,-0.091 0.287,-0.092 0.301,-0.095C0.314,-0.098 0.325,-0.099 0.332,-0.099C0.343,-0.099 0.352,-0.095 0.361,-0.086C0.37,-0.078 0.374,-0.067 0.374,-0.054C0.374,-0.033 0.362,-0.016 0.339,-0.005C0.315,0.007 0.282,0.012 0.238,0.012C0.196,0.012 0.165,0.005 0.143,-0.009C0.122,-0.023 0.108,-0.042 0.101,-0.067C0.094,-0.092 0.091,-0.125 0.091,-0.166L0.091,-0.422L0.073,-0.422C0.054,-0.422 0.039,-0.426 0.029,-0.436C0.019,-0.445 0.014,-0.456 0.014,-0.47C0.014,-0.484 0.019,-0.496 0.03,-0.505C0.041,-0.514 0.056,-0.518 0.076,-0.518Z" style="fill:white;fill-rule:nonzero;"/>
                    </g>
                    <g transform="matrix(42.75,0,0,49.875,1221.17,1883.72)">
                        <path d="M0.406,-0.063C0.374,-0.038 0.342,-0.019 0.312,-0.007C0.282,0.006 0.248,0.012 0.211,0.012C0.177,0.012 0.147,0.005 0.121,-0.008C0.095,-0.022 0.075,-0.04 0.061,-0.063C0.047,-0.086 0.04,-0.111 0.04,-0.138C0.04,-0.175 0.052,-0.206 0.075,-0.231C0.098,-0.257 0.13,-0.274 0.17,-0.283C0.178,-0.285 0.199,-0.29 0.233,-0.296C0.266,-0.303 0.295,-0.309 0.319,-0.315C0.343,-0.321 0.369,-0.328 0.397,-0.336C0.395,-0.371 0.388,-0.397 0.376,-0.413C0.363,-0.43 0.337,-0.438 0.298,-0.438C0.264,-0.438 0.239,-0.433 0.221,-0.424C0.204,-0.414 0.19,-0.4 0.177,-0.381C0.165,-0.362 0.157,-0.35 0.152,-0.344C0.147,-0.338 0.136,-0.335 0.119,-0.335C0.104,-0.335 0.091,-0.34 0.08,-0.349C0.069,-0.359 0.064,-0.371 0.064,-0.386C0.064,-0.41 0.072,-0.432 0.089,-0.455C0.105,-0.477 0.131,-0.495 0.167,-0.509C0.202,-0.524 0.245,-0.531 0.298,-0.531C0.356,-0.531 0.403,-0.524 0.436,-0.51C0.47,-0.496 0.493,-0.474 0.507,-0.444C0.521,-0.414 0.528,-0.375 0.528,-0.325C0.528,-0.294 0.528,-0.267 0.528,-0.246C0.527,-0.224 0.527,-0.2 0.527,-0.173C0.527,-0.148 0.531,-0.122 0.539,-0.094C0.548,-0.067 0.552,-0.05 0.552,-0.042C0.552,-0.028 0.545,-0.016 0.532,-0.005C0.52,0.007 0.505,0.012 0.489,0.012C0.475,0.012 0.462,0.006 0.448,-0.007C0.435,-0.02 0.421,-0.039 0.406,-0.063ZM0.397,-0.256C0.377,-0.249 0.349,-0.241 0.312,-0.233C0.274,-0.225 0.249,-0.219 0.234,-0.216C0.22,-0.212 0.206,-0.205 0.193,-0.194C0.18,-0.183 0.174,-0.167 0.174,-0.148C0.174,-0.128 0.181,-0.111 0.197,-0.096C0.212,-0.082 0.232,-0.075 0.257,-0.075C0.283,-0.075 0.308,-0.081 0.33,-0.093C0.352,-0.104 0.368,-0.119 0.379,-0.137C0.391,-0.157 0.397,-0.191 0.397,-0.237L0.397,-0.256Z" style="fill:white;fill-rule:nonzero;"/>
                    </g>
                </g>
                <g transform="matrix(0.866025,0.5,-5.55112e-17,1.1547,202.073,-133.333)">
                    <rect x="1058.33" y="822.724" width="8.333" height="86.603" style="fill:rgb(181,197,209);"/>
                </g>
                <g transform="matrix(0.649519,-0.375,1,0.57735,-3.60844,-14.5833)">
                    <rect x="-950" y="1739.27" width="200" height="7.217" style="fill:rgb(213,222,232);"/>
                </g>
                <g transform="matrix(1,0,0,1,209.289,-137.5)">
                    <path d="M930.977,1529.17L981.495,1500" style="fill:none;stroke:white;stroke-width:4.24px;stroke-linejoin:round;stroke-miterlimit:1.5;"/>
                </g>
                <g transform="matrix(1,0,0,1,288.675,-183.333)">
                    <path d="M916.544,1537.5L930.977,1529.17" style="fill:none;stroke:white;stroke-width:4.24px;stroke-linejoin:round;stroke-miterlimit:1.5;"/>
                </g>
                <g transform="matrix(1,0,0,1,288.675,-158.333)">
                    <path d="M916.544,1537.5L930.977,1529.17" style="fill:none;stroke:white;stroke-width:2.12px;stroke-linejoin:round;stroke-miterlimit:1.5;"/>
                </g>
                <g transform="matrix(0.866025,-0.5,4.80741e-17,1,376.127,341.176)">
                    <path d="M949.02,1533.33L949.02,1491.67" style="fill:none;stroke:white;stroke-width:1.5px;stroke-linejoin:round;stroke-miterlimit:1.5;"/>
                </g>
                <g transform="matrix(1,0,0,1,209.289,-129.167)">
                    <path d="M930.977,1529.17L967.062,1508.33" style="fill:none;stroke:white;stroke-width:2.12px;stroke-linejoin:round;stroke-miterlimit:1.5;"/>
                </g>
                <g transform="matrix(1,0,0,1,274.241,-166.667)">
                    <path d="M930.977,1529.17L967.062,1508.33" style="fill:none;stroke:white;stroke-width:2.12px;stroke-linejoin:round;stroke-miterlimit:1.5;"/>
                </g>
                <g transform="matrix(1,0,0,1,274.241,-158.333)">
                    <path d="M930.977,1529.17L967.062,1508.33" style="fill:none;stroke:white;stroke-width:2.12px;stroke-linejoin:round;stroke-miterlimit:1.5;"/>
                </g>
                <g transform="matrix(1,0,0,1,274.241,-141.667)">
                    <path d="M930.977,1529.17L967.062,1508.33" style="fill:none;stroke:white;stroke-width:2.12px;stroke-linejoin:round;stroke-miterlimit:1.5;"/>
                </g>
                <g transform="matrix(1,0,0,1,209.289,-120.833)">
                    <path d="M930.977,1529.17L967.062,1508.33" style="fill:none;stroke:white;stroke-width:2.12px;stroke-linejoin:round;stroke-miterlimit:1.5;"/>
                </g>
                <g transform="matrix(1,0,0,1,209.289,-112.5)">
                    <path d="M930.977,1529.17L967.062,1508.33" style="fill:none;stroke:white;stroke-width:2.12px;stroke-linejoin:round;stroke-miterlimit:1.5;"/>
                </g>
                <g transform="matrix(1,0,0,1,209.289,-104.167)">
                    <path d="M930.977,1529.17L967.062,1508.33" style="fill:none;stroke:white;stroke-width:2.12px;stroke-linejoin:round;stroke-miterlimit:1.5;"/>
                </g>
            </g>
        </g>
    </g>
    <defs>
        <linearGradient id="_Linear1" x1="0" y1="0" x2="1" y2="0" gradientUnits="userSpaceOnUse" gradientTransform="matrix(14.4338,-5.68434e-14,3.97904e-13,66.1134,404.145,241.667)"><stop offset="0" style="stop-color:rgb(205,216,225);stop-opacity:1"/><stop offset="0.56" style="stop-color:rgb(192,205,216);stop-opacity:1"/><stop offset="1" style="stop-color:rgb(141,165,180);stop-opacity:1"/></linearGradient>
        <linearGradient id="_Linear2" x1="0" y1="0" x2="1" y2="0" gradientUnits="userSpaceOnUse" gradientTransform="matrix(14.4338,-5.68434e-14,3.97904e-13,66.1134,404.145,241.667)"><stop offset="0" style="stop-color:rgb(205,216,225);stop-opacity:1"/><stop offset="0.56" style="stop-color:rgb(192,205,216);stop-opacity:1"/><stop offset="1" style="stop-color:rgb(141,165,180);stop-opacity:1"/></linearGradient>
        <linearGradient id="_Linear3" x1="0" y1="0" x2="1" y2="0" gradientUnits="userSpaceOnUse" gradientTransform="matrix(14.4338,-5.68434e-14,3.97904e-13,66.1134,404.145,241.667)"><stop offset="0" style="stop-color:rgb(205,216,225);stop-opacity:1"/><stop offset="0.56" style="stop-color:rgb(192,205,216);stop-opacity:1"/><stop offset="1" style="stop-color:rgb(141,165,180);stop-opacity:1"/></linearGradient>
    </defs>
</svg>
