<?xml version="1.0" encoding="UTF-8" standalone="no"?>
<svg
   xmlns:serif="http://www.serif.com/"
   xmlns:dc="http://purl.org/dc/elements/1.1/"
   xmlns:cc="http://creativecommons.org/ns#"
   xmlns:rdf="http://www.w3.org/1999/02/22-rdf-syntax-ns#"
   xmlns:svg="http://www.w3.org/2000/svg"
   xmlns="http://www.w3.org/2000/svg"
   xmlns:xlink="http://www.w3.org/1999/xlink"
   xmlns:sodipodi="http://sodipodi.sourceforge.net/DTD/sodipodi-0.dtd"
   xmlns:inkscape="http://www.inkscape.org/namespaces/inkscape"
   sodipodi:docname="container-deconstructed.svg"
   inkscape:version="1.0 (4035a4fb49, 2020-05-01)"
   id="svg8"
   version="1.1"
   viewBox="0 0 45.82922 52.916996"
   height="52.916996mm"
   width="45.82922mm">
  <defs
     id="defs2">
    <linearGradient
       id="_Linear1"
       x1="0"
       y1="0"
       x2="1"
       y2="0"
       gradientUnits="userSpaceOnUse"
       gradientTransform="matrix(14.4338,0,0,66.1134,404.145,241.667)">
      <stop
         offset="0"
         style="stop-color:rgb(205,216,225);stop-opacity:1"
         id="stop6668" />
      <stop
         offset="0.56"
         style="stop-color:rgb(192,205,216);stop-opacity:1"
         id="stop6670" />
      <stop
         offset="1"
         style="stop-color:rgb(141,165,180);stop-opacity:1"
         id="stop6672" />
    </linearGradient>
    <linearGradient
       y2="0"
       x2="1"
       y1="0"
       x1="0"
       gradientTransform="matrix(14.4338,0,0,66.1134,404.145,241.667)"
       gradientUnits="userSpaceOnUse"
       id="linearGradient6888"
       xlink:href="#_Linear1"
       inkscape:collect="always" />
    <linearGradient
       y2="0"
       x2="1"
       y1="0"
       x1="0"
       gradientTransform="matrix(14.4338,0,0,66.1134,404.145,241.667)"
       gradientUnits="userSpaceOnUse"
       id="linearGradient6890"
       xlink:href="#_Linear1"
       inkscape:collect="always" />
    <linearGradient
       y2="0"
       x2="1"
       y1="0"
       x1="0"
       gradientTransform="matrix(14.4338,0,0,66.1134,404.145,241.667)"
       gradientUnits="userSpaceOnUse"
       id="linearGradient6892"
       xlink:href="#_Linear1"
       inkscape:collect="always" />
  </defs>
  <sodipodi:namedview
     inkscape:window-maximized="1"
     inkscape:window-y="-11"
     inkscape:window-x="-11"
     inkscape:window-height="1346"
     inkscape:window-width="2560"
     fit-margin-bottom="0"
     fit-margin-right="0"
     fit-margin-left="0"
     fit-margin-top="0"
     showgrid="false"
     inkscape:document-rotation="0"
     inkscape:current-layer="layer1"
     inkscape:document-units="mm"
     inkscape:cy="152.61601"
     inkscape:cx="237.85217"
     inkscape:zoom="1.4"
     inkscape:pageshadow="2"
     inkscape:pageopacity="0.0"
     borderopacity="1.0"
     bordercolor="#666666"
     pagecolor="#ffffff"
     id="base" />
  <metadata
     id="metadata5">
    <rdf:RDF>
      <cc:Work
         rdf:about="">
        <dc:format>image/svg+xml</dc:format>
        <dc:type
           rdf:resource="http://purl.org/dc/dcmitype/StillImage" />
        <dc:title></dc:title>
      </cc:Work>
    </rdf:RDF>
  </metadata>
  <g
     transform="translate(-39.067798,-119.03719)"
     id="layer1"
     inkscape:groupmode="layer"
     inkscape:label="Layer 1">
    

    

    

    

    

    

    

    

    

    

    

    

    

    

    

    

    

    

    

    

    

    

    

    

    

    

    

    

    

    

    

    

    

    

    

    

    

    

    

    

    

    

    

    

    

    

    

    

    

    

    

    

    

    <g
   transform="matrix(0.26458333,0,0,0.26458333,16.155758,-132.3172)"
   id="g6666">
        <g
   transform="translate(-1255.74,-158.333)"
   id="g6572">
            <g
   transform="matrix(0.368521,-0.212765,0,0.488527,974.433,588.052)"
   id="g6352">
                <rect
   x="998.33301"
   y="1602.15"
   width="235.00101"
   height="187.63901"
   style="fill:#d9d9d9"
   id="rect6350" />

            </g>

            <g
   transform="matrix(0.368521,0.212765,0,0.488527,1061.04,113.23)"
   id="g6356">
                <rect
   x="998.33301"
   y="1602.15"
   width="235.00101"
   height="187.63901"
   style="fill:#e6e6e6"
   id="rect6354" />

            </g>

            <g
   transform="translate(-1385.64,466.667)"
   id="g6570">
                <g
   transform="matrix(0.461538,0,0,0.461538,2654.7,141.667)"
   id="g6379">
                    <g
   id="Base-image"
   serif:id="Base image"
   transform="translate(-606.218,850)">
                        <g
   transform="matrix(0.938194,-0.541667,0,1.25093,-79.3857,-55.5556)"
   id="g6360">
                            <rect
   x="1100"
   y="1039.23"
   width="200"
   height="14.434"
   style="fill:#0d597f"
   id="rect6358" />

                        </g>

                        <g
   transform="matrix(0.938194,0.541667,0,1.25093,-79.3857,-55.5556)"
   id="g6364">
                            <rect
   x="900"
   y="86.602997"
   width="200"
   height="14.434"
   style="fill:#256a8c"
   id="rect6362" />

                        </g>

                        <g
   transform="matrix(0.938194,0.541667,-0.99109,0.572206,1797.76,-1.82889)"
   id="g6368">
                            <rect
   x="-50"
   y="805.40302"
   width="200"
   height="189.326"
   style="fill:#3d7a99"
   id="rect6366" />

                        </g>

                    </g>

                    <g
   id="g6377">
                        <g
   id="path58"
   transform="matrix(0.800615,0.462235,0.800615,-0.462235,317.432,1397.91)">
                            <path
   d="M 0,0 V 15.687 L -11.296,4.379 C -10.079,3.532 -8.932,2.836 -7.853,2.27 -6.774,1.703 -5.764,1.265 -4.823,0.932 -3.882,0.598 -3.009,0.37 -2.206,0.222 -1.402,0.075 -0.667,0.009 0,0 m 57.751,1.304 c 0.02,-0.017 0.13,-0.11 0.333,-0.239 0.204,-0.13 0.502,-0.297 0.898,-0.462 0.395,-0.164 0.889,-0.327 1.485,-0.448 0.596,-0.122 1.294,-0.202 2.098,-0.202 0.671,0 1.411,0.059 2.222,0.2 0.812,0.142 1.693,0.367 2.645,0.699 0.953,0.333 1.976,0.773 3.07,1.344 1.094,0.572 2.259,1.276 3.495,2.136 L 65.425,12.729 37.015,41.245 24.549,28.776 7.733,46.117 -34.471,4.39 c 1.235,-0.86 2.398,-1.564 3.491,-2.136 1.093,-0.571 2.115,-1.011 3.067,-1.344 0.951,-0.332 1.832,-0.557 2.643,-0.698 0.81,-0.142 1.55,-0.201 2.22,-0.201 0.804,0 1.502,0.08 2.097,0.202 0.596,0.121 1.089,0.284 1.485,0.449 0.396,0.164 0.693,0.331 0.897,0.461 0.204,0.13 0.314,0.223 0.334,0.24 L 0.815,20.415 7.628,26.948 26.494,8.082 33.085,1.304 c 0.02,-0.017 0.13,-0.11 0.334,-0.239 0.204,-0.13 0.501,-0.297 0.897,-0.462 0.396,-0.164 0.89,-0.327 1.485,-0.448 0.596,-0.122 1.295,-0.202 2.099,-0.202 0.67,0 1.411,0.059 2.222,0.2 0.811,0.142 1.693,0.367 2.645,0.699 0.952,0.333 1.975,0.773 3.069,1.344 1.094,0.572 2.259,1.276 3.495,2.136 L 34.192,19.157 37.01,21.975 50.111,8.874 57.751,1.304 M 57.588,80.32 94.807,15.838 57.588,-48.644 h -74.463 l -37.219,64.482 37.219,64.482 z"
   style="fill:#ffffff;fill-rule:nonzero"
   id="path6371" />

                        </g>

                        <g
   id="path62"
   transform="matrix(-0.581612,-0.335794,-0.581612,0.335794,336.436,1396.35)">
                            <path
   d="M 0,0 -9.913,9.895 -9.208,10.604 0.775,0.73 Z"
   style="fill:#ffffff;fill-rule:nonzero"
   id="path6374" />

                        </g>

                    </g>

                </g>

                <g
   id="Folder"
   transform="matrix(0.582411,0,0,0.582411,2587.82,619.171)">
                    <g
   id="path23103"
   transform="matrix(0.264583,0,0,0.264583,-2088.72,-3716.4)">
                        <path
   d="m 8876.32,14991.1 v -377.9 h 360.05 v 113.3 l -32.73,18.9 v 245.7 z"
   style="fill:#d3bc5f;fill-rule:nonzero"
   id="path6381" />

                    </g>

                    <g
   id="path23128"
   transform="matrix(0.264583,0,0,0.264583,-2088.72,-3716.4)">
                        <rect
   x="8909.0596"
   y="14632.1"
   width="261.854"
   height="377.953"
   style="fill:#f9f9f9;fill-rule:nonzero;stroke:#cccccc;stroke-width:3.78px"
   id="rect6384" />

                    </g>

                    <g
   id="path23144"
   transform="matrix(0.264583,0,0,0.264583,-2088.72,-3716.4)">
                        <path
   d="m 9138.18,14650.9 -229.12,-18.8 v 377.9 l 229.12,18.9 z"
   style="fill:#f9f9f9;fill-rule:nonzero;stroke:#cccccc;stroke-width:3.78px"
   id="path6387" />

                    </g>

                    <g
   id="path23160"
   transform="matrix(0.264583,0,0,0.264583,-2088.72,-3716.4)">
                        <path
   d="m 8909.06,14632.1 196.38,37.7 v 378 l -196.38,-37.8 z"
   style="fill:#f9f9f9;fill-rule:nonzero;stroke:#cccccc;stroke-width:3.78px"
   id="path6390" />

                    </g>

                    <g
   id="path23160-5"
   transform="matrix(0.264583,0,0,0.264583,-2097.38,-3711.4)">
                        <path
   d="m 8941.79,14613.2 163.65,56.6 v 378 l -163.65,-94.5 z"
   style="fill:#f9f9f9;fill-rule:nonzero;stroke:#cccccc;stroke-width:3.78px"
   id="path6393" />

                    </g>

                    <g
   id="path23111"
   transform="matrix(0.264583,0,0,0.264583,-2088.72,-3716.4)">
                        <path
   d="m 8876.32,14613.2 196.39,113.3 v 113.4 l -32.73,18.9 v 226.8 l -163.66,-94.5 z"
   style="fill:#decd87;fill-rule:nonzero"
   id="path6396" />

                    </g>

                    <g
   transform="matrix(0.866025,0.5,0,1.1547,0,0)"
   id="g6419">
                        <g
   transform="matrix(18.887,0,0,18.887,302.387,50.1764)"
   id="g6401">
                            <path
   d="M 0.258,-0.629 0.121,-0.066 C 0.117,-0.047 0.113,-0.033 0.109,-0.022 0.106,-0.011 0.101,-0.003 0.094,0.003 0.087,0.009 0.076,0.012 0.063,0.012 c -0.033,0 -0.05,-0.014 -0.05,-0.043 0,-0.007 0.003,-0.026 0.01,-0.056 L 0.159,-0.65 c 0.007,-0.03 0.014,-0.05 0.021,-0.061 0.006,-0.011 0.019,-0.017 0.038,-0.017 0.016,0 0.029,0.004 0.037,0.012 0.009,0.008 0.013,0.018 0.013,0.032 0,0.01 -0.003,0.028 -0.01,0.055 z"
   style="fill:#8da5b4;fill-rule:nonzero"
   id="path6399" />

                        </g>

                        <g
   transform="matrix(18.887,0,0,18.887,307.69,50.1764)"
   id="g6405">
                            <path
   d="m 0.199,-0.647 v 0.198 c 0.017,-0.02 0.034,-0.035 0.05,-0.047 0.016,-0.011 0.034,-0.02 0.053,-0.025 0.02,-0.006 0.041,-0.009 0.063,-0.009 0.034,0 0.064,0.007 0.09,0.022 0.027,0.014 0.047,0.035 0.062,0.062 0.01,0.016 0.016,0.034 0.019,0.054 0.003,0.019 0.005,0.042 0.005,0.068 v 0.255 c 0,0.027 -0.006,0.047 -0.018,0.061 -0.013,0.013 -0.029,0.02 -0.049,0.02 -0.044,0 -0.066,-0.027 -0.066,-0.081 v -0.225 c 0,-0.043 -0.006,-0.075 -0.019,-0.098 -0.013,-0.023 -0.037,-0.035 -0.072,-0.035 -0.024,0 -0.045,0.007 -0.064,0.021 -0.019,0.013 -0.034,0.031 -0.043,0.055 -0.007,0.02 -0.011,0.055 -0.011,0.106 v 0.176 c 0,0.027 -0.006,0.047 -0.018,0.06 C 0.17,0.005 0.153,0.012 0.132,0.012 0.088,0.012 0.066,-0.015 0.066,-0.069 v -0.578 c 0,-0.027 0.006,-0.047 0.017,-0.061 0.012,-0.013 0.028,-0.02 0.049,-0.02 0.021,0 0.038,0.007 0.049,0.02 0.012,0.014 0.018,0.034 0.018,0.061 z"
   style="fill:#8da5b4;fill-rule:nonzero"
   id="path6403" />

                        </g>

                        <g
   transform="matrix(18.887,0,0,18.887,319.098,50.1764)"
   id="g6409">
                            <path
   d="m 0.076,-0.518 h 0.015 v -0.08 c 0,-0.022 0,-0.038 0.002,-0.051 0.001,-0.012 0.004,-0.022 0.009,-0.031 0.005,-0.009 0.013,-0.017 0.023,-0.022 0.009,-0.006 0.02,-0.009 0.032,-0.009 0.017,0 0.032,0.006 0.046,0.019 0.009,0.009 0.015,0.019 0.017,0.031 0.003,0.012 0.004,0.03 0.004,0.052 v 0.091 h 0.049 c 0.019,0 0.033,0.004 0.043,0.013 0.01,0.009 0.015,0.021 0.015,0.035 0,0.018 -0.007,0.03 -0.021,0.037 -0.014,0.008 -0.035,0.011 -0.061,0.011 H 0.224 v 0.245 c 0,0.021 0.001,0.037 0.002,0.048 0.002,0.012 0.006,0.021 0.012,0.028 0.006,0.007 0.017,0.01 0.031,0.01 0.008,0 0.018,-0.001 0.032,-0.004 0.013,-0.003 0.024,-0.004 0.031,-0.004 0.011,0 0.02,0.004 0.029,0.013 0.009,0.008 0.013,0.019 0.013,0.032 0,0.021 -0.012,0.038 -0.035,0.049 C 0.315,0.007 0.282,0.012 0.238,0.012 0.196,0.012 0.165,0.005 0.143,-0.009 0.122,-0.023 0.108,-0.042 0.101,-0.067 0.094,-0.092 0.091,-0.125 0.091,-0.166 V -0.422 H 0.073 c -0.019,0 -0.034,-0.004 -0.044,-0.014 -0.01,-0.009 -0.015,-0.02 -0.015,-0.034 0,-0.014 0.005,-0.026 0.016,-0.035 0.011,-0.009 0.026,-0.013 0.046,-0.013 z"
   style="fill:#8da5b4;fill-rule:nonzero"
   id="path6407" />

                        </g>

                        <g
   transform="matrix(18.887,0,0,18.887,325.784,50.1764)"
   id="g6413">
                            <path
   d="m 0.512,-0.249 v 0.177 c 0,0.028 -0.006,0.049 -0.019,0.063 C 0.48,0.005 0.464,0.012 0.443,0.012 0.423,0.012 0.406,0.005 0.394,-0.009 0.381,-0.023 0.375,-0.044 0.375,-0.072 v -0.212 c 0,-0.034 -0.001,-0.06 -0.003,-0.078 C 0.369,-0.381 0.363,-0.396 0.353,-0.408 0.343,-0.42 0.327,-0.426 0.305,-0.426 c -0.043,0 -0.072,0.015 -0.086,0.045 -0.014,0.03 -0.021,0.073 -0.021,0.129 v 0.18 c 0,0.028 -0.006,0.049 -0.019,0.063 C 0.167,0.005 0.15,0.012 0.13,0.012 0.11,0.012 0.093,0.005 0.08,-0.009 0.067,-0.023 0.061,-0.044 0.061,-0.072 v -0.381 c 0,-0.025 0.006,-0.044 0.017,-0.057 0.012,-0.013 0.027,-0.02 0.046,-0.02 0.018,0 0.033,0.006 0.046,0.019 0.012,0.012 0.018,0.029 0.018,0.05 v 0.013 c 0.023,-0.028 0.048,-0.048 0.074,-0.061 0.027,-0.013 0.056,-0.02 0.088,-0.02 0.034,0 0.062,0.007 0.087,0.02 0.024,0.014 0.043,0.034 0.059,0.061 0.023,-0.028 0.047,-0.048 0.072,-0.061 0.026,-0.013 0.055,-0.02 0.086,-0.02 0.036,0 0.068,0.007 0.094,0.022 0.026,0.014 0.046,0.035 0.059,0.061 0.012,0.024 0.017,0.062 0.017,0.114 v 0.26 c 0,0.028 -0.006,0.049 -0.019,0.063 C 0.792,0.005 0.776,0.012 0.755,0.012 0.735,0.012 0.718,0.005 0.705,-0.009 0.692,-0.023 0.686,-0.044 0.686,-0.072 V -0.296 C 0.686,-0.325 0.685,-0.347 0.682,-0.365 0.68,-0.382 0.673,-0.396 0.663,-0.408 0.652,-0.42 0.636,-0.426 0.614,-0.426 c -0.018,0 -0.034,0.005 -0.05,0.016 -0.016,0.01 -0.028,0.024 -0.037,0.042 -0.01,0.022 -0.015,0.062 -0.015,0.119 z"
   style="fill:#8da5b4;fill-rule:nonzero"
   id="path6411" />

                        </g>

                        <g
   transform="matrix(18.887,0,0,18.887,342.495,50.1764)"
   id="g6417">
                            <path
   d="m 0.069,-0.069 v -0.578 c 0,-0.027 0.006,-0.047 0.018,-0.061 0.012,-0.013 0.028,-0.02 0.048,-0.02 0.02,0 0.036,0.007 0.049,0.02 0.012,0.014 0.018,0.034 0.018,0.061 v 0.578 c 0,0.027 -0.006,0.047 -0.019,0.061 -0.012,0.013 -0.028,0.02 -0.048,0.02 -0.02,0 -0.036,-0.007 -0.048,-0.021 -0.012,-0.014 -0.018,-0.034 -0.018,-0.06 z"
   style="fill:#8da5b4;fill-rule:nonzero"
   id="path6415" />

                        </g>

                    </g>

                </g>

                <g
   id="Folder1"
   serif:id="Folder"
   transform="matrix(0.582411,0,0,0.582411,2645.56,585.838)">
                    <g
   id="path231031"
   serif:id="path23103"
   transform="matrix(0.264583,0,0,0.264583,-2088.72,-3716.4)">
                        <path
   d="m 8876.32,14991.1 v -377.9 h 360.05 v 113.3 l -32.73,18.9 v 245.7 z"
   style="fill:#d3bc5f;fill-rule:nonzero"
   id="path6422" />

                    </g>

                    <g
   id="path231281"
   serif:id="path23128"
   transform="matrix(0.264583,0,0,0.264583,-2088.72,-3716.4)">
                        <rect
   x="8909.0596"
   y="14632.1"
   width="261.854"
   height="377.953"
   style="fill:#f9f9f9;fill-rule:nonzero;stroke:#cccccc;stroke-width:3.78px"
   id="rect6425" />

                    </g>

                    <g
   id="path231441"
   serif:id="path23144"
   transform="matrix(0.264583,0,0,0.264583,-2088.72,-3716.4)">
                        <path
   d="m 9138.18,14650.9 -229.12,-18.8 v 377.9 l 229.12,18.9 z"
   style="fill:#f9f9f9;fill-rule:nonzero;stroke:#cccccc;stroke-width:3.78px"
   id="path6428" />

                    </g>

                    <g
   id="path231601"
   serif:id="path23160"
   transform="matrix(0.264583,0,0,0.264583,-2088.72,-3716.4)">
                        <path
   d="m 8909.06,14632.1 196.38,37.7 v 378 l -196.38,-37.8 z"
   style="fill:#f9f9f9;fill-rule:nonzero;stroke:#cccccc;stroke-width:3.78px"
   id="path6431" />

                    </g>

                    <g
   id="path23160-51"
   serif:id="path23160-5"
   transform="matrix(0.264583,0,0,0.264583,-2097.38,-3711.4)">
                        <path
   d="m 8941.79,14613.2 163.65,56.6 v 378 l -163.65,-94.5 z"
   style="fill:#f9f9f9;fill-rule:nonzero;stroke:#cccccc;stroke-width:3.78px"
   id="path6434" />

                    </g>

                    <g
   id="path231111"
   serif:id="path23111"
   transform="matrix(0.264583,0,0,0.264583,-2088.72,-3716.4)">
                        <path
   d="m 8876.32,14613.2 196.39,113.3 v 113.4 l -32.73,18.9 v 226.8 l -163.66,-94.5 z"
   style="fill:#decd87;fill-rule:nonzero"
   id="path6437" />

                    </g>

                    <g
   transform="matrix(0.866025,0.5,0,1.1547,0,0)"
   id="g6460">
                        <g
   transform="matrix(18.887,0,0,18.887,302.185,50.1764)"
   id="g6442">
                            <path
   d="M 0.258,-0.629 0.121,-0.066 C 0.117,-0.047 0.113,-0.033 0.109,-0.022 0.106,-0.011 0.101,-0.003 0.094,0.003 0.087,0.009 0.076,0.012 0.063,0.012 c -0.033,0 -0.05,-0.014 -0.05,-0.043 0,-0.007 0.003,-0.026 0.01,-0.056 L 0.159,-0.65 c 0.007,-0.03 0.014,-0.05 0.021,-0.061 0.006,-0.011 0.019,-0.017 0.038,-0.017 0.016,0 0.029,0.004 0.037,0.012 0.009,0.008 0.013,0.018 0.013,0.032 0,0.01 -0.003,0.028 -0.01,0.055 z"
   style="fill:#8da5b4;fill-rule:nonzero"
   id="path6440" />

                        </g>

                        <g
   transform="matrix(18.887,0,0,18.887,307.487,50.1764)"
   id="g6446">
                            <path
   d="m 0.547,-0.153 c 0,0.017 -0.005,0.035 -0.015,0.053 -0.01,0.019 -0.025,0.037 -0.045,0.054 C 0.466,-0.029 0.441,-0.015 0.41,-0.004 0.379,0.006 0.344,0.011 0.305,0.011 0.223,0.011 0.159,-0.013 0.112,-0.061 0.066,-0.109 0.043,-0.173 0.043,-0.254 c 0,-0.055 0.011,-0.103 0.032,-0.145 0.021,-0.042 0.051,-0.074 0.092,-0.097 0.04,-0.023 0.087,-0.035 0.143,-0.035 0.035,0 0.066,0.005 0.095,0.015 0.029,0.01 0.053,0.023 0.073,0.039 0.02,0.016 0.036,0.033 0.046,0.051 0.011,0.019 0.016,0.035 0.016,0.051 0,0.016 -0.006,0.029 -0.018,0.041 -0.012,0.011 -0.026,0.016 -0.043,0.016 -0.011,0 -0.02,-0.003 -0.028,-0.008 C 0.444,-0.332 0.436,-0.341 0.427,-0.354 0.41,-0.379 0.393,-0.397 0.376,-0.41 0.358,-0.422 0.335,-0.428 0.308,-0.428 c -0.039,0 -0.071,0.015 -0.095,0.046 -0.024,0.031 -0.036,0.073 -0.036,0.126 0,0.025 0.003,0.048 0.009,0.069 0.006,0.021 0.015,0.039 0.027,0.054 0.012,0.015 0.026,0.026 0.042,0.034 0.017,0.007 0.035,0.011 0.055,0.011 0.027,0 0.05,-0.006 0.069,-0.018 0.019,-0.013 0.036,-0.032 0.05,-0.057 0.008,-0.015 0.017,-0.027 0.027,-0.035 0.009,-0.009 0.021,-0.013 0.034,-0.013 0.017,0 0.03,0.006 0.041,0.019 0.011,0.012 0.016,0.025 0.016,0.039 z"
   style="fill:#8da5b4;fill-rule:nonzero"
   id="path6444" />

                        </g>

                        <g
   transform="matrix(18.887,0,0,18.887,318.711,50.1764)"
   id="g6450">
                            <path
   d="m 0.568,-0.259 c 0,0.04 -0.006,0.077 -0.019,0.11 -0.012,0.034 -0.03,0.062 -0.053,0.086 C 0.472,-0.038 0.444,-0.02 0.412,-0.007 0.379,0.006 0.342,0.012 0.302,0.012 0.261,0.012 0.225,0.006 0.193,-0.007 0.161,-0.02 0.133,-0.039 0.109,-0.063 0.086,-0.087 0.068,-0.116 0.055,-0.149 0.043,-0.182 0.037,-0.219 0.037,-0.259 c 0,-0.04 0.006,-0.077 0.019,-0.111 0.012,-0.033 0.03,-0.062 0.053,-0.086 0.023,-0.023 0.051,-0.042 0.084,-0.054 0.033,-0.013 0.069,-0.02 0.109,-0.02 0.04,0 0.077,0.007 0.11,0.02 0.032,0.013 0.061,0.031 0.084,0.055 0.024,0.024 0.041,0.053 0.054,0.086 0.012,0.034 0.018,0.07 0.018,0.11 z m -0.134,0 c 0,-0.054 -0.012,-0.096 -0.036,-0.127 -0.024,-0.03 -0.056,-0.045 -0.096,-0.045 -0.026,0 -0.049,0.007 -0.069,0.02 -0.02,0.014 -0.035,0.034 -0.046,0.06 -0.011,0.026 -0.016,0.057 -0.016,0.092 0,0.035 0.005,0.065 0.016,0.092 0.01,0.026 0.025,0.045 0.045,0.059 0.02,0.014 0.043,0.021 0.07,0.021 0.04,0 0.072,-0.015 0.096,-0.046 0.024,-0.03 0.036,-0.072 0.036,-0.126 z"
   style="fill:#8da5b4;fill-rule:nonzero"
   id="path6448" />

                        </g>

                        <g
   transform="matrix(18.887,0,0,18.887,330.118,50.1764)"
   id="g6454">
                            <path
   d="m 0.19,-0.456 v 0.016 c 0.023,-0.031 0.049,-0.054 0.077,-0.068 0.028,-0.015 0.06,-0.022 0.096,-0.022 0.035,0 0.066,0.008 0.094,0.023 0.028,0.015 0.048,0.037 0.062,0.065 0.009,0.016 0.015,0.034 0.017,0.053 0.003,0.019 0.004,0.043 0.004,0.072 v 0.248 c 0,0.027 -0.006,0.047 -0.018,0.061 C 0.51,0.005 0.494,0.012 0.474,0.012 0.454,0.012 0.438,0.005 0.426,-0.009 0.413,-0.023 0.407,-0.043 0.407,-0.069 v -0.222 c 0,-0.044 -0.006,-0.078 -0.018,-0.101 -0.012,-0.023 -0.037,-0.035 -0.073,-0.035 -0.024,0 -0.045,0.007 -0.065,0.021 -0.02,0.015 -0.034,0.034 -0.043,0.059 -0.007,0.02 -0.01,0.057 -0.01,0.111 v 0.167 c 0,0.027 -0.006,0.047 -0.019,0.061 C 0.167,0.005 0.151,0.012 0.131,0.012 0.112,0.012 0.096,0.005 0.083,-0.009 0.071,-0.023 0.065,-0.043 0.065,-0.069 v -0.385 c 0,-0.025 0.005,-0.044 0.017,-0.057 0.011,-0.013 0.026,-0.019 0.045,-0.019 0.012,0 0.022,0.003 0.032,0.009 0.009,0.005 0.017,0.013 0.022,0.024 0.006,0.011 0.009,0.025 0.009,0.041 z"
   style="fill:#8da5b4;fill-rule:nonzero"
   id="path6452" />

                        </g>

                        <g
   transform="matrix(18.887,0,0,18.887,341.526,50.1764)"
   id="g6458">
                            <path
   d="M 0.058,-0.518 H 0.09 v -0.04 c 0,-0.042 0.005,-0.075 0.016,-0.099 0.01,-0.025 0.028,-0.043 0.053,-0.054 0.026,-0.011 0.06,-0.017 0.104,-0.017 0.078,0 0.117,0.019 0.117,0.057 0,0.012 -0.004,0.023 -0.012,0.032 C 0.36,-0.63 0.35,-0.626 0.339,-0.626 0.334,-0.626 0.325,-0.627 0.312,-0.629 0.299,-0.631 0.289,-0.632 0.28,-0.632 c -0.024,0 -0.04,0.007 -0.047,0.021 -0.006,0.015 -0.01,0.035 -0.01,0.061 v 0.032 h 0.033 c 0.051,0 0.076,0.015 0.076,0.046 0,0.022 -0.007,0.035 -0.02,0.041 -0.014,0.006 -0.032,0.009 -0.056,0.009 H 0.223 v 0.353 c 0,0.027 -0.006,0.047 -0.019,0.06 C 0.192,0.005 0.176,0.012 0.156,0.012 0.137,0.012 0.121,0.005 0.109,-0.009 0.096,-0.022 0.09,-0.042 0.09,-0.069 V -0.422 H 0.053 c -0.02,0 -0.035,-0.004 -0.046,-0.013 -0.01,-0.009 -0.016,-0.021 -0.016,-0.035 0,-0.032 0.023,-0.048 0.067,-0.048 z"
   style="fill:#8da5b4;fill-rule:nonzero"
   id="path6456" />

                        </g>

                    </g>

                </g>

                <g
   transform="matrix(0.644342,0,0,0.644342,2610.57,619.5)"
   id="g6525">
                    <g
   transform="translate(-66.7759,28.1136)"
   id="g6505">
                        <g
   transform="translate(64.976,-112.486)"
   id="g6475">
                            <g
   id="g6465">
                                <path
   d="m 421.566,279.185 c -0.008,1.502 -1.003,3.003 -2.987,4.148 -3.975,2.295 -10.425,2.3 -14.41,0.014 v 0 l -36.108,-20.847 -0.024,-66.681 14.433,-8.333 36.109,20.847 0.024,0.014 c 1.976,1.149 2.94,2.638 2.939,4.141 z"
   style="fill:url(#linearGradient6888)"
   id="path6463" />

                            </g>

                            <g
   transform="translate(-43.3013,8.33334)"
   id="g6469">
                                <path
   d="m 461.88,200 c 3.983,2.3 3.983,6.034 0,8.333 -3.983,2.3 -10.45,2.3 -14.434,0 0,0 -36.084,-20.833 -36.084,-20.833 l 14.41,-8.347 z"
   style="fill:#f1f4f7"
   id="path6467" />

                            </g>

                            <g
   transform="matrix(0.938283,0,0,0.938283,48.1322,-87.1296)"
   id="g6473">
                                <path
   d="m 345.056,299.218 7.216,-4.167 38.458,22.204 c 1.992,1.15 1.992,3.017 0,4.167 -1.991,1.149 -5.225,1.149 -7.216,0 z"
   style="fill:#ffffff"
   id="path6471" />

                            </g>

                        </g>

                        <g
   transform="translate(59.559,-98.9469)"
   id="g6489">
                            <g
   id="g6479">
                                <path
   d="m 421.566,279.185 c -0.008,1.502 -1.003,3.003 -2.987,4.148 -3.975,2.295 -10.425,2.3 -14.41,0.014 v 0 l -36.108,-20.847 -0.024,-66.681 14.433,-8.333 36.109,20.847 0.024,0.014 c 1.976,1.149 2.94,2.638 2.939,4.141 z"
   style="fill:url(#linearGradient6890)"
   id="path6477" />

                            </g>

                            <g
   transform="translate(-43.3013,8.33334)"
   id="g6483">
                                <path
   d="m 461.88,200 c 3.983,2.3 3.983,6.034 0,8.333 -3.983,2.3 -10.45,2.3 -14.434,0 0,0 -36.084,-20.833 -36.084,-20.833 l 14.41,-8.347 z"
   style="fill:#f1f4f7"
   id="path6481" />

                            </g>

                            <g
   transform="matrix(0.938283,0,0,0.938283,48.1322,-87.1296)"
   id="g6487">
                                <path
   d="m 345.056,299.218 7.216,-4.167 38.458,22.204 c 1.992,1.15 1.992,3.017 0,4.167 -1.991,1.149 -5.225,1.149 -7.216,0 z"
   style="fill:#ffffff"
   id="path6485" />

                            </g>

                        </g>

                        <g
   transform="translate(38.2353,-94.5915)"
   id="g6503">
                            <g
   id="g6493">
                                <path
   d="m 421.566,279.185 c -0.008,1.502 -1.003,3.003 -2.987,4.148 -3.975,2.295 -10.425,2.3 -14.41,0.014 v 0 l -36.108,-20.847 -0.024,-66.681 14.433,-8.333 36.109,20.847 0.024,0.014 c 1.976,1.149 2.94,2.638 2.939,4.141 z"
   style="fill:url(#linearGradient6892)"
   id="path6491" />

                            </g>

                            <g
   transform="translate(-43.3013,8.33334)"
   id="g6497">
                                <path
   d="m 461.88,200 c 3.983,2.3 3.983,6.034 0,8.333 -3.983,2.3 -10.45,2.3 -14.434,0 0,0 -36.084,-20.833 -36.084,-20.833 l 14.41,-8.347 z"
   style="fill:#f1f4f7"
   id="path6495" />

                            </g>

                            <g
   transform="matrix(0.938283,0,0,0.938283,48.1322,-87.1296)"
   id="g6501">
                                <path
   d="m 345.056,299.218 7.216,-4.167 38.458,22.204 c 1.992,1.15 1.992,3.017 0,4.167 -1.991,1.149 -5.225,1.149 -7.216,0 z"
   style="fill:#ffffff"
   id="path6499" />

                            </g>

                        </g>

                    </g>

                    <g
   transform="matrix(0.866025,0.5,0,1.1547,79.6882,-37.675)"
   id="g6523">
                        <g
   transform="matrix(15.5197,0,0,15.5197,313.766,48.9507)"
   id="g6509">
                            <path
   d="M 0.258,-0.629 0.121,-0.066 C 0.117,-0.047 0.113,-0.033 0.109,-0.022 0.106,-0.011 0.101,-0.003 0.094,0.003 0.087,0.009 0.076,0.012 0.063,0.012 c -0.033,0 -0.05,-0.014 -0.05,-0.043 0,-0.007 0.003,-0.026 0.01,-0.056 L 0.159,-0.65 c 0.007,-0.03 0.014,-0.05 0.021,-0.061 0.006,-0.011 0.019,-0.017 0.038,-0.017 0.016,0 0.029,0.004 0.037,0.012 0.009,0.008 0.013,0.018 0.013,0.032 0,0.01 -0.003,0.028 -0.01,0.055 z"
   style="fill:#8da5b4;fill-rule:nonzero"
   id="path6507" />

                        </g>

                        <g
   transform="matrix(15.5197,0,0,15.5197,318.123,48.9507)"
   id="g6513">
                            <path
   d="m 0.069,-0.069 v -0.578 c 0,-0.027 0.006,-0.047 0.018,-0.061 0.012,-0.013 0.028,-0.02 0.048,-0.02 0.02,0 0.036,0.007 0.049,0.02 0.012,0.014 0.018,0.034 0.018,0.061 v 0.578 c 0,0.027 -0.006,0.047 -0.019,0.061 -0.012,0.013 -0.028,0.02 -0.048,0.02 -0.02,0 -0.036,-0.007 -0.048,-0.021 -0.012,-0.014 -0.018,-0.034 -0.018,-0.06 z"
   style="fill:#8da5b4;fill-rule:nonzero"
   id="path6511" />

                        </g>

                        <g
   transform="matrix(15.5197,0,0,15.5197,322.329,48.9507)"
   id="g6517">
                            <path
   d="m 0.202,-0.454 v 0.385 c 0,0.027 -0.006,0.047 -0.019,0.061 C 0.17,0.005 0.154,0.012 0.135,0.012 0.115,0.012 0.099,0.005 0.087,-0.009 0.075,-0.023 0.069,-0.043 0.069,-0.069 V -0.45 c 0,-0.027 0.006,-0.046 0.018,-0.06 0.012,-0.013 0.028,-0.02 0.048,-0.02 0.019,0 0.035,0.007 0.048,0.02 0.013,0.014 0.019,0.032 0.019,0.056 z M 0.136,-0.592 c -0.018,0 -0.034,-0.005 -0.047,-0.017 -0.014,-0.011 -0.02,-0.027 -0.02,-0.048 0,-0.019 0.007,-0.035 0.02,-0.047 0.014,-0.012 0.029,-0.018 0.047,-0.018 0.017,0 0.033,0.005 0.046,0.016 0.013,0.012 0.02,0.028 0.02,0.049 0,0.02 -0.006,0.036 -0.019,0.048 -0.013,0.011 -0.029,0.017 -0.047,0.017 z"
   style="fill:#8da5b4;fill-rule:nonzero"
   id="path6515" />

                        </g>

                        <g
   transform="matrix(15.5197,0,0,15.5197,326.535,48.9507)"
   id="g6521">
                            <path
   d="m 0.192,-0.652 v 0.204 c 0.025,-0.026 0.051,-0.046 0.077,-0.06 0.026,-0.014 0.058,-0.021 0.096,-0.021 0.045,0 0.083,0.011 0.117,0.032 0.033,0.021 0.059,0.051 0.077,0.091 0.019,0.04 0.028,0.087 0.028,0.142 0,0.04 -0.005,0.077 -0.015,0.111 C 0.561,-0.119 0.546,-0.09 0.527,-0.065 0.507,-0.041 0.484,-0.022 0.456,-0.008 0.428,0.005 0.397,0.012 0.364,0.012 0.343,0.012 0.324,0.01 0.306,0.005 0.288,0 0.272,-0.006 0.26,-0.014 0.247,-0.022 0.236,-0.031 0.227,-0.039 0.218,-0.048 0.207,-0.06 0.192,-0.077 v 0.013 c 0,0.025 -0.006,0.044 -0.018,0.057 C 0.162,0.006 0.146,0.012 0.128,0.012 0.109,0.012 0.094,0.006 0.083,-0.007 0.072,-0.02 0.066,-0.039 0.066,-0.064 v -0.582 c 0,-0.027 0.005,-0.047 0.016,-0.061 0.011,-0.014 0.026,-0.021 0.046,-0.021 0.02,0 0.036,0.007 0.047,0.02 0.011,0.013 0.017,0.032 0.017,0.056 z m 0.006,0.396 c 0,0.053 0.012,0.094 0.037,0.122 0.024,0.029 0.056,0.043 0.095,0.043 0.034,0 0.062,-0.014 0.087,-0.044 0.024,-0.029 0.036,-0.07 0.036,-0.125 0,-0.035 -0.005,-0.065 -0.015,-0.091 C 0.428,-0.376 0.414,-0.396 0.395,-0.409 0.376,-0.423 0.355,-0.43 0.33,-0.43 c -0.025,0 -0.048,0.007 -0.068,0.021 -0.02,0.013 -0.035,0.033 -0.047,0.06 -0.011,0.026 -0.017,0.057 -0.017,0.093 z"
   style="fill:#8da5b4;fill-rule:nonzero"
   id="path6519" />

                        </g>

                    </g>

                </g>

                <g
   id="g28400"
   transform="matrix(0.57308,0,0,0.57308,1212.26,-1081.61)">
                    <g
   id="rect12456"
   transform="matrix(0.229136,0.132292,0,0.264583,2476.83,2597.48)">
                        <path
   d="m 1285.04,1407.95 v 42.71 c -13.64,3.55 -26.72,8.99 -38.86,16.17 l -30.25,-30.25 -53.44,53.45 30.23,30.23 c -7.14,12.15 -12.55,25.23 -16.07,38.87 h -42.79 v 75.59 h 42.71 c 3.55,13.64 8.99,26.72 16.17,38.86 l -30.25,30.25 53.44,53.44 30.24,-30.23 c 12.14,7.14 25.23,12.55 38.87,16.07 v 42.79 h 75.59 v -42.71 c 13.64,-3.55 26.72,-8.99 38.86,-16.17 l 30.25,30.25 53.44,-53.44 -30.23,-30.24 c 7.14,-12.14 12.55,-25.23 16.07,-38.87 h 42.79 v -75.59 h -42.71 c -3.55,-13.64 -8.99,-26.72 -16.17,-38.85 l 30.25,-30.25 -53.44,-53.45 -30.24,30.23 c -12.14,-7.14 -25.23,-12.55 -38.87,-16.07 v -42.79 z m 37.8,113.38 c 41.46,0 75.58,34.13 75.58,75.59 0,41.47 -34.12,75.6 -75.58,75.6 -41.47,0 -75.6,-34.13 -75.6,-75.6 0,-41.46 34.13,-75.59 75.6,-75.59 z"
   style="fill:#8da5b4;fill-rule:nonzero"
   id="path6527" />

                    </g>

                    <g
   id="g28149">
                        <path
   id="path28063"
   d="m 2762.62,3145 8.66,-5 v 11.3 l -8.66,5 V 3145"
   style="fill:#cccccc;fill-rule:nonzero" />

                        <path
   id="path28065"
   d="m 2762.62,3156.3 8.66,-5 -8.9,-0.86 -8.66,5 8.9,0.86"
   style="fill:#f1f4f7;fill-rule:nonzero" />

                        <path
   id="path28067"
   d="m 2753.72,3155.44 8.66,-5 -6.93,-12.01 -8.66,5 6.93,12.01"
   style="fill:#8da5b4;fill-rule:nonzero" />

                        <path
   id="path28069"
   d="m 2746.79,3143.43 8.66,-5 -12.25,7.07 -8.66,5 12.25,-7.07"
   style="fill-opacity:0.3;fill-rule:nonzero" />

                        <path
   id="path28071"
   d="m 2734.54,3150.5 8.66,-5 6.93,12 -8.66,5 -6.93,-12"
   style="fill:#cccccc;fill-rule:nonzero" />

                        <path
   id="path28073"
   d="m 2741.47,3162.5 8.66,-5 -3.68,8.16 -8.67,5 3.69,-8.16"
   style="fill:#cccccc;fill-rule:nonzero" />

                        <path
   id="path28077"
   d="m 2727.98,3165 8.66,-5 v 20 l -8.66,5 v -20"
   style="fill:#cccccc;fill-rule:nonzero" />

                        <path
   id="path28079"
   d="m 2727.98,3185 8.66,-5 9.79,5.65 -8.66,5 -9.79,-5.65"
   style="fill:#cccccc;fill-rule:nonzero" />

                        <path
   id="path28081"
   d="m 2737.77,3190.65 8.66,-5 3.7,12.42 -8.66,5 -3.7,-12.42"
   style="fill:#cccccc;fill-rule:nonzero" />

                        <path
   id="path28083"
   d="m 2741.47,3203.07 8.66,-5 -6.93,4 -8.66,5 6.93,-4"
   style="fill-opacity:0.3;fill-rule:nonzero" />

                        <path
   id="path28085"
   d="m 2734.54,3207.07 8.66,-5 12.25,21.21 -8.66,5 -12.25,-21.21"
   style="fill:#cccccc;fill-rule:nonzero" />

                        <path
   id="path28087"
   d="m 2746.79,3228.28 8.66,-5 6.92,-4 -8.66,5 -6.92,4"
   style="fill-opacity:0.3;fill-rule:nonzero" />

                        <path
   id="path28089"
   d="m 2753.71,3224.28 8.66,-5 8.91,9.4 -8.66,5 -8.91,-9.4"
   style="fill:#cccccc;fill-rule:nonzero" />

                        <path
   id="path28091"
   d="m 2762.62,3233.68 8.66,-5 V 3240 l -8.66,5 v -11.32"
   style="fill:#cccccc;fill-rule:nonzero" />

                        <path
   id="path28093"
   d="m 2762.62,3245 8.66,-5 17.32,10 -8.66,5 -17.32,-10"
   style="fill:#cccccc;fill-rule:nonzero" />

                        <path
   id="path28095"
   d="m 2779.94,3255 8.66,-5 v -11.3 l -8.66,5 v 11.3"
   style="fill:#8da5b4;fill-rule:nonzero" />

                        <path
   id="path28097"
   d="m 2779.94,3243.7 8.66,-5 8.91,0.86 -8.66,5 -8.91,-0.86"
   style="fill:#cccccc;fill-rule:nonzero" />

                        <path
   id="path28099"
   d="m 2788.85,3244.56 8.66,-5 6.93,12.01 -8.66,5 -6.93,-12.01"
   style="fill:#cccccc;fill-rule:nonzero" />

                        <path
   id="path28101"
   d="m 2795.78,3256.57 8.66,-5 12.24,-7.07 -8.66,5 -12.24,7.07"
   style="fill-opacity:0.3;fill-rule:nonzero" />

                        <path
   id="path28103"
   d="m 2808.02,3249.5 8.66,-5 -6.92,-12 -8.66,5 6.92,12"
   style="fill:#8da5b4;fill-rule:nonzero" />

                        <path
   id="path28105"
   d="m 2801.1,3237.5 8.66,-5 3.68,-8.16 -8.66,5 -3.68,8.16"
   style="fill:#8da5b4;fill-rule:nonzero" />

                        <path
   id="path28107"
   d="m 2804.78,3229.34 8.66,-5 9.8,5.66 -8.66,5 -9.8,-5.66"
   style="fill:#cccccc;fill-rule:nonzero" />

                        <path
   id="path28109"
   d="m 2814.58,3235 8.66,-5 v -20 l -8.66,5 v 20"
   style="fill:#8da5b4;fill-rule:nonzero" />

                        <path
   id="path28111"
   d="m 2814.58,3215 8.66,-5 -9.78,-5.65 -8.66,5 9.78,5.65"
   style="fill:#f1f4f7;fill-rule:nonzero" />

                        <path
   id="path28113"
   d="m 2804.8,3209.35 8.66,-5 -3.71,-12.42 -8.66,5 3.71,12.42"
   style="fill:#8da5b4;fill-rule:nonzero" />

                        <path
   id="path28115"
   d="m 2801.09,3196.93 8.66,-5 6.93,-4 -8.66,5 -6.93,4"
   style="fill-opacity:0.3;fill-rule:nonzero" />

                        <path
   id="path28117"
   d="m 2808.02,3192.93 8.66,-5 -12.24,-21.21 -8.66,5 12.24,21.21"
   style="fill:#8da5b4;fill-rule:nonzero" />

                        <path
   id="path28119"
   d="m 2795.78,3171.72 8.66,-5 -6.93,4 -8.66,5 6.93,-4"
   style="fill-opacity:0.3;fill-rule:nonzero" />

                        <path
   id="path28121"
   d="m 2788.85,3175.72 8.66,-5 -8.91,-9.4 -8.66,5 8.91,9.4"
   style="fill:#f1f4f7;fill-rule:nonzero" />

                        <path
   id="path28123"
   d="m 2779.94,3166.32 8.66,-5 V 3150 l -8.66,5 v 11.32"
   style="fill:#8da5b4;fill-rule:nonzero" />

                        <path
   id="path28125"
   d="m 2779.94,3155 8.66,-5 -17.32,-10 -8.66,5 17.32,10"
   style="fill:#f1f4f7;fill-rule:nonzero" />

                        <path
   id="path28127"
   d="m 2762.62,3145 8.66,-5 -8.66,5"
   style="fill-opacity:0.3;fill-rule:nonzero" />

                        <path
   id="path28145"
   d="m 2771.28,3180 8.66,-5 -8.66,5"
   style="fill-opacity:0.3;fill-rule:nonzero" />

                        <path
   id="path28147"
   d="m 2771.28,3180 8.66,-5 -8.66,5"
   style="fill-opacity:0.3;fill-rule:nonzero" />

                        <path
   id="path28075"
   d="m 2737.78,3170.66 8.67,-5 -9.81,-5.66 -8.66,5 9.8,5.66"
   style="fill:#f1f4f7;fill-rule:nonzero" />

                    </g>

                    <g
   id="path20286"
   transform="matrix(0.229136,0.132292,0,0.264583,2468.17,2602.48)">
                        <path
   d="m 1285.04,1407.95 v 42.71 c -13.64,3.55 -26.72,8.99 -38.86,16.17 l -30.25,-30.25 -53.44,53.45 30.23,30.23 c -7.14,12.15 -12.55,25.23 -16.07,38.87 h -42.79 v 75.59 h 42.71 c 3.55,13.64 8.99,26.72 16.17,38.86 l -30.25,30.25 53.44,53.44 30.24,-30.23 c 12.14,7.14 25.23,12.55 38.87,16.07 v 42.79 h 75.59 v -42.71 c 13.64,-3.55 26.72,-8.99 38.86,-16.17 l 30.25,30.25 53.44,-53.44 -30.23,-30.24 c 7.14,-12.14 12.55,-25.23 16.07,-38.87 h 42.79 v -75.59 h -42.71 c -3.55,-13.64 -8.99,-26.72 -16.17,-38.85 l 30.25,-30.25 -53.44,-53.45 -30.24,30.23 c -12.14,-7.14 -25.23,-12.55 -38.87,-16.07 v -42.79 z m 37.8,113.38 c 41.46,0 75.58,34.13 75.58,75.59 0,41.47 -34.12,75.6 -75.58,75.6 -41.47,0 -75.6,-34.13 -75.6,-75.6 0,-41.46 34.13,-75.59 75.6,-75.59 z"
   style="fill:#cdd8e1;fill-rule:nonzero"
   id="path6566" />

                    </g>

                </g>

            </g>

        </g>

        <g
   transform="matrix(0.506732,0,0,0.506732,-376.514,415.237)"
   id="g6664">
            <g
   transform="matrix(0.649519,-0.375,0,1.1547,443.838,-356.25)"
   id="g6576">
                <rect
   x="1050"
   y="1818.65"
   width="200"
   height="86.602997"
   style="fill:#698799"
   id="rect6574" />

            </g>

            <g
   transform="matrix(0.57735,-0.333333,0,0.659829,526.832,489.881)"
   id="g6610">
                <g
   transform="matrix(42.75,0,0,49.875,1053.43,1883.72)"
   id="g6580">
                    <path
   d="M 0.32,-0.108 0.205,-0.564 v 0.494 c 0,0.028 -0.006,0.048 -0.018,0.062 C 0.175,0.005 0.158,0.012 0.138,0.012 0.119,0.012 0.103,0.005 0.09,-0.008 0.078,-0.022 0.072,-0.042 0.072,-0.07 v -0.566 c 0,-0.031 0.008,-0.053 0.024,-0.063 0.016,-0.011 0.038,-0.017 0.066,-0.017 h 0.045 c 0.027,0 0.047,0.003 0.059,0.008 0.012,0.004 0.021,0.013 0.027,0.026 0.006,0.013 0.013,0.033 0.02,0.062 L 0.417,-0.228 0.521,-0.62 C 0.528,-0.649 0.535,-0.669 0.541,-0.682 0.547,-0.695 0.556,-0.704 0.568,-0.708 0.58,-0.713 0.6,-0.716 0.627,-0.716 h 0.045 c 0.028,0 0.05,0.006 0.066,0.017 0.016,0.01 0.024,0.032 0.024,0.063 v 0.566 c 0,0.028 -0.006,0.048 -0.018,0.062 C 0.732,0.005 0.715,0.012 0.695,0.012 0.676,0.012 0.66,0.005 0.647,-0.008 0.635,-0.022 0.629,-0.042 0.629,-0.07 V -0.564 L 0.514,-0.108 C 0.507,-0.078 0.501,-0.057 0.496,-0.043 0.491,-0.029 0.482,-0.016 0.47,-0.005 0.457,0.007 0.439,0.012 0.417,0.012 0.4,0.012 0.386,0.009 0.374,0.001 0.362,-0.006 0.353,-0.015 0.347,-0.027 0.34,-0.038 0.335,-0.051 0.331,-0.065 0.328,-0.079 0.324,-0.093 0.32,-0.108 Z"
   style="fill:#ffffff;fill-rule:nonzero"
   id="path6578" />

                </g>

                <g
   transform="matrix(42.75,0,0,49.875,1089.04,1883.72)"
   id="g6584">
                    <path
   d="M 0.441,-0.226 H 0.18 c 0.001,0.03 0.007,0.057 0.018,0.08 0.012,0.023 0.028,0.041 0.048,0.052 0.02,0.012 0.041,0.018 0.065,0.018 0.016,0 0.031,-0.002 0.044,-0.006 0.013,-0.004 0.026,-0.009 0.038,-0.017 0.012,-0.008 0.024,-0.017 0.034,-0.026 0.011,-0.009 0.024,-0.021 0.041,-0.037 0.007,-0.006 0.016,-0.009 0.029,-0.009 0.014,0 0.025,0.004 0.033,0.011 0.009,0.008 0.013,0.018 0.013,0.032 0,0.012 -0.005,0.026 -0.014,0.042 C 0.519,-0.07 0.505,-0.054 0.486,-0.039 0.467,-0.024 0.443,-0.012 0.414,-0.002 0.385,0.007 0.352,0.012 0.315,0.012 0.229,0.012 0.163,-0.012 0.115,-0.061 0.068,-0.11 0.044,-0.176 0.044,-0.26 c 0,-0.039 0.006,-0.076 0.018,-0.109 0.011,-0.034 0.028,-0.063 0.051,-0.087 0.022,-0.024 0.05,-0.043 0.083,-0.055 0.033,-0.013 0.069,-0.02 0.109,-0.02 0.052,0 0.097,0.011 0.134,0.033 0.037,0.022 0.065,0.051 0.084,0.085 0.019,0.035 0.028,0.071 0.028,0.107 0,0.033 -0.01,0.055 -0.029,0.065 -0.019,0.01 -0.046,0.015 -0.081,0.015 z M 0.18,-0.302 H 0.422 C 0.419,-0.347 0.406,-0.381 0.385,-0.404 0.364,-0.427 0.336,-0.438 0.301,-0.438 c -0.033,0 -0.061,0.011 -0.082,0.034 -0.021,0.023 -0.034,0.057 -0.039,0.102 z"
   style="fill:#ffffff;fill-rule:nonzero"
   id="path6582" />

                </g>

                <g
   transform="matrix(42.75,0,0,49.875,1114.44,1883.72)"
   id="g6588">
                    <path
   d="m 0.076,-0.518 h 0.015 v -0.08 c 0,-0.022 0,-0.038 0.002,-0.051 0.001,-0.012 0.004,-0.022 0.009,-0.031 0.005,-0.009 0.013,-0.017 0.023,-0.022 0.009,-0.006 0.02,-0.009 0.032,-0.009 0.017,0 0.032,0.006 0.046,0.019 0.009,0.009 0.015,0.019 0.017,0.031 0.003,0.012 0.004,0.03 0.004,0.052 v 0.091 h 0.049 c 0.019,0 0.033,0.004 0.043,0.013 0.01,0.009 0.015,0.021 0.015,0.035 0,0.018 -0.007,0.03 -0.021,0.037 -0.014,0.008 -0.035,0.011 -0.061,0.011 H 0.224 v 0.245 c 0,0.021 0.001,0.037 0.002,0.048 0.002,0.012 0.006,0.021 0.012,0.028 0.006,0.007 0.017,0.01 0.031,0.01 0.008,0 0.018,-0.001 0.032,-0.004 0.013,-0.003 0.024,-0.004 0.031,-0.004 0.011,0 0.02,0.004 0.029,0.013 0.009,0.008 0.013,0.019 0.013,0.032 0,0.021 -0.012,0.038 -0.035,0.049 C 0.315,0.007 0.282,0.012 0.238,0.012 0.196,0.012 0.165,0.005 0.143,-0.009 0.122,-0.023 0.108,-0.042 0.101,-0.067 0.094,-0.092 0.091,-0.125 0.091,-0.166 V -0.422 H 0.073 c -0.019,0 -0.034,-0.004 -0.044,-0.014 -0.01,-0.009 -0.015,-0.02 -0.015,-0.034 0,-0.014 0.005,-0.026 0.016,-0.035 0.011,-0.009 0.026,-0.013 0.046,-0.013 z"
   style="fill:#ffffff;fill-rule:nonzero"
   id="path6586" />

                </g>

                <g
   transform="matrix(42.75,0,0,49.875,1129.57,1883.72)"
   id="g6592">
                    <path
   d="M 0.406,-0.063 C 0.374,-0.038 0.342,-0.019 0.312,-0.007 0.282,0.006 0.248,0.012 0.211,0.012 0.177,0.012 0.147,0.005 0.121,-0.008 0.095,-0.022 0.075,-0.04 0.061,-0.063 0.047,-0.086 0.04,-0.111 0.04,-0.138 0.04,-0.175 0.052,-0.206 0.075,-0.231 0.098,-0.257 0.13,-0.274 0.17,-0.283 0.178,-0.285 0.199,-0.29 0.233,-0.296 0.266,-0.303 0.295,-0.309 0.319,-0.315 0.343,-0.321 0.369,-0.328 0.397,-0.336 0.395,-0.371 0.388,-0.397 0.376,-0.413 0.363,-0.43 0.337,-0.438 0.298,-0.438 c -0.034,0 -0.059,0.005 -0.077,0.014 -0.017,0.01 -0.031,0.024 -0.044,0.043 -0.012,0.019 -0.02,0.031 -0.025,0.037 -0.005,0.006 -0.016,0.009 -0.033,0.009 -0.015,0 -0.028,-0.005 -0.039,-0.014 -0.011,-0.01 -0.016,-0.022 -0.016,-0.037 0,-0.024 0.008,-0.046 0.025,-0.069 0.016,-0.022 0.042,-0.04 0.078,-0.054 0.035,-0.015 0.078,-0.022 0.131,-0.022 0.058,0 0.105,0.007 0.138,0.021 0.034,0.014 0.057,0.036 0.071,0.066 0.014,0.03 0.021,0.069 0.021,0.119 0,0.031 0,0.058 0,0.079 -0.001,0.022 -0.001,0.046 -0.001,0.073 0,0.025 0.004,0.051 0.012,0.079 0.009,0.027 0.013,0.044 0.013,0.052 0,0.014 -0.007,0.026 -0.02,0.037 C 0.52,0.007 0.505,0.012 0.489,0.012 0.475,0.012 0.462,0.006 0.448,-0.007 0.435,-0.02 0.421,-0.039 0.406,-0.063 Z M 0.397,-0.256 c -0.02,0.007 -0.048,0.015 -0.085,0.023 -0.038,0.008 -0.063,0.014 -0.078,0.017 -0.014,0.004 -0.028,0.011 -0.041,0.022 -0.013,0.011 -0.019,0.027 -0.019,0.046 0,0.02 0.007,0.037 0.023,0.052 0.015,0.014 0.035,0.021 0.06,0.021 0.026,0 0.051,-0.006 0.073,-0.018 0.022,-0.011 0.038,-0.026 0.049,-0.044 0.012,-0.02 0.018,-0.054 0.018,-0.1 z"
   style="fill:#ffffff;fill-rule:nonzero"
   id="path6590" />

                </g>

                <g
   transform="matrix(42.75,0,0,49.875,1154.98,1883.72)"
   id="g6596">
                    <path
   d="M 0.434,-0.064 V -0.077 C 0.416,-0.057 0.399,-0.04 0.381,-0.027 0.364,-0.014 0.345,-0.004 0.324,0.002 0.304,0.009 0.282,0.012 0.258,0.012 0.226,0.012 0.196,0.005 0.169,-0.008 0.142,-0.022 0.118,-0.041 0.099,-0.066 0.079,-0.091 0.064,-0.12 0.053,-0.154 0.043,-0.188 0.038,-0.225 0.038,-0.264 c 0,-0.083 0.02,-0.148 0.061,-0.195 0.041,-0.047 0.094,-0.07 0.161,-0.07 0.038,0 0.071,0.007 0.097,0.02 0.026,0.013 0.052,0.033 0.077,0.061 v -0.197 c 0,-0.027 0.006,-0.048 0.016,-0.062 0.011,-0.014 0.027,-0.021 0.047,-0.021 0.02,0 0.036,0.006 0.047,0.019 0.011,0.013 0.016,0.032 0.016,0.057 v 0.588 c 0,0.025 -0.006,0.044 -0.018,0.057 C 0.531,0.006 0.516,0.012 0.497,0.012 0.479,0.012 0.464,0.006 0.452,-0.008 0.44,-0.021 0.434,-0.04 0.434,-0.064 Z M 0.172,-0.26 c 0,0.036 0.005,0.067 0.017,0.093 0.011,0.025 0.026,0.044 0.046,0.057 0.019,0.013 0.041,0.019 0.064,0.019 0.023,0 0.045,-0.006 0.064,-0.018 C 0.382,-0.121 0.398,-0.14 0.409,-0.165 0.421,-0.191 0.427,-0.222 0.427,-0.26 0.427,-0.295 0.421,-0.326 0.409,-0.351 0.398,-0.377 0.382,-0.396 0.363,-0.41 0.343,-0.423 0.321,-0.43 0.298,-0.43 c -0.025,0 -0.046,0.007 -0.066,0.021 -0.019,0.013 -0.034,0.033 -0.044,0.059 -0.011,0.026 -0.016,0.056 -0.016,0.09 z"
   style="fill:#ffffff;fill-rule:nonzero"
   id="path6594" />

                </g>

                <g
   transform="matrix(42.75,0,0,49.875,1181.7,1883.72)"
   id="g6600">
                    <path
   d="M 0.406,-0.063 C 0.374,-0.038 0.342,-0.019 0.312,-0.007 0.282,0.006 0.248,0.012 0.211,0.012 0.177,0.012 0.147,0.005 0.121,-0.008 0.095,-0.022 0.075,-0.04 0.061,-0.063 0.047,-0.086 0.04,-0.111 0.04,-0.138 0.04,-0.175 0.052,-0.206 0.075,-0.231 0.098,-0.257 0.13,-0.274 0.17,-0.283 0.178,-0.285 0.199,-0.29 0.233,-0.296 0.266,-0.303 0.295,-0.309 0.319,-0.315 0.343,-0.321 0.369,-0.328 0.397,-0.336 0.395,-0.371 0.388,-0.397 0.376,-0.413 0.363,-0.43 0.337,-0.438 0.298,-0.438 c -0.034,0 -0.059,0.005 -0.077,0.014 -0.017,0.01 -0.031,0.024 -0.044,0.043 -0.012,0.019 -0.02,0.031 -0.025,0.037 -0.005,0.006 -0.016,0.009 -0.033,0.009 -0.015,0 -0.028,-0.005 -0.039,-0.014 -0.011,-0.01 -0.016,-0.022 -0.016,-0.037 0,-0.024 0.008,-0.046 0.025,-0.069 0.016,-0.022 0.042,-0.04 0.078,-0.054 0.035,-0.015 0.078,-0.022 0.131,-0.022 0.058,0 0.105,0.007 0.138,0.021 0.034,0.014 0.057,0.036 0.071,0.066 0.014,0.03 0.021,0.069 0.021,0.119 0,0.031 0,0.058 0,0.079 -0.001,0.022 -0.001,0.046 -0.001,0.073 0,0.025 0.004,0.051 0.012,0.079 0.009,0.027 0.013,0.044 0.013,0.052 0,0.014 -0.007,0.026 -0.02,0.037 C 0.52,0.007 0.505,0.012 0.489,0.012 0.475,0.012 0.462,0.006 0.448,-0.007 0.435,-0.02 0.421,-0.039 0.406,-0.063 Z M 0.397,-0.256 c -0.02,0.007 -0.048,0.015 -0.085,0.023 -0.038,0.008 -0.063,0.014 -0.078,0.017 -0.014,0.004 -0.028,0.011 -0.041,0.022 -0.013,0.011 -0.019,0.027 -0.019,0.046 0,0.02 0.007,0.037 0.023,0.052 0.015,0.014 0.035,0.021 0.06,0.021 0.026,0 0.051,-0.006 0.073,-0.018 0.022,-0.011 0.038,-0.026 0.049,-0.044 0.012,-0.02 0.018,-0.054 0.018,-0.1 z"
   style="fill:#ffffff;fill-rule:nonzero"
   id="path6598" />

                </g>

                <g
   transform="matrix(42.75,0,0,49.875,1206.04,1883.72)"
   id="g6604">
                    <path
   d="m 0.076,-0.518 h 0.015 v -0.08 c 0,-0.022 0,-0.038 0.002,-0.051 0.001,-0.012 0.004,-0.022 0.009,-0.031 0.005,-0.009 0.013,-0.017 0.023,-0.022 0.009,-0.006 0.02,-0.009 0.032,-0.009 0.017,0 0.032,0.006 0.046,0.019 0.009,0.009 0.015,0.019 0.017,0.031 0.003,0.012 0.004,0.03 0.004,0.052 v 0.091 h 0.049 c 0.019,0 0.033,0.004 0.043,0.013 0.01,0.009 0.015,0.021 0.015,0.035 0,0.018 -0.007,0.03 -0.021,0.037 -0.014,0.008 -0.035,0.011 -0.061,0.011 H 0.224 v 0.245 c 0,0.021 0.001,0.037 0.002,0.048 0.002,0.012 0.006,0.021 0.012,0.028 0.006,0.007 0.017,0.01 0.031,0.01 0.008,0 0.018,-0.001 0.032,-0.004 0.013,-0.003 0.024,-0.004 0.031,-0.004 0.011,0 0.02,0.004 0.029,0.013 0.009,0.008 0.013,0.019 0.013,0.032 0,0.021 -0.012,0.038 -0.035,0.049 C 0.315,0.007 0.282,0.012 0.238,0.012 0.196,0.012 0.165,0.005 0.143,-0.009 0.122,-0.023 0.108,-0.042 0.101,-0.067 0.094,-0.092 0.091,-0.125 0.091,-0.166 V -0.422 H 0.073 c -0.019,0 -0.034,-0.004 -0.044,-0.014 -0.01,-0.009 -0.015,-0.02 -0.015,-0.034 0,-0.014 0.005,-0.026 0.016,-0.035 0.011,-0.009 0.026,-0.013 0.046,-0.013 z"
   style="fill:#ffffff;fill-rule:nonzero"
   id="path6602" />

                </g>

                <g
   transform="matrix(42.75,0,0,49.875,1221.17,1883.72)"
   id="g6608">
                    <path
   d="M 0.406,-0.063 C 0.374,-0.038 0.342,-0.019 0.312,-0.007 0.282,0.006 0.248,0.012 0.211,0.012 0.177,0.012 0.147,0.005 0.121,-0.008 0.095,-0.022 0.075,-0.04 0.061,-0.063 0.047,-0.086 0.04,-0.111 0.04,-0.138 0.04,-0.175 0.052,-0.206 0.075,-0.231 0.098,-0.257 0.13,-0.274 0.17,-0.283 0.178,-0.285 0.199,-0.29 0.233,-0.296 0.266,-0.303 0.295,-0.309 0.319,-0.315 0.343,-0.321 0.369,-0.328 0.397,-0.336 0.395,-0.371 0.388,-0.397 0.376,-0.413 0.363,-0.43 0.337,-0.438 0.298,-0.438 c -0.034,0 -0.059,0.005 -0.077,0.014 -0.017,0.01 -0.031,0.024 -0.044,0.043 -0.012,0.019 -0.02,0.031 -0.025,0.037 -0.005,0.006 -0.016,0.009 -0.033,0.009 -0.015,0 -0.028,-0.005 -0.039,-0.014 -0.011,-0.01 -0.016,-0.022 -0.016,-0.037 0,-0.024 0.008,-0.046 0.025,-0.069 0.016,-0.022 0.042,-0.04 0.078,-0.054 0.035,-0.015 0.078,-0.022 0.131,-0.022 0.058,0 0.105,0.007 0.138,0.021 0.034,0.014 0.057,0.036 0.071,0.066 0.014,0.03 0.021,0.069 0.021,0.119 0,0.031 0,0.058 0,0.079 -0.001,0.022 -0.001,0.046 -0.001,0.073 0,0.025 0.004,0.051 0.012,0.079 0.009,0.027 0.013,0.044 0.013,0.052 0,0.014 -0.007,0.026 -0.02,0.037 C 0.52,0.007 0.505,0.012 0.489,0.012 0.475,0.012 0.462,0.006 0.448,-0.007 0.435,-0.02 0.421,-0.039 0.406,-0.063 Z M 0.397,-0.256 c -0.02,0.007 -0.048,0.015 -0.085,0.023 -0.038,0.008 -0.063,0.014 -0.078,0.017 -0.014,0.004 -0.028,0.011 -0.041,0.022 -0.013,0.011 -0.019,0.027 -0.019,0.046 0,0.02 0.007,0.037 0.023,0.052 0.015,0.014 0.035,0.021 0.06,0.021 0.026,0 0.051,-0.006 0.073,-0.018 0.022,-0.011 0.038,-0.026 0.049,-0.044 0.012,-0.02 0.018,-0.054 0.018,-0.1 z"
   style="fill:#ffffff;fill-rule:nonzero"
   id="path6606" />

                </g>

            </g>

            <g
   transform="matrix(0.866025,0.5,0,1.1547,202.073,-133.333)"
   id="g6614">
                <rect
   x="1058.33"
   y="822.724"
   width="8.3330002"
   height="86.602997"
   style="fill:#b5c5d1"
   id="rect6612" />

            </g>

            <g
   transform="matrix(0.649519,-0.375,1,0.57735,-3.60844,-14.5833)"
   id="g6618">
                <rect
   x="-950"
   y="1739.27"
   width="200"
   height="7.217"
   style="fill:#d5dee8"
   id="rect6616" />

            </g>

            <g
   transform="translate(209.289,-137.5)"
   id="g6622">
                <path
   d="M 930.977,1529.17 981.495,1500"
   style="fill:none;stroke:#ffffff;stroke-width:3.95px;stroke-linejoin:round;stroke-miterlimit:1.5"
   id="path6620" />

            </g>

            <g
   transform="translate(288.675,-183.333)"
   id="g6626">
                <path
   d="m 916.544,1537.5 14.433,-8.33"
   style="fill:none;stroke:#ffffff;stroke-width:3.95px;stroke-linejoin:round;stroke-miterlimit:1.5"
   id="path6624" />

            </g>

            <g
   transform="translate(288.675,-158.333)"
   id="g6630">
                <path
   d="m 916.544,1537.5 14.433,-8.33"
   style="fill:none;stroke:#ffffff;stroke-width:1.97px;stroke-linejoin:round;stroke-miterlimit:1.5"
   id="path6628" />

            </g>

            <g
   transform="matrix(0.866025,-0.5,0,1,376.127,341.176)"
   id="g6634">
                <path
   d="m 949.02,1533.33 v -41.66"
   style="fill:none;stroke:#ffffff;stroke-width:1.4px;stroke-linejoin:round;stroke-miterlimit:1.5"
   id="path6632" />

            </g>

            <g
   transform="translate(209.289,-129.167)"
   id="g6638">
                <path
   d="m 930.977,1529.17 36.085,-20.84"
   style="fill:none;stroke:#ffffff;stroke-width:1.97px;stroke-linejoin:round;stroke-miterlimit:1.5"
   id="path6636" />

            </g>

            <g
   transform="translate(274.241,-166.667)"
   id="g6642">
                <path
   d="m 930.977,1529.17 36.085,-20.84"
   style="fill:none;stroke:#ffffff;stroke-width:1.97px;stroke-linejoin:round;stroke-miterlimit:1.5"
   id="path6640" />

            </g>

            <g
   transform="translate(274.241,-158.333)"
   id="g6646">
                <path
   d="m 930.977,1529.17 36.085,-20.84"
   style="fill:none;stroke:#ffffff;stroke-width:1.97px;stroke-linejoin:round;stroke-miterlimit:1.5"
   id="path6644" />

            </g>

            <g
   transform="translate(274.241,-141.667)"
   id="g6650">
                <path
   d="m 930.977,1529.17 36.085,-20.84"
   style="fill:none;stroke:#ffffff;stroke-width:1.97px;stroke-linejoin:round;stroke-miterlimit:1.5"
   id="path6648" />

            </g>

            <g
   transform="translate(209.289,-120.833)"
   id="g6654">
                <path
   d="m 930.977,1529.17 36.085,-20.84"
   style="fill:none;stroke:#ffffff;stroke-width:1.97px;stroke-linejoin:round;stroke-miterlimit:1.5"
   id="path6652" />

            </g>

            <g
   transform="translate(209.289,-112.5)"
   id="g6658">
                <path
   d="m 930.977,1529.17 36.085,-20.84"
   style="fill:none;stroke:#ffffff;stroke-width:1.97px;stroke-linejoin:round;stroke-miterlimit:1.5"
   id="path6656" />

            </g>

            <g
   transform="translate(209.289,-104.167)"
   id="g6662">
                <path
   d="m 930.977,1529.17 36.085,-20.84"
   style="fill:none;stroke:#ffffff;stroke-width:1.97px;stroke-linejoin:round;stroke-miterlimit:1.5"
   id="path6660" />

            </g>

        </g>

    </g>

    
</g>
</svg>
