<?xml version="1.0" encoding="UTF-8" standalone="no"?>
<!DOCTYPE svg PUBLIC "-//W3C//DTD SVG 1.1//EN" "http://www.w3.org/Graphics/SVG/1.1/DTD/svg11.dtd">
<svg width="100%" height="100%" viewBox="0 0 426 463" version="1.1" xmlns="http://www.w3.org/2000/svg" xmlns:xlink="http://www.w3.org/1999/xlink" xml:space="preserve" xmlns:serif="http://www.serif.com/" style="fill-rule:evenodd;clip-rule:evenodd;">
    <g transform="matrix(1.00001,0,0,1,-663.959,-1133.33)">
        <g transform="matrix(0.737041,-0.425531,4.69383e-17,1.06588,-42.9921,-32.8708)">
            <rect x="998.333" y="1602.15" width="235.001" height="187.639" style="fill:rgb(217,217,217);"/>
        </g>
        <g transform="matrix(0.737041,0.425531,0,1.06588,130.213,-982.514)">
            <rect x="998.333" y="1602.15" width="235.001" height="187.639" style="fill:rgb(230,230,230);"/>
        </g>
        <g transform="matrix(1,0,0,1,-1385.64,466.667)">
            <g transform="matrix(1,0,0,1,1906.25,-416.093)">
                <g id="Base-image" serif:id="Base image" transform="matrix(1,0,0,1,-606.218,850)">
                    <g transform="matrix(0.866025,-0.5,3.88578e-15,1.1547,-1.13687e-12,-8.10019e-13)">
                        <rect x="1100" y="1039.23" width="200" height="14.434" style="fill:rgb(13,89,127);"/>
                    </g>
                    <g transform="matrix(0.866025,0.5,3.88578e-15,1.1547,-1.13687e-12,-6.39488e-13)">
                        <rect x="900" y="86.603" width="200" height="14.434" style="fill:rgb(37,106,140);"/>
                    </g>
                    <g transform="matrix(0.866025,0.5,-0.914852,0.52819,1732.75,49.5938)">
                        <rect x="-50" y="805.403" width="200" height="189.326" style="fill:rgb(61,122,153);"/>
                    </g>
                </g>
                <g transform="matrix(-1,-9.61491e-17,2.88442e-16,-1,692.82,2800)">
                    <g id="path58" transform="matrix(-0.581612,-0.335794,-0.581612,0.335794,367.461,1401.52)">
                        <path d="M0,0L0,15.687L-11.296,4.379C-10.079,3.532 -8.932,2.836 -7.853,2.27C-6.774,1.703 -5.764,1.265 -4.823,0.932C-3.882,0.598 -3.009,0.37 -2.206,0.222C-1.402,0.075 -0.667,0.009 0,0M57.751,1.304C57.771,1.287 57.881,1.194 58.084,1.065C58.288,0.935 58.586,0.768 58.982,0.603C59.377,0.439 59.871,0.276 60.467,0.155C61.063,0.033 61.761,-0.047 62.565,-0.047C63.236,-0.047 63.976,0.012 64.787,0.153C65.599,0.295 66.48,0.52 67.432,0.852C68.385,1.185 69.408,1.625 70.502,2.196C71.596,2.768 72.761,3.472 73.997,4.332L65.425,12.729L37.015,41.245L24.549,28.776L7.733,46.117L-34.471,4.39C-33.236,3.53 -32.073,2.826 -30.98,2.254C-29.887,1.683 -28.865,1.243 -27.913,0.91C-26.962,0.578 -26.081,0.353 -25.27,0.212C-24.46,0.07 -23.72,0.011 -23.05,0.011C-22.246,0.011 -21.548,0.091 -20.953,0.213C-20.357,0.334 -19.864,0.497 -19.468,0.662C-19.072,0.826 -18.775,0.993 -18.571,1.123C-18.367,1.253 -18.257,1.346 -18.237,1.363L0.815,20.415L7.628,26.948L26.494,8.082L33.085,1.304C33.105,1.287 33.215,1.194 33.419,1.065C33.623,0.935 33.92,0.768 34.316,0.603C34.712,0.439 35.206,0.276 35.801,0.155C36.397,0.033 37.096,-0.047 37.9,-0.047C38.57,-0.047 39.311,0.012 40.122,0.153C40.933,0.295 41.815,0.52 42.767,0.852C43.719,1.185 44.742,1.625 45.836,2.196C46.93,2.768 48.095,3.472 49.331,4.332L34.192,19.157L37.01,21.975L50.111,8.874L57.751,1.304M57.588,80.32L94.807,15.838L57.588,-48.644L-16.875,-48.644L-54.094,15.838L-16.875,80.32L57.588,80.32Z" style="fill:white;fill-rule:nonzero;"/>
                    </g>
                    <g id="path62" transform="matrix(-0.581612,-0.335794,-0.581612,0.335794,336.436,1396.35)">
                        <path d="M0,0L-9.913,9.895L-9.208,10.604L0.775,0.73L0,0Z" style="fill:white;fill-rule:nonzero;"/>
                    </g>
                </g>
            </g>
            <g transform="matrix(1,0,0,1,2033.72,710.313)">
                <g transform="matrix(0.866025,-0.5,1,0.57735,43.3011,-74.9999)">
                    <rect x="-150" y="259.808" width="50" height="43.301" style="fill:rgb(241,244,247);"/>
                </g>
                <g transform="matrix(0.866025,-0.5,5.55112e-17,1.1547,43.3011,-74.9999)">
                    <rect x="200" y="303.109" width="50" height="43.301" style="fill:rgb(141,165,180);"/>
                </g>
                <g transform="matrix(0.866025,0.5,-5.55112e-17,1.1547,43.3011,-74.9999)">
                    <rect x="150" y="129.904" width="50" height="43.301" style="fill:rgb(205,216,225);"/>
                </g>
                <g id="path20286" transform="matrix(0.0763785,0.0440973,0,0.0881942,93.8194,-11.6727)">
                    <path d="M1285.04,1407.95L1285.04,1450.66C1271.4,1454.21 1258.32,1459.65 1246.18,1466.83L1215.93,1436.58L1162.49,1490.03L1192.72,1520.26C1185.58,1532.41 1180.17,1545.49 1176.65,1559.13L1133.86,1559.13L1133.86,1634.72L1176.57,1634.72C1180.12,1648.36 1185.56,1661.44 1192.74,1673.58L1162.49,1703.83L1215.93,1757.27L1246.17,1727.04C1258.31,1734.18 1271.4,1739.59 1285.04,1743.11L1285.04,1785.9L1360.63,1785.9L1360.63,1743.19C1374.27,1739.64 1387.35,1734.2 1399.49,1727.02L1429.74,1757.27L1483.18,1703.83L1452.95,1673.59C1460.09,1661.45 1465.5,1648.36 1469.02,1634.72L1511.81,1634.72L1511.81,1559.13L1469.1,1559.13C1465.55,1545.49 1460.11,1532.41 1452.93,1520.28L1483.18,1490.03L1429.74,1436.58L1399.5,1466.81C1387.36,1459.67 1374.27,1454.26 1360.63,1450.74L1360.63,1407.95L1285.04,1407.95ZM1322.84,1521.33C1364.3,1521.33 1398.42,1555.46 1398.42,1596.92C1398.42,1638.39 1364.3,1672.52 1322.84,1672.52C1281.37,1672.52 1247.24,1638.39 1247.24,1596.92C1247.24,1555.46 1281.37,1521.33 1322.84,1521.33Z" style="fill:rgb(141,165,180);fill-rule:nonzero;"/>
                </g>
                <g transform="matrix(0.16644,0.0960941,-0.16644,0.0960941,212.048,125.169)">
                    <path d="M123.458,82.428L130.801,104.184L108.501,89.227L123.458,82.428Z" style="fill:rgb(141,165,180);fill-rule:nonzero;"/>
                    <path d="M101.975,91.946L109.861,105.543L93.273,97.113L101.975,91.946Z" style="fill:rgb(141,165,180);fill-rule:nonzero;"/>
                    <path d="M84.027,102.552L87.834,116.149L76.413,108.263L84.027,102.552Z" style="fill:rgb(141,165,180);fill-rule:nonzero;"/>
                    <path d="M205.585,138.992L198.515,149.87L211.023,144.159L205.585,138.992Z" style="fill:rgb(141,165,180);fill-rule:nonzero;"/>
                    <path d="M216.734,151.502L205.313,160.204L221.086,156.125L216.734,151.502Z" style="fill:rgb(141,165,180);fill-rule:nonzero;"/>
                    <path d="M188.996,33.479L197.427,51.971L202.865,33.207L188.996,33.479Z" style="fill:rgb(141,165,180);fill-rule:nonzero;"/>
                    <path d="M146.302,60.4L159.627,67.471L147.661,68.287L146.302,60.4Z" style="fill:rgb(141,165,180);fill-rule:nonzero;"/>
                    <path d="M149.565,74.814L157.723,78.077L150.925,79.98L149.565,74.814Z" style="fill:rgb(141,165,180);fill-rule:nonzero;"/>
                    <path d="M244.745,65.568L233.867,70.191L242.841,71.551L244.745,65.568Z" style="fill:rgb(141,165,180);fill-rule:nonzero;"/>
                    <path d="M240.394,78.893L231.964,81.341L238.762,83.788L240.394,78.893Z" style="fill:rgb(141,165,180);fill-rule:nonzero;"/>
                    <rect x="141.923" y="99.303" width="26.245" height="3.239" style="fill:rgb(141,165,180);"/>
                    <rect x="141.923" y="91.525" width="26.245" height="3.24" style="fill:rgb(141,165,180);"/>
                    <rect x="222.063" y="99.303" width="26.244" height="3.239" style="fill:rgb(141,165,180);"/>
                    <rect x="222.063" y="91.525" width="26.244" height="3.24" style="fill:rgb(141,165,180);"/>
                    <g>
                        <path d="M212.813,72.316L185.626,72.316L182.605,72.316L170.045,72.316L170.045,69.4L183.354,69.4C184.993,62.383 185.317,55.676 183.341,52.275C182.497,50.83 181.331,50.154 179.667,50.154C172.058,50.154 168.914,58.201 168.783,58.543L168.785,58.541L166.055,57.517C166.211,57.097 170.02,47.238 179.667,47.238C182.359,47.238 184.501,48.475 185.858,50.809C188.269,54.949 187.985,62.113 186.353,69.4L209.707,69.4C212.81,60.285 219.288,55.987 230.112,55.987L230.112,58.902C218.38,58.902 215.094,63.876 212.746,69.4L225.489,69.4L225.46,72.302L212.813,72.316Z" style="fill:rgb(141,165,180);fill-rule:nonzero;"/>
                        <path d="M214.73,86.718L214.749,86.715C211.29,81.614 210.194,77.26 211.641,72.302L208.67,72.316C207.635,75.617 208.05,80.59 210.599,84.856L180.924,84.856C182.729,81.24 184.403,76.831 185.626,72.316L182.605,72.316C181.258,77.104 179.364,81.841 177.233,85.594L176.544,86.807L193.196,97.289L183.821,103.467L185.427,105.902L195.905,98.994L207.217,106.376L208.771,103.908L198.282,97.42C198.282,97.42 213.964,87.233 214.743,86.736C214.738,86.729 214.735,86.724 214.73,86.718ZM195.87,95.526L183.553,87.771L207.624,87.777L195.87,95.526Z" style="fill:rgb(141,165,180);fill-rule:nonzero;"/>
                    </g>
                    <path d="M249.394,41.333C249.375,36.263 247.796,14.833 244.894,8.933C237.025,11.923 222.705,21.612 219.463,31.521C203.931,29.201 186.421,29.476 171.083,32.13C168.52,21.47 155.658,13.312 145.955,8.716C141.862,15.622 140.049,31.636 140.51,42.995C140.493,43.007 140.474,43.019 140.456,43.031C142.256,90.731 165.656,120.431 196.255,138.431C227.737,120.442 250.227,85.374 249.356,41.312C249.369,41.319 249.382,41.325 249.394,41.333ZM223.198,32.137C223.312,32.157 223.426,32.179 223.542,32.2C223.427,32.179 223.313,32.157 223.198,32.137ZM221.24,31.799C221.515,31.843 221.793,31.893 222.07,31.939C221.793,31.893 221.517,31.845 221.24,31.799ZM244.497,44.774C245.306,84.465 225.056,116.054 196.707,132.255C148.588,108.278 139.524,47.544 147.729,14.966C150.012,27.421 154.154,35.232 163.123,39.064C182.656,33.474 209.546,33.032 229.354,38.495C237.609,32.493 240.81,23.325 242.558,15.315C244.742,24.637 244.49,44.771 244.497,44.774Z" style="fill:rgb(141,165,180);fill-rule:nonzero;"/>
                    <path d="M265.017,182.091C260.076,176.563 250.394,173.946 242.31,174.14C236.572,167.31 203.306,132.278 203.306,132.278L201,135.182L241.163,178.42L242.906,178.271C253.818,177.336 260.021,183.254 261.663,185.09C262.867,186.437 263.593,187.665 263.989,188.629L241.914,188.629C191.29,162.213 146.835,143.585 99.616,139.517C99.72,132.945 100.89,125.507 103.134,117.218L98.791,116.041C96.483,124.562 95.268,132.277 95.13,139.174C90.21,138.848 85.258,138.679 80.263,138.679C76.026,138.679 72.167,139.072 68.648,139.756C64.059,135.169 60.148,130.797 56.826,126.647C78.762,103.798 114.976,83.149 146.359,75.556L145.344,71.159C111.552,79.308 74.564,101.494 53.953,122.921C44.388,110.011 40.593,99.417 39.466,91.389C38.042,81.249 40.463,71.947 46.465,64.489C55.862,52.815 69.214,51.993 82.942,54.302C82.674,56.47 82.959,58.542 83.828,59.824C87.458,65.187 106.971,67.07 118.619,61.874C110.023,49.829 92.613,43.948 87.789,46.305C86.19,47.085 84.985,48.519 84.159,50.19C79.414,49.342 74.701,48.71 71.256,48.735C59.148,48.824 49.893,53.055 42.96,61.668C36.158,70.118 33.409,80.612 35.01,92.015C36.526,102.814 41.873,114.301 50.835,126.213C49.346,127.81 47.907,129.387 46.522,130.936C24.679,155.377 8.712,181.586 8.712,185.929L8.712,188.179L37.528,188.179L37.023,185.511C35.396,176.91 38.646,166.16 45.303,158.126C49.482,153.082 56.402,147.325 67.271,144.669C76.934,154.1 89.245,164.115 102.949,173.778L124.363,173.778L124.363,171.528C124.363,168.989 123.104,166.767 120.818,165.271C117.435,163.06 112.213,162.755 107.416,164.391C102.843,159.298 100.279,152.494 99.725,144.044C146.199,148.159 190.652,166.927 240.81,193.129L268.408,193.129L268.769,191.32C269.285,188.745 267.881,185.295 265.017,182.091ZM41.838,155.255C35.022,163.481 31.409,174.349 32.237,183.679L14.084,183.679C17.731,175.785 32.26,152.967 53.728,129.919C56.686,133.575 59.98,137.269 63.6,140.992C53.06,144.16 46.149,150.052 41.838,155.255Z" style="fill:rgb(141,165,180);fill-rule:nonzero;"/>
                </g>
            </g>
            <g id="Folder" transform="matrix(1,0,0,1,1947.11,560.313)">
                <g id="path23103" transform="matrix(0.264583,0,0,0.264583,-2088.72,-3716.4)">
                    <path d="M8876.32,14991.1L8876.32,14613.2L9236.37,14613.2L9236.37,14726.5L9203.64,14745.4L9203.64,14991.1L8876.32,14991.1Z" style="fill:rgb(211,188,95);fill-rule:nonzero;"/>
                </g>
                <g id="path23128" transform="matrix(0.264583,0,0,0.264583,-2088.72,-3716.4)">
                    <rect x="8909.06" y="14632.1" width="261.854" height="377.953" style="fill:rgb(249,249,249);fill-rule:nonzero;stroke:rgb(204,204,204);stroke-width:3.78px;"/>
                </g>
                <g id="path23144" transform="matrix(0.264583,0,0,0.264583,-2088.72,-3716.4)">
                    <path d="M9138.18,14650.9L8909.06,14632.1L8909.06,15010L9138.18,15028.9L9138.18,14650.9Z" style="fill:rgb(249,249,249);fill-rule:nonzero;stroke:rgb(204,204,204);stroke-width:3.78px;"/>
                </g>
                <g id="path23160" transform="matrix(0.264583,0,0,0.264583,-2088.72,-3716.4)">
                    <path d="M8909.06,14632.1L9105.44,14669.8L9105.44,15047.8L8909.06,15010L8909.06,14632.1Z" style="fill:rgb(249,249,249);fill-rule:nonzero;stroke:rgb(204,204,204);stroke-width:3.78px;"/>
                </g>
                <g id="path23160-5" transform="matrix(0.264583,0,0,0.264583,-2097.38,-3711.4)">
                    <path d="M8941.79,14613.2L9105.44,14669.8L9105.44,15047.8L8941.79,14953.3L8941.79,14613.2Z" style="fill:rgb(249,249,249);fill-rule:nonzero;stroke:rgb(204,204,204);stroke-width:3.78px;"/>
                </g>
                <g id="path23111" transform="matrix(0.264583,0,0,0.264583,-2088.72,-3716.4)">
                    <path d="M8876.32,14613.2L9072.71,14726.5L9072.71,14839.9L9039.98,14858.8L9039.98,15085.6L8876.32,14991.1L8876.32,14613.2Z" style="fill:rgb(222,205,135);fill-rule:nonzero;"/>
                </g>
                <g transform="matrix(0.866019,0.499996,-5.5511e-17,1.1547,0.00191126,0.0011852)">
                    <text x="300.84px" y="50.582px" style="font-family:'ArialRoundedMTBold', 'Arial Rounded MT Bold', sans-serif;font-size:20px;fill:rgb(141,165,180);">/conf</text>
                </g>
            </g>
            <g transform="matrix(1,0,0,1,1947.11,660.313)">
                <g transform="matrix(1,0,0,1,-66.7759,28.1136)">
                    <g transform="matrix(1,0,0,1,64.976,-112.486)">
                        <g>
                            <path d="M421.566,279.185C421.558,280.687 420.563,282.188 418.579,283.333C414.604,285.628 408.154,285.633 404.169,283.347L404.169,283.347L404.145,283.333L368.061,262.5L368.037,195.819L382.47,187.486L418.579,208.333L418.603,208.347C420.579,209.496 421.543,210.985 421.542,212.488L421.566,279.185Z" style="fill:url(#_Linear1);"/>
                        </g>
                        <g transform="matrix(1,0,0,1,-43.3013,8.33334)">
                            <path d="M461.88,200C465.863,202.3 465.863,206.034 461.88,208.333C457.897,210.633 451.43,210.633 447.446,208.333C447.446,208.333 411.362,187.5 411.362,187.5L425.772,179.153L461.88,200Z" style="fill:rgb(241,244,247);"/>
                        </g>
                        <g transform="matrix(0.938283,0,0,0.938283,48.1322,-87.1296)">
                            <path d="M345.056,299.218L352.272,295.051L390.73,317.255C392.722,318.405 392.722,320.272 390.73,321.422C388.739,322.571 385.505,322.571 383.514,321.422L345.056,299.218Z" style="fill:white;"/>
                        </g>
                    </g>
                    <g transform="matrix(1,0,0,1,59.559,-98.9469)">
                        <g>
                            <path d="M421.566,279.185C421.558,280.687 420.563,282.188 418.579,283.333C414.604,285.628 408.154,285.633 404.169,283.347L404.169,283.347L404.145,283.333L368.061,262.5L368.037,195.819L382.47,187.486L418.579,208.333L418.603,208.347C420.579,209.496 421.543,210.985 421.542,212.488L421.566,279.185Z" style="fill:url(#_Linear2);"/>
                        </g>
                        <g transform="matrix(1,0,0,1,-43.3013,8.33334)">
                            <path d="M461.88,200C465.863,202.3 465.863,206.034 461.88,208.333C457.897,210.633 451.43,210.633 447.446,208.333C447.446,208.333 411.362,187.5 411.362,187.5L425.772,179.153L461.88,200Z" style="fill:rgb(241,244,247);"/>
                        </g>
                        <g transform="matrix(0.938283,0,0,0.938283,48.1322,-87.1296)">
                            <path d="M345.056,299.218L352.272,295.051L390.73,317.255C392.722,318.405 392.722,320.272 390.73,321.422C388.739,322.571 385.505,322.571 383.514,321.422L345.056,299.218Z" style="fill:white;"/>
                        </g>
                    </g>
                    <g transform="matrix(1,0,0,1,38.2353,-94.5915)">
                        <g>
                            <path d="M421.566,279.185C421.558,280.687 420.563,282.188 418.579,283.333C414.604,285.628 408.154,285.633 404.169,283.347L404.169,283.347L404.145,283.333L368.061,262.5L368.037,195.819L382.47,187.486L418.579,208.333L418.603,208.347C420.579,209.496 421.543,210.985 421.542,212.488L421.566,279.185Z" style="fill:url(#_Linear3);"/>
                        </g>
                        <g transform="matrix(1,0,0,1,-43.3013,8.33334)">
                            <path d="M461.88,200C465.863,202.3 465.863,206.034 461.88,208.333C457.897,210.633 451.43,210.633 447.446,208.333C447.446,208.333 411.362,187.5 411.362,187.5L425.772,179.153L461.88,200Z" style="fill:rgb(241,244,247);"/>
                        </g>
                        <g transform="matrix(0.938283,0,0,0.938283,48.1322,-87.1296)">
                            <path d="M345.056,299.218L352.272,295.051L390.73,317.255C392.722,318.405 392.722,320.272 390.73,321.422C388.739,322.571 385.505,322.571 383.514,321.422L345.056,299.218Z" style="fill:white;"/>
                        </g>
                    </g>
                </g>
                <g transform="matrix(0.866019,0.499996,-5.5511e-17,1.1547,79.6901,-37.6738)">
                    <text x="310.523px" y="50.582px" style="font-family:'ArialRoundedMTBold', 'Arial Rounded MT Bold', sans-serif;font-size:20px;fill:rgb(141,165,180);">/lib</text>
                </g>
            </g>
            <g id="Folder1" serif:id="Folder" transform="matrix(1,0,0,1,1860.82,610.133)">
                <g id="path231031" serif:id="path23103" transform="matrix(0.264583,0,0,0.264583,-2088.72,-3716.4)">
                    <path d="M8876.32,14991.1L8876.32,14613.2L9236.37,14613.2L9236.37,14726.5L9203.64,14745.4L9203.64,14991.1L8876.32,14991.1Z" style="fill:rgb(211,188,95);fill-rule:nonzero;"/>
                </g>
                <g id="path231281" serif:id="path23128" transform="matrix(0.264583,0,0,0.264583,-2088.72,-3716.4)">
                    <rect x="8909.06" y="14632.1" width="261.854" height="377.953" style="fill:rgb(249,249,249);fill-rule:nonzero;stroke:rgb(204,204,204);stroke-width:3.78px;"/>
                </g>
                <g id="path231441" serif:id="path23144" transform="matrix(0.264583,0,0,0.264583,-2088.72,-3716.4)">
                    <path d="M9138.18,14650.9L8909.06,14632.1L8909.06,15010L9138.18,15028.9L9138.18,14650.9Z" style="fill:rgb(249,249,249);fill-rule:nonzero;stroke:rgb(204,204,204);stroke-width:3.78px;"/>
                </g>
                <g id="path231601" serif:id="path23160" transform="matrix(0.264583,0,0,0.264583,-2088.72,-3716.4)">
                    <path d="M8909.06,14632.1L9105.44,14669.8L9105.44,15047.8L8909.06,15010L8909.06,14632.1Z" style="fill:rgb(249,249,249);fill-rule:nonzero;stroke:rgb(204,204,204);stroke-width:3.78px;"/>
                </g>
                <g id="path23160-51" serif:id="path23160-5" transform="matrix(0.264583,0,0,0.264583,-2097.38,-3711.4)">
                    <path d="M8941.79,14613.2L9105.44,14669.8L9105.44,15047.8L8941.79,14953.3L8941.79,14613.2Z" style="fill:rgb(249,249,249);fill-rule:nonzero;stroke:rgb(204,204,204);stroke-width:3.78px;"/>
                </g>
                <g id="path231111" serif:id="path23111" transform="matrix(0.264583,0,0,0.264583,-2088.72,-3716.4)">
                    <path d="M8876.32,14613.2L9072.71,14726.5L9072.71,14839.9L9039.98,14858.8L9039.98,15085.6L8876.32,14991.1L8876.32,14613.2Z" style="fill:rgb(222,205,135);fill-rule:nonzero;"/>
                </g>
                <g transform="matrix(0.866019,0.499996,-5.5511e-17,1.1547,0.00191126,0.0011852)">
                    <text x="301.055px" y="50.582px" style="font-family:'ArialRoundedMTBold', 'Arial Rounded MT Bold', sans-serif;font-size:20px;fill:rgb(141,165,180);">/html</text>
                </g>
            </g>
            <g transform="matrix(1,0,0,1,1299.04,433.333)">
                <path d="M952.628,683.333L750.555,566.667L750.555,350L952.628,233.333L1154.7,350L1154.7,566.667L952.628,683.333Z" style="fill:none;stroke:rgb(102,102,102);stroke-width:2px;stroke-linecap:round;stroke-linejoin:round;stroke-miterlimit:1.5;"/>
            </g>
        </g>
        <g transform="matrix(1,0,0,1,-165.988,145.833)">
            <g transform="matrix(0.649519,-0.375,5.55112e-17,1.1547,443.838,-356.25)">
                <rect x="1050" y="1818.65" width="200" height="86.603" style="fill:rgb(141,165,180);"/>
            </g>
            <g transform="matrix(0.866019,-0.499996,6.27137e-17,1.1547,223.73,-245.832)">
                <text x="1062.45px" y="1863.47px" style="font-family:'ArialRoundedMTBold', 'Arial Rounded MT Bold', sans-serif;font-size:24px;fill:white;">Metada<tspan x="1148.13px 1156.62px " y="1863.47px 1863.47px ">ta</tspan></text>
            </g>
            <g transform="matrix(0.866025,0.5,-5.55112e-17,1.1547,202.073,-133.333)">
                <rect x="1058.33" y="822.724" width="8.333" height="86.603" style="fill:rgb(205,216,225);"/>
            </g>
            <g transform="matrix(0.649519,-0.375,1,0.57735,-3.60844,-14.5833)">
                <rect x="-950" y="1739.27" width="200" height="7.217" style="fill:rgb(241,244,247);"/>
            </g>
            <g transform="matrix(1,0,0,1,209.289,-137.5)">
                <path d="M930.977,1529.17L981.495,1500" style="fill:none;stroke:white;stroke-width:3px;stroke-linejoin:round;stroke-miterlimit:1.5;"/>
            </g>
            <g transform="matrix(1,0,0,1,288.675,-183.333)">
                <path d="M916.544,1537.5L930.977,1529.17" style="fill:none;stroke:white;stroke-width:3px;stroke-linejoin:round;stroke-miterlimit:1.5;"/>
            </g>
            <g transform="matrix(1,0,0,1,288.675,-158.333)">
                <path d="M916.544,1537.5L930.977,1529.17" style="fill:none;stroke:white;stroke-width:3px;stroke-linejoin:round;stroke-miterlimit:1.5;"/>
            </g>
            <g transform="matrix(1,0,0,1,248.982,-133.333)">
                <path d="M949.02,1533.33L949.02,1491.67" style="fill:none;stroke:white;stroke-width:1px;stroke-linejoin:round;stroke-miterlimit:1.5;"/>
            </g>
            <g transform="matrix(1,0,0,1,209.289,-129.167)">
                <path d="M930.977,1529.17L967.062,1508.33" style="fill:none;stroke:white;stroke-width:2px;stroke-linejoin:round;stroke-miterlimit:1.5;"/>
            </g>
            <g transform="matrix(1,0,0,1,274.241,-166.667)">
                <path d="M930.977,1529.17L967.062,1508.33" style="fill:none;stroke:white;stroke-width:2px;stroke-linejoin:round;stroke-miterlimit:1.5;"/>
            </g>
            <g transform="matrix(1,0,0,1,274.241,-158.333)">
                <path d="M930.977,1529.17L967.062,1508.33" style="fill:none;stroke:white;stroke-width:2px;stroke-linejoin:round;stroke-miterlimit:1.5;"/>
            </g>
            <g transform="matrix(1,0,0,1,274.241,-141.667)">
                <path d="M930.977,1529.17L967.062,1508.33" style="fill:none;stroke:white;stroke-width:2px;stroke-linejoin:round;stroke-miterlimit:1.5;"/>
            </g>
            <g transform="matrix(1,0,0,1,209.289,-120.833)">
                <path d="M930.977,1529.17L967.062,1508.33" style="fill:none;stroke:white;stroke-width:2px;stroke-linejoin:round;stroke-miterlimit:1.5;"/>
            </g>
            <g transform="matrix(1,0,0,1,209.289,-112.5)">
                <path d="M930.977,1529.17L967.062,1508.33" style="fill:none;stroke:white;stroke-width:2px;stroke-linejoin:round;stroke-miterlimit:1.5;"/>
            </g>
            <g transform="matrix(1,0,0,1,209.289,-104.167)">
                <path d="M930.977,1529.17L967.062,1508.33" style="fill:none;stroke:white;stroke-width:2px;stroke-linejoin:round;stroke-miterlimit:1.5;"/>
            </g>
        </g>
        <g transform="matrix(0.866025,-0.5,5.55112e-17,1.1547,3.60844,-6.25)">
            <ellipse cx="1245.83" cy="1786.18" rx="4.167" ry="3.608" style="fill:rgb(205,216,225);"/>
        </g>
        <g transform="matrix(0.866025,-0.5,5.55112e-17,1.1547,-111.862,60.4167)">
            <ellipse cx="1245.83" cy="1786.18" rx="4.167" ry="3.608" style="fill:rgb(205,216,225);"/>
        </g>
        <g transform="matrix(0.866025,-0.5,5.55112e-17,1.1547,-111.862,143.75)">
            <ellipse cx="1245.83" cy="1786.18" rx="4.167" ry="3.608" style="fill:rgb(205,216,225);"/>
        </g>
        <g transform="matrix(0.866025,-0.5,5.55112e-17,1.1547,3.60844,77.0833)">
            <ellipse cx="1245.83" cy="1786.18" rx="4.167" ry="3.608" style="fill:rgb(205,216,225);"/>
        </g>
    </g>
    <defs>
        <linearGradient id="_Linear1" x1="0" y1="0" x2="1" y2="0" gradientUnits="userSpaceOnUse" gradientTransform="matrix(14.4338,-5.68434e-14,3.97904e-13,66.1134,404.145,241.667)"><stop offset="0" style="stop-color:rgb(205,216,225);stop-opacity:1"/><stop offset="0.56" style="stop-color:rgb(192,205,216);stop-opacity:1"/><stop offset="1" style="stop-color:rgb(141,165,180);stop-opacity:1"/></linearGradient>
        <linearGradient id="_Linear2" x1="0" y1="0" x2="1" y2="0" gradientUnits="userSpaceOnUse" gradientTransform="matrix(14.4338,-5.68434e-14,3.97904e-13,66.1134,404.145,241.667)"><stop offset="0" style="stop-color:rgb(205,216,225);stop-opacity:1"/><stop offset="0.56" style="stop-color:rgb(192,205,216);stop-opacity:1"/><stop offset="1" style="stop-color:rgb(141,165,180);stop-opacity:1"/></linearGradient>
        <linearGradient id="_Linear3" x1="0" y1="0" x2="1" y2="0" gradientUnits="userSpaceOnUse" gradientTransform="matrix(14.4338,-5.68434e-14,3.97904e-13,66.1134,404.145,241.667)"><stop offset="0" style="stop-color:rgb(205,216,225);stop-opacity:1"/><stop offset="0.56" style="stop-color:rgb(192,205,216);stop-opacity:1"/><stop offset="1" style="stop-color:rgb(141,165,180);stop-opacity:1"/></linearGradient>
    </defs>
</svg>
