<?xml version="1.0" encoding="UTF-8" standalone="no"?>
<!DOCTYPE svg PUBLIC "-//W3C//DTD SVG 1.1//EN" "http://www.w3.org/Graphics/SVG/1.1/DTD/svg11.dtd">
<svg width="100%" height="100%" viewBox="0 0 217 201" version="1.1" xmlns="http://www.w3.org/2000/svg" xmlns:xlink="http://www.w3.org/1999/xlink" xml:space="preserve" xmlns:serif="http://www.serif.com/" style="fill-rule:evenodd;clip-rule:evenodd;">
    <g transform="matrix(1,0,0,1,-86.6025,-800)">
        <g id="Container-metal" serif:id="Container metal" transform="matrix(1,0,0,1,822.724,702.481)">
            <g transform="matrix(1,0,0,1,-2561.99,-1314.95)">
                <path d="M1912.47,1612.47L1941.34,1612.47L2042.38,1554.14L1999.08,1529.14L1999.08,1562.47L1912.47,1612.47Z" style="fill-opacity:0.2;"/>
            </g>
            <path id="Interior-left" serif:id="Interior left" d="M-562.916,147.52L-649.519,197.52L-570.133,243.353L-562.916,247.52L-562.916,147.52Z" style="fill:rgb(205,216,225);fill-rule:nonzero;"/>
            <path id="Floor" d="M-562.916,247.52L-649.519,197.52L-649.519,289.186L-649.519,297.52L-562.916,247.52Z" style="fill:rgb(241,244,247);fill-rule:nonzero;"/>
            <g id="Library">
            </g>
            <g id="Application">
            </g>
            <g id="Right-side" serif:id="Right side">
                <path id="path11251" d="M-736.121,147.52L-736.121,247.52L-649.519,297.52L-649.519,197.52L-736.121,147.52Z" style="fill:rgb(205,216,225);fill-rule:nonzero;"/>
                <g id="path11257" transform="matrix(0.866025,0.5,-4.80741e-17,1,-96.8812,361.566)">
                    <rect x="-729.798" y="163.353" width="8.333" height="83.333" style="fill:rgb(110,141,161);fill-rule:nonzero;"/>
                </g>
                <g id="path112571" serif:id="path11257" transform="matrix(0.866025,0.5,-4.80741e-17,1,-82.4474,369.899)">
                    <rect x="-729.798" y="163.353" width="8.333" height="83.333" style="fill:rgb(110,141,161);fill-rule:nonzero;"/>
                </g>
                <g id="path112572" serif:id="path11257" transform="matrix(0.866025,0.5,-4.80741e-17,1,-68.0136,378.232)">
                    <rect x="-729.798" y="163.353" width="8.333" height="83.333" style="fill:rgb(110,141,161);fill-rule:nonzero;"/>
                </g>
                <g id="path112573" serif:id="path11257" transform="matrix(0.866025,0.5,-4.80741e-17,1,-53.5799,386.566)">
                    <rect x="-729.798" y="163.353" width="8.333" height="83.333" style="fill:rgb(110,141,161);fill-rule:nonzero;"/>
                </g>
                <g id="path112574" serif:id="path11257" transform="matrix(0.866025,0.5,-4.80741e-17,1,-39.1462,394.899)">
                    <rect x="-729.798" y="163.353" width="8.333" height="83.333" style="fill:rgb(110,141,161);fill-rule:nonzero;"/>
                </g>
                <g id="path11259" transform="matrix(0.866025,0.5,-4.80741e-17,1,-96.8812,361.566)">
                    <path d="M-729.798,163.353L-729.798,246.686L-721.464,246.686" style="fill:none;fill-rule:nonzero;stroke:rgb(80,106,123);stroke-width:1.63px;"/>
                </g>
                <g id="path112591" serif:id="path11259" transform="matrix(0.866025,0.5,-4.80741e-17,1,-82.4474,369.899)">
                    <path d="M-729.798,163.353L-729.798,246.686L-721.464,246.686" style="fill:none;fill-rule:nonzero;stroke:rgb(80,106,123);stroke-width:1.63px;"/>
                </g>
                <g id="path112592" serif:id="path11259" transform="matrix(0.866025,0.5,-4.80741e-17,1,-68.0136,378.232)">
                    <path d="M-729.798,163.353L-729.798,246.686L-721.464,246.686" style="fill:none;fill-rule:nonzero;stroke:rgb(80,106,123);stroke-width:1.63px;"/>
                </g>
                <g id="path112593" serif:id="path11259" transform="matrix(0.866025,0.5,-4.80741e-17,1,-53.5799,386.566)">
                    <path d="M-729.798,163.353L-729.798,246.686L-721.464,246.686" style="fill:none;fill-rule:nonzero;stroke:rgb(80,106,123);stroke-width:1.63px;"/>
                </g>
                <g id="path112594" serif:id="path11259" transform="matrix(0.866025,0.5,-4.80741e-17,1,-39.1462,394.899)">
                    <path d="M-729.798,163.353L-729.798,246.686L-721.464,246.686" style="fill:none;fill-rule:nonzero;stroke:rgb(80,106,123);stroke-width:1.63px;"/>
                </g>
            </g>
            <path id="Top" d="M-692.82,122.52L-649.519,97.52L-562.916,147.52L-649.519,197.52L-736.121,147.52L-692.82,122.52Z" style="fill:rgb(241,244,247);fill-rule:nonzero;"/>
            <g id="Door-letft" serif:id="Door letft" transform="matrix(1,0,0,1,-43.3014,25.0001)">
                <path id="path11291" d="M-562.916,147.52L-519.615,122.52L-519.615,222.52L-562.916,247.52L-562.916,147.52Z" style="fill:rgb(141,165,180);fill-rule:nonzero;"/>
                <g id="path11295" transform="matrix(0.866025,-0.5,4.80741e-17,1,38.7341,-412.363)">
                    <rect x="-686.393" y="229.186" width="33.333" height="8.333" style="fill:rgb(110,141,161);fill-rule:nonzero;"/>
                </g>
                <g id="path112951" serif:id="path11295" transform="matrix(0.866025,-0.5,4.80741e-17,1,38.7341,-395.696)">
                    <rect x="-686.393" y="229.186" width="33.333" height="8.333" style="fill:rgb(110,141,161);fill-rule:nonzero;"/>
                </g>
                <g id="path112952" serif:id="path11295" transform="matrix(0.866025,-0.5,4.80741e-17,1,38.7341,-370.696)">
                    <rect x="-686.393" y="229.186" width="33.333" height="8.333" style="fill:rgb(110,141,161);fill-rule:nonzero;"/>
                </g>
                <g id="path112953" serif:id="path11295" transform="matrix(0.866025,-0.5,4.80741e-17,1,38.7341,-354.03)">
                    <rect x="-686.393" y="229.186" width="33.333" height="8.333" style="fill:rgb(110,141,161);fill-rule:nonzero;"/>
                </g>
                <g id="path11297" transform="matrix(0.866025,-0.5,4.80741e-17,1,39.9841,-410.585)">
                    <path d="M-654.503,226.686L-654.503,235.02L-687.836,235.02" style="fill:none;fill-rule:nonzero;stroke:rgb(80,106,123);stroke-width:2px;"/>
                </g>
                <g id="path112971" serif:id="path11297" transform="matrix(0.866025,-0.5,4.80741e-17,1,39.9841,-393.918)">
                    <path d="M-654.503,226.686L-654.503,235.02L-687.836,235.02" style="fill:none;fill-rule:nonzero;stroke:rgb(80,106,123);stroke-width:2px;"/>
                </g>
                <g id="path112972" serif:id="path11297" transform="matrix(0.866025,-0.5,4.80741e-17,1,39.9841,-368.918)">
                    <path d="M-654.503,226.686L-654.503,235.02L-687.836,235.02" style="fill:none;fill-rule:nonzero;stroke:rgb(80,106,123);stroke-width:2px;"/>
                </g>
                <g id="path112973" serif:id="path11297" transform="matrix(0.866025,-0.5,4.80741e-17,1,39.9841,-352.251)">
                    <path d="M-654.503,226.686L-654.503,235.02L-687.836,235.02" style="fill:none;fill-rule:nonzero;stroke:rgb(80,106,123);stroke-width:2px;"/>
                </g>
            </g>
            <g id="Door-right" serif:id="Door right" transform="matrix(1,0,0,1,43.3013,-25)">
                <path id="path11293" d="M-649.519,297.52L-649.519,197.52L-692.82,222.52L-692.82,322.52L-649.519,297.52Z" style="fill:rgb(141,165,180);fill-rule:nonzero;"/>
                <g id="path112954" serif:id="path11295" transform="matrix(0.866025,-0.5,4.80741e-17,1,-91.1697,-337.363)">
                    <rect x="-686.393" y="229.186" width="33.333" height="8.333" style="fill:rgb(110,141,161);fill-rule:nonzero;"/>
                </g>
                <g id="path112955" serif:id="path11295" transform="matrix(0.866025,-0.5,4.80741e-17,1,-91.1697,-320.696)">
                    <rect x="-686.393" y="229.186" width="33.333" height="8.333" style="fill:rgb(110,141,161);fill-rule:nonzero;"/>
                </g>
                <g id="path112956" serif:id="path11295" transform="matrix(0.866025,-0.5,4.80741e-17,1,-91.1697,-295.696)">
                    <rect x="-686.393" y="229.186" width="33.333" height="8.333" style="fill:rgb(110,141,161);fill-rule:nonzero;"/>
                </g>
                <g id="path112957" serif:id="path11295" transform="matrix(0.866025,-0.5,4.80741e-17,1,-91.1697,-279.03)">
                    <rect x="-686.393" y="229.186" width="33.333" height="8.333" style="fill:rgb(110,141,161);fill-rule:nonzero;"/>
                </g>
                <g id="path112974" serif:id="path11297" transform="matrix(0.866025,-0.5,4.80741e-17,1,-89.9197,-335.585)">
                    <path d="M-654.503,226.686L-654.503,235.02L-687.836,235.02" style="fill:none;fill-rule:nonzero;stroke:rgb(80,106,123);stroke-width:2px;"/>
                </g>
                <g id="path112975" serif:id="path11297" transform="matrix(0.866025,-0.5,4.80741e-17,1,-89.9197,-318.918)">
                    <path d="M-654.503,226.686L-654.503,235.02L-687.836,235.02" style="fill:none;fill-rule:nonzero;stroke:rgb(80,106,123);stroke-width:2px;"/>
                </g>
                <g id="path112976" serif:id="path11297" transform="matrix(0.866025,-0.5,4.80741e-17,1,-89.9197,-293.918)">
                    <path d="M-654.503,226.686L-654.503,235.02L-687.836,235.02" style="fill:none;fill-rule:nonzero;stroke:rgb(80,106,123);stroke-width:2px;"/>
                </g>
                <g id="path112977" serif:id="path11297" transform="matrix(0.866025,-0.5,4.80741e-17,1,-89.9197,-277.251)">
                    <path d="M-654.503,226.686L-654.503,235.02L-687.836,235.02" style="fill:none;fill-rule:nonzero;stroke:rgb(80,106,123);stroke-width:2px;"/>
                </g>
            </g>
            <g transform="matrix(1,0,0,1,-1089.75,-681.647)">
                <path d="M483.531,854.167L483.531,954.167" style="fill:none;stroke:rgb(80,106,123);stroke-width:1px;stroke-linejoin:round;stroke-miterlimit:1.5;"/>
            </g>
        </g>
    </g>
</svg>
