<?xml version="1.0" encoding="UTF-8" standalone="no"?>
<!DOCTYPE svg PUBLIC "-//W3C//DTD SVG 1.1//EN" "http://www.w3.org/Graphics/SVG/1.1/DTD/svg11.dtd">
<svg width="100%" height="100%" viewBox="0 0 217 201" version="1.1" xmlns="http://www.w3.org/2000/svg" xmlns:xlink="http://www.w3.org/1999/xlink" xml:space="preserve" xmlns:serif="http://www.serif.com/" style="fill-rule:evenodd;clip-rule:evenodd;">
    <g transform="matrix(1,0,0,1,-86.6026,-50)">
        <g id="Container-white" serif:id="Container white" transform="matrix(1,0,0,1,389.711,-115)">
            <g transform="matrix(1,0,0,1,-2128.98,-1247.47)">
                <path d="M1912.47,1612.47L1941.34,1612.47L2042.38,1554.14L1999.08,1529.14L1999.08,1562.47L1912.47,1612.47Z" style="fill-opacity:0.2;"/>
            </g>
            <g id="path4950" transform="matrix(1,0,0,1,-2.11294e-05,317.48)">
                <path d="M-303.109,-102.48L-303.109,-2.48L-216.506,47.52L-216.506,-52.48L-303.109,-102.48Z" style="fill:rgb(242,242,242);fill-rule:nonzero;"/>
            </g>
            <g id="path4952" transform="matrix(1,0,0,1,-2.11294e-05,317.48)">
                <path d="M-259.808,-127.48L-216.506,-152.48L-129.904,-102.48L-216.506,-52.48L-303.109,-102.48L-259.808,-127.48Z" style="fill:white;fill-rule:nonzero;"/>
            </g>
            <g id="path4954" transform="matrix(1,0,0,1,-2.11294e-05,317.48)">
                <path d="M-129.904,-102.48L-129.904,-2.48L-216.506,47.52L-216.506,-52.48L-129.904,-102.48Z" style="fill:rgb(204,204,204);fill-rule:nonzero;"/>
            </g>
            <g id="path4956" transform="matrix(0.866025,0.5,-4.80741e-17,1,-38.8685,462.54)">
                <rect x="-296.785" y="-86.647" width="8.333" height="83.333" style="fill:rgb(179,179,179);fill-rule:nonzero;"/>
            </g>
            <g id="path49561" serif:id="path4956" transform="matrix(0.866025,0.5,-4.80741e-17,1,-24.4348,470.873)">
                <rect x="-296.785" y="-86.647" width="8.333" height="83.333" style="fill:rgb(179,179,179);fill-rule:nonzero;"/>
            </g>
            <g id="path49562" serif:id="path4956" transform="matrix(0.866025,0.5,-4.80741e-17,1,-10.001,479.206)">
                <rect x="-296.785" y="-86.647" width="8.333" height="83.333" style="fill:rgb(179,179,179);fill-rule:nonzero;"/>
            </g>
            <g id="path49563" serif:id="path4956" transform="matrix(0.866025,0.5,-4.80741e-17,1,4.43275,487.54)">
                <rect x="-296.785" y="-86.647" width="8.333" height="83.333" style="fill:rgb(179,179,179);fill-rule:nonzero;"/>
            </g>
            <g id="path49564" serif:id="path4956" transform="matrix(0.866025,0.5,-4.80741e-17,1,18.8665,495.873)">
                <rect x="-296.785" y="-86.647" width="8.333" height="83.333" style="fill:rgb(179,179,179);fill-rule:nonzero;"/>
            </g>
            <g id="path4958" transform="matrix(0.866025,0.5,-4.80741e-17,1,-39.0619,463.261)">
                <path d="M-296.562,-87.48L-296.562,-4.147L-288.228,-4.147" style="fill:none;fill-rule:nonzero;stroke:rgb(153,153,153);stroke-width:1.63px;"/>
            </g>
            <g id="path49581" serif:id="path4958" transform="matrix(0.866025,0.5,-4.80741e-17,1,-24.6281,471.595)">
                <path d="M-296.562,-87.48L-296.562,-4.147L-288.228,-4.147" style="fill:none;fill-rule:nonzero;stroke:rgb(153,153,153);stroke-width:1.63px;"/>
            </g>
            <g id="path49582" serif:id="path4958" transform="matrix(0.866025,0.5,-4.80741e-17,1,-10.1943,479.928)">
                <path d="M-296.562,-87.48L-296.562,-4.147L-288.228,-4.147" style="fill:none;fill-rule:nonzero;stroke:rgb(153,153,153);stroke-width:1.63px;"/>
            </g>
            <g id="path49583" serif:id="path4958" transform="matrix(0.866025,0.5,-4.80741e-17,1,4.23937,488.261)">
                <path d="M-296.562,-87.48L-296.562,-4.147L-288.228,-4.147" style="fill:none;fill-rule:nonzero;stroke:rgb(153,153,153);stroke-width:1.63px;"/>
            </g>
            <g id="path49584" serif:id="path4958" transform="matrix(0.866025,0.5,-4.80741e-17,1,18.6731,496.595)">
                <path d="M-296.562,-87.48L-296.562,-4.147L-288.228,-4.147" style="fill:none;fill-rule:nonzero;stroke:rgb(153,153,153);stroke-width:1.63px;"/>
            </g>
            <g id="path4988" transform="matrix(1,0,0,1,-2.11294e-05,317.48)">
                <path d="M-173.205,-77.48L-173.205,22.52" style="fill:none;fill-rule:nonzero;stroke:rgb(153,153,153);stroke-width:1px;"/>
            </g>
            <g id="path5062" transform="matrix(0.866025,-0.5,4.80741e-17,1,-20.3045,241.703)">
                <path d="M-168.221,-73.314L-134.888,-73.314L-134.888,-64.98L-168.221,-64.98L-168.221,-73.314Z" style="fill:rgb(179,179,179);fill-rule:nonzero;"/>
            </g>
            <g id="path50621" serif:id="path5062" transform="matrix(0.866025,-0.5,4.80741e-17,1,-20.3045,258.37)">
                <path d="M-168.221,-73.314L-134.888,-73.314L-134.888,-64.98L-168.221,-64.98L-168.221,-73.314Z" style="fill:rgb(179,179,179);fill-rule:nonzero;"/>
            </g>
            <g id="path50622" serif:id="path5062" transform="matrix(0.866025,-0.5,4.80741e-17,1,-20.3045,283.37)">
                <path d="M-168.221,-73.314L-134.888,-73.314L-134.888,-64.98L-168.221,-64.98L-168.221,-73.314Z" style="fill:rgb(179,179,179);fill-rule:nonzero;"/>
            </g>
            <g id="path50623" serif:id="path5062" transform="matrix(0.866025,-0.5,4.80741e-17,1,-20.3045,300.037)">
                <path d="M-168.221,-73.314L-134.888,-73.314L-134.888,-64.98L-168.221,-64.98L-168.221,-73.314Z" style="fill:rgb(179,179,179);fill-rule:nonzero;"/>
            </g>
            <g id="path50624" serif:id="path5062" transform="matrix(0.866025,-0.5,4.80741e-17,1,-63.6057,325.037)">
                <path d="M-168.221,-73.314L-134.888,-73.314L-134.888,-64.98L-168.221,-64.98L-168.221,-73.314Z" style="fill:rgb(179,179,179);fill-rule:nonzero;"/>
            </g>
            <g id="path50625" serif:id="path5062" transform="matrix(0.866025,-0.5,4.80741e-17,1,-63.6057,308.37)">
                <path d="M-168.221,-73.314L-134.888,-73.314L-134.888,-64.98L-168.221,-64.98L-168.221,-73.314Z" style="fill:rgb(179,179,179);fill-rule:nonzero;"/>
            </g>
            <g id="path50626" serif:id="path5062" transform="matrix(0.866025,-0.5,4.80741e-17,1,-63.6057,283.37)">
                <path d="M-168.221,-73.314L-134.888,-73.314L-134.888,-64.98L-168.221,-64.98L-168.221,-73.314Z" style="fill:rgb(179,179,179);fill-rule:nonzero;"/>
            </g>
            <g id="path50627" serif:id="path5062" transform="matrix(0.866025,-0.5,4.80741e-17,1,-63.6057,266.703)">
                <path d="M-168.221,-73.314L-134.888,-73.314L-134.888,-64.98L-168.221,-64.98L-168.221,-73.314Z" style="fill:rgb(179,179,179);fill-rule:nonzero;"/>
            </g>
            <g id="path5064" transform="matrix(0.866025,-0.5,4.80741e-17,1,-20.3045,250.037)">
                <path d="M-134.888,-81.647L-134.888,-73.314L-168.221,-73.314" style="fill:none;fill-rule:nonzero;stroke:rgb(153,153,153);stroke-width:2.83px;"/>
            </g>
            <g id="path50641" serif:id="path5064" transform="matrix(0.866025,-0.5,4.80741e-17,1,-20.3045,266.703)">
                <path d="M-134.888,-81.647L-134.888,-73.314L-168.221,-73.314" style="fill:none;fill-rule:nonzero;stroke:rgb(153,153,153);stroke-width:2.83px;"/>
            </g>
            <g id="path50642" serif:id="path5064" transform="matrix(0.866025,-0.5,4.80741e-17,1,-20.3045,291.703)">
                <path d="M-134.888,-81.647L-134.888,-73.314L-168.221,-73.314" style="fill:none;fill-rule:nonzero;stroke:rgb(153,153,153);stroke-width:2.83px;"/>
            </g>
            <g id="path50643" serif:id="path5064" transform="matrix(0.866025,-0.5,4.80741e-17,1,-20.3045,308.37)">
                <path d="M-134.888,-81.647L-134.888,-73.314L-168.221,-73.314" style="fill:none;fill-rule:nonzero;stroke:rgb(153,153,153);stroke-width:2.83px;"/>
            </g>
            <g id="path50644" serif:id="path5064" transform="matrix(0.866025,-0.5,4.80741e-17,1,-63.6057,333.37)">
                <path d="M-134.888,-81.647L-134.888,-73.314L-168.221,-73.314" style="fill:none;fill-rule:nonzero;stroke:rgb(153,153,153);stroke-width:2.83px;"/>
            </g>
            <g id="path50645" serif:id="path5064" transform="matrix(0.866025,-0.5,4.80741e-17,1,-63.6057,316.703)">
                <path d="M-134.888,-81.647L-134.888,-73.314L-168.221,-73.314" style="fill:none;fill-rule:nonzero;stroke:rgb(153,153,153);stroke-width:2.83px;"/>
            </g>
            <g id="path50646" serif:id="path5064" transform="matrix(0.866025,-0.5,4.80741e-17,1,-63.6057,291.703)">
                <path d="M-134.888,-81.647L-134.888,-73.314L-168.221,-73.314" style="fill:none;fill-rule:nonzero;stroke:rgb(153,153,153);stroke-width:2.83px;"/>
            </g>
            <g id="path50647" serif:id="path5064" transform="matrix(0.866025,-0.5,4.80741e-17,1,-63.6057,275.037)">
                <path d="M-134.888,-81.647L-134.888,-73.314L-168.221,-73.314" style="fill:none;fill-rule:nonzero;stroke:rgb(153,153,153);stroke-width:2.83px;"/>
            </g>
        </g>
    </g>
</svg>
