<?xml version="1.0" encoding="UTF-8" standalone="no"?>
<!-- Created with Inkscape (http://www.inkscape.org/) -->

<svg
   xmlns:serif="http://www.serif.com/"
   xmlns:dc="http://purl.org/dc/elements/1.1/"
   xmlns:cc="http://creativecommons.org/ns#"
   xmlns:rdf="http://www.w3.org/1999/02/22-rdf-syntax-ns#"
   xmlns:svg="http://www.w3.org/2000/svg"
   xmlns="http://www.w3.org/2000/svg"
   xmlns:sodipodi="http://sodipodi.sourceforge.net/DTD/sodipodi-0.dtd"
   xmlns:inkscape="http://www.inkscape.org/namespaces/inkscape"
   width="45.827156mm"
   height="52.916664mm"
   viewBox="0 0 45.827156 52.916664"
   version="1.1"
   id="svg8"
   inkscape:version="0.92.4 (5da689c313, 2019-01-14)"
   sodipodi:docname="container_gray.svg">
  <defs
     id="defs2" />
  <sodipodi:namedview
     id="base"
     pagecolor="#ffffff"
     bordercolor="#666666"
     borderopacity="1.0"
     inkscape:pageopacity="0.0"
     inkscape:pageshadow="2"
     inkscape:zoom="0.35"
     inkscape:cx="-349.65215"
     inkscape:cy="45.714301"
     inkscape:document-units="mm"
     inkscape:current-layer="layer1"
     showgrid="false"
     fit-margin-top="0"
     fit-margin-left="0"
     fit-margin-right="0"
     fit-margin-bottom="0"
     inkscape:window-width="2100"
     inkscape:window-height="1234"
     inkscape:window-x="3191"
     inkscape:window-y="-9"
     inkscape:window-maximized="1" />
  <metadata
     id="metadata5">
    <rdf:RDF>
      <cc:Work
         rdf:about="">
        <dc:format>image/svg+xml</dc:format>
        <dc:type
           rdf:resource="http://purl.org/dc/dcmitype/StillImage" />
        <dc:title></dc:title>
      </cc:Work>
    </rdf:RDF>
  </metadata>
  <g
     inkscape:label="Layer 1"
     inkscape:groupmode="layer"
     id="layer1"
     transform="translate(-65.297845,-108.01191)">
    

    <g
   id="g4395"
   transform="matrix(0.26458333,0,0,0.26458333,-167.53575,-117.9494)">
        <g
   transform="translate(1183.11,689.027)"
   id="g5433">
            <g
   transform="translate(0,317.48)"
   id="path4950">
                <path
   id="path4304"
   style="fill:#0066ff;fill-rule:nonzero"
   d="m -303.109,-102.48 v 100 l 86.603,50 v -100 z"
   inkscape:connector-curvature="0" />

            </g>

            <g
   transform="translate(0,317.48)"
   id="path4952">
                <path
   id="path4307"
   style="fill:#80b3ff;fill-rule:nonzero"
   d="m -259.808,-127.48 43.302,-25 86.602,50 -86.602,50 -86.603,-50 z"
   inkscape:connector-curvature="0" />

            </g>

            <g
   transform="translate(0,317.48)"
   id="path4954">
                <path
   id="path4310"
   style="fill:#0044aa;fill-rule:nonzero"
   d="m -129.904,-102.48 v 100 l -86.602,50 v -100 z"
   inkscape:connector-curvature="0" />

            </g>

            <g
   transform="matrix(0.866025,0.5,0,1,-38.8685,462.54)"
   id="path4956">
                <rect
   id="rect4313"
   style="fill:#003380;fill-rule:nonzero"
   height="83.333"
   width="8.3330002"
   y="-86.647003"
   x="-296.785" />

            </g>

            <g
   transform="matrix(0.866025,0.5,0,1,-24.4347,470.873)"
   serif:id="path4956"
   id="path49561">
                <rect
   id="rect4316"
   style="fill:#003380;fill-rule:nonzero"
   height="83.333"
   width="8.3330002"
   y="-86.647003"
   x="-296.785" />

            </g>

            <g
   transform="matrix(0.866025,0.5,0,1,-10.001,479.206)"
   serif:id="path4956"
   id="path49562">
                <rect
   id="rect4319"
   style="fill:#003380;fill-rule:nonzero"
   height="83.333"
   width="8.3330002"
   y="-86.647003"
   x="-296.785" />

            </g>

            <g
   transform="matrix(0.866025,0.5,0,1,4.43277,487.54)"
   serif:id="path4956"
   id="path49563">
                <rect
   id="rect4322"
   style="fill:#003380;fill-rule:nonzero"
   height="83.333"
   width="8.3330002"
   y="-86.647003"
   x="-296.785" />

            </g>

            <g
   transform="matrix(0.866025,0.5,0,1,18.8665,495.873)"
   serif:id="path4956"
   id="path49564">
                <rect
   id="rect4325"
   style="fill:#003380;fill-rule:nonzero"
   height="83.333"
   width="8.3330002"
   y="-86.647003"
   x="-296.785" />

            </g>

            <g
   transform="matrix(0.866025,0.5,0,1,-39.0619,463.261)"
   id="path4958">
                <path
   id="path4328"
   style="fill:none;fill-rule:nonzero;stroke:#002255;stroke-width:1.63px"
   d="m -296.562,-87.48 v 83.333 h 8.334"
   inkscape:connector-curvature="0" />

            </g>

            <g
   transform="matrix(0.866025,0.5,0,1,-24.6281,471.595)"
   serif:id="path4958"
   id="path49581">
                <path
   id="path4331"
   style="fill:none;fill-rule:nonzero;stroke:#002255;stroke-width:1.63px"
   d="m -296.562,-87.48 v 83.333 h 8.334"
   inkscape:connector-curvature="0" />

            </g>

            <g
   transform="matrix(0.866025,0.5,0,1,-10.1943,479.928)"
   serif:id="path4958"
   id="path49582">
                <path
   id="path4334"
   style="fill:none;fill-rule:nonzero;stroke:#002255;stroke-width:1.63px"
   d="m -296.562,-87.48 v 83.333 h 8.334"
   inkscape:connector-curvature="0" />

            </g>

            <g
   transform="matrix(0.866025,0.5,0,1,4.23939,488.261)"
   serif:id="path4958"
   id="path49583">
                <path
   id="path4337"
   style="fill:none;fill-rule:nonzero;stroke:#002255;stroke-width:1.63px"
   d="m -296.562,-87.48 v 83.333 h 8.334"
   inkscape:connector-curvature="0" />

            </g>

            <g
   transform="matrix(0.866025,0.5,0,1,18.6731,496.595)"
   serif:id="path4958"
   id="path49584">
                <path
   id="path4340"
   style="fill:none;fill-rule:nonzero;stroke:#002255;stroke-width:1.63px"
   d="m -296.562,-87.48 v 83.333 h 8.334"
   inkscape:connector-curvature="0" />

            </g>

            <g
   transform="translate(0,317.48)"
   id="path4988">
                <path
   id="path4343"
   style="fill:none;fill-rule:nonzero;stroke:#002255;stroke-width:1px"
   d="m -173.205,-77.48 v 100"
   inkscape:connector-curvature="0" />

            </g>

            <g
   transform="matrix(0.866025,-0.5,0,1,-20.3044,241.703)"
   id="path5062">
                <path
   id="path4346"
   style="fill:#003380;fill-rule:nonzero"
   d="m -168.221,-73.314 h 33.333 v 8.334 h -33.333 z"
   inkscape:connector-curvature="0" />

            </g>

            <g
   transform="matrix(0.866025,-0.5,0,1,-20.3044,258.37)"
   serif:id="path5062"
   id="path50621">
                <path
   id="path4349"
   style="fill:#003380;fill-rule:nonzero"
   d="m -168.221,-73.314 h 33.333 v 8.334 h -33.333 z"
   inkscape:connector-curvature="0" />

            </g>

            <g
   transform="matrix(0.866025,-0.5,0,1,-20.3044,283.37)"
   serif:id="path5062"
   id="path50622">
                <path
   id="path4352"
   style="fill:#003380;fill-rule:nonzero"
   d="m -168.221,-73.314 h 33.333 v 8.334 h -33.333 z"
   inkscape:connector-curvature="0" />

            </g>

            <g
   transform="matrix(0.866025,-0.5,0,1,-20.3044,300.037)"
   serif:id="path5062"
   id="path50623">
                <path
   id="path4355"
   style="fill:#003380;fill-rule:nonzero"
   d="m -168.221,-73.314 h 33.333 v 8.334 h -33.333 z"
   inkscape:connector-curvature="0" />

            </g>

            <g
   transform="matrix(0.866025,-0.5,0,1,-63.6057,325.037)"
   serif:id="path5062"
   id="path50624">
                <path
   id="path4358"
   style="fill:#003380;fill-rule:nonzero"
   d="m -168.221,-73.314 h 33.333 v 8.334 h -33.333 z"
   inkscape:connector-curvature="0" />

            </g>

            <g
   transform="matrix(0.866025,-0.5,0,1,-63.6057,308.37)"
   serif:id="path5062"
   id="path50625">
                <path
   id="path4361"
   style="fill:#003380;fill-rule:nonzero"
   d="m -168.221,-73.314 h 33.333 v 8.334 h -33.333 z"
   inkscape:connector-curvature="0" />

            </g>

            <g
   transform="matrix(0.866025,-0.5,0,1,-63.6057,283.37)"
   serif:id="path5062"
   id="path50626">
                <path
   id="path4364"
   style="fill:#003380;fill-rule:nonzero"
   d="m -168.221,-73.314 h 33.333 v 8.334 h -33.333 z"
   inkscape:connector-curvature="0" />

            </g>

            <g
   transform="matrix(0.866025,-0.5,0,1,-63.6057,266.703)"
   serif:id="path5062"
   id="path50627">
                <path
   id="path4367"
   style="fill:#003380;fill-rule:nonzero"
   d="m -168.221,-73.314 h 33.333 v 8.334 h -33.333 z"
   inkscape:connector-curvature="0" />

            </g>

            <g
   transform="matrix(0.866025,-0.5,0,1,-20.3044,250.037)"
   id="path5064">
                <path
   id="path4370"
   style="fill:none;fill-rule:nonzero;stroke:#002255;stroke-width:2.82999992px"
   d="m -134.888,-81.647 v 8.333 h -33.333"
   inkscape:connector-curvature="0" />

            </g>

            <g
   transform="matrix(0.866025,-0.5,0,1,-20.3044,266.703)"
   serif:id="path5064"
   id="path50641">
                <path
   id="path4373"
   style="fill:none;fill-rule:nonzero;stroke:#002255;stroke-width:2.82999992px"
   d="m -134.888,-81.647 v 8.333 h -33.333"
   inkscape:connector-curvature="0" />

            </g>

            <g
   transform="matrix(0.866025,-0.5,0,1,-20.3044,291.703)"
   serif:id="path5064"
   id="path50642">
                <path
   id="path4376"
   style="fill:none;fill-rule:nonzero;stroke:#002255;stroke-width:2.82999992px"
   d="m -134.888,-81.647 v 8.333 h -33.333"
   inkscape:connector-curvature="0" />

            </g>

            <g
   transform="matrix(0.866025,-0.5,0,1,-20.3044,308.37)"
   serif:id="path5064"
   id="path50643">
                <path
   id="path4379"
   style="fill:none;fill-rule:nonzero;stroke:#002255;stroke-width:2.82999992px"
   d="m -134.888,-81.647 v 8.333 h -33.333"
   inkscape:connector-curvature="0" />

            </g>

            <g
   transform="matrix(0.866025,-0.5,0,1,-63.6057,333.37)"
   serif:id="path5064"
   id="path50644">
                <path
   id="path4382"
   style="fill:none;fill-rule:nonzero;stroke:#002255;stroke-width:2.82999992px"
   d="m -134.888,-81.647 v 8.333 h -33.333"
   inkscape:connector-curvature="0" />

            </g>

            <g
   transform="matrix(0.866025,-0.5,0,1,-63.6057,316.703)"
   serif:id="path5064"
   id="path50645">
                <path
   id="path4385"
   style="fill:none;fill-rule:nonzero;stroke:#002255;stroke-width:2.82999992px"
   d="m -134.888,-81.647 v 8.333 h -33.333"
   inkscape:connector-curvature="0" />

            </g>

            <g
   transform="matrix(0.866025,-0.5,0,1,-63.6057,291.703)"
   serif:id="path5064"
   id="path50646">
                <path
   id="path4388"
   style="fill:none;fill-rule:nonzero;stroke:#002255;stroke-width:2.82999992px"
   d="m -134.888,-81.647 v 8.333 h -33.333"
   inkscape:connector-curvature="0" />

            </g>

            <g
   transform="matrix(0.866025,-0.5,0,1,-63.6057,275.037)"
   serif:id="path5064"
   id="path50647">
                <path
   id="path4391"
   style="fill:none;fill-rule:nonzero;stroke:#002255;stroke-width:2.82999992px"
   d="m -134.888,-81.647 v 8.333 h -33.333"
   inkscape:connector-curvature="0" />

            </g>

        </g>

    </g>

</g>
</svg>
