<?xml version="1.0" encoding="UTF-8" standalone="no"?>
<!-- Created with Inkscape (http://www.inkscape.org/) -->

<svg
   xmlns:serif="http://www.serif.com/"
   xmlns:dc="http://purl.org/dc/elements/1.1/"
   xmlns:cc="http://creativecommons.org/ns#"
   xmlns:rdf="http://www.w3.org/1999/02/22-rdf-syntax-ns#"
   xmlns:svg="http://www.w3.org/2000/svg"
   xmlns="http://www.w3.org/2000/svg"
   xmlns:sodipodi="http://sodipodi.sourceforge.net/DTD/sodipodi-0.dtd"
   xmlns:inkscape="http://www.inkscape.org/namespaces/inkscape"
   width="45.827156mm"
   height="52.916664mm"
   viewBox="0 0 45.827156 52.916664"
   version="1.1"
   id="svg8"
   inkscape:version="0.92.4 (5da689c313, 2019-01-14)"
   sodipodi:docname="container_tone_metal.svg">
  <defs
     id="defs2" />
  <sodipodi:namedview
     id="base"
     pagecolor="#ffffff"
     bordercolor="#666666"
     borderopacity="1.0"
     inkscape:pageopacity="0.0"
     inkscape:pageshadow="2"
     inkscape:zoom="0.35"
     inkscape:cx="-136.52147"
     inkscape:cy="-451.42857"
     inkscape:document-units="mm"
     inkscape:current-layer="layer1"
     showgrid="false"
     fit-margin-top="0"
     fit-margin-left="0"
     fit-margin-right="0"
     fit-margin-bottom="0"
     inkscape:window-width="2100"
     inkscape:window-height="1234"
     inkscape:window-x="3191"
     inkscape:window-y="-9"
     inkscape:window-maximized="1" />
  <metadata
     id="metadata5">
    <rdf:RDF>
      <cc:Work
         rdf:about="">
        <dc:format>image/svg+xml</dc:format>
        <dc:type
           rdf:resource="http://purl.org/dc/dcmitype/StillImage" />
        <dc:title></dc:title>
      </cc:Work>
    </rdf:RDF>
  </metadata>
  <g
     inkscape:label="Layer 1"
     inkscape:groupmode="layer"
     id="layer1"
     transform="translate(-8.907018,23.523843)">
    

    

    

    

    

    

    

    

    

    

    

    

    

    

    

    

    

    

    

    

    

    <g
   id="g7985"
   transform="matrix(0.26458333,0,0,0.26458333,-238.43343,-278.2604)">
        <g
   transform="translate(1672.92,848.121)"
   id="g5607">
            <path
   style="fill:#cdd8e1;fill-rule:nonzero"
   d="m -562.916,147.52 -86.603,50 79.386,45.833 7.217,4.167 z"
   serif:id="Interior left"
   id="Interior-left"
   inkscape:connector-curvature="0" />

            <path
   style="fill:#f1f4f7;fill-rule:nonzero"
   d="m -562.916,247.52 -86.603,-50 v 91.666 8.334 z"
   id="Floor"
   inkscape:connector-curvature="0" />

            <g
   id="Library">
            </g>

            <g
   id="Application">
            </g>

            <g
   serif:id="Right side"
   id="Right-side">
                <path
   style="fill:#cdd8e1;fill-rule:nonzero"
   d="m -736.121,147.52 v 100 l 86.602,50 v -100 z"
   id="path11251"
   inkscape:connector-curvature="0" />

                <g
   transform="matrix(0.866025,0.5,0,1,-96.8812,361.566)"
   id="path11257">
                    <rect
   id="rect7896"
   style="fill:#6e8da1;fill-rule:nonzero"
   height="83.333"
   width="8.3330002"
   y="163.353"
   x="-729.79797" />

                </g>

                <g
   transform="matrix(0.866025,0.5,0,1,-82.4474,369.899)"
   serif:id="path11257"
   id="path112571">
                    <rect
   id="rect7899"
   style="fill:#6e8da1;fill-rule:nonzero"
   height="83.333"
   width="8.3330002"
   y="163.353"
   x="-729.79797" />

                </g>

                <g
   transform="matrix(0.866025,0.5,0,1,-68.0136,378.232)"
   serif:id="path11257"
   id="path112572">
                    <rect
   id="rect7902"
   style="fill:#6e8da1;fill-rule:nonzero"
   height="83.333"
   width="8.3330002"
   y="163.353"
   x="-729.79797" />

                </g>

                <g
   transform="matrix(0.866025,0.5,0,1,-53.5799,386.566)"
   serif:id="path11257"
   id="path112573">
                    <rect
   id="rect7905"
   style="fill:#6e8da1;fill-rule:nonzero"
   height="83.333"
   width="8.3330002"
   y="163.353"
   x="-729.79797" />

                </g>

                <g
   transform="matrix(0.866025,0.5,0,1,-39.1462,394.899)"
   serif:id="path11257"
   id="path112574">
                    <rect
   id="rect7908"
   style="fill:#6e8da1;fill-rule:nonzero"
   height="83.333"
   width="8.3330002"
   y="163.353"
   x="-729.79797" />

                </g>

                <g
   transform="matrix(0.866025,0.5,0,1,-96.8812,361.566)"
   id="path11259">
                    <path
   id="path7911"
   style="fill:none;fill-rule:nonzero;stroke:#506a7b;stroke-width:1.63px"
   d="m -729.798,163.353 v 83.333 h 8.334"
   inkscape:connector-curvature="0" />

                </g>

                <g
   transform="matrix(0.866025,0.5,0,1,-82.4474,369.899)"
   serif:id="path11259"
   id="path112591">
                    <path
   id="path7914"
   style="fill:none;fill-rule:nonzero;stroke:#506a7b;stroke-width:1.63px"
   d="m -729.798,163.353 v 83.333 h 8.334"
   inkscape:connector-curvature="0" />

                </g>

                <g
   transform="matrix(0.866025,0.5,0,1,-68.0136,378.232)"
   serif:id="path11259"
   id="path112592">
                    <path
   id="path7917"
   style="fill:none;fill-rule:nonzero;stroke:#506a7b;stroke-width:1.63px"
   d="m -729.798,163.353 v 83.333 h 8.334"
   inkscape:connector-curvature="0" />

                </g>

                <g
   transform="matrix(0.866025,0.5,0,1,-53.5799,386.566)"
   serif:id="path11259"
   id="path112593">
                    <path
   id="path7920"
   style="fill:none;fill-rule:nonzero;stroke:#506a7b;stroke-width:1.63px"
   d="m -729.798,163.353 v 83.333 h 8.334"
   inkscape:connector-curvature="0" />

                </g>

                <g
   transform="matrix(0.866025,0.5,0,1,-39.1462,394.899)"
   serif:id="path11259"
   id="path112594">
                    <path
   id="path7923"
   style="fill:none;fill-rule:nonzero;stroke:#506a7b;stroke-width:1.63px"
   d="m -729.798,163.353 v 83.333 h 8.334"
   inkscape:connector-curvature="0" />

                </g>

            </g>

            <path
   style="fill:#f1f4f7;fill-rule:nonzero"
   d="m -692.82,122.52 43.301,-25 86.603,50 -86.603,50 -86.602,-50 z"
   id="Top"
   inkscape:connector-curvature="0" />

            <g
   transform="translate(-43.3014,25.0001)"
   serif:id="Door letft"
   id="Door-letft">
                <path
   style="fill:#8da5b4;fill-rule:nonzero"
   d="m -562.916,147.52 43.301,-25 v 100 l -43.301,25 z"
   id="path11291"
   inkscape:connector-curvature="0" />

                <g
   transform="matrix(0.866025,-0.5,0,1,38.7341,-412.363)"
   id="path11295">
                    <rect
   id="rect7929"
   style="fill:#6e8da1;fill-rule:nonzero"
   height="8.3330002"
   width="33.333"
   y="229.186"
   x="-686.39301" />

                </g>

                <g
   transform="matrix(0.866025,-0.5,0,1,38.7341,-395.696)"
   serif:id="path11295"
   id="path112951">
                    <rect
   id="rect7932"
   style="fill:#6e8da1;fill-rule:nonzero"
   height="8.3330002"
   width="33.333"
   y="229.186"
   x="-686.39301" />

                </g>

                <g
   transform="matrix(0.866025,-0.5,0,1,38.7341,-370.696)"
   serif:id="path11295"
   id="path112952">
                    <rect
   id="rect7935"
   style="fill:#6e8da1;fill-rule:nonzero"
   height="8.3330002"
   width="33.333"
   y="229.186"
   x="-686.39301" />

                </g>

                <g
   transform="matrix(0.866025,-0.5,0,1,38.7341,-354.03)"
   serif:id="path11295"
   id="path112953">
                    <rect
   id="rect7938"
   style="fill:#6e8da1;fill-rule:nonzero"
   height="8.3330002"
   width="33.333"
   y="229.186"
   x="-686.39301" />

                </g>

                <g
   transform="matrix(0.866025,-0.5,0,1,39.9841,-410.585)"
   id="path11297">
                    <path
   id="path7941"
   style="fill:none;fill-rule:nonzero;stroke:#506a7b;stroke-width:2px"
   d="m -654.503,226.686 v 8.334 h -33.333"
   inkscape:connector-curvature="0" />

                </g>

                <g
   transform="matrix(0.866025,-0.5,0,1,39.9841,-393.918)"
   serif:id="path11297"
   id="path112971">
                    <path
   id="path7944"
   style="fill:none;fill-rule:nonzero;stroke:#506a7b;stroke-width:2px"
   d="m -654.503,226.686 v 8.334 h -33.333"
   inkscape:connector-curvature="0" />

                </g>

                <g
   transform="matrix(0.866025,-0.5,0,1,39.9841,-368.918)"
   serif:id="path11297"
   id="path112972">
                    <path
   id="path7947"
   style="fill:none;fill-rule:nonzero;stroke:#506a7b;stroke-width:2px"
   d="m -654.503,226.686 v 8.334 h -33.333"
   inkscape:connector-curvature="0" />

                </g>

                <g
   transform="matrix(0.866025,-0.5,0,1,39.9841,-352.251)"
   serif:id="path11297"
   id="path112973">
                    <path
   id="path7950"
   style="fill:none;fill-rule:nonzero;stroke:#506a7b;stroke-width:2px"
   d="m -654.503,226.686 v 8.334 h -33.333"
   inkscape:connector-curvature="0" />

                </g>

            </g>

            <g
   transform="translate(43.3013,-25)"
   serif:id="Door right"
   id="Door-right">
                <path
   style="fill:#8da5b4;fill-rule:nonzero"
   d="m -649.519,297.52 v -100 l -43.301,25 v 100 z"
   id="path11293"
   inkscape:connector-curvature="0" />

                <g
   transform="matrix(0.866025,-0.5,0,1,-91.1697,-337.363)"
   serif:id="path11295"
   id="path112954">
                    <rect
   id="rect7955"
   style="fill:#6e8da1;fill-rule:nonzero"
   height="8.3330002"
   width="33.333"
   y="229.186"
   x="-686.39301" />

                </g>

                <g
   transform="matrix(0.866025,-0.5,0,1,-91.1697,-320.696)"
   serif:id="path11295"
   id="path112955">
                    <rect
   id="rect7958"
   style="fill:#6e8da1;fill-rule:nonzero"
   height="8.3330002"
   width="33.333"
   y="229.186"
   x="-686.39301" />

                </g>

                <g
   transform="matrix(0.866025,-0.5,0,1,-91.1697,-295.696)"
   serif:id="path11295"
   id="path112956">
                    <rect
   id="rect7961"
   style="fill:#6e8da1;fill-rule:nonzero"
   height="8.3330002"
   width="33.333"
   y="229.186"
   x="-686.39301" />

                </g>

                <g
   transform="matrix(0.866025,-0.5,0,1,-91.1697,-279.03)"
   serif:id="path11295"
   id="path112957">
                    <rect
   id="rect7964"
   style="fill:#6e8da1;fill-rule:nonzero"
   height="8.3330002"
   width="33.333"
   y="229.186"
   x="-686.39301" />

                </g>

                <g
   transform="matrix(0.866025,-0.5,0,1,-89.9197,-335.585)"
   serif:id="path11297"
   id="path112974">
                    <path
   id="path7967"
   style="fill:none;fill-rule:nonzero;stroke:#506a7b;stroke-width:2px"
   d="m -654.503,226.686 v 8.334 h -33.333"
   inkscape:connector-curvature="0" />

                </g>

                <g
   transform="matrix(0.866025,-0.5,0,1,-89.9197,-318.918)"
   serif:id="path11297"
   id="path112975">
                    <path
   id="path7970"
   style="fill:none;fill-rule:nonzero;stroke:#506a7b;stroke-width:2px"
   d="m -654.503,226.686 v 8.334 h -33.333"
   inkscape:connector-curvature="0" />

                </g>

                <g
   transform="matrix(0.866025,-0.5,0,1,-89.9197,-293.918)"
   serif:id="path11297"
   id="path112976">
                    <path
   id="path7973"
   style="fill:none;fill-rule:nonzero;stroke:#506a7b;stroke-width:2px"
   d="m -654.503,226.686 v 8.334 h -33.333"
   inkscape:connector-curvature="0" />

                </g>

                <g
   transform="matrix(0.866025,-0.5,0,1,-89.9197,-277.251)"
   serif:id="path11297"
   id="path112977">
                    <path
   id="path7976"
   style="fill:none;fill-rule:nonzero;stroke:#506a7b;stroke-width:2px"
   d="m -654.503,226.686 v 8.334 h -33.333"
   inkscape:connector-curvature="0" />

                </g>

            </g>

            <g
   id="g7982"
   transform="translate(-1089.75,-681.647)">
                <path
   id="path7980"
   style="fill:none;stroke:#506a7b;stroke-width:1px;stroke-linejoin:round;stroke-miterlimit:1.5"
   d="m 483.531,854.167 v 100"
   inkscape:connector-curvature="0" />

            </g>

        </g>

    </g>

</g>
</svg>
