<?xml version="1.0" encoding="UTF-8" standalone="no"?>
<!DOCTYPE svg PUBLIC "-//W3C//DTD SVG 1.1//EN" "http://www.w3.org/Graphics/SVG/1.1/DTD/svg11.dtd">
<svg width="100%" height="100%" viewBox="0 0 217 201" version="1.1" xmlns="http://www.w3.org/2000/svg" xmlns:xlink="http://www.w3.org/1999/xlink" xml:space="preserve" xmlns:serif="http://www.serif.com/" style="fill-rule:evenodd;clip-rule:evenodd;">
    <g transform="matrix(1,0,0,1,-548.483,-1050)">
        <g id="Container-resources" serif:id="Container resources" transform="matrix(1,0,0,1,1291.82,948.314)">
            <g transform="matrix(1,0,0,1,-2569.21,-1310.79)">
                <path d="M1912.47,1612.47L1941.34,1612.47L2042.38,1554.14L1999.08,1529.14L1999.08,1562.47L1912.47,1612.47Z" style="fill-opacity:0.2;"/>
            </g>
            <g id="Interior-left" serif:id="Interior left" transform="matrix(1,0,0,1,-7.21647,4.16687)">
                <path d="M-562.916,147.52L-649.519,197.52L-570.133,243.353L-562.916,247.52L-562.916,147.52Z" style="fill:rgb(205,216,225);fill-rule:nonzero;"/>
            </g>
            <g id="Floor" transform="matrix(1,0,0,1,-7.21647,4.16687)">
                <path d="M-562.916,247.52L-649.519,197.52L-649.519,289.186L-649.519,297.52L-562.916,247.52Z" style="fill:rgb(241,244,247);fill-rule:nonzero;"/>
            </g>
            <g id="Library">
            </g>
            <g id="Application">
            </g>
            <g id="Right-side" serif:id="Right side" transform="matrix(1,0,0,1,-7.21647,4.16687)">
                <path id="path11251" d="M-736.121,147.52L-736.121,247.52L-649.519,297.52L-649.519,197.52L-736.121,147.52Z" style="fill:rgb(205,216,225);fill-rule:nonzero;"/>
                <g id="path11257" transform="matrix(0.866025,0.5,-4.80741e-17,1,-96.8812,361.566)">
                    <rect x="-729.798" y="163.353" width="8.333" height="83.333" style="fill:rgb(110,141,161);fill-rule:nonzero;"/>
                </g>
                <g id="path112571" serif:id="path11257" transform="matrix(0.866025,0.5,-4.80741e-17,1,-82.4474,369.899)">
                    <rect x="-729.798" y="163.353" width="8.333" height="83.333" style="fill:rgb(110,141,161);fill-rule:nonzero;"/>
                </g>
                <g id="path112572" serif:id="path11257" transform="matrix(0.866025,0.5,-4.80741e-17,1,-68.0136,378.232)">
                    <rect x="-729.798" y="163.353" width="8.333" height="83.333" style="fill:rgb(110,141,161);fill-rule:nonzero;"/>
                </g>
                <g id="path112573" serif:id="path11257" transform="matrix(0.866025,0.5,-4.80741e-17,1,-53.5799,386.566)">
                    <rect x="-729.798" y="163.353" width="8.333" height="83.333" style="fill:rgb(110,141,161);fill-rule:nonzero;"/>
                </g>
                <g id="path112574" serif:id="path11257" transform="matrix(0.866025,0.5,-4.80741e-17,1,-39.1462,394.899)">
                    <rect x="-729.798" y="163.353" width="8.333" height="83.333" style="fill:rgb(110,141,161);fill-rule:nonzero;"/>
                </g>
                <g id="path11259" transform="matrix(0.866025,0.5,-4.80741e-17,1,-96.8812,361.566)">
                    <path d="M-729.798,163.353L-729.798,246.686L-721.464,246.686" style="fill:none;fill-rule:nonzero;stroke:rgb(80,106,123);stroke-width:1.63px;"/>
                </g>
                <g id="path112591" serif:id="path11259" transform="matrix(0.866025,0.5,-4.80741e-17,1,-82.4474,369.899)">
                    <path d="M-729.798,163.353L-729.798,246.686L-721.464,246.686" style="fill:none;fill-rule:nonzero;stroke:rgb(80,106,123);stroke-width:1.63px;"/>
                </g>
                <g id="path112592" serif:id="path11259" transform="matrix(0.866025,0.5,-4.80741e-17,1,-68.0136,378.232)">
                    <path d="M-729.798,163.353L-729.798,246.686L-721.464,246.686" style="fill:none;fill-rule:nonzero;stroke:rgb(80,106,123);stroke-width:1.63px;"/>
                </g>
                <g id="path112593" serif:id="path11259" transform="matrix(0.866025,0.5,-4.80741e-17,1,-53.5799,386.566)">
                    <path d="M-729.798,163.353L-729.798,246.686L-721.464,246.686" style="fill:none;fill-rule:nonzero;stroke:rgb(80,106,123);stroke-width:1.63px;"/>
                </g>
                <g id="path112594" serif:id="path11259" transform="matrix(0.866025,0.5,-4.80741e-17,1,-39.1462,394.899)">
                    <path d="M-729.798,163.353L-729.798,246.686L-721.464,246.686" style="fill:none;fill-rule:nonzero;stroke:rgb(80,106,123);stroke-width:1.63px;"/>
                </g>
            </g>
            <g id="Top" transform="matrix(1,0,0,1,-7.21647,4.16687)">
                <path d="M-692.82,122.52L-649.519,97.52L-562.916,147.52L-649.519,197.52L-736.121,147.52L-692.82,122.52Z" style="fill:rgb(241,244,247);fill-rule:nonzero;"/>
            </g>
            <g id="Door-letft" serif:id="Door letft" transform="matrix(1,0,0,1,-50.5178,29.1669)">
                <path id="path11291" d="M-562.916,147.52L-519.615,122.52L-519.615,222.52L-562.916,247.52L-562.916,147.52Z" style="fill:rgb(141,165,180);fill-rule:nonzero;"/>
                <g id="path11295" transform="matrix(0.866025,-0.5,4.80741e-17,1,38.7341,-412.363)">
                    <rect x="-686.393" y="229.186" width="33.333" height="8.333" style="fill:rgb(110,141,161);fill-rule:nonzero;"/>
                </g>
                <g id="path112951" serif:id="path11295" transform="matrix(0.866025,-0.5,4.80741e-17,1,38.7341,-395.696)">
                    <rect x="-686.393" y="229.186" width="33.333" height="8.333" style="fill:rgb(110,141,161);fill-rule:nonzero;"/>
                </g>
                <g id="path112952" serif:id="path11295" transform="matrix(0.866025,-0.5,4.80741e-17,1,38.7341,-370.696)">
                    <rect x="-686.393" y="229.186" width="33.333" height="8.333" style="fill:rgb(110,141,161);fill-rule:nonzero;"/>
                </g>
                <g id="path112953" serif:id="path11295" transform="matrix(0.866025,-0.5,4.80741e-17,1,38.7341,-354.03)">
                    <rect x="-686.393" y="229.186" width="33.333" height="8.333" style="fill:rgb(110,141,161);fill-rule:nonzero;"/>
                </g>
                <g id="path11297" transform="matrix(0.866025,-0.5,4.80741e-17,1,39.9841,-410.585)">
                    <path d="M-654.503,226.686L-654.503,235.02L-687.836,235.02" style="fill:none;fill-rule:nonzero;stroke:rgb(80,106,123);stroke-width:2px;"/>
                </g>
                <g id="path112971" serif:id="path11297" transform="matrix(0.866025,-0.5,4.80741e-17,1,39.9841,-393.918)">
                    <path d="M-654.503,226.686L-654.503,235.02L-687.836,235.02" style="fill:none;fill-rule:nonzero;stroke:rgb(80,106,123);stroke-width:2px;"/>
                </g>
                <g id="path112972" serif:id="path11297" transform="matrix(0.866025,-0.5,4.80741e-17,1,39.9841,-368.918)">
                    <path d="M-654.503,226.686L-654.503,235.02L-687.836,235.02" style="fill:none;fill-rule:nonzero;stroke:rgb(80,106,123);stroke-width:2px;"/>
                </g>
                <g id="path112973" serif:id="path11297" transform="matrix(0.866025,-0.5,4.80741e-17,1,39.9841,-352.251)">
                    <path d="M-654.503,226.686L-654.503,235.02L-687.836,235.02" style="fill:none;fill-rule:nonzero;stroke:rgb(80,106,123);stroke-width:2px;"/>
                </g>
            </g>
            <g id="Door-right" serif:id="Door right" transform="matrix(1,0,0,1,36.0848,-20.8331)">
                <path id="path11293" d="M-649.519,297.52L-649.519,197.52L-692.82,222.52L-692.82,322.52L-649.519,297.52Z" style="fill:rgb(141,165,180);fill-rule:nonzero;"/>
                <g id="path112954" serif:id="path11295" transform="matrix(0.866025,-0.5,4.80741e-17,1,-91.1697,-337.363)">
                    <rect x="-686.393" y="229.186" width="33.333" height="8.333" style="fill:rgb(110,141,161);fill-rule:nonzero;"/>
                </g>
                <g id="path112955" serif:id="path11295" transform="matrix(0.866025,-0.5,4.80741e-17,1,-91.1697,-320.696)">
                    <rect x="-686.393" y="229.186" width="33.333" height="8.333" style="fill:rgb(110,141,161);fill-rule:nonzero;"/>
                </g>
                <g id="path112956" serif:id="path11295" transform="matrix(0.866025,-0.5,4.80741e-17,1,-91.1697,-295.696)">
                    <rect x="-686.393" y="229.186" width="33.333" height="8.333" style="fill:rgb(110,141,161);fill-rule:nonzero;"/>
                </g>
                <g id="path112957" serif:id="path11295" transform="matrix(0.866025,-0.5,4.80741e-17,1,-91.1697,-279.03)">
                    <rect x="-686.393" y="229.186" width="33.333" height="8.333" style="fill:rgb(110,141,161);fill-rule:nonzero;"/>
                </g>
                <g id="path112974" serif:id="path11297" transform="matrix(0.866025,-0.5,4.80741e-17,1,-89.9197,-335.585)">
                    <path d="M-654.503,226.686L-654.503,235.02L-687.836,235.02" style="fill:none;fill-rule:nonzero;stroke:rgb(80,106,123);stroke-width:2px;"/>
                </g>
                <g id="path112975" serif:id="path11297" transform="matrix(0.866025,-0.5,4.80741e-17,1,-89.9197,-318.918)">
                    <path d="M-654.503,226.686L-654.503,235.02L-687.836,235.02" style="fill:none;fill-rule:nonzero;stroke:rgb(80,106,123);stroke-width:2px;"/>
                </g>
                <g id="path112976" serif:id="path11297" transform="matrix(0.866025,-0.5,4.80741e-17,1,-89.9197,-293.918)">
                    <path d="M-654.503,226.686L-654.503,235.02L-687.836,235.02" style="fill:none;fill-rule:nonzero;stroke:rgb(80,106,123);stroke-width:2px;"/>
                </g>
                <g id="path112977" serif:id="path11297" transform="matrix(0.866025,-0.5,4.80741e-17,1,-89.9197,-277.251)">
                    <path d="M-654.503,226.686L-654.503,235.02L-687.836,235.02" style="fill:none;fill-rule:nonzero;stroke:rgb(80,106,123);stroke-width:2px;"/>
                </g>
            </g>
            <g transform="matrix(1,0,0,1,-1096.96,-677.48)">
                <path d="M483.531,854.167L483.531,954.167" style="fill:none;stroke:rgb(80,106,123);stroke-width:1px;stroke-linejoin:round;stroke-miterlimit:1.5;"/>
            </g>
            <g transform="matrix(0.506732,0,0,0.506732,-1216.79,-465.819)">
                <g transform="matrix(0.64089,-0.370018,2.73869e-17,0.569681,457.273,671.771)">
                    <rect x="1050" y="1818.65" width="200" height="86.603" style="fill:rgb(201,70,75);"/>
                </g>
                <g transform="matrix(2.19734,-1.26863,1.23241e-16,2.27872,-1891.13,-110.258)">
                    <g transform="matrix(8.55556,0,0,11,1388.09,1407.69)">
                        <path d="M0.622,-0.215C0.622,-0.172 0.611,-0.133 0.589,-0.098C0.566,-0.064 0.534,-0.037 0.491,-0.017C0.448,0.002 0.397,0.012 0.338,0.012C0.267,0.012 0.209,-0.001 0.163,-0.028C0.131,-0.047 0.104,-0.073 0.084,-0.105C0.063,-0.137 0.053,-0.168 0.053,-0.198C0.053,-0.216 0.059,-0.231 0.072,-0.243C0.084,-0.256 0.099,-0.262 0.118,-0.262C0.133,-0.262 0.146,-0.257 0.157,-0.248C0.168,-0.238 0.177,-0.223 0.184,-0.204C0.193,-0.181 0.203,-0.162 0.214,-0.147C0.224,-0.132 0.239,-0.119 0.258,-0.109C0.278,-0.099 0.303,-0.094 0.334,-0.094C0.377,-0.094 0.412,-0.104 0.439,-0.124C0.466,-0.144 0.479,-0.169 0.479,-0.199C0.479,-0.223 0.472,-0.242 0.457,-0.257C0.443,-0.272 0.424,-0.283 0.401,-0.291C0.378,-0.299 0.347,-0.307 0.309,-0.316C0.258,-0.328 0.215,-0.342 0.18,-0.358C0.145,-0.374 0.118,-0.396 0.097,-0.424C0.077,-0.452 0.067,-0.486 0.067,-0.528C0.067,-0.567 0.078,-0.602 0.099,-0.633C0.121,-0.663 0.152,-0.687 0.192,-0.703C0.233,-0.72 0.281,-0.728 0.336,-0.728C0.38,-0.728 0.418,-0.723 0.45,-0.712C0.482,-0.701 0.509,-0.686 0.53,-0.668C0.551,-0.65 0.566,-0.631 0.576,-0.611C0.586,-0.591 0.591,-0.572 0.591,-0.553C0.591,-0.536 0.585,-0.52 0.573,-0.507C0.56,-0.493 0.545,-0.486 0.527,-0.486C0.51,-0.486 0.498,-0.49 0.489,-0.498C0.48,-0.507 0.471,-0.52 0.461,-0.539C0.448,-0.566 0.432,-0.587 0.414,-0.602C0.396,-0.617 0.367,-0.625 0.326,-0.625C0.289,-0.625 0.259,-0.617 0.236,-0.6C0.213,-0.584 0.201,-0.564 0.201,-0.541C0.201,-0.527 0.205,-0.514 0.213,-0.504C0.221,-0.493 0.231,-0.485 0.245,-0.477C0.259,-0.47 0.273,-0.464 0.287,-0.459C0.301,-0.455 0.324,-0.449 0.356,-0.441C0.396,-0.431 0.433,-0.421 0.466,-0.41C0.498,-0.398 0.526,-0.384 0.549,-0.368C0.572,-0.352 0.59,-0.331 0.603,-0.306C0.616,-0.281 0.622,-0.251 0.622,-0.215Z" style="fill:white;fill-rule:nonzero;"/>
                    </g>
                    <g transform="matrix(8.55556,0,0,11,1393.79,1407.69)">
                        <path d="M0.441,-0.226L0.18,-0.226C0.181,-0.196 0.187,-0.169 0.198,-0.146C0.21,-0.123 0.226,-0.105 0.246,-0.094C0.266,-0.082 0.287,-0.076 0.311,-0.076C0.327,-0.076 0.342,-0.078 0.355,-0.082C0.368,-0.086 0.381,-0.091 0.393,-0.099C0.405,-0.107 0.417,-0.116 0.427,-0.125C0.438,-0.134 0.451,-0.146 0.468,-0.162C0.475,-0.168 0.484,-0.171 0.497,-0.171C0.511,-0.171 0.522,-0.167 0.53,-0.16C0.539,-0.152 0.543,-0.142 0.543,-0.128C0.543,-0.116 0.538,-0.102 0.529,-0.086C0.519,-0.07 0.505,-0.054 0.486,-0.039C0.467,-0.024 0.443,-0.012 0.414,-0.002C0.385,0.007 0.352,0.012 0.315,0.012C0.229,0.012 0.163,-0.012 0.115,-0.061C0.068,-0.11 0.044,-0.176 0.044,-0.26C0.044,-0.299 0.05,-0.336 0.062,-0.369C0.073,-0.403 0.09,-0.432 0.113,-0.456C0.135,-0.48 0.163,-0.499 0.196,-0.511C0.229,-0.524 0.265,-0.531 0.305,-0.531C0.357,-0.531 0.402,-0.52 0.439,-0.498C0.476,-0.476 0.504,-0.447 0.523,-0.413C0.542,-0.378 0.551,-0.342 0.551,-0.306C0.551,-0.273 0.541,-0.251 0.522,-0.241C0.503,-0.231 0.476,-0.226 0.441,-0.226ZM0.18,-0.302L0.422,-0.302C0.419,-0.347 0.406,-0.381 0.385,-0.404C0.364,-0.427 0.336,-0.438 0.301,-0.438C0.268,-0.438 0.24,-0.427 0.219,-0.404C0.198,-0.381 0.185,-0.347 0.18,-0.302Z" style="fill:white;fill-rule:nonzero;"/>
                    </g>
                    <g transform="matrix(8.55556,0,0,11,1398.88,1407.69)">
                        <path d="M0.547,-0.153C0.547,-0.136 0.542,-0.118 0.532,-0.1C0.522,-0.081 0.507,-0.063 0.487,-0.046C0.466,-0.029 0.441,-0.015 0.41,-0.004C0.379,0.006 0.344,0.011 0.305,0.011C0.223,0.011 0.159,-0.013 0.112,-0.061C0.066,-0.109 0.043,-0.173 0.043,-0.254C0.043,-0.309 0.054,-0.357 0.075,-0.399C0.096,-0.441 0.126,-0.473 0.167,-0.496C0.207,-0.519 0.254,-0.531 0.31,-0.531C0.345,-0.531 0.376,-0.526 0.405,-0.516C0.434,-0.506 0.458,-0.493 0.478,-0.477C0.498,-0.461 0.514,-0.444 0.524,-0.426C0.535,-0.407 0.54,-0.391 0.54,-0.375C0.54,-0.359 0.534,-0.346 0.522,-0.334C0.51,-0.323 0.496,-0.318 0.479,-0.318C0.468,-0.318 0.459,-0.321 0.451,-0.326C0.444,-0.332 0.436,-0.341 0.427,-0.354C0.41,-0.379 0.393,-0.397 0.376,-0.41C0.358,-0.422 0.335,-0.428 0.308,-0.428C0.269,-0.428 0.237,-0.413 0.213,-0.382C0.189,-0.351 0.177,-0.309 0.177,-0.256C0.177,-0.231 0.18,-0.208 0.186,-0.187C0.192,-0.166 0.201,-0.148 0.213,-0.133C0.225,-0.118 0.239,-0.107 0.255,-0.099C0.272,-0.092 0.29,-0.088 0.31,-0.088C0.337,-0.088 0.36,-0.094 0.379,-0.106C0.398,-0.119 0.415,-0.138 0.429,-0.163C0.437,-0.178 0.446,-0.19 0.456,-0.198C0.465,-0.207 0.477,-0.211 0.49,-0.211C0.507,-0.211 0.52,-0.205 0.531,-0.192C0.542,-0.18 0.547,-0.167 0.547,-0.153Z" style="fill:white;fill-rule:nonzero;"/>
                    </g>
                    <g transform="matrix(8.55556,0,0,11,1403.96,1407.69)">
                        <path d="M0.201,-0.18L0.201,-0.069C0.201,-0.042 0.195,-0.022 0.182,-0.008C0.169,0.005 0.153,0.012 0.134,0.012C0.115,0.012 0.099,0.005 0.086,-0.008C0.074,-0.022 0.068,-0.042 0.068,-0.069L0.068,-0.44C0.068,-0.5 0.09,-0.53 0.133,-0.53C0.155,-0.53 0.171,-0.523 0.181,-0.509C0.19,-0.495 0.196,-0.474 0.197,-0.447C0.213,-0.474 0.229,-0.495 0.246,-0.509C0.263,-0.523 0.285,-0.53 0.313,-0.53C0.341,-0.53 0.368,-0.523 0.395,-0.509C0.421,-0.495 0.434,-0.476 0.434,-0.453C0.434,-0.437 0.428,-0.423 0.417,-0.413C0.406,-0.402 0.394,-0.397 0.381,-0.397C0.376,-0.397 0.364,-0.4 0.345,-0.406C0.327,-0.412 0.31,-0.415 0.296,-0.415C0.276,-0.415 0.26,-0.41 0.248,-0.4C0.236,-0.389 0.226,-0.374 0.219,-0.354C0.212,-0.334 0.208,-0.31 0.205,-0.282C0.202,-0.254 0.201,-0.22 0.201,-0.18Z" style="fill:white;fill-rule:nonzero;"/>
                    </g>
                    <g transform="matrix(8.55556,0,0,11,1407.5,1407.69)">
                        <path d="M0.441,-0.226L0.18,-0.226C0.181,-0.196 0.187,-0.169 0.198,-0.146C0.21,-0.123 0.226,-0.105 0.246,-0.094C0.266,-0.082 0.287,-0.076 0.311,-0.076C0.327,-0.076 0.342,-0.078 0.355,-0.082C0.368,-0.086 0.381,-0.091 0.393,-0.099C0.405,-0.107 0.417,-0.116 0.427,-0.125C0.438,-0.134 0.451,-0.146 0.468,-0.162C0.475,-0.168 0.484,-0.171 0.497,-0.171C0.511,-0.171 0.522,-0.167 0.53,-0.16C0.539,-0.152 0.543,-0.142 0.543,-0.128C0.543,-0.116 0.538,-0.102 0.529,-0.086C0.519,-0.07 0.505,-0.054 0.486,-0.039C0.467,-0.024 0.443,-0.012 0.414,-0.002C0.385,0.007 0.352,0.012 0.315,0.012C0.229,0.012 0.163,-0.012 0.115,-0.061C0.068,-0.11 0.044,-0.176 0.044,-0.26C0.044,-0.299 0.05,-0.336 0.062,-0.369C0.073,-0.403 0.09,-0.432 0.113,-0.456C0.135,-0.48 0.163,-0.499 0.196,-0.511C0.229,-0.524 0.265,-0.531 0.305,-0.531C0.357,-0.531 0.402,-0.52 0.439,-0.498C0.476,-0.476 0.504,-0.447 0.523,-0.413C0.542,-0.378 0.551,-0.342 0.551,-0.306C0.551,-0.273 0.541,-0.251 0.522,-0.241C0.503,-0.231 0.476,-0.226 0.441,-0.226ZM0.18,-0.302L0.422,-0.302C0.419,-0.347 0.406,-0.381 0.385,-0.404C0.364,-0.427 0.336,-0.438 0.301,-0.438C0.268,-0.438 0.24,-0.427 0.219,-0.404C0.198,-0.381 0.185,-0.347 0.18,-0.302Z" style="fill:white;fill-rule:nonzero;"/>
                    </g>
                    <g transform="matrix(8.55556,0,0,11,1412.58,1407.69)">
                        <path d="M0.076,-0.518L0.091,-0.518L0.091,-0.598C0.091,-0.62 0.091,-0.636 0.093,-0.649C0.094,-0.661 0.097,-0.671 0.102,-0.68C0.107,-0.689 0.115,-0.697 0.125,-0.702C0.134,-0.708 0.145,-0.711 0.157,-0.711C0.174,-0.711 0.189,-0.705 0.203,-0.692C0.212,-0.683 0.218,-0.673 0.22,-0.661C0.223,-0.649 0.224,-0.631 0.224,-0.609L0.224,-0.518L0.273,-0.518C0.292,-0.518 0.306,-0.514 0.316,-0.505C0.326,-0.496 0.331,-0.484 0.331,-0.47C0.331,-0.452 0.324,-0.44 0.31,-0.433C0.296,-0.425 0.275,-0.422 0.249,-0.422L0.224,-0.422L0.224,-0.177C0.224,-0.156 0.225,-0.14 0.226,-0.129C0.228,-0.117 0.232,-0.108 0.238,-0.101C0.244,-0.094 0.255,-0.091 0.269,-0.091C0.277,-0.091 0.287,-0.092 0.301,-0.095C0.314,-0.098 0.325,-0.099 0.332,-0.099C0.343,-0.099 0.352,-0.095 0.361,-0.086C0.37,-0.078 0.374,-0.067 0.374,-0.054C0.374,-0.033 0.362,-0.016 0.339,-0.005C0.315,0.007 0.282,0.012 0.238,0.012C0.196,0.012 0.165,0.005 0.143,-0.009C0.122,-0.023 0.108,-0.042 0.101,-0.067C0.094,-0.092 0.091,-0.125 0.091,-0.166L0.091,-0.422L0.073,-0.422C0.054,-0.422 0.039,-0.426 0.029,-0.436C0.019,-0.445 0.014,-0.456 0.014,-0.47C0.014,-0.484 0.019,-0.496 0.03,-0.505C0.041,-0.514 0.056,-0.518 0.076,-0.518Z" style="fill:white;fill-rule:nonzero;"/>
                    </g>
                    <g transform="matrix(8.55556,0,0,11,1415.61,1407.69)">
                        <path d="M0.498,-0.162C0.498,-0.125 0.489,-0.094 0.471,-0.068C0.453,-0.041 0.427,-0.022 0.392,-0.008C0.357,0.005 0.314,0.012 0.264,0.012C0.216,0.012 0.175,0.005 0.141,-0.01C0.107,-0.024 0.082,-0.043 0.065,-0.065C0.049,-0.087 0.041,-0.109 0.041,-0.131C0.041,-0.146 0.046,-0.158 0.057,-0.168C0.067,-0.179 0.08,-0.184 0.096,-0.184C0.11,-0.184 0.121,-0.181 0.128,-0.174C0.136,-0.167 0.143,-0.157 0.15,-0.145C0.164,-0.121 0.18,-0.104 0.199,-0.092C0.218,-0.08 0.244,-0.074 0.277,-0.074C0.304,-0.074 0.325,-0.08 0.343,-0.092C0.36,-0.104 0.368,-0.118 0.368,-0.133C0.368,-0.156 0.359,-0.173 0.342,-0.184C0.324,-0.195 0.295,-0.205 0.254,-0.215C0.208,-0.226 0.171,-0.238 0.142,-0.251C0.113,-0.263 0.09,-0.28 0.073,-0.3C0.056,-0.321 0.047,-0.346 0.047,-0.376C0.047,-0.403 0.055,-0.428 0.071,-0.452C0.087,-0.475 0.11,-0.494 0.141,-0.509C0.172,-0.523 0.21,-0.53 0.254,-0.53C0.288,-0.53 0.319,-0.526 0.347,-0.519C0.374,-0.512 0.397,-0.502 0.416,-0.49C0.434,-0.478 0.448,-0.465 0.458,-0.45C0.467,-0.436 0.472,-0.421 0.472,-0.407C0.472,-0.392 0.467,-0.379 0.457,-0.37C0.447,-0.36 0.432,-0.355 0.413,-0.355C0.399,-0.355 0.388,-0.359 0.378,-0.367C0.369,-0.375 0.358,-0.386 0.345,-0.402C0.335,-0.415 0.323,-0.425 0.31,-0.433C0.296,-0.441 0.277,-0.445 0.254,-0.445C0.23,-0.445 0.21,-0.44 0.194,-0.429C0.178,-0.419 0.17,-0.406 0.17,-0.391C0.17,-0.377 0.176,-0.366 0.188,-0.357C0.199,-0.348 0.215,-0.34 0.235,-0.334C0.255,-0.329 0.282,-0.321 0.317,-0.313C0.358,-0.303 0.392,-0.291 0.418,-0.277C0.444,-0.263 0.464,-0.246 0.478,-0.227C0.491,-0.208 0.498,-0.187 0.498,-0.162Z" style="fill:white;fill-rule:nonzero;"/>
                    </g>
                </g>
                <g transform="matrix(0.866025,0.5,-5.55112e-17,0.56839,206.447,318.453)">
                    <rect x="1058.33" y="822.724" width="8.333" height="86.603" style="fill:rgb(181,197,209);"/>
                </g>
                <g transform="matrix(0.640896,-0.370022,0.986715,0.56968,15.7763,-27.1539)">
                    <rect x="-950" y="1739.27" width="200" height="7.217" style="fill:rgb(213,222,232);"/>
                </g>
            </g>
            <g transform="matrix(0.506732,0,0,0.506732,-1216.79,-403.319)">
                <g transform="matrix(0.64089,-0.370018,2.73869e-17,0.569681,457.273,671.771)">
                    <rect x="1050" y="1818.65" width="200" height="86.603" style="fill:rgb(129,182,92);"/>
                </g>
                <g transform="matrix(2.19734,-1.26863,1.10283e-16,2.29402,-1891.13,-148.451)">
                    <g transform="matrix(8.55556,0,0,10.9267,1386.46,1414.88)">
                        <path d="M0.184,-0.633L0.346,-0.153L0.509,-0.636C0.517,-0.662 0.524,-0.679 0.528,-0.689C0.532,-0.699 0.539,-0.708 0.549,-0.716C0.559,-0.724 0.572,-0.728 0.589,-0.728C0.601,-0.728 0.613,-0.725 0.623,-0.719C0.634,-0.713 0.642,-0.704 0.648,-0.694C0.654,-0.684 0.657,-0.674 0.657,-0.663C0.657,-0.656 0.656,-0.648 0.654,-0.64C0.652,-0.632 0.65,-0.623 0.647,-0.615C0.644,-0.608 0.641,-0.599 0.638,-0.591L0.465,-0.123C0.459,-0.105 0.452,-0.088 0.446,-0.072C0.44,-0.056 0.433,-0.042 0.425,-0.03C0.417,-0.017 0.406,-0.007 0.392,0C0.379,0.008 0.362,0.012 0.343,0.012C0.323,0.012 0.307,0.008 0.293,0.001C0.28,-0.007 0.269,-0.017 0.26,-0.03C0.252,-0.042 0.245,-0.056 0.239,-0.072C0.233,-0.088 0.226,-0.105 0.22,-0.123L0.05,-0.587C0.047,-0.595 0.044,-0.604 0.041,-0.612C0.038,-0.62 0.035,-0.629 0.033,-0.638C0.031,-0.648 0.03,-0.656 0.03,-0.662C0.03,-0.679 0.036,-0.694 0.05,-0.708C0.063,-0.721 0.08,-0.728 0.1,-0.728C0.125,-0.728 0.142,-0.72 0.153,-0.705C0.163,-0.69 0.173,-0.666 0.184,-0.633Z" style="fill:white;fill-rule:nonzero;"/>
                    </g>
                    <g transform="matrix(8.55556,0,0,10.9267,1391.92,1414.88)">
                        <path d="M0.568,-0.259C0.568,-0.219 0.562,-0.182 0.549,-0.149C0.537,-0.115 0.519,-0.087 0.496,-0.063C0.472,-0.038 0.444,-0.02 0.412,-0.007C0.379,0.006 0.342,0.012 0.302,0.012C0.261,0.012 0.225,0.006 0.193,-0.007C0.161,-0.02 0.133,-0.039 0.109,-0.063C0.086,-0.087 0.068,-0.116 0.055,-0.149C0.043,-0.182 0.037,-0.219 0.037,-0.259C0.037,-0.299 0.043,-0.336 0.056,-0.37C0.068,-0.403 0.086,-0.432 0.109,-0.456C0.132,-0.479 0.16,-0.498 0.193,-0.51C0.226,-0.523 0.262,-0.53 0.302,-0.53C0.342,-0.53 0.379,-0.523 0.412,-0.51C0.444,-0.497 0.473,-0.479 0.496,-0.455C0.52,-0.431 0.537,-0.402 0.55,-0.369C0.562,-0.335 0.568,-0.299 0.568,-0.259ZM0.434,-0.259C0.434,-0.313 0.422,-0.355 0.398,-0.386C0.374,-0.416 0.342,-0.431 0.302,-0.431C0.276,-0.431 0.253,-0.424 0.233,-0.411C0.213,-0.397 0.198,-0.377 0.187,-0.351C0.176,-0.325 0.171,-0.294 0.171,-0.259C0.171,-0.224 0.176,-0.194 0.187,-0.167C0.197,-0.141 0.212,-0.122 0.232,-0.108C0.252,-0.094 0.275,-0.087 0.302,-0.087C0.342,-0.087 0.374,-0.102 0.398,-0.133C0.422,-0.163 0.434,-0.205 0.434,-0.259Z" style="fill:white;fill-rule:nonzero;"/>
                    </g>
                    <g transform="matrix(8.55556,0,0,10.9267,1397.09,1414.88)">
                        <path d="M0.069,-0.069L0.069,-0.647C0.069,-0.674 0.075,-0.694 0.087,-0.708C0.099,-0.721 0.115,-0.728 0.135,-0.728C0.155,-0.728 0.171,-0.721 0.184,-0.708C0.196,-0.694 0.202,-0.674 0.202,-0.647L0.202,-0.069C0.202,-0.042 0.196,-0.022 0.183,-0.008C0.171,0.005 0.155,0.012 0.135,0.012C0.115,0.012 0.099,0.005 0.087,-0.009C0.075,-0.023 0.069,-0.043 0.069,-0.069Z" style="fill:white;fill-rule:nonzero;"/>
                    </g>
                    <g transform="matrix(8.55556,0,0,10.9267,1399.41,1414.88)">
                        <path d="M0.415,-0.063L0.415,-0.08C0.399,-0.06 0.382,-0.043 0.365,-0.029C0.347,-0.016 0.328,-0.005 0.307,0.001C0.286,0.008 0.263,0.011 0.236,0.011C0.204,0.011 0.175,0.005 0.149,-0.009C0.124,-0.022 0.104,-0.041 0.09,-0.064C0.073,-0.092 0.065,-0.133 0.065,-0.186L0.065,-0.45C0.065,-0.477 0.071,-0.497 0.083,-0.51C0.095,-0.523 0.111,-0.53 0.131,-0.53C0.151,-0.53 0.167,-0.523 0.18,-0.51C0.192,-0.496 0.198,-0.477 0.198,-0.45L0.198,-0.237C0.198,-0.206 0.201,-0.18 0.206,-0.159C0.211,-0.138 0.221,-0.122 0.234,-0.11C0.248,-0.098 0.266,-0.092 0.289,-0.092C0.312,-0.092 0.333,-0.098 0.353,-0.112C0.372,-0.125 0.387,-0.143 0.396,-0.164C0.403,-0.183 0.407,-0.224 0.407,-0.288L0.407,-0.45C0.407,-0.477 0.413,-0.496 0.426,-0.51C0.438,-0.523 0.454,-0.53 0.474,-0.53C0.494,-0.53 0.51,-0.523 0.522,-0.51C0.534,-0.497 0.54,-0.477 0.54,-0.45L0.54,-0.064C0.54,-0.039 0.534,-0.02 0.523,-0.007C0.511,0.006 0.496,0.012 0.478,0.012C0.46,0.012 0.445,0.006 0.433,-0.008C0.421,-0.021 0.415,-0.039 0.415,-0.063Z" style="fill:white;fill-rule:nonzero;"/>
                    </g>
                    <g transform="matrix(8.55556,0,0,10.9267,1404.58,1414.88)">
                        <path d="M0.512,-0.249L0.512,-0.072C0.512,-0.044 0.506,-0.023 0.493,-0.009C0.48,0.005 0.464,0.012 0.443,0.012C0.423,0.012 0.406,0.005 0.394,-0.009C0.381,-0.023 0.375,-0.044 0.375,-0.072L0.375,-0.284C0.375,-0.318 0.374,-0.344 0.372,-0.362C0.369,-0.381 0.363,-0.396 0.353,-0.408C0.343,-0.42 0.327,-0.426 0.305,-0.426C0.262,-0.426 0.233,-0.411 0.219,-0.381C0.205,-0.351 0.198,-0.308 0.198,-0.252L0.198,-0.072C0.198,-0.044 0.192,-0.023 0.179,-0.009C0.167,0.005 0.15,0.012 0.13,0.012C0.11,0.012 0.093,0.005 0.08,-0.009C0.067,-0.023 0.061,-0.044 0.061,-0.072L0.061,-0.453C0.061,-0.478 0.067,-0.497 0.078,-0.51C0.09,-0.523 0.105,-0.53 0.124,-0.53C0.142,-0.53 0.157,-0.524 0.17,-0.511C0.182,-0.499 0.188,-0.482 0.188,-0.461L0.188,-0.448C0.211,-0.476 0.236,-0.496 0.262,-0.509C0.289,-0.522 0.318,-0.529 0.35,-0.529C0.384,-0.529 0.412,-0.522 0.437,-0.509C0.461,-0.495 0.48,-0.475 0.496,-0.448C0.519,-0.476 0.543,-0.496 0.568,-0.509C0.594,-0.522 0.623,-0.529 0.654,-0.529C0.69,-0.529 0.722,-0.522 0.748,-0.507C0.774,-0.493 0.794,-0.472 0.807,-0.446C0.819,-0.422 0.824,-0.384 0.824,-0.332L0.824,-0.072C0.824,-0.044 0.818,-0.023 0.805,-0.009C0.792,0.005 0.776,0.012 0.755,0.012C0.735,0.012 0.718,0.005 0.705,-0.009C0.692,-0.023 0.686,-0.044 0.686,-0.072L0.686,-0.296C0.686,-0.325 0.685,-0.347 0.682,-0.365C0.68,-0.382 0.673,-0.396 0.663,-0.408C0.652,-0.42 0.636,-0.426 0.614,-0.426C0.596,-0.426 0.58,-0.421 0.564,-0.41C0.548,-0.4 0.536,-0.386 0.527,-0.368C0.517,-0.346 0.512,-0.306 0.512,-0.249Z" style="fill:white;fill-rule:nonzero;"/>
                    </g>
                    <g transform="matrix(8.55556,0,0,10.9267,1412.15,1414.88)">
                        <path d="M0.441,-0.226L0.18,-0.226C0.181,-0.196 0.187,-0.169 0.198,-0.146C0.21,-0.123 0.226,-0.105 0.246,-0.094C0.266,-0.082 0.287,-0.076 0.311,-0.076C0.327,-0.076 0.342,-0.078 0.355,-0.082C0.368,-0.086 0.381,-0.091 0.393,-0.099C0.405,-0.107 0.417,-0.116 0.427,-0.125C0.438,-0.134 0.451,-0.146 0.468,-0.162C0.475,-0.168 0.484,-0.171 0.497,-0.171C0.511,-0.171 0.522,-0.167 0.53,-0.16C0.539,-0.152 0.543,-0.142 0.543,-0.128C0.543,-0.116 0.538,-0.102 0.529,-0.086C0.519,-0.07 0.505,-0.054 0.486,-0.039C0.467,-0.024 0.443,-0.012 0.414,-0.002C0.385,0.007 0.352,0.012 0.315,0.012C0.229,0.012 0.163,-0.012 0.115,-0.061C0.068,-0.11 0.044,-0.176 0.044,-0.26C0.044,-0.299 0.05,-0.336 0.062,-0.369C0.073,-0.403 0.09,-0.432 0.113,-0.456C0.135,-0.48 0.163,-0.499 0.196,-0.511C0.229,-0.524 0.265,-0.531 0.305,-0.531C0.357,-0.531 0.402,-0.52 0.439,-0.498C0.476,-0.476 0.504,-0.447 0.523,-0.413C0.542,-0.378 0.551,-0.342 0.551,-0.306C0.551,-0.273 0.541,-0.251 0.522,-0.241C0.503,-0.231 0.476,-0.226 0.441,-0.226ZM0.18,-0.302L0.422,-0.302C0.419,-0.347 0.406,-0.381 0.385,-0.404C0.364,-0.427 0.336,-0.438 0.301,-0.438C0.268,-0.438 0.24,-0.427 0.219,-0.404C0.198,-0.381 0.185,-0.347 0.18,-0.302Z" style="fill:white;fill-rule:nonzero;"/>
                    </g>
                    <g transform="matrix(8.55556,0,0,10.9267,1417.23,1414.88)">
                        <path d="M0.498,-0.162C0.498,-0.125 0.489,-0.094 0.471,-0.068C0.453,-0.041 0.427,-0.022 0.392,-0.008C0.357,0.005 0.314,0.012 0.264,0.012C0.216,0.012 0.175,0.005 0.141,-0.01C0.107,-0.024 0.082,-0.043 0.065,-0.065C0.049,-0.087 0.041,-0.109 0.041,-0.131C0.041,-0.146 0.046,-0.158 0.057,-0.168C0.067,-0.179 0.08,-0.184 0.096,-0.184C0.11,-0.184 0.121,-0.181 0.128,-0.174C0.136,-0.167 0.143,-0.157 0.15,-0.145C0.164,-0.121 0.18,-0.104 0.199,-0.092C0.218,-0.08 0.244,-0.074 0.277,-0.074C0.304,-0.074 0.325,-0.08 0.343,-0.092C0.36,-0.104 0.368,-0.118 0.368,-0.133C0.368,-0.156 0.359,-0.173 0.342,-0.184C0.324,-0.195 0.295,-0.205 0.254,-0.215C0.208,-0.226 0.171,-0.238 0.142,-0.251C0.113,-0.263 0.09,-0.28 0.073,-0.3C0.056,-0.321 0.047,-0.346 0.047,-0.376C0.047,-0.403 0.055,-0.428 0.071,-0.452C0.087,-0.475 0.11,-0.494 0.141,-0.509C0.172,-0.523 0.21,-0.53 0.254,-0.53C0.288,-0.53 0.319,-0.526 0.347,-0.519C0.374,-0.512 0.397,-0.502 0.416,-0.49C0.434,-0.478 0.448,-0.465 0.458,-0.45C0.467,-0.436 0.472,-0.421 0.472,-0.407C0.472,-0.392 0.467,-0.379 0.457,-0.37C0.447,-0.36 0.432,-0.355 0.413,-0.355C0.399,-0.355 0.388,-0.359 0.378,-0.367C0.369,-0.375 0.358,-0.386 0.345,-0.402C0.335,-0.415 0.323,-0.425 0.31,-0.433C0.296,-0.441 0.277,-0.445 0.254,-0.445C0.23,-0.445 0.21,-0.44 0.194,-0.429C0.178,-0.419 0.17,-0.406 0.17,-0.391C0.17,-0.377 0.176,-0.366 0.188,-0.357C0.199,-0.348 0.215,-0.34 0.235,-0.334C0.255,-0.329 0.282,-0.321 0.317,-0.313C0.358,-0.303 0.392,-0.291 0.418,-0.277C0.444,-0.263 0.464,-0.246 0.478,-0.227C0.491,-0.208 0.498,-0.187 0.498,-0.162Z" style="fill:white;fill-rule:nonzero;"/>
                    </g>
                </g>
                <g transform="matrix(0.866025,0.5,-5.55112e-17,0.56839,206.447,318.453)">
                    <rect x="1058.33" y="822.724" width="8.333" height="86.603" style="fill:rgb(181,197,209);"/>
                </g>
                <g transform="matrix(0.640896,-0.370022,0.986715,0.56968,15.7763,-27.1539)">
                    <rect x="-950" y="1739.27" width="200" height="7.217" style="fill:rgb(213,222,232);"/>
                </g>
            </g>
            <g transform="matrix(0.506732,0,0,0.506732,-1216.79,-434.655)">
                <g transform="matrix(0.64089,-0.370018,2.73869e-17,0.569681,457.273,671.771)">
                    <rect x="1050" y="1818.65" width="200" height="86.603" style="fill:rgb(233,154,96);"/>
                </g>
                <g transform="matrix(2.19734,-1.26863,1.10283e-16,2.29402,-1891.13,-148.451)">
                    <g transform="matrix(8.55556,0,0,10.9267,1378,1414.88)">
                        <path d="M0.55,-0.604L0.223,-0.604L0.223,-0.428L0.524,-0.428C0.546,-0.428 0.563,-0.423 0.573,-0.413C0.584,-0.403 0.59,-0.39 0.59,-0.374C0.59,-0.358 0.584,-0.344 0.574,-0.334C0.563,-0.324 0.546,-0.319 0.524,-0.319L0.223,-0.319L0.223,-0.115L0.561,-0.115C0.584,-0.115 0.601,-0.11 0.613,-0.099C0.624,-0.089 0.63,-0.075 0.63,-0.057C0.63,-0.04 0.624,-0.026 0.613,-0.016C0.601,-0.005 0.584,-0 0.561,-0L0.167,-0C0.135,-0 0.113,-0.007 0.099,-0.021C0.085,-0.035 0.078,-0.058 0.078,-0.089L0.078,-0.627C0.078,-0.648 0.081,-0.665 0.087,-0.678C0.094,-0.691 0.103,-0.701 0.116,-0.707C0.13,-0.713 0.146,-0.716 0.167,-0.716L0.55,-0.716C0.573,-0.716 0.59,-0.711 0.601,-0.7C0.613,-0.69 0.618,-0.677 0.618,-0.66C0.618,-0.643 0.613,-0.63 0.601,-0.619C0.59,-0.609 0.573,-0.604 0.55,-0.604Z" style="fill:white;fill-rule:nonzero;"/>
                    </g>
                    <g transform="matrix(8.55556,0,0,10.9267,1383.71,1414.88)">
                        <path d="M0.19,-0.456L0.19,-0.44C0.213,-0.471 0.239,-0.494 0.267,-0.508C0.295,-0.523 0.327,-0.53 0.363,-0.53C0.398,-0.53 0.429,-0.522 0.457,-0.507C0.485,-0.492 0.505,-0.47 0.519,-0.442C0.528,-0.426 0.534,-0.408 0.536,-0.389C0.539,-0.37 0.54,-0.346 0.54,-0.317L0.54,-0.069C0.54,-0.042 0.534,-0.022 0.522,-0.008C0.51,0.005 0.494,0.012 0.474,0.012C0.454,0.012 0.438,0.005 0.426,-0.009C0.413,-0.023 0.407,-0.043 0.407,-0.069L0.407,-0.291C0.407,-0.335 0.401,-0.369 0.389,-0.392C0.377,-0.415 0.352,-0.427 0.316,-0.427C0.292,-0.427 0.271,-0.42 0.251,-0.406C0.231,-0.391 0.217,-0.372 0.208,-0.347C0.201,-0.327 0.198,-0.29 0.198,-0.236L0.198,-0.069C0.198,-0.042 0.192,-0.022 0.179,-0.008C0.167,0.005 0.151,0.012 0.131,0.012C0.112,0.012 0.096,0.005 0.083,-0.009C0.071,-0.023 0.065,-0.043 0.065,-0.069L0.065,-0.454C0.065,-0.479 0.07,-0.498 0.082,-0.511C0.093,-0.524 0.108,-0.53 0.127,-0.53C0.139,-0.53 0.149,-0.527 0.159,-0.521C0.168,-0.516 0.176,-0.508 0.181,-0.497C0.187,-0.486 0.19,-0.472 0.19,-0.456Z" style="fill:white;fill-rule:nonzero;"/>
                    </g>
                    <g transform="matrix(8.55556,0,0,10.9267,1388.77,1414.88)">
                        <path d="M0.163,-0.447L0.271,-0.144L0.387,-0.46C0.396,-0.485 0.405,-0.503 0.414,-0.514C0.423,-0.524 0.436,-0.53 0.454,-0.53C0.471,-0.53 0.485,-0.524 0.497,-0.513C0.509,-0.501 0.515,-0.488 0.515,-0.473C0.515,-0.467 0.514,-0.46 0.512,-0.453C0.51,-0.445 0.507,-0.438 0.505,-0.431C0.502,-0.424 0.499,-0.416 0.495,-0.407L0.367,-0.09C0.364,-0.081 0.359,-0.069 0.353,-0.055C0.348,-0.041 0.341,-0.029 0.334,-0.019C0.327,-0.009 0.319,-0.002 0.308,0.004C0.298,0.009 0.286,0.012 0.271,0.012C0.252,0.012 0.237,0.008 0.226,-0.001C0.215,-0.009 0.206,-0.019 0.201,-0.029C0.196,-0.039 0.187,-0.06 0.174,-0.09L0.047,-0.404C0.044,-0.412 0.041,-0.419 0.038,-0.427C0.035,-0.435 0.032,-0.443 0.03,-0.451C0.028,-0.459 0.027,-0.466 0.027,-0.472C0.027,-0.481 0.03,-0.49 0.035,-0.499C0.041,-0.508 0.048,-0.516 0.058,-0.521C0.068,-0.527 0.078,-0.53 0.09,-0.53C0.112,-0.53 0.127,-0.523 0.135,-0.511C0.144,-0.498 0.153,-0.477 0.163,-0.447Z" style="fill:white;fill-rule:nonzero;"/>
                    </g>
                    <g transform="matrix(8.55556,0,0,10.9267,1393.4,1414.88)">
                        <path d="M0.202,-0.454L0.202,-0.069C0.202,-0.042 0.196,-0.022 0.183,-0.008C0.17,0.005 0.154,0.012 0.135,0.012C0.115,0.012 0.099,0.005 0.087,-0.009C0.075,-0.023 0.069,-0.043 0.069,-0.069L0.069,-0.45C0.069,-0.477 0.075,-0.496 0.087,-0.51C0.099,-0.523 0.115,-0.53 0.135,-0.53C0.154,-0.53 0.17,-0.523 0.183,-0.51C0.196,-0.496 0.202,-0.478 0.202,-0.454ZM0.136,-0.592C0.118,-0.592 0.102,-0.597 0.089,-0.609C0.075,-0.62 0.069,-0.636 0.069,-0.657C0.069,-0.676 0.076,-0.692 0.089,-0.704C0.103,-0.716 0.118,-0.722 0.136,-0.722C0.153,-0.722 0.169,-0.717 0.182,-0.706C0.195,-0.694 0.202,-0.678 0.202,-0.657C0.202,-0.637 0.196,-0.621 0.183,-0.609C0.17,-0.598 0.154,-0.592 0.136,-0.592Z" style="fill:white;fill-rule:nonzero;"/>
                    </g>
                    <g transform="matrix(8.55556,0,0,10.9267,1395.72,1414.88)">
                        <path d="M0.201,-0.18L0.201,-0.069C0.201,-0.042 0.195,-0.022 0.182,-0.008C0.169,0.005 0.153,0.012 0.134,0.012C0.115,0.012 0.099,0.005 0.086,-0.008C0.074,-0.022 0.068,-0.042 0.068,-0.069L0.068,-0.44C0.068,-0.5 0.09,-0.53 0.133,-0.53C0.155,-0.53 0.171,-0.523 0.181,-0.509C0.19,-0.495 0.196,-0.474 0.197,-0.447C0.213,-0.474 0.229,-0.495 0.246,-0.509C0.263,-0.523 0.285,-0.53 0.313,-0.53C0.341,-0.53 0.368,-0.523 0.395,-0.509C0.421,-0.495 0.434,-0.476 0.434,-0.453C0.434,-0.437 0.428,-0.423 0.417,-0.413C0.406,-0.402 0.394,-0.397 0.381,-0.397C0.376,-0.397 0.364,-0.4 0.345,-0.406C0.327,-0.412 0.31,-0.415 0.296,-0.415C0.276,-0.415 0.26,-0.41 0.248,-0.4C0.236,-0.389 0.226,-0.374 0.219,-0.354C0.212,-0.334 0.208,-0.31 0.205,-0.282C0.202,-0.254 0.201,-0.22 0.201,-0.18Z" style="fill:white;fill-rule:nonzero;"/>
                    </g>
                    <g transform="matrix(8.55556,0,0,10.9267,1399.14,1414.88)">
                        <path d="M0.568,-0.259C0.568,-0.219 0.562,-0.182 0.549,-0.149C0.537,-0.115 0.519,-0.087 0.496,-0.063C0.472,-0.038 0.444,-0.02 0.412,-0.007C0.379,0.006 0.342,0.012 0.302,0.012C0.261,0.012 0.225,0.006 0.193,-0.007C0.161,-0.02 0.133,-0.039 0.109,-0.063C0.086,-0.087 0.068,-0.116 0.055,-0.149C0.043,-0.182 0.037,-0.219 0.037,-0.259C0.037,-0.299 0.043,-0.336 0.056,-0.37C0.068,-0.403 0.086,-0.432 0.109,-0.456C0.132,-0.479 0.16,-0.498 0.193,-0.51C0.226,-0.523 0.262,-0.53 0.302,-0.53C0.342,-0.53 0.379,-0.523 0.412,-0.51C0.444,-0.497 0.473,-0.479 0.496,-0.455C0.52,-0.431 0.537,-0.402 0.55,-0.369C0.562,-0.335 0.568,-0.299 0.568,-0.259ZM0.434,-0.259C0.434,-0.313 0.422,-0.355 0.398,-0.386C0.374,-0.416 0.342,-0.431 0.302,-0.431C0.276,-0.431 0.253,-0.424 0.233,-0.411C0.213,-0.397 0.198,-0.377 0.187,-0.351C0.176,-0.325 0.171,-0.294 0.171,-0.259C0.171,-0.224 0.176,-0.194 0.187,-0.167C0.197,-0.141 0.212,-0.122 0.232,-0.108C0.252,-0.094 0.275,-0.087 0.302,-0.087C0.342,-0.087 0.374,-0.102 0.398,-0.133C0.422,-0.163 0.434,-0.205 0.434,-0.259Z" style="fill:white;fill-rule:nonzero;"/>
                    </g>
                    <g transform="matrix(8.55556,0,0,10.9267,1404.31,1414.88)">
                        <path d="M0.19,-0.456L0.19,-0.44C0.213,-0.471 0.239,-0.494 0.267,-0.508C0.295,-0.523 0.327,-0.53 0.363,-0.53C0.398,-0.53 0.429,-0.522 0.457,-0.507C0.485,-0.492 0.505,-0.47 0.519,-0.442C0.528,-0.426 0.534,-0.408 0.536,-0.389C0.539,-0.37 0.54,-0.346 0.54,-0.317L0.54,-0.069C0.54,-0.042 0.534,-0.022 0.522,-0.008C0.51,0.005 0.494,0.012 0.474,0.012C0.454,0.012 0.438,0.005 0.426,-0.009C0.413,-0.023 0.407,-0.043 0.407,-0.069L0.407,-0.291C0.407,-0.335 0.401,-0.369 0.389,-0.392C0.377,-0.415 0.352,-0.427 0.316,-0.427C0.292,-0.427 0.271,-0.42 0.251,-0.406C0.231,-0.391 0.217,-0.372 0.208,-0.347C0.201,-0.327 0.198,-0.29 0.198,-0.236L0.198,-0.069C0.198,-0.042 0.192,-0.022 0.179,-0.008C0.167,0.005 0.151,0.012 0.131,0.012C0.112,0.012 0.096,0.005 0.083,-0.009C0.071,-0.023 0.065,-0.043 0.065,-0.069L0.065,-0.454C0.065,-0.479 0.07,-0.498 0.082,-0.511C0.093,-0.524 0.108,-0.53 0.127,-0.53C0.139,-0.53 0.149,-0.527 0.159,-0.521C0.168,-0.516 0.176,-0.508 0.181,-0.497C0.187,-0.486 0.19,-0.472 0.19,-0.456Z" style="fill:white;fill-rule:nonzero;"/>
                    </g>
                    <g transform="matrix(8.55556,0,0,10.9267,1409.48,1414.88)">
                        <path d="M0.512,-0.249L0.512,-0.072C0.512,-0.044 0.506,-0.023 0.493,-0.009C0.48,0.005 0.464,0.012 0.443,0.012C0.423,0.012 0.406,0.005 0.394,-0.009C0.381,-0.023 0.375,-0.044 0.375,-0.072L0.375,-0.284C0.375,-0.318 0.374,-0.344 0.372,-0.362C0.369,-0.381 0.363,-0.396 0.353,-0.408C0.343,-0.42 0.327,-0.426 0.305,-0.426C0.262,-0.426 0.233,-0.411 0.219,-0.381C0.205,-0.351 0.198,-0.308 0.198,-0.252L0.198,-0.072C0.198,-0.044 0.192,-0.023 0.179,-0.009C0.167,0.005 0.15,0.012 0.13,0.012C0.11,0.012 0.093,0.005 0.08,-0.009C0.067,-0.023 0.061,-0.044 0.061,-0.072L0.061,-0.453C0.061,-0.478 0.067,-0.497 0.078,-0.51C0.09,-0.523 0.105,-0.53 0.124,-0.53C0.142,-0.53 0.157,-0.524 0.17,-0.511C0.182,-0.499 0.188,-0.482 0.188,-0.461L0.188,-0.448C0.211,-0.476 0.236,-0.496 0.262,-0.509C0.289,-0.522 0.318,-0.529 0.35,-0.529C0.384,-0.529 0.412,-0.522 0.437,-0.509C0.461,-0.495 0.48,-0.475 0.496,-0.448C0.519,-0.476 0.543,-0.496 0.568,-0.509C0.594,-0.522 0.623,-0.529 0.654,-0.529C0.69,-0.529 0.722,-0.522 0.748,-0.507C0.774,-0.493 0.794,-0.472 0.807,-0.446C0.819,-0.422 0.824,-0.384 0.824,-0.332L0.824,-0.072C0.824,-0.044 0.818,-0.023 0.805,-0.009C0.792,0.005 0.776,0.012 0.755,0.012C0.735,0.012 0.718,0.005 0.705,-0.009C0.692,-0.023 0.686,-0.044 0.686,-0.072L0.686,-0.296C0.686,-0.325 0.685,-0.347 0.682,-0.365C0.68,-0.382 0.673,-0.396 0.663,-0.408C0.652,-0.42 0.636,-0.426 0.614,-0.426C0.596,-0.426 0.58,-0.421 0.564,-0.41C0.548,-0.4 0.536,-0.386 0.527,-0.368C0.517,-0.346 0.512,-0.306 0.512,-0.249Z" style="fill:white;fill-rule:nonzero;"/>
                    </g>
                    <g transform="matrix(8.55556,0,0,10.9267,1417.05,1414.88)">
                        <path d="M0.441,-0.226L0.18,-0.226C0.181,-0.196 0.187,-0.169 0.198,-0.146C0.21,-0.123 0.226,-0.105 0.246,-0.094C0.266,-0.082 0.287,-0.076 0.311,-0.076C0.327,-0.076 0.342,-0.078 0.355,-0.082C0.368,-0.086 0.381,-0.091 0.393,-0.099C0.405,-0.107 0.417,-0.116 0.427,-0.125C0.438,-0.134 0.451,-0.146 0.468,-0.162C0.475,-0.168 0.484,-0.171 0.497,-0.171C0.511,-0.171 0.522,-0.167 0.53,-0.16C0.539,-0.152 0.543,-0.142 0.543,-0.128C0.543,-0.116 0.538,-0.102 0.529,-0.086C0.519,-0.07 0.505,-0.054 0.486,-0.039C0.467,-0.024 0.443,-0.012 0.414,-0.002C0.385,0.007 0.352,0.012 0.315,0.012C0.229,0.012 0.163,-0.012 0.115,-0.061C0.068,-0.11 0.044,-0.176 0.044,-0.26C0.044,-0.299 0.05,-0.336 0.062,-0.369C0.073,-0.403 0.09,-0.432 0.113,-0.456C0.135,-0.48 0.163,-0.499 0.196,-0.511C0.229,-0.524 0.265,-0.531 0.305,-0.531C0.357,-0.531 0.402,-0.52 0.439,-0.498C0.476,-0.476 0.504,-0.447 0.523,-0.413C0.542,-0.378 0.551,-0.342 0.551,-0.306C0.551,-0.273 0.541,-0.251 0.522,-0.241C0.503,-0.231 0.476,-0.226 0.441,-0.226ZM0.18,-0.302L0.422,-0.302C0.419,-0.347 0.406,-0.381 0.385,-0.404C0.364,-0.427 0.336,-0.438 0.301,-0.438C0.268,-0.438 0.24,-0.427 0.219,-0.404C0.198,-0.381 0.185,-0.347 0.18,-0.302Z" style="fill:white;fill-rule:nonzero;"/>
                    </g>
                    <g transform="matrix(8.55556,0,0,10.9267,1422.13,1414.88)">
                        <path d="M0.19,-0.456L0.19,-0.44C0.213,-0.471 0.239,-0.494 0.267,-0.508C0.295,-0.523 0.327,-0.53 0.363,-0.53C0.398,-0.53 0.429,-0.522 0.457,-0.507C0.485,-0.492 0.505,-0.47 0.519,-0.442C0.528,-0.426 0.534,-0.408 0.536,-0.389C0.539,-0.37 0.54,-0.346 0.54,-0.317L0.54,-0.069C0.54,-0.042 0.534,-0.022 0.522,-0.008C0.51,0.005 0.494,0.012 0.474,0.012C0.454,0.012 0.438,0.005 0.426,-0.009C0.413,-0.023 0.407,-0.043 0.407,-0.069L0.407,-0.291C0.407,-0.335 0.401,-0.369 0.389,-0.392C0.377,-0.415 0.352,-0.427 0.316,-0.427C0.292,-0.427 0.271,-0.42 0.251,-0.406C0.231,-0.391 0.217,-0.372 0.208,-0.347C0.201,-0.327 0.198,-0.29 0.198,-0.236L0.198,-0.069C0.198,-0.042 0.192,-0.022 0.179,-0.008C0.167,0.005 0.151,0.012 0.131,0.012C0.112,0.012 0.096,0.005 0.083,-0.009C0.071,-0.023 0.065,-0.043 0.065,-0.069L0.065,-0.454C0.065,-0.479 0.07,-0.498 0.082,-0.511C0.093,-0.524 0.108,-0.53 0.127,-0.53C0.139,-0.53 0.149,-0.527 0.159,-0.521C0.168,-0.516 0.176,-0.508 0.181,-0.497C0.187,-0.486 0.19,-0.472 0.19,-0.456Z" style="fill:white;fill-rule:nonzero;"/>
                    </g>
                    <g transform="matrix(8.55556,0,0,10.9267,1427.3,1414.88)">
                        <path d="M0.076,-0.518L0.091,-0.518L0.091,-0.598C0.091,-0.62 0.091,-0.636 0.093,-0.649C0.094,-0.661 0.097,-0.671 0.102,-0.68C0.107,-0.689 0.115,-0.697 0.125,-0.702C0.134,-0.708 0.145,-0.711 0.157,-0.711C0.174,-0.711 0.189,-0.705 0.203,-0.692C0.212,-0.683 0.218,-0.673 0.22,-0.661C0.223,-0.649 0.224,-0.631 0.224,-0.609L0.224,-0.518L0.273,-0.518C0.292,-0.518 0.306,-0.514 0.316,-0.505C0.326,-0.496 0.331,-0.484 0.331,-0.47C0.331,-0.452 0.324,-0.44 0.31,-0.433C0.296,-0.425 0.275,-0.422 0.249,-0.422L0.224,-0.422L0.224,-0.177C0.224,-0.156 0.225,-0.14 0.226,-0.129C0.228,-0.117 0.232,-0.108 0.238,-0.101C0.244,-0.094 0.255,-0.091 0.269,-0.091C0.277,-0.091 0.287,-0.092 0.301,-0.095C0.314,-0.098 0.325,-0.099 0.332,-0.099C0.343,-0.099 0.352,-0.095 0.361,-0.086C0.37,-0.078 0.374,-0.067 0.374,-0.054C0.374,-0.033 0.362,-0.016 0.339,-0.005C0.315,0.007 0.282,0.012 0.238,0.012C0.196,0.012 0.165,0.005 0.143,-0.009C0.122,-0.023 0.108,-0.042 0.101,-0.067C0.094,-0.092 0.091,-0.125 0.091,-0.166L0.091,-0.422L0.073,-0.422C0.054,-0.422 0.039,-0.426 0.029,-0.436C0.019,-0.445 0.014,-0.456 0.014,-0.47C0.014,-0.484 0.019,-0.496 0.03,-0.505C0.041,-0.514 0.056,-0.518 0.076,-0.518Z" style="fill:white;fill-rule:nonzero;"/>
                    </g>
                </g>
                <g transform="matrix(0.866025,0.5,-5.55112e-17,0.56839,206.447,318.453)">
                    <rect x="1058.33" y="822.724" width="8.333" height="86.603" style="fill:rgb(181,197,209);"/>
                </g>
                <g transform="matrix(0.640896,-0.370022,0.986715,0.56968,15.7763,-27.1539)">
                    <rect x="-950" y="1739.27" width="200" height="7.217" style="fill:rgb(213,222,232);"/>
                </g>
            </g>
        </g>
    </g>
</svg>
