<?xml version="1.0" encoding="UTF-8" standalone="no"?>
<!-- Created with Inkscape (http://www.inkscape.org/) -->

<svg
   xmlns:serif="http://www.serif.com/"
   xmlns:dc="http://purl.org/dc/elements/1.1/"
   xmlns:cc="http://creativecommons.org/ns#"
   xmlns:rdf="http://www.w3.org/1999/02/22-rdf-syntax-ns#"
   xmlns:svg="http://www.w3.org/2000/svg"
   xmlns="http://www.w3.org/2000/svg"
   xmlns:xlink="http://www.w3.org/1999/xlink"
   xmlns:sodipodi="http://sodipodi.sourceforge.net/DTD/sodipodi-0.dtd"
   xmlns:inkscape="http://www.inkscape.org/namespaces/inkscape"
   width="57.283878mm"
   height="59.53125mm"
   viewBox="0 0 57.283878 59.53125"
   version="1.1"
   id="svg8"
   inkscape:version="0.92.4 (5da689c313, 2019-01-14)"
   sodipodi:docname="container_tone_metal_open.svg">
  <defs
     id="defs2">
    <linearGradient
       gradientTransform="matrix(14.4338,0,0,66.1134,404.145,241.667)"
       gradientUnits="userSpaceOnUse"
       y2="0"
       x2="1"
       y1="0"
       x1="0"
       id="_Linear1">
      <stop
         id="stop8405"
         style="stop-color:rgb(205,216,225);stop-opacity:1"
         offset="0" />
      <stop
         id="stop8407"
         style="stop-color:rgb(192,205,216);stop-opacity:1"
         offset="0.56" />
      <stop
         id="stop8409"
         style="stop-color:rgb(141,165,180);stop-opacity:1"
         offset="1" />
    </linearGradient>
    <linearGradient
       inkscape:collect="always"
       xlink:href="#_Linear1"
       id="linearGradient8567"
       gradientUnits="userSpaceOnUse"
       gradientTransform="matrix(14.4338,0,0,66.1134,404.145,241.667)"
       x1="0"
       y1="0"
       x2="1"
       y2="0" />
    <linearGradient
       inkscape:collect="always"
       xlink:href="#_Linear1"
       id="linearGradient8569"
       gradientUnits="userSpaceOnUse"
       gradientTransform="matrix(14.4338,0,0,66.1134,404.145,241.667)"
       x1="0"
       y1="0"
       x2="1"
       y2="0" />
    <linearGradient
       inkscape:collect="always"
       xlink:href="#_Linear1"
       id="linearGradient8571"
       gradientUnits="userSpaceOnUse"
       gradientTransform="matrix(14.4338,0,0,66.1134,404.145,241.667)"
       x1="0"
       y1="0"
       x2="1"
       y2="0" />
  </defs>
  <sodipodi:namedview
     id="base"
     pagecolor="#ffffff"
     bordercolor="#666666"
     borderopacity="1.0"
     inkscape:pageopacity="0.0"
     inkscape:pageshadow="2"
     inkscape:zoom="0.35"
     inkscape:cx="-147.38026"
     inkscape:cy="-453.21427"
     inkscape:document-units="mm"
     inkscape:current-layer="layer1"
     showgrid="false"
     fit-margin-top="0"
     fit-margin-left="0"
     fit-margin-right="0"
     fit-margin-bottom="0"
     inkscape:window-width="2100"
     inkscape:window-height="1234"
     inkscape:window-x="3191"
     inkscape:window-y="-9"
     inkscape:window-maximized="1" />
  <metadata
     id="metadata5">
    <rdf:RDF>
      <cc:Work
         rdf:about="">
        <dc:format>image/svg+xml</dc:format>
        <dc:type
           rdf:resource="http://purl.org/dc/dcmitype/StillImage" />
        <dc:title></dc:title>
      </cc:Work>
    </rdf:RDF>
  </metadata>
  <g
     inkscape:label="Layer 1"
     inkscape:groupmode="layer"
     id="layer1"
     transform="translate(-11.780075,30.610895)">
    

    

    

    

    

    

    

    

    

    

    

    

    

    

    

    

    

    

    

    

    

    

    

    <g
   id="g8403"
   transform="matrix(0.26458333,0,0,0.26458333,-191.55195,-269.39735)">
        <g
   transform="translate(1504.62,804.98)"
   id="g5607">
            <path
   style="fill:#cdd8e1;fill-rule:nonzero"
   d="m -562.916,147.52 -86.603,50 79.386,45.833 7.217,4.167 z"
   serif:id="Interior left"
   id="Interior-left"
   inkscape:connector-curvature="0" />

            <path
   style="fill:#f1f4f7;fill-rule:nonzero"
   d="m -562.916,247.52 -86.603,-50 v 91.666 8.334 z"
   id="Floor"
   inkscape:connector-curvature="0" />

            <g
   id="g8271"
   transform="translate(-1069.92,71.4665)">
                <g
   id="Library">
                    <g
   serif:id="Library"
   id="Library1">
                        <g
   id="g8239"
   transform="translate(64.976,-112.486)">
                            <g
   id="g8229">
                                <path
   id="path8227"
   style="fill:url(#linearGradient8567)"
   d="m 421.566,279.185 c -0.008,1.502 -1.003,3.003 -2.987,4.148 -3.975,2.295 -10.425,2.3 -14.41,0.014 v 0 l -0.024,-0.014 -36.084,-20.833 -0.024,-66.681 14.433,-8.333 36.109,20.847 0.024,0.014 c 1.976,1.149 2.94,2.638 2.939,4.141 z"
   inkscape:connector-curvature="0" />

                            </g>

                            <g
   id="g8233"
   transform="translate(-43.3013,8.33334)">
                                <path
   id="path8231"
   style="fill:#f1f4f7"
   d="m 461.88,200 c 3.983,2.3 3.983,6.034 0,8.333 -3.983,2.3 -10.45,2.3 -14.434,0 0,0 -36.084,-20.833 -36.084,-20.833 l 14.41,-8.347 z"
   inkscape:connector-curvature="0" />

                            </g>

                            <g
   id="g8237"
   transform="matrix(0.938283,0,0,0.938283,48.1322,-87.1296)">
                                <path
   id="path8235"
   style="fill:#ffffff"
   d="m 345.056,299.218 7.216,-4.167 38.458,22.204 c 1.992,1.15 1.992,3.017 0,4.167 -1.991,1.149 -5.225,1.149 -7.216,0 z"
   inkscape:connector-curvature="0" />

                            </g>

                        </g>

                        <g
   id="g8253"
   transform="translate(59.559,-98.9469)">
                            <g
   id="g8243">
                                <path
   id="path8241"
   style="fill:url(#linearGradient8569)"
   d="m 421.566,279.185 c -0.008,1.502 -1.003,3.003 -2.987,4.148 -3.975,2.295 -10.425,2.3 -14.41,0.014 v 0 l -0.024,-0.014 -36.084,-20.833 -0.024,-66.681 14.433,-8.333 36.109,20.847 0.024,0.014 c 1.976,1.149 2.94,2.638 2.939,4.141 z"
   inkscape:connector-curvature="0" />

                            </g>

                            <g
   id="g8247"
   transform="translate(-43.3013,8.33334)">
                                <path
   id="path8245"
   style="fill:#f1f4f7"
   d="m 461.88,200 c 3.983,2.3 3.983,6.034 0,8.333 -3.983,2.3 -10.45,2.3 -14.434,0 0,0 -36.084,-20.833 -36.084,-20.833 l 14.41,-8.347 z"
   inkscape:connector-curvature="0" />

                            </g>

                            <g
   id="g8251"
   transform="matrix(0.938283,0,0,0.938283,48.1322,-87.1296)">
                                <path
   id="path8249"
   style="fill:#ffffff"
   d="m 345.056,299.218 7.216,-4.167 38.458,22.204 c 1.992,1.15 1.992,3.017 0,4.167 -1.991,1.149 -5.225,1.149 -7.216,0 z"
   inkscape:connector-curvature="0" />

                            </g>

                        </g>

                        <g
   id="g8267"
   transform="translate(38.2353,-94.5915)">
                            <g
   id="g8257">
                                <path
   id="path8255"
   style="fill:url(#linearGradient8571)"
   d="m 421.566,279.185 c -0.008,1.502 -1.003,3.003 -2.987,4.148 -3.975,2.295 -10.425,2.3 -14.41,0.014 v 0 l -0.024,-0.014 -36.084,-20.833 -0.024,-66.681 14.433,-8.333 36.109,20.847 0.024,0.014 c 1.976,1.149 2.94,2.638 2.939,4.141 z"
   inkscape:connector-curvature="0" />

                            </g>

                            <g
   id="g8261"
   transform="translate(-43.3013,8.33334)">
                                <path
   id="path8259"
   style="fill:#f1f4f7"
   d="m 461.88,200 c 3.983,2.3 3.983,6.034 0,8.333 -3.983,2.3 -10.45,2.3 -14.434,0 0,0 -36.084,-20.833 -36.084,-20.833 l 14.41,-8.347 z"
   inkscape:connector-curvature="0" />

                            </g>

                            <g
   id="g8265"
   transform="matrix(0.938283,0,0,0.938283,48.1322,-87.1296)">
                                <path
   id="path8263"
   style="fill:#ffffff"
   d="m 345.056,299.218 7.216,-4.167 38.458,22.204 c 1.992,1.15 1.992,3.017 0,4.167 -1.991,1.149 -5.225,1.149 -7.216,0 z"
   inkscape:connector-curvature="0" />

                            </g>

                        </g>

                    </g>

                </g>

            </g>

            <g
   transform="translate(-3425.13,-2978.31)"
   id="g28400">
                <g
   transform="matrix(0.229136,0.132292,0,0.264583,2476.83,2597.48)"
   id="rect12456">
                    <path
   id="path8273"
   style="fill:#cccccc;fill-rule:nonzero"
   d="m 1285.04,1407.95 v 42.71 c -13.64,3.55 -26.72,8.99 -38.86,16.17 l -30.25,-30.25 -53.44,53.45 30.23,30.23 c -7.14,12.15 -12.55,25.23 -16.07,38.87 h -42.79 v 75.59 h 42.71 c 3.55,13.64 8.99,26.72 16.17,38.86 l -30.25,30.25 53.44,53.44 30.24,-30.23 c 12.14,7.14 25.23,12.55 38.87,16.07 v 42.79 h 75.59 v -42.71 c 13.64,-3.55 26.72,-8.99 38.86,-16.17 l 30.25,30.25 53.44,-53.44 -30.23,-30.24 c 7.14,-12.14 12.55,-25.23 16.07,-38.87 h 42.79 v -75.59 h -42.71 c -3.55,-13.64 -8.99,-26.72 -16.17,-38.85 l 30.25,-30.25 -53.44,-53.45 -30.24,30.23 c -12.14,-7.14 -25.23,-12.55 -38.87,-16.07 v -42.79 z m 37.8,113.38 c 41.46,0 75.58,34.13 75.58,75.59 0,41.47 -34.12,75.6 -75.58,75.6 -41.47,0 -75.6,-34.13 -75.6,-75.6 0,-41.46 34.13,-75.59 75.6,-75.59 z"
   inkscape:connector-curvature="0" />

                </g>

                <g
   id="g28149">
                    <path
   style="fill:#cccccc;fill-rule:nonzero"
   d="m 2762.62,3145 8.66,-5 v 11.3 l -8.66,5 V 3145"
   id="path28063"
   inkscape:connector-curvature="0" />

                    <path
   style="fill:#ffffff;fill-rule:nonzero"
   d="m 2762.62,3156.3 8.66,-5 -8.9,-0.86 -8.66,5 8.9,0.86"
   id="path28065"
   inkscape:connector-curvature="0" />

                    <path
   style="fill:#cccccc;fill-rule:nonzero"
   d="m 2753.72,3155.44 8.66,-5 -6.93,-12.01 -8.66,5 6.93,12.01"
   id="path28067"
   inkscape:connector-curvature="0" />

                    <path
   style="fill-opacity:0.3;fill-rule:nonzero"
   d="m 2746.79,3143.43 8.66,-5 -12.25,7.07 -8.66,5 12.25,-7.07"
   id="path28069"
   inkscape:connector-curvature="0" />

                    <path
   style="fill:#cccccc;fill-rule:nonzero"
   d="m 2734.54,3150.5 8.66,-5 6.93,12 -8.66,5 -6.93,-12"
   id="path28071"
   inkscape:connector-curvature="0" />

                    <path
   style="fill:#cccccc;fill-rule:nonzero"
   d="m 2741.47,3162.5 8.66,-5 -3.68,8.16 -8.67,5 3.69,-8.16"
   id="path28073"
   inkscape:connector-curvature="0" />

                    <path
   style="fill:#cccccc;fill-rule:nonzero"
   d="m 2727.98,3165 8.66,-5 v 20 l -8.66,5 v -20"
   id="path28077"
   inkscape:connector-curvature="0" />

                    <path
   style="fill:#cccccc;fill-rule:nonzero"
   d="m 2727.98,3185 8.66,-5 9.79,5.65 -8.66,5 -9.79,-5.65"
   id="path28079"
   inkscape:connector-curvature="0" />

                    <path
   style="fill:#cccccc;fill-rule:nonzero"
   d="m 2737.77,3190.65 8.66,-5 3.7,12.42 -8.66,5 -3.7,-12.42"
   id="path28081"
   inkscape:connector-curvature="0" />

                    <path
   style="fill-opacity:0.3;fill-rule:nonzero"
   d="m 2741.47,3203.07 8.66,-5 -6.93,4 -8.66,5 6.93,-4"
   id="path28083"
   inkscape:connector-curvature="0" />

                    <path
   style="fill:#cccccc;fill-rule:nonzero"
   d="m 2734.54,3207.07 8.66,-5 12.25,21.21 -8.66,5 -12.25,-21.21"
   id="path28085"
   inkscape:connector-curvature="0" />

                    <path
   style="fill-opacity:0.3;fill-rule:nonzero"
   d="m 2746.79,3228.28 8.66,-5 6.92,-4 -8.66,5 -6.92,4"
   id="path28087"
   inkscape:connector-curvature="0" />

                    <path
   style="fill:#cccccc;fill-rule:nonzero"
   d="m 2753.71,3224.28 8.66,-5 8.91,9.4 -8.66,5 -8.91,-9.4"
   id="path28089"
   inkscape:connector-curvature="0" />

                    <path
   style="fill:#cccccc;fill-rule:nonzero"
   d="m 2762.62,3233.68 8.66,-5 V 3240 l -8.66,5 v -11.32"
   id="path28091"
   inkscape:connector-curvature="0" />

                    <path
   style="fill:#cccccc;fill-rule:nonzero"
   d="m 2762.62,3245 8.66,-5 17.32,10 -8.66,5 -17.32,-10"
   id="path28093"
   inkscape:connector-curvature="0" />

                    <path
   style="fill:#cccccc;fill-rule:nonzero"
   d="m 2779.94,3255 8.66,-5 v -11.3 l -8.66,5 v 11.3"
   id="path28095"
   inkscape:connector-curvature="0" />

                    <path
   style="fill:#cccccc;fill-rule:nonzero"
   d="m 2779.94,3243.7 8.66,-5 8.91,0.86 -8.66,5 -8.91,-0.86"
   id="path28097"
   inkscape:connector-curvature="0" />

                    <path
   style="fill:#cccccc;fill-rule:nonzero"
   d="m 2788.85,3244.56 8.66,-5 6.93,12.01 -8.66,5 -6.93,-12.01"
   id="path28099"
   inkscape:connector-curvature="0" />

                    <path
   style="fill-opacity:0.3;fill-rule:nonzero"
   d="m 2795.78,3256.57 8.66,-5 12.24,-7.07 -8.66,5 -12.24,7.07"
   id="path28101"
   inkscape:connector-curvature="0" />

                    <path
   style="fill:#cccccc;fill-rule:nonzero"
   d="m 2808.02,3249.5 8.66,-5 -6.92,-12 -8.66,5 6.92,12"
   id="path28103"
   inkscape:connector-curvature="0" />

                    <path
   style="fill:#cccccc;fill-rule:nonzero"
   d="m 2801.1,3237.5 8.66,-5 3.68,-8.16 -8.66,5 -3.68,8.16"
   id="path28105"
   inkscape:connector-curvature="0" />

                    <path
   style="fill:#cccccc;fill-rule:nonzero"
   d="m 2804.78,3229.34 8.66,-5 9.8,5.66 -8.66,5 -9.8,-5.66"
   id="path28107"
   inkscape:connector-curvature="0" />

                    <path
   style="fill:#cccccc;fill-rule:nonzero"
   d="m 2814.58,3235 8.66,-5 v -20 l -8.66,5 v 20"
   id="path28109"
   inkscape:connector-curvature="0" />

                    <path
   style="fill:#ffffff;fill-rule:nonzero"
   d="m 2814.58,3215 8.66,-5 -9.78,-5.65 -8.66,5 9.78,5.65"
   id="path28111"
   inkscape:connector-curvature="0" />

                    <path
   style="fill:#cccccc;fill-rule:nonzero"
   d="m 2804.8,3209.35 8.66,-5 -3.71,-12.42 -8.66,5 3.71,12.42"
   id="path28113"
   inkscape:connector-curvature="0" />

                    <path
   style="fill-opacity:0.3;fill-rule:nonzero"
   d="m 2801.09,3196.93 8.66,-5 6.93,-4 -8.66,5 -6.93,4"
   id="path28115"
   inkscape:connector-curvature="0" />

                    <path
   style="fill:#cccccc;fill-rule:nonzero"
   d="m 2808.02,3192.93 8.66,-5 -12.24,-21.21 -8.66,5 12.24,21.21"
   id="path28117"
   inkscape:connector-curvature="0" />

                    <path
   style="fill-opacity:0.3;fill-rule:nonzero"
   d="m 2795.78,3171.72 8.66,-5 -6.93,4 -8.66,5 6.93,-4"
   id="path28119"
   inkscape:connector-curvature="0" />

                    <path
   style="fill:#ffffff;fill-rule:nonzero"
   d="m 2788.85,3175.72 8.66,-5 -8.91,-9.4 -8.66,5 8.91,9.4"
   id="path28121"
   inkscape:connector-curvature="0" />

                    <path
   style="fill:#cccccc;fill-rule:nonzero"
   d="m 2779.94,3166.32 8.66,-5 V 3150 l -8.66,5 v 11.32"
   id="path28123"
   inkscape:connector-curvature="0" />

                    <path
   style="fill:#ffffff;fill-rule:nonzero"
   d="m 2779.94,3155 8.66,-5 -17.32,-10 -8.66,5 17.32,10"
   id="path28125"
   inkscape:connector-curvature="0" />

                    <path
   style="fill-opacity:0.3;fill-rule:nonzero"
   d="m 2762.62,3145 8.66,-5 -8.66,5"
   id="path28127"
   inkscape:connector-curvature="0" />

                    <path
   style="fill-opacity:0.3;fill-rule:nonzero"
   d="m 2771.28,3180 8.66,-5 -8.66,5"
   id="path28145"
   inkscape:connector-curvature="0" />

                    <path
   style="fill-opacity:0.3;fill-rule:nonzero"
   d="m 2771.28,3180 8.66,-5 -8.66,5"
   id="path28147"
   inkscape:connector-curvature="0" />

                    <path
   style="fill:#ffffff;fill-rule:nonzero"
   d="m 2737.78,3170.66 8.67,-5 -9.81,-5.66 -8.66,5 9.8,5.66"
   id="path28075"
   inkscape:connector-curvature="0" />

                </g>

                <g
   transform="matrix(0.229136,0.132292,0,0.264583,2468.17,2602.48)"
   id="path20286">
                    <path
   id="path8312"
   style="fill:#f2f2f2;fill-rule:nonzero"
   d="m 1285.04,1407.95 v 42.71 c -13.64,3.55 -26.72,8.99 -38.86,16.17 l -30.25,-30.25 -53.44,53.45 30.23,30.23 c -7.14,12.15 -12.55,25.23 -16.07,38.87 h -42.79 v 75.59 h 42.71 c 3.55,13.64 8.99,26.72 16.17,38.86 l -30.25,30.25 53.44,53.44 30.24,-30.23 c 12.14,7.14 25.23,12.55 38.87,16.07 v 42.79 h 75.59 v -42.71 c 13.64,-3.55 26.72,-8.99 38.86,-16.17 l 30.25,30.25 53.44,-53.44 -30.23,-30.24 c 7.14,-12.14 12.55,-25.23 16.07,-38.87 h 42.79 v -75.59 h -42.71 c -3.55,-13.64 -8.99,-26.72 -16.17,-38.85 l 30.25,-30.25 -53.44,-53.45 -30.24,30.23 c -12.14,-7.14 -25.23,-12.55 -38.87,-16.07 v -42.79 z m 37.8,113.38 c 41.46,0 75.58,34.13 75.58,75.59 0,41.47 -34.12,75.6 -75.58,75.6 -41.47,0 -75.6,-34.13 -75.6,-75.6 0,-41.46 34.13,-75.59 75.6,-75.59 z"
   inkscape:connector-curvature="0" />

                </g>

            </g>

            <g
   id="Application">
            </g>

            <g
   serif:id="Right side"
   id="Right-side">
                <path
   style="fill:#cdd8e1;fill-rule:nonzero"
   d="m -736.121,147.52 v 100 l 86.602,50 v -100 z"
   id="path11251"
   inkscape:connector-curvature="0" />

                <g
   transform="matrix(0.866025,0.5,0,1,-96.8812,361.566)"
   id="path11257">
                    <rect
   id="rect8318"
   style="fill:#6e8da1;fill-rule:nonzero"
   height="83.333"
   width="8.3330002"
   y="163.353"
   x="-729.79797" />

                </g>

                <g
   transform="matrix(0.866025,0.5,0,1,-82.4474,369.899)"
   serif:id="path11257"
   id="path112571">
                    <rect
   id="rect8321"
   style="fill:#6e8da1;fill-rule:nonzero"
   height="83.333"
   width="8.3330002"
   y="163.353"
   x="-729.79797" />

                </g>

                <g
   transform="matrix(0.866025,0.5,0,1,-68.0136,378.232)"
   serif:id="path11257"
   id="path112572">
                    <rect
   id="rect8324"
   style="fill:#6e8da1;fill-rule:nonzero"
   height="83.333"
   width="8.3330002"
   y="163.353"
   x="-729.79797" />

                </g>

                <g
   transform="matrix(0.866025,0.5,0,1,-53.5799,386.566)"
   serif:id="path11257"
   id="path112573">
                    <rect
   id="rect8327"
   style="fill:#6e8da1;fill-rule:nonzero"
   height="83.333"
   width="8.3330002"
   y="163.353"
   x="-729.79797" />

                </g>

                <g
   transform="matrix(0.866025,0.5,0,1,-39.1462,394.899)"
   serif:id="path11257"
   id="path112574">
                    <rect
   id="rect8330"
   style="fill:#6e8da1;fill-rule:nonzero"
   height="83.333"
   width="8.3330002"
   y="163.353"
   x="-729.79797" />

                </g>

                <g
   transform="matrix(0.866025,0.5,0,1,-96.8812,361.566)"
   id="path11259">
                    <path
   id="path8333"
   style="fill:none;fill-rule:nonzero;stroke:#506a7b;stroke-width:1.63px"
   d="m -729.798,163.353 v 83.333 h 8.334"
   inkscape:connector-curvature="0" />

                </g>

                <g
   transform="matrix(0.866025,0.5,0,1,-82.4474,369.899)"
   serif:id="path11259"
   id="path112591">
                    <path
   id="path8336"
   style="fill:none;fill-rule:nonzero;stroke:#506a7b;stroke-width:1.63px"
   d="m -729.798,163.353 v 83.333 h 8.334"
   inkscape:connector-curvature="0" />

                </g>

                <g
   transform="matrix(0.866025,0.5,0,1,-68.0136,378.232)"
   serif:id="path11259"
   id="path112592">
                    <path
   id="path8339"
   style="fill:none;fill-rule:nonzero;stroke:#506a7b;stroke-width:1.63px"
   d="m -729.798,163.353 v 83.333 h 8.334"
   inkscape:connector-curvature="0" />

                </g>

                <g
   transform="matrix(0.866025,0.5,0,1,-53.5799,386.566)"
   serif:id="path11259"
   id="path112593">
                    <path
   id="path8342"
   style="fill:none;fill-rule:nonzero;stroke:#506a7b;stroke-width:1.63px"
   d="m -729.798,163.353 v 83.333 h 8.334"
   inkscape:connector-curvature="0" />

                </g>

                <g
   transform="matrix(0.866025,0.5,0,1,-39.1462,394.899)"
   serif:id="path11259"
   id="path112594">
                    <path
   id="path8345"
   style="fill:none;fill-rule:nonzero;stroke:#506a7b;stroke-width:1.63px"
   d="m -729.798,163.353 v 83.333 h 8.334"
   inkscape:connector-curvature="0" />

                </g>

            </g>

            <path
   style="fill:#f1f4f7;fill-rule:nonzero"
   d="m -692.82,122.52 43.301,-25 86.603,50 -86.603,50 -86.602,-50 z"
   id="Top"
   inkscape:connector-curvature="0" />

            <g
   serif:id="Door letft"
   id="Door-letft">
                <path
   style="fill:#8da5b4;fill-rule:nonzero"
   d="m -562.916,147.52 43.301,-25 v 100 l -43.301,25 z"
   id="path11291"
   inkscape:connector-curvature="0" />

                <g
   transform="matrix(0.866025,-0.5,0,1,38.7341,-412.363)"
   id="path11295">
                    <rect
   id="rect8351"
   style="fill:#6e8da1;fill-rule:nonzero"
   height="8.3330002"
   width="33.333"
   y="229.186"
   x="-686.39301" />

                </g>

                <g
   transform="matrix(0.866025,-0.5,0,1,38.7341,-395.696)"
   serif:id="path11295"
   id="path112951">
                    <rect
   id="rect8354"
   style="fill:#6e8da1;fill-rule:nonzero"
   height="8.3330002"
   width="33.333"
   y="229.186"
   x="-686.39301" />

                </g>

                <g
   transform="matrix(0.866025,-0.5,0,1,38.7341,-370.696)"
   serif:id="path11295"
   id="path112952">
                    <rect
   id="rect8357"
   style="fill:#6e8da1;fill-rule:nonzero"
   height="8.3330002"
   width="33.333"
   y="229.186"
   x="-686.39301" />

                </g>

                <g
   transform="matrix(0.866025,-0.5,0,1,38.7341,-354.03)"
   serif:id="path11295"
   id="path112953">
                    <rect
   id="rect8360"
   style="fill:#6e8da1;fill-rule:nonzero"
   height="8.3330002"
   width="33.333"
   y="229.186"
   x="-686.39301" />

                </g>

                <g
   transform="matrix(0.866025,-0.5,0,1,39.9841,-410.585)"
   id="path11297">
                    <path
   id="path8363"
   style="fill:none;fill-rule:nonzero;stroke:#506a7b;stroke-width:2px"
   d="m -654.503,226.686 v 8.334 h -33.333"
   inkscape:connector-curvature="0" />

                </g>

                <g
   transform="matrix(0.866025,-0.5,0,1,39.9841,-393.918)"
   serif:id="path11297"
   id="path112971">
                    <path
   id="path8366"
   style="fill:none;fill-rule:nonzero;stroke:#506a7b;stroke-width:2px"
   d="m -654.503,226.686 v 8.334 h -33.333"
   inkscape:connector-curvature="0" />

                </g>

                <g
   transform="matrix(0.866025,-0.5,0,1,39.9841,-368.918)"
   serif:id="path11297"
   id="path112972">
                    <path
   id="path8369"
   style="fill:none;fill-rule:nonzero;stroke:#506a7b;stroke-width:2px"
   d="m -654.503,226.686 v 8.334 h -33.333"
   inkscape:connector-curvature="0" />

                </g>

                <g
   transform="matrix(0.866025,-0.5,0,1,39.9841,-352.251)"
   serif:id="path11297"
   id="path112973">
                    <path
   id="path8372"
   style="fill:none;fill-rule:nonzero;stroke:#506a7b;stroke-width:2px"
   d="m -654.503,226.686 v 8.334 h -33.333"
   inkscape:connector-curvature="0" />

                </g>

            </g>

            <g
   serif:id="Door right"
   id="Door-right">
                <path
   style="fill:#8da5b4;fill-rule:nonzero"
   d="m -649.519,297.52 v -100 l -43.301,25 v 100 z"
   id="path11293"
   inkscape:connector-curvature="0" />

                <g
   transform="matrix(0.866025,-0.5,0,1,-91.1697,-337.363)"
   serif:id="path11295"
   id="path112954">
                    <rect
   id="rect8377"
   style="fill:#6e8da1;fill-rule:nonzero"
   height="8.3330002"
   width="33.333"
   y="229.186"
   x="-686.39301" />

                </g>

                <g
   transform="matrix(0.866025,-0.5,0,1,-91.1697,-320.696)"
   serif:id="path11295"
   id="path112955">
                    <rect
   id="rect8380"
   style="fill:#6e8da1;fill-rule:nonzero"
   height="8.3330002"
   width="33.333"
   y="229.186"
   x="-686.39301" />

                </g>

                <g
   transform="matrix(0.866025,-0.5,0,1,-91.1697,-295.696)"
   serif:id="path11295"
   id="path112956">
                    <rect
   id="rect8383"
   style="fill:#6e8da1;fill-rule:nonzero"
   height="8.3330002"
   width="33.333"
   y="229.186"
   x="-686.39301" />

                </g>

                <g
   transform="matrix(0.866025,-0.5,0,1,-91.1697,-279.03)"
   serif:id="path11295"
   id="path112957">
                    <rect
   id="rect8386"
   style="fill:#6e8da1;fill-rule:nonzero"
   height="8.3330002"
   width="33.333"
   y="229.186"
   x="-686.39301" />

                </g>

                <g
   transform="matrix(0.866025,-0.5,0,1,-89.9197,-335.585)"
   serif:id="path11297"
   id="path112974">
                    <path
   id="path8389"
   style="fill:none;fill-rule:nonzero;stroke:#506a7b;stroke-width:2px"
   d="m -654.503,226.686 v 8.334 h -33.333"
   inkscape:connector-curvature="0" />

                </g>

                <g
   transform="matrix(0.866025,-0.5,0,1,-89.9197,-318.918)"
   serif:id="path11297"
   id="path112975">
                    <path
   id="path8392"
   style="fill:none;fill-rule:nonzero;stroke:#506a7b;stroke-width:2px"
   d="m -654.503,226.686 v 8.334 h -33.333"
   inkscape:connector-curvature="0" />

                </g>

                <g
   transform="matrix(0.866025,-0.5,0,1,-89.9197,-293.918)"
   serif:id="path11297"
   id="path112976">
                    <path
   id="path8395"
   style="fill:none;fill-rule:nonzero;stroke:#506a7b;stroke-width:2px"
   d="m -654.503,226.686 v 8.334 h -33.333"
   inkscape:connector-curvature="0" />

                </g>

                <g
   transform="matrix(0.866025,-0.5,0,1,-89.9197,-277.251)"
   serif:id="path11297"
   id="path112977">
                    <path
   id="path8398"
   style="fill:none;fill-rule:nonzero;stroke:#506a7b;stroke-width:2px"
   d="m -654.503,226.686 v 8.334 h -33.333"
   inkscape:connector-curvature="0" />

                </g>

            </g>

        </g>

    </g>

    
</g>
</svg>
