<?xml version="1.0" encoding="UTF-8" standalone="no"?>
<!DOCTYPE svg PUBLIC "-//W3C//DTD SVG 1.1//EN" "http://www.w3.org/Graphics/SVG/1.1/DTD/svg11.dtd">
<svg width="100%" height="100%" viewBox="0 0 217 201" version="1.1" xmlns="http://www.w3.org/2000/svg" xmlns:xlink="http://www.w3.org/1999/xlink" xml:space="preserve" xmlns:serif="http://www.serif.com/" style="fill-rule:evenodd;clip-rule:evenodd;">
    <g transform="matrix(1,0,0,1,-779.423,-799.997)">
        <g id="Container-metrics" serif:id="Container metrics" transform="matrix(1,0,0,1,-822.726,-25.0027)">
            <g id="Container-metrics1" serif:id="Container metrics" transform="matrix(1,0,0,1,2338.27,727.48)">
                <g transform="matrix(1,0,0,1,-2561.99,-1314.95)">
                    <path d="M1912.47,1612.47L1941.34,1612.47L2042.38,1554.14L1999.08,1529.14L1999.08,1562.47L1912.47,1612.47Z" style="fill-opacity:0.2;"/>
                </g>
                <path id="Interior-left" d="M-562.916,147.52L-649.519,197.52L-570.133,243.353L-562.916,247.52L-562.916,147.52Z" style="fill:rgb(205,216,225);fill-rule:nonzero;"/>
                <path id="Floor" d="M-562.916,247.52L-649.519,197.52L-649.519,297.52L-562.916,247.52Z" style="fill:rgb(241,244,247);fill-rule:nonzero;"/>
                <g id="Right-side">
                    <path id="path11251" d="M-736.121,147.52L-736.121,247.52L-649.519,297.52L-649.519,197.52L-736.121,147.52Z" style="fill:rgb(205,216,225);fill-rule:nonzero;"/>
                    <g id="rect71161" transform="matrix(0.866025,0.5,0,1,-96.8812,361.566)">
                        <rect x="-729.798" y="163.353" width="8.333" height="83.333" style="fill:rgb(110,141,161);"/>
                    </g>
                    <g id="rect71164" transform="matrix(0.866025,0.5,0,1,-82.4474,369.899)">
                        <rect x="-729.798" y="163.353" width="8.333" height="83.333" style="fill:rgb(110,141,161);"/>
                    </g>
                    <g id="rect71167" transform="matrix(0.866025,0.5,0,1,-68.0136,378.232)">
                        <rect x="-729.798" y="163.353" width="8.333" height="83.333" style="fill:rgb(110,141,161);"/>
                    </g>
                    <g id="rect71170" transform="matrix(0.866025,0.5,0,1,-53.5799,386.566)">
                        <rect x="-729.798" y="163.353" width="8.333" height="83.333" style="fill:rgb(110,141,161);"/>
                    </g>
                    <g id="rect71173" transform="matrix(0.866025,0.5,0,1,-39.1462,394.899)">
                        <rect x="-729.798" y="163.353" width="8.333" height="83.333" style="fill:rgb(110,141,161);"/>
                    </g>
                    <g id="path71176" transform="matrix(0.866025,0.5,0,1,-96.8812,361.566)">
                        <path d="M-729.798,163.353L-729.798,246.686L-721.464,246.686" style="fill:none;fill-rule:nonzero;stroke:rgb(80,106,123);stroke-width:1.63px;"/>
                    </g>
                    <g id="path71179" transform="matrix(0.866025,0.5,0,1,-82.4474,369.899)">
                        <path d="M-729.798,163.353L-729.798,246.686L-721.464,246.686" style="fill:none;fill-rule:nonzero;stroke:rgb(80,106,123);stroke-width:1.63px;"/>
                    </g>
                    <g id="path71182" transform="matrix(0.866025,0.5,0,1,-68.0136,378.232)">
                        <path d="M-729.798,163.353L-729.798,246.686L-721.464,246.686" style="fill:none;fill-rule:nonzero;stroke:rgb(80,106,123);stroke-width:1.63px;"/>
                    </g>
                    <g id="path71185" transform="matrix(0.866025,0.5,0,1,-53.5799,386.566)">
                        <path d="M-729.798,163.353L-729.798,246.686L-721.464,246.686" style="fill:none;fill-rule:nonzero;stroke:rgb(80,106,123);stroke-width:1.63px;"/>
                    </g>
                    <g id="path71188" transform="matrix(0.866025,0.5,0,1,-39.1462,394.899)">
                        <path d="M-729.798,163.353L-729.798,246.686L-721.464,246.686" style="fill:none;fill-rule:nonzero;stroke:rgb(80,106,123);stroke-width:1.63px;"/>
                    </g>
                </g>
                <path id="Top" d="M-736.121,147.52L-649.519,97.52L-562.916,147.52L-649.519,197.52L-736.121,147.52Z" style="fill:rgb(241,244,247);fill-rule:nonzero;"/>
                <g id="Door-letft" transform="matrix(1,0,0,1,-43.3014,25.0001)">
                    <path id="path11291" d="M-562.916,147.52L-519.615,122.52L-519.615,222.52L-562.916,247.52L-562.916,147.52Z" style="fill:rgb(141,165,180);fill-rule:nonzero;"/>
                    <g id="path71194" transform="matrix(1,0,0,0.533333,0.000160678,65.509)">
                        <path d="M-562.916,169.395L-519.615,122.52L-519.615,200.645L-562.916,247.52L-562.916,169.395Z" style="fill:rgb(110,141,161);fill-rule:nonzero;"/>
                    </g>
                    <g id="path71197" transform="matrix(0.866025,-0.5,0,1,38.7341,-395.696)">
                        <path d="M-686.393,212.52L-653.059,212.52L-653.06,237.52L-686.393,237.52L-686.393,212.52Z" style="fill:rgb(13,202,242);fill-rule:nonzero;"/>
                    </g>
                    <g id="rect71200" transform="matrix(0.866025,-0.5,0,1,38.7341,-370.696)">
                        <rect x="-686.393" y="229.186" width="33.333" height="8.333" style="fill:rgb(110,141,161);"/>
                    </g>
                    <g id="rect71203" transform="matrix(0.866025,-0.5,0,1,38.7341,-354.03)">
                        <rect x="-686.393" y="229.186" width="33.333" height="8.333" style="fill:rgb(110,141,161);"/>
                    </g>
                    <g id="path71206" transform="matrix(0.866025,-0.5,0,1,39.9841,-368.918)">
                        <path d="M-654.503,226.686L-654.503,235.02L-687.836,235.02" style="fill:none;fill-rule:nonzero;stroke:rgb(80,106,123);stroke-width:2px;"/>
                    </g>
                    <g id="path71209" transform="matrix(0.866025,-0.5,0,1,39.9841,-352.251)">
                        <path d="M-654.503,226.686L-654.503,235.02L-687.836,235.02" style="fill:none;fill-rule:nonzero;stroke:rgb(80,106,123);stroke-width:2px;"/>
                    </g>
                    <g id="g71220" transform="matrix(1,0,0,1,-2294.97,-752.481)">
                        <g id="path71212" transform="matrix(0.866025,-0.5,0,1,234.226,874.144)">
                            <path d="M1737.87,919.792L1743.57,919.792L1746.08,912.267L1749.77,923.958L1751.24,915.245L1754.54,919.792L1758.4,919.792" style="fill:none;fill-rule:nonzero;stroke:white;stroke-width:1.41px;stroke-linejoin:round;stroke-miterlimit:1.5;"/>
                        </g>
                        <g id="path71216" transform="matrix(0.866025,-0.5,0,1,247.069,866.73)">
                            <path d="M1741.05,919.792L1743.57,919.792L1746.08,912.267L1749.77,923.958L1751.24,915.245L1754.54,919.792L1756.38,919.792" style="fill:none;fill-rule:nonzero;stroke:white;stroke-width:1.41px;stroke-linejoin:round;stroke-miterlimit:1.5;"/>
                        </g>
                    </g>
                    <g id="path71222" transform="matrix(0.866025,-0.5,0,1,47.2009,-389.752)">
                        <path d="M-654.503,193.353L-654.503,235.02L-704.503,235.02" style="fill:none;fill-rule:nonzero;stroke:rgb(80,106,123);stroke-width:2px;"/>
                    </g>
                </g>
                <g id="Door-right" transform="matrix(1,0,0,1,43.3013,-25)">
                    <path id="path11293" d="M-649.519,297.52L-649.519,197.52L-692.82,222.52L-692.82,322.52L-649.519,297.52Z" style="fill:rgb(141,165,180);fill-rule:nonzero;"/>
                    <g id="rect71227" transform="matrix(0.866025,-0.5,0,1,-91.1697,-337.363)">
                        <rect x="-686.393" y="229.186" width="33.333" height="8.333" style="fill:rgb(110,141,161);"/>
                    </g>
                    <g id="rect71230" transform="matrix(0.866025,-0.5,0,1,-91.1697,-320.696)">
                        <rect x="-686.393" y="229.186" width="33.333" height="8.333" style="fill:rgb(110,141,161);"/>
                    </g>
                    <g id="rect71233" transform="matrix(0.866025,-0.5,0,1,-91.1697,-295.696)">
                        <rect x="-686.393" y="229.186" width="33.333" height="8.333" style="fill:rgb(110,141,161);"/>
                    </g>
                    <g id="rect71236" transform="matrix(0.866025,-0.5,0,1,-91.1697,-279.03)">
                        <rect x="-686.393" y="229.186" width="33.333" height="8.333" style="fill:rgb(110,141,161);"/>
                    </g>
                    <g id="path71239" transform="matrix(0.866025,-0.5,0,1,-89.9197,-335.585)">
                        <path d="M-654.503,226.686L-654.503,235.02L-687.836,235.02" style="fill:none;fill-rule:nonzero;stroke:rgb(80,106,123);stroke-width:2px;"/>
                    </g>
                    <g id="path71242" transform="matrix(0.866025,-0.5,0,1,-89.9197,-318.918)">
                        <path d="M-654.503,226.686L-654.503,235.02L-687.836,235.02" style="fill:none;fill-rule:nonzero;stroke:rgb(80,106,123);stroke-width:2px;"/>
                    </g>
                    <g id="path71245" transform="matrix(0.866025,-0.5,0,1,-89.9197,-293.918)">
                        <path d="M-654.503,226.686L-654.503,235.02L-687.836,235.02" style="fill:none;fill-rule:nonzero;stroke:rgb(80,106,123);stroke-width:2px;"/>
                    </g>
                    <g id="path71248" transform="matrix(0.866025,-0.5,0,1,-89.9197,-277.251)">
                        <path d="M-654.503,226.686L-654.503,235.02L-687.836,235.02" style="fill:none;fill-rule:nonzero;stroke:rgb(80,106,123);stroke-width:2px;"/>
                    </g>
                </g>
            </g>
            <g id="path71253" transform="matrix(0.288671,0.166664,0,0.333333,1989.78,957.962)">
                <path d="M-742.821,147.519L-742.82,272.52L-592.818,272.52L-592.818,147.52L-742.821,147.519Z" style="fill:rgb(205,216,225);fill-rule:nonzero;"/>
            </g>
            <g id="rect71256" transform="matrix(0.866025,0.5,0,1,2414.59,1022.38)">
                <rect x="-729.798" y="238.353" width="33.333" height="8.333" style="fill:rgb(110,141,161);"/>
            </g>
            <g id="rect71259" transform="matrix(0.866025,0.5,0,1,2414.59,1039.05)">
                <rect x="-729.798" y="238.353" width="33.333" height="8.333" style="fill:rgb(110,141,161);"/>
            </g>
            <g id="path71262" transform="matrix(0.866025,0.5,0,1,2414.59,1022.38)">
                <path d="M-729.798,238.353L-729.798,246.686L-696.464,246.686" style="fill:none;fill-rule:nonzero;stroke:rgb(80,106,123);stroke-width:1.63px;"/>
            </g>
            <g id="path71265" transform="matrix(0.866025,0.5,0,1,2414.59,1039.05)">
                <path d="M-729.798,238.353L-729.798,246.686L-696.464,246.686" style="fill:none;fill-rule:nonzero;stroke:rgb(80,106,123);stroke-width:1.63px;"/>
            </g>
        </g>
    </g>
</svg>
