<?xml version="1.0" encoding="UTF-8" standalone="no"?>
<!DOCTYPE svg PUBLIC "-//W3C//DTD SVG 1.1//EN" "http://www.w3.org/Graphics/SVG/1.1/DTD/svg11.dtd">
<svg width="100%" height="100%" viewBox="0 0 231 226" version="1.1" xmlns="http://www.w3.org/2000/svg" xmlns:xlink="http://www.w3.org/1999/xlink" xml:space="preserve" xmlns:serif="http://www.serif.com/" style="fill-rule:evenodd;clip-rule:evenodd;">
    <g transform="matrix(1,0,0,1,-317.543,-800)">
        <g id="Container-open" serif:id="Container open" transform="matrix(1,0,0,1,1053.66,702.48)">
            <g transform="matrix(1,0,0,1,-2605.29,-1289.95)">
                <path d="M1912.47,1612.47L1941.34,1612.47L2100.11,1520.81L2056.81,1495.81L2056.81,1529.14L1912.47,1612.47Z" style="fill-opacity:0.2;"/>
            </g>
            <path id="Interior-left" serif:id="Interior left" d="M-562.916,147.52L-649.519,197.52L-570.133,243.353L-562.916,247.52L-562.916,147.52Z" style="fill:rgb(205,216,225);fill-rule:nonzero;"/>
            <path id="Floor" d="M-562.916,247.52L-649.519,197.52L-649.519,289.186L-649.519,297.52L-562.916,247.52Z" style="fill:rgb(241,244,247);fill-rule:nonzero;"/>
            <g transform="matrix(1,4.44089e-16,0,1,-1069.92,71.4665)">
                <g id="Library">
                    <g id="Library1" serif:id="Library">
                        <g transform="matrix(1,0,0,1,64.976,-112.486)">
                            <g>
                                <path d="M421.566,279.185C421.558,280.687 420.563,282.188 418.579,283.333C414.604,285.628 408.154,285.633 404.169,283.347L404.169,283.347L368.061,262.5L368.037,195.819L382.47,187.486L418.579,208.333L418.603,208.347C420.579,209.496 421.543,210.985 421.542,212.488L421.566,279.185Z" style="fill:url(#_Linear1);"/>
                            </g>
                            <g transform="matrix(1,0,0,1,-43.3013,8.33334)">
                                <path d="M461.88,200C465.863,202.3 465.863,206.034 461.88,208.333C457.897,210.633 451.43,210.633 447.446,208.333C447.446,208.333 411.362,187.5 411.362,187.5L425.772,179.153L461.88,200Z" style="fill:rgb(241,244,247);"/>
                            </g>
                            <g transform="matrix(0.938283,0,0,0.938283,48.1322,-87.1296)">
                                <path d="M345.056,299.218L352.272,295.051L390.73,317.255C392.722,318.405 392.722,320.272 390.73,321.422C388.739,322.571 385.505,322.571 383.514,321.422L345.056,299.218Z" style="fill:white;"/>
                            </g>
                        </g>
                        <g transform="matrix(1,0,0,1,59.559,-98.9469)">
                            <g>
                                <path d="M421.566,279.185C421.558,280.687 420.563,282.188 418.579,283.333C414.604,285.628 408.154,285.633 404.169,283.347L404.169,283.347L368.061,262.5L368.037,195.819L382.47,187.486L418.579,208.333L418.603,208.347C420.579,209.496 421.543,210.985 421.542,212.488L421.566,279.185Z" style="fill:url(#_Linear2);"/>
                            </g>
                            <g transform="matrix(1,0,0,1,-43.3013,8.33334)">
                                <path d="M461.88,200C465.863,202.3 465.863,206.034 461.88,208.333C457.897,210.633 451.43,210.633 447.446,208.333C447.446,208.333 411.362,187.5 411.362,187.5L425.772,179.153L461.88,200Z" style="fill:rgb(241,244,247);"/>
                            </g>
                            <g transform="matrix(0.938283,0,0,0.938283,48.1322,-87.1296)">
                                <path d="M345.056,299.218L352.272,295.051L390.73,317.255C392.722,318.405 392.722,320.272 390.73,321.422C388.739,322.571 385.505,322.571 383.514,321.422L345.056,299.218Z" style="fill:white;"/>
                            </g>
                        </g>
                        <g transform="matrix(1,0,0,1,38.2353,-94.5915)">
                            <g>
                                <path d="M421.566,279.185C421.558,280.687 420.563,282.188 418.579,283.333C414.604,285.628 408.154,285.633 404.169,283.347L404.169,283.347L368.061,262.5L368.037,195.819L382.47,187.486L418.579,208.333L418.603,208.347C420.579,209.496 421.543,210.985 421.542,212.488L421.566,279.185Z" style="fill:url(#_Linear3);"/>
                            </g>
                            <g transform="matrix(1,0,0,1,-43.3013,8.33334)">
                                <path d="M461.88,200C465.863,202.3 465.863,206.034 461.88,208.333C457.897,210.633 451.43,210.633 447.446,208.333C447.446,208.333 411.362,187.5 411.362,187.5L425.772,179.153L461.88,200Z" style="fill:rgb(241,244,247);"/>
                            </g>
                            <g transform="matrix(0.938283,0,0,0.938283,48.1322,-87.1296)">
                                <path d="M345.056,299.218L352.272,295.051L390.73,317.255C392.722,318.405 392.722,320.272 390.73,321.422C388.739,322.571 385.505,322.571 383.514,321.422L345.056,299.218Z" style="fill:white;"/>
                            </g>
                        </g>
                    </g>
                </g>
            </g>
            <g id="g28400" transform="matrix(1,0,0,1,-3425.13,-2978.31)">
                <g id="rect12456" transform="matrix(0.229136,0.132292,0,0.264583,2476.83,2597.48)">
                    <path d="M1285.04,1407.95L1285.04,1450.66C1271.4,1454.21 1258.32,1459.65 1246.18,1466.83L1215.93,1436.58L1162.49,1490.03L1192.72,1520.26C1185.58,1532.41 1180.17,1545.49 1176.65,1559.13L1133.86,1559.13L1133.86,1634.72L1176.57,1634.72C1180.12,1648.36 1185.56,1661.44 1192.74,1673.58L1162.49,1703.83L1215.93,1757.27L1246.17,1727.04C1258.31,1734.18 1271.4,1739.59 1285.04,1743.11L1285.04,1785.9L1360.63,1785.9L1360.63,1743.19C1374.27,1739.64 1387.35,1734.2 1399.49,1727.02L1429.74,1757.27L1483.18,1703.83L1452.95,1673.59C1460.09,1661.45 1465.5,1648.36 1469.02,1634.72L1511.81,1634.72L1511.81,1559.13L1469.1,1559.13C1465.55,1545.49 1460.11,1532.41 1452.93,1520.28L1483.18,1490.03L1429.74,1436.58L1399.5,1466.81C1387.36,1459.67 1374.27,1454.26 1360.63,1450.74L1360.63,1407.95L1285.04,1407.95ZM1322.84,1521.33C1364.3,1521.33 1398.42,1555.46 1398.42,1596.92C1398.42,1638.39 1364.3,1672.52 1322.84,1672.52C1281.37,1672.52 1247.24,1638.39 1247.24,1596.92C1247.24,1555.46 1281.37,1521.33 1322.84,1521.33Z" style="fill:rgb(204,204,204);fill-rule:nonzero;"/>
                </g>
                <g id="g28149">
                    <path id="path28063" d="M2762.62,3145L2771.28,3140L2771.28,3151.3L2762.62,3156.3L2762.62,3145" style="fill:rgb(204,204,204);fill-rule:nonzero;"/>
                    <path id="path28065" d="M2762.62,3156.3L2771.28,3151.3L2762.38,3150.44L2753.72,3155.44L2762.62,3156.3" style="fill:white;fill-rule:nonzero;"/>
                    <path id="path28067" d="M2753.72,3155.44L2762.38,3150.44L2755.45,3138.43L2746.79,3143.43L2753.72,3155.44" style="fill:rgb(204,204,204);fill-rule:nonzero;"/>
                    <path id="path28069" d="M2746.79,3143.43L2755.45,3138.43L2743.2,3145.5L2734.54,3150.5L2746.79,3143.43" style="fill-opacity:0.3;fill-rule:nonzero;"/>
                    <path id="path28071" d="M2734.54,3150.5L2743.2,3145.5L2750.13,3157.5L2741.47,3162.5L2734.54,3150.5" style="fill:rgb(204,204,204);fill-rule:nonzero;"/>
                    <path id="path28073" d="M2741.47,3162.5L2750.13,3157.5L2746.45,3165.66L2737.78,3170.66L2741.47,3162.5" style="fill:rgb(204,204,204);fill-rule:nonzero;"/>
                    <path id="path28077" d="M2727.98,3165L2736.64,3160L2736.64,3180L2727.98,3185L2727.98,3165" style="fill:rgb(204,204,204);fill-rule:nonzero;"/>
                    <path id="path28079" d="M2727.98,3185L2736.64,3180L2746.43,3185.65L2737.77,3190.65L2727.98,3185" style="fill:rgb(204,204,204);fill-rule:nonzero;"/>
                    <path id="path28081" d="M2737.77,3190.65L2746.43,3185.65L2750.13,3198.07L2741.47,3203.07L2737.77,3190.65" style="fill:rgb(204,204,204);fill-rule:nonzero;"/>
                    <path id="path28083" d="M2741.47,3203.07L2750.13,3198.07L2743.2,3202.07L2734.54,3207.07L2741.47,3203.07" style="fill-opacity:0.3;fill-rule:nonzero;"/>
                    <path id="path28085" d="M2734.54,3207.07L2743.2,3202.07L2755.45,3223.28L2746.79,3228.28L2734.54,3207.07" style="fill:rgb(204,204,204);fill-rule:nonzero;"/>
                    <path id="path28087" d="M2746.79,3228.28L2755.45,3223.28L2762.37,3219.28L2753.71,3224.28L2746.79,3228.28" style="fill-opacity:0.3;fill-rule:nonzero;"/>
                    <path id="path28089" d="M2753.71,3224.28L2762.37,3219.28L2771.28,3228.68L2762.62,3233.68L2753.71,3224.28" style="fill:rgb(204,204,204);fill-rule:nonzero;"/>
                    <path id="path28091" d="M2762.62,3233.68L2771.28,3228.68L2771.28,3240L2762.62,3245L2762.62,3233.68" style="fill:rgb(204,204,204);fill-rule:nonzero;"/>
                    <path id="path28093" d="M2762.62,3245L2771.28,3240L2788.6,3250L2779.94,3255L2762.62,3245" style="fill:rgb(204,204,204);fill-rule:nonzero;"/>
                    <path id="path28095" d="M2779.94,3255L2788.6,3250L2788.6,3238.7L2779.94,3243.7L2779.94,3255" style="fill:rgb(204,204,204);fill-rule:nonzero;"/>
                    <path id="path28097" d="M2779.94,3243.7L2788.6,3238.7L2797.51,3239.56L2788.85,3244.56L2779.94,3243.7" style="fill:rgb(204,204,204);fill-rule:nonzero;"/>
                    <path id="path28099" d="M2788.85,3244.56L2797.51,3239.56L2804.44,3251.57L2795.78,3256.57L2788.85,3244.56" style="fill:rgb(204,204,204);fill-rule:nonzero;"/>
                    <path id="path28101" d="M2795.78,3256.57L2804.44,3251.57L2816.68,3244.5L2808.02,3249.5L2795.78,3256.57" style="fill-opacity:0.3;fill-rule:nonzero;"/>
                    <path id="path28103" d="M2808.02,3249.5L2816.68,3244.5L2809.76,3232.5L2801.1,3237.5L2808.02,3249.5" style="fill:rgb(204,204,204);fill-rule:nonzero;"/>
                    <path id="path28105" d="M2801.1,3237.5L2809.76,3232.5L2813.44,3224.34L2804.78,3229.34L2801.1,3237.5" style="fill:rgb(204,204,204);fill-rule:nonzero;"/>
                    <path id="path28107" d="M2804.78,3229.34L2813.44,3224.34L2823.24,3230L2814.58,3235L2804.78,3229.34" style="fill:rgb(204,204,204);fill-rule:nonzero;"/>
                    <path id="path28109" d="M2814.58,3235L2823.24,3230L2823.24,3210L2814.58,3215L2814.58,3235" style="fill:rgb(204,204,204);fill-rule:nonzero;"/>
                    <path id="path28111" d="M2814.58,3215L2823.24,3210L2813.46,3204.35L2804.8,3209.35L2814.58,3215" style="fill:white;fill-rule:nonzero;"/>
                    <path id="path28113" d="M2804.8,3209.35L2813.46,3204.35L2809.75,3191.93L2801.09,3196.93L2804.8,3209.35" style="fill:rgb(204,204,204);fill-rule:nonzero;"/>
                    <path id="path28115" d="M2801.09,3196.93L2809.75,3191.93L2816.68,3187.93L2808.02,3192.93L2801.09,3196.93" style="fill-opacity:0.3;fill-rule:nonzero;"/>
                    <path id="path28117" d="M2808.02,3192.93L2816.68,3187.93L2804.44,3166.72L2795.78,3171.72L2808.02,3192.93" style="fill:rgb(204,204,204);fill-rule:nonzero;"/>
                    <path id="path28119" d="M2795.78,3171.72L2804.44,3166.72L2797.51,3170.72L2788.85,3175.72L2795.78,3171.72" style="fill-opacity:0.3;fill-rule:nonzero;"/>
                    <path id="path28121" d="M2788.85,3175.72L2797.51,3170.72L2788.6,3161.32L2779.94,3166.32L2788.85,3175.72" style="fill:white;fill-rule:nonzero;"/>
                    <path id="path28123" d="M2779.94,3166.32L2788.6,3161.32L2788.6,3150L2779.94,3155L2779.94,3166.32" style="fill:rgb(204,204,204);fill-rule:nonzero;"/>
                    <path id="path28125" d="M2779.94,3155L2788.6,3150L2771.28,3140L2762.62,3145L2779.94,3155" style="fill:white;fill-rule:nonzero;"/>
                    <path id="path28127" d="M2762.62,3145L2771.28,3140L2762.62,3145" style="fill-opacity:0.3;fill-rule:nonzero;"/>
                    <path id="path28145" d="M2771.28,3180L2779.94,3175L2771.28,3180" style="fill-opacity:0.3;fill-rule:nonzero;"/>
                    <path id="path28147" d="M2771.28,3180L2779.94,3175L2771.28,3180" style="fill-opacity:0.3;fill-rule:nonzero;"/>
                    <path id="path28075" d="M2737.78,3170.66L2746.45,3165.66L2736.64,3160L2727.98,3165L2737.78,3170.66" style="fill:white;fill-rule:nonzero;"/>
                </g>
                <g id="path20286" transform="matrix(0.229136,0.132292,0,0.264583,2468.17,2602.48)">
                    <path d="M1285.04,1407.95L1285.04,1450.66C1271.4,1454.21 1258.32,1459.65 1246.18,1466.83L1215.93,1436.58L1162.49,1490.03L1192.72,1520.26C1185.58,1532.41 1180.17,1545.49 1176.65,1559.13L1133.86,1559.13L1133.86,1634.72L1176.57,1634.72C1180.12,1648.36 1185.56,1661.44 1192.74,1673.58L1162.49,1703.83L1215.93,1757.27L1246.17,1727.04C1258.31,1734.18 1271.4,1739.59 1285.04,1743.11L1285.04,1785.9L1360.63,1785.9L1360.63,1743.19C1374.27,1739.64 1387.35,1734.2 1399.49,1727.02L1429.74,1757.27L1483.18,1703.83L1452.95,1673.59C1460.09,1661.45 1465.5,1648.36 1469.02,1634.72L1511.81,1634.72L1511.81,1559.13L1469.1,1559.13C1465.55,1545.49 1460.11,1532.41 1452.93,1520.28L1483.18,1490.03L1429.74,1436.58L1399.5,1466.81C1387.36,1459.67 1374.27,1454.26 1360.63,1450.74L1360.63,1407.95L1285.04,1407.95ZM1322.84,1521.33C1364.3,1521.33 1398.42,1555.46 1398.42,1596.92C1398.42,1638.39 1364.3,1672.52 1322.84,1672.52C1281.37,1672.52 1247.24,1638.39 1247.24,1596.92C1247.24,1555.46 1281.37,1521.33 1322.84,1521.33Z" style="fill:rgb(242,242,242);fill-rule:nonzero;"/>
                </g>
            </g>
            <g id="Application">
            </g>
            <g id="Right-side" serif:id="Right side">
                <path id="path11251" d="M-736.121,147.52L-736.121,247.52L-649.519,297.52L-649.519,197.52L-736.121,147.52Z" style="fill:rgb(205,216,225);fill-rule:nonzero;"/>
                <g id="path11257" transform="matrix(0.866025,0.5,-4.80741e-17,1,-96.8812,361.566)">
                    <rect x="-729.798" y="163.353" width="8.333" height="83.333" style="fill:rgb(110,141,161);fill-rule:nonzero;"/>
                </g>
                <g id="path112571" serif:id="path11257" transform="matrix(0.866025,0.5,-4.80741e-17,1,-82.4474,369.899)">
                    <rect x="-729.798" y="163.353" width="8.333" height="83.333" style="fill:rgb(110,141,161);fill-rule:nonzero;"/>
                </g>
                <g id="path112572" serif:id="path11257" transform="matrix(0.866025,0.5,-4.80741e-17,1,-68.0136,378.232)">
                    <rect x="-729.798" y="163.353" width="8.333" height="83.333" style="fill:rgb(110,141,161);fill-rule:nonzero;"/>
                </g>
                <g id="path112573" serif:id="path11257" transform="matrix(0.866025,0.5,-4.80741e-17,1,-53.5799,386.566)">
                    <rect x="-729.798" y="163.353" width="8.333" height="83.333" style="fill:rgb(110,141,161);fill-rule:nonzero;"/>
                </g>
                <g id="path112574" serif:id="path11257" transform="matrix(0.866025,0.5,-4.80741e-17,1,-39.1462,394.899)">
                    <rect x="-729.798" y="163.353" width="8.333" height="83.333" style="fill:rgb(110,141,161);fill-rule:nonzero;"/>
                </g>
                <g id="path11259" transform="matrix(0.866025,0.5,-4.80741e-17,1,-96.8812,361.566)">
                    <path d="M-729.798,163.353L-729.798,246.686L-721.464,246.686" style="fill:none;fill-rule:nonzero;stroke:rgb(80,106,123);stroke-width:1.63px;"/>
                </g>
                <g id="path112591" serif:id="path11259" transform="matrix(0.866025,0.5,-4.80741e-17,1,-82.4474,369.899)">
                    <path d="M-729.798,163.353L-729.798,246.686L-721.464,246.686" style="fill:none;fill-rule:nonzero;stroke:rgb(80,106,123);stroke-width:1.63px;"/>
                </g>
                <g id="path112592" serif:id="path11259" transform="matrix(0.866025,0.5,-4.80741e-17,1,-68.0136,378.232)">
                    <path d="M-729.798,163.353L-729.798,246.686L-721.464,246.686" style="fill:none;fill-rule:nonzero;stroke:rgb(80,106,123);stroke-width:1.63px;"/>
                </g>
                <g id="path112593" serif:id="path11259" transform="matrix(0.866025,0.5,-4.80741e-17,1,-53.5799,386.566)">
                    <path d="M-729.798,163.353L-729.798,246.686L-721.464,246.686" style="fill:none;fill-rule:nonzero;stroke:rgb(80,106,123);stroke-width:1.63px;"/>
                </g>
                <g id="path112594" serif:id="path11259" transform="matrix(0.866025,0.5,-4.80741e-17,1,-39.1462,394.899)">
                    <path d="M-729.798,163.353L-729.798,246.686L-721.464,246.686" style="fill:none;fill-rule:nonzero;stroke:rgb(80,106,123);stroke-width:1.63px;"/>
                </g>
            </g>
            <path id="Top" d="M-692.82,122.52L-649.519,97.52L-562.916,147.52L-649.519,197.52L-736.121,147.52L-692.82,122.52Z" style="fill:rgb(241,244,247);fill-rule:nonzero;"/>
            <g id="Door-letft" serif:id="Door letft">
                <path id="path11291" d="M-562.916,147.52L-519.615,122.52L-519.615,222.52L-562.916,247.52L-562.916,147.52Z" style="fill:rgb(141,165,180);fill-rule:nonzero;"/>
                <g id="path11295" transform="matrix(0.866025,-0.5,4.80741e-17,1,38.7341,-412.363)">
                    <rect x="-686.393" y="229.186" width="33.333" height="8.333" style="fill:rgb(110,141,161);fill-rule:nonzero;"/>
                </g>
                <g id="path112951" serif:id="path11295" transform="matrix(0.866025,-0.5,4.80741e-17,1,38.7341,-395.696)">
                    <rect x="-686.393" y="229.186" width="33.333" height="8.333" style="fill:rgb(110,141,161);fill-rule:nonzero;"/>
                </g>
                <g id="path112952" serif:id="path11295" transform="matrix(0.866025,-0.5,4.80741e-17,1,38.7341,-370.696)">
                    <rect x="-686.393" y="229.186" width="33.333" height="8.333" style="fill:rgb(110,141,161);fill-rule:nonzero;"/>
                </g>
                <g id="path112953" serif:id="path11295" transform="matrix(0.866025,-0.5,4.80741e-17,1,38.7341,-354.03)">
                    <rect x="-686.393" y="229.186" width="33.333" height="8.333" style="fill:rgb(110,141,161);fill-rule:nonzero;"/>
                </g>
                <g id="path11297" transform="matrix(0.866025,-0.5,4.80741e-17,1,39.9841,-410.585)">
                    <path d="M-654.503,226.686L-654.503,235.02L-687.836,235.02" style="fill:none;fill-rule:nonzero;stroke:rgb(80,106,123);stroke-width:2px;"/>
                </g>
                <g id="path112971" serif:id="path11297" transform="matrix(0.866025,-0.5,4.80741e-17,1,39.9841,-393.918)">
                    <path d="M-654.503,226.686L-654.503,235.02L-687.836,235.02" style="fill:none;fill-rule:nonzero;stroke:rgb(80,106,123);stroke-width:2px;"/>
                </g>
                <g id="path112972" serif:id="path11297" transform="matrix(0.866025,-0.5,4.80741e-17,1,39.9841,-368.918)">
                    <path d="M-654.503,226.686L-654.503,235.02L-687.836,235.02" style="fill:none;fill-rule:nonzero;stroke:rgb(80,106,123);stroke-width:2px;"/>
                </g>
                <g id="path112973" serif:id="path11297" transform="matrix(0.866025,-0.5,4.80741e-17,1,39.9841,-352.251)">
                    <path d="M-654.503,226.686L-654.503,235.02L-687.836,235.02" style="fill:none;fill-rule:nonzero;stroke:rgb(80,106,123);stroke-width:2px;"/>
                </g>
            </g>
            <g id="Door-right" serif:id="Door right">
                <path id="path11293" d="M-649.519,297.52L-649.519,197.52L-692.82,222.52L-692.82,322.52L-649.519,297.52Z" style="fill:rgb(141,165,180);fill-rule:nonzero;"/>
                <g id="path112954" serif:id="path11295" transform="matrix(0.866025,-0.5,4.80741e-17,1,-91.1697,-337.363)">
                    <rect x="-686.393" y="229.186" width="33.333" height="8.333" style="fill:rgb(110,141,161);fill-rule:nonzero;"/>
                </g>
                <g id="path112955" serif:id="path11295" transform="matrix(0.866025,-0.5,4.80741e-17,1,-91.1697,-320.696)">
                    <rect x="-686.393" y="229.186" width="33.333" height="8.333" style="fill:rgb(110,141,161);fill-rule:nonzero;"/>
                </g>
                <g id="path112956" serif:id="path11295" transform="matrix(0.866025,-0.5,4.80741e-17,1,-91.1697,-295.696)">
                    <rect x="-686.393" y="229.186" width="33.333" height="8.333" style="fill:rgb(110,141,161);fill-rule:nonzero;"/>
                </g>
                <g id="path112957" serif:id="path11295" transform="matrix(0.866025,-0.5,4.80741e-17,1,-91.1697,-279.03)">
                    <rect x="-686.393" y="229.186" width="33.333" height="8.333" style="fill:rgb(110,141,161);fill-rule:nonzero;"/>
                </g>
                <g id="path112974" serif:id="path11297" transform="matrix(0.866025,-0.5,4.80741e-17,1,-89.9197,-335.585)">
                    <path d="M-654.503,226.686L-654.503,235.02L-687.836,235.02" style="fill:none;fill-rule:nonzero;stroke:rgb(80,106,123);stroke-width:2px;"/>
                </g>
                <g id="path112975" serif:id="path11297" transform="matrix(0.866025,-0.5,4.80741e-17,1,-89.9197,-318.918)">
                    <path d="M-654.503,226.686L-654.503,235.02L-687.836,235.02" style="fill:none;fill-rule:nonzero;stroke:rgb(80,106,123);stroke-width:2px;"/>
                </g>
                <g id="path112976" serif:id="path11297" transform="matrix(0.866025,-0.5,4.80741e-17,1,-89.9197,-293.918)">
                    <path d="M-654.503,226.686L-654.503,235.02L-687.836,235.02" style="fill:none;fill-rule:nonzero;stroke:rgb(80,106,123);stroke-width:2px;"/>
                </g>
                <g id="path112977" serif:id="path11297" transform="matrix(0.866025,-0.5,4.80741e-17,1,-89.9197,-277.251)">
                    <path d="M-654.503,226.686L-654.503,235.02L-687.836,235.02" style="fill:none;fill-rule:nonzero;stroke:rgb(80,106,123);stroke-width:2px;"/>
                </g>
            </g>
        </g>
    </g>
    <defs>
        <linearGradient id="_Linear1" x1="0" y1="0" x2="1" y2="0" gradientUnits="userSpaceOnUse" gradientTransform="matrix(14.4338,-5.68434e-14,3.97904e-13,66.1134,404.145,241.667)"><stop offset="0" style="stop-color:rgb(205,216,225);stop-opacity:1"/><stop offset="0.56" style="stop-color:rgb(192,205,216);stop-opacity:1"/><stop offset="1" style="stop-color:rgb(141,165,180);stop-opacity:1"/></linearGradient>
        <linearGradient id="_Linear2" x1="0" y1="0" x2="1" y2="0" gradientUnits="userSpaceOnUse" gradientTransform="matrix(14.4338,-5.68434e-14,3.97904e-13,66.1134,404.145,241.667)"><stop offset="0" style="stop-color:rgb(205,216,225);stop-opacity:1"/><stop offset="0.56" style="stop-color:rgb(192,205,216);stop-opacity:1"/><stop offset="1" style="stop-color:rgb(141,165,180);stop-opacity:1"/></linearGradient>
        <linearGradient id="_Linear3" x1="0" y1="0" x2="1" y2="0" gradientUnits="userSpaceOnUse" gradientTransform="matrix(14.4338,-5.68434e-14,3.97904e-13,66.1134,404.145,241.667)"><stop offset="0" style="stop-color:rgb(205,216,225);stop-opacity:1"/><stop offset="0.56" style="stop-color:rgb(192,205,216);stop-opacity:1"/><stop offset="1" style="stop-color:rgb(141,165,180);stop-opacity:1"/></linearGradient>
    </defs>
</svg>
