<?xml version="1.0" encoding="UTF-8" standalone="no"?>
<svg
   xmlns:serif="http://www.serif.com/"
   xmlns:dc="http://purl.org/dc/elements/1.1/"
   xmlns:cc="http://creativecommons.org/ns#"
   xmlns:rdf="http://www.w3.org/1999/02/22-rdf-syntax-ns#"
   xmlns:svg="http://www.w3.org/2000/svg"
   xmlns="http://www.w3.org/2000/svg"
   xmlns:sodipodi="http://sodipodi.sourceforge.net/DTD/sodipodi-0.dtd"
   xmlns:inkscape="http://www.inkscape.org/namespaces/inkscape"
   sodipodi:docname="code_tone_petrol.svg"
   inkscape:version="1.0 (4035a4fb49, 2020-05-01)"
   id="svg8"
   version="1.1"
   viewBox="0 0 57.286427 59.760963"
   height="59.760963mm"
   width="57.286427mm">
  <defs
     id="defs2" />
  <sodipodi:namedview
     inkscape:window-maximized="1"
     inkscape:window-y="-11"
     inkscape:window-x="-11"
     inkscape:window-height="1346"
     inkscape:window-width="2560"
     fit-margin-bottom="0"
     fit-margin-right="0"
     fit-margin-left="0"
     fit-margin-top="0"
     showgrid="false"
     inkscape:document-rotation="0"
     inkscape:current-layer="layer1"
     inkscape:document-units="mm"
     inkscape:cy="99.296488"
     inkscape:cx="141.69889"
     inkscape:zoom="1.4"
     inkscape:pageshadow="2"
     inkscape:pageopacity="0.0"
     borderopacity="1.0"
     bordercolor="#666666"
     pagecolor="#ffffff"
     id="base" />
  <metadata
     id="metadata5">
    <rdf:RDF>
      <cc:Work
         rdf:about="">
        <dc:format>image/svg+xml</dc:format>
        <dc:type
           rdf:resource="http://purl.org/dc/dcmitype/StillImage" />
        <dc:title></dc:title>
      </cc:Work>
    </rdf:RDF>
  </metadata>
  <g
     transform="translate(-64.508352,-133.14465)"
     id="layer1"
     inkscape:groupmode="layer"
     inkscape:label="Layer 1">
    

    

    

    

    

    

    

    

    

    

    

    

    

    

    

    

    

    

    

    

    

    

    

    

    

    

    

    

    

    

    

    

    

    

    

    

    

    

    

    

    

    

    

    

    

    

    <g
   transform="matrix(0.26458333,0,0,0.26458333,-202.8151,47.384782)"
   id="g5551">
        <g
   id="Code-petrol"
   serif:id="Code petrol"
   transform="translate(967.062,325)">
            <g
   transform="translate(-1782.57,-1387.47)"
   id="g5484">
                <path
   d="m 1912.47,1612.47 h 28.87 l 101.04,-58.33 -43.3,-25 v 33.33 z"
   style="fill-opacity:0.2"
   id="path5482" />

            </g>

            <g
   id="Code-petrol1"
   serif:id="Code petrol"
   transform="translate(-606.218,-100)">
                <g
   id="g18144"
   transform="matrix(1.11111,0,0,1.11111,-3442.45,-2137.5)">
                    <g
   id="path17992"
   transform="scale(0.238125)">
                        <path
   d="m 15793,8740.16 -327.3,188.97 v -188.97 l 327.3,-188.98 z"
   style="fill:#142b3b"
   id="path5486" />

                    </g>

                    <g
   id="path17990"
   transform="scale(0.238125)">
                        <path
   d="m 16120.3,8740.16 v 188.97 L 15793,8740.16 v -188.98 z"
   style="fill:#1f3749"
   id="path5489" />

                    </g>

                    <g
   id="path18052"
   transform="matrix(0.238125,0,0,0.238125,-54.5595,-31.5)">
                        <path
   d="m 15722.1,8888.19 27.3,15.75 245.8,-141.9 v -125.99 l -273.1,157.65 z"
   style="fill:#f9f9f9;stroke:#cccccc;stroke-width:3.78px"
   id="path5492" />

                    </g>

                    <g
   id="path180521"
   serif:id="path18052"
   transform="matrix(0.238125,0,0,0.238125,-54.5595,-31.5)">
                        <path
   d="m 15722.1,8888.19 27.3,15.75 245.8,-141.9 v -125.99 l -273.1,157.65 z"
   style="fill:#f9f9f9;stroke:#cccccc;stroke-width:3.78px"
   id="path5495" />

                    </g>

                    <g
   id="path180522"
   serif:id="path18052"
   transform="matrix(0.238125,0,0,0.238125,-48.1328,-27.7895)">
                        <path
   d="m 15722.1,8888.19 27.3,15.75 245.8,-141.9 v -125.99 l -273.1,157.65 z"
   style="fill:#f9f9f9;stroke:#cccccc;stroke-width:3.78px"
   id="path5498" />

                    </g>

                    <g
   id="path180523"
   serif:id="path18052"
   transform="matrix(0.238125,0,0,0.238125,-44.1673,-25.5)">
                        <path
   d="m 15733,8894.49 27.3,15.75 218.2,-125.99 v -220.47 l -245.5,141.73 z"
   style="fill:#f9f9f9;stroke:#cccccc;stroke-width:3.78px"
   id="path5501" />

                    </g>

                    <g
   id="path18054"
   transform="matrix(0.238125,0,0,0.238125,-37.6721,-21.75)">
                        <path
   d="m 15733,8894.49 27.3,15.75 245.5,-141.74 V 8642.52 L 15733,8800 Z"
   style="fill:#f9f9f9;stroke:#cccccc;stroke-width:3.78px"
   id="path5504" />

                    </g>

                    <g
   id="path18056"
   transform="matrix(0.238125,0,0,0.238125,-31.1769,-18)">
                        <path
   d="m 15733.3,8894.65 27,15.59 245.5,-141.74 V 8642.52 L 15733,8800 Z"
   style="fill:#f9f9f9;stroke:#cccccc;stroke-width:3.78px"
   id="path5507" />

                    </g>

                    <g
   id="path18058"
   transform="matrix(0.238125,0,0,0.238125,-24.6817,-14.25)">
                        <path
   d="m 15733,8894.49 27.3,15.75 246.1,-141.4 -0.6,-126.32 L 15733,8800 Z"
   style="fill:#f9f9f9;stroke:#cccccc;stroke-width:3.78px"
   id="path5510" />

                    </g>

                    <g
   id="path18060"
   transform="matrix(0.238125,0,0,0.238125,-23.3826,-31.5)">
                        <path
   d="m 15754.8,8982.68 27.3,15.74 218.8,-125.65 -0.6,-220.8 -245.5,141.73 z"
   style="fill:#f9f9f9;stroke:#cccccc;stroke-width:3.78px"
   id="path5513" />

                    </g>

                    <g
   id="path18062"
   transform="matrix(0.238125,0,0,0.238125,-15.5884,-9)">
                        <path
   d="m 15750,8904.27 26.7,15.41 245.5,-141.73 v -125.98 l -272.8,157.48 z"
   style="fill:#f9f9f9;stroke:#cccccc;stroke-width:3.78px"
   id="path5516" />

                    </g>

                    <g
   id="path18064"
   transform="matrix(0.238125,0,0,0.238125,-7.79421,-4.5)">
                        <path
   d="m 15743.9,8900.79 28.5,16.41 244.3,-142.4 v -125.98 l -272.8,157.48 z"
   style="fill:#f9f9f9;stroke:#cccccc;stroke-width:3.78px"
   id="path5519" />

                    </g>

                    <g
   id="path18066"
   transform="matrix(0.238125,0,0,0.238125,1.94446e-5,-3.72087e-6)">
                        <path
   d="m 15738.5,8897.64 27.3,15.75 245.4,-141.74 v -125.98 l -272.7,157.48 z"
   style="fill:#f9f9f9;stroke:#cccccc;stroke-width:3.78px"
   id="path5522" />

                    </g>

                    <g
   id="path18068"
   transform="matrix(0.238125,0,0,0.238125,7.79425,4.5)">
                        <path
   d="m 15733,8894.49 27.3,15.75 245.5,-141.74 V 8642.52 L 15733,8800 Z"
   style="fill:#f9f9f9;stroke:#cccccc;stroke-width:3.78px"
   id="path5525" />

                    </g>

                    <g
   id="path17986"
   transform="scale(0.238125)">
                        <path
   d="m 15793,9307.09 327.3,-188.98 v -377.95 l -327.3,188.97 z"
   style="fill:#142b3b"
   id="path5528" />

                    </g>

                    <g
   id="path17988"
   transform="scale(0.238125)">
                        <path
   d="m 15793,9307.09 -327.3,-188.98 v -377.95 l 327.3,188.97 z"
   style="fill:#1f3749"
   id="path5531" />

                    </g>

                </g>

                <g
   transform="matrix(0.866025,0.5,0,1.1547,0,0)"
   id="g5547">
                    <g
   transform="matrix(48,0,0,48,765.277,-112.431)"
   id="g5537">
                        <path
   d="m 0.537,-0.22 v 0.138 L 0.046,-0.295 v -0.118 l 0.491,-0.213 v 0.139 l -0.342,0.132 z"
   style="fill:#31719a;fill-rule:nonzero"
   id="path5535" />

                    </g>

                    <g
   transform="matrix(48,0,0,48,793.262,-112.431)"
   id="g5541">
                        <path
   d="M 0.258,-0.629 0.121,-0.066 C 0.117,-0.047 0.113,-0.033 0.109,-0.022 0.106,-0.011 0.101,-0.003 0.094,0.003 0.087,0.009 0.076,0.012 0.063,0.012 c -0.033,0 -0.05,-0.014 -0.05,-0.043 0,-0.007 0.003,-0.026 0.01,-0.056 L 0.159,-0.65 c 0.007,-0.03 0.014,-0.05 0.021,-0.061 0.006,-0.011 0.019,-0.017 0.038,-0.017 0.016,0 0.029,0.004 0.037,0.012 0.009,0.008 0.013,0.018 0.013,0.032 0,0.01 -0.003,0.028 -0.01,0.055 z"
   style="fill:#31719a;fill-rule:nonzero"
   id="path5539" />

                    </g>

                    <g
   transform="matrix(48,0,0,48,806.738,-112.431)"
   id="g5545">
                        <path
   d="M 0.537,-0.295 0.046,-0.081 V -0.219 L 0.389,-0.354 0.046,-0.487 v -0.137 l 0.491,0.212 z"
   style="fill:#31719a;fill-rule:nonzero"
   id="path5543" />

                    </g>

                </g>

            </g>

        </g>

    </g>

</g>
</svg>
