<?xml version="1.0" encoding="UTF-8" standalone="no"?>
<!-- Created with Inkscape (http://www.inkscape.org/) -->

<svg
   xmlns:dc="http://purl.org/dc/elements/1.1/"
   xmlns:cc="http://creativecommons.org/ns#"
   xmlns:rdf="http://www.w3.org/1999/02/22-rdf-syntax-ns#"
   xmlns:svg="http://www.w3.org/2000/svg"
   xmlns="http://www.w3.org/2000/svg"
   xmlns:sodipodi="http://sodipodi.sourceforge.net/DTD/sodipodi-0.dtd"
   xmlns:inkscape="http://www.inkscape.org/namespaces/inkscape"
   width="25.204723mm"
   height="31.257875mm"
   viewBox="0 0 25.204723 31.257875"
   version="1.1"
   id="svg8"
   inkscape:version="0.92.4 (5da689c313, 2019-01-14)"
   sodipodi:docname="single_process.svg">
  <defs
     id="defs2">
    <linearGradient
       gradientTransform="matrix(14.4338,0,0,66.1134,404.145,241.667)"
       gradientUnits="userSpaceOnUse"
       y2="0"
       x2="1"
       y1="0"
       x1="0"
       id="_Linear1">
      <stop
         id="stop8405"
         style="stop-color:rgb(205,216,225);stop-opacity:1"
         offset="0" />
      <stop
         id="stop8407"
         style="stop-color:rgb(192,205,216);stop-opacity:1"
         offset="0.56" />
      <stop
         id="stop8409"
         style="stop-color:rgb(141,165,180);stop-opacity:1"
         offset="1" />
    </linearGradient>
  </defs>
  <sodipodi:namedview
     id="base"
     pagecolor="#ffffff"
     bordercolor="#666666"
     borderopacity="1.0"
     inkscape:pageopacity="0.0"
     inkscape:pageshadow="2"
     inkscape:zoom="0.35"
     inkscape:cx="-182.60645"
     inkscape:cy="-559.85856"
     inkscape:document-units="mm"
     inkscape:current-layer="layer1"
     showgrid="false"
     fit-margin-top="0"
     fit-margin-left="0"
     fit-margin-right="0"
     fit-margin-bottom="0"
     inkscape:window-width="2100"
     inkscape:window-height="1234"
     inkscape:window-x="3191"
     inkscape:window-y="-9"
     inkscape:window-maximized="1" />
  <metadata
     id="metadata5">
    <rdf:RDF>
      <cc:Work
         rdf:about="">
        <dc:format>image/svg+xml</dc:format>
        <dc:type
           rdf:resource="http://purl.org/dc/dcmitype/StillImage" />
        <dc:title></dc:title>
      </cc:Work>
    </rdf:RDF>
  </metadata>
  <g
     inkscape:label="Layer 1"
     inkscape:groupmode="layer"
     id="layer1"
     transform="translate(-21.100335,30.553822)">
    

    

    

    

    

    

    

    

    

    

    

    

    

    

    

    

    

    

    

    

    

    

    

    
    

    <g
   id="g8616"
   transform="matrix(0.26458333,0,0,0.26458333,-207.0679,-277.52384)">
        <g
   transform="translate(-1865.61,-2205)"
   id="g28400">
            <g
   transform="matrix(0.229136,0.132292,0,0.264583,2476.83,2597.48)"
   id="rect12456">
                <path
   id="path8573"
   style="fill:#8da5b4;fill-rule:nonzero"
   d="m 1285.04,1407.95 v 42.71 c -13.64,3.55 -26.72,8.99 -38.86,16.17 l -30.25,-30.25 -53.44,53.45 30.23,30.23 c -7.14,12.15 -12.55,25.23 -16.07,38.87 h -42.79 v 75.59 h 42.71 c 3.55,13.64 8.99,26.72 16.17,38.86 l -30.25,30.25 53.44,53.44 30.24,-30.23 c 12.14,7.14 25.23,12.55 38.87,16.07 v 42.79 h 75.59 v -42.71 c 13.64,-3.55 26.72,-8.99 38.86,-16.17 l 30.25,30.25 53.44,-53.44 -30.23,-30.24 c 7.14,-12.14 12.55,-25.23 16.07,-38.87 h 42.79 v -75.59 h -42.71 c -3.55,-13.64 -8.99,-26.72 -16.17,-38.85 l 30.25,-30.25 -53.44,-53.45 -30.24,30.23 c -12.14,-7.14 -25.23,-12.55 -38.87,-16.07 v -42.79 z m 37.8,113.38 c 41.46,0 75.58,34.13 75.58,75.59 0,41.47 -34.12,75.6 -75.58,75.6 -41.47,0 -75.6,-34.13 -75.6,-75.6 0,-41.46 34.13,-75.59 75.6,-75.59 z"
   inkscape:connector-curvature="0" />

            </g>

            <g
   id="g28149">
                <path
   style="fill:#cccccc;fill-rule:nonzero"
   d="m 2762.62,3145 8.66,-5 v 11.3 l -8.66,5 V 3145"
   id="path28063"
   inkscape:connector-curvature="0" />

                <path
   style="fill:#f1f4f7;fill-rule:nonzero"
   d="m 2762.62,3156.3 8.66,-5 -8.9,-0.86 -8.66,5 8.9,0.86"
   id="path28065"
   inkscape:connector-curvature="0" />

                <path
   style="fill:#8da5b4;fill-rule:nonzero"
   d="m 2753.72,3155.44 8.66,-5 -6.93,-12.01 -8.66,5 6.93,12.01"
   id="path28067"
   inkscape:connector-curvature="0" />

                <path
   style="fill-opacity:0.3;fill-rule:nonzero"
   d="m 2746.79,3143.43 8.66,-5 -12.25,7.07 -8.66,5 12.25,-7.07"
   id="path28069"
   inkscape:connector-curvature="0" />

                <path
   style="fill:#cccccc;fill-rule:nonzero"
   d="m 2734.54,3150.5 8.66,-5 6.93,12 -8.66,5 -6.93,-12"
   id="path28071"
   inkscape:connector-curvature="0" />

                <path
   style="fill:#cccccc;fill-rule:nonzero"
   d="m 2741.47,3162.5 8.66,-5 -3.68,8.16 -8.67,5 3.69,-8.16"
   id="path28073"
   inkscape:connector-curvature="0" />

                <path
   style="fill:#cccccc;fill-rule:nonzero"
   d="m 2727.98,3165 8.66,-5 v 20 l -8.66,5 v -20"
   id="path28077"
   inkscape:connector-curvature="0" />

                <path
   style="fill:#cccccc;fill-rule:nonzero"
   d="m 2727.98,3185 8.66,-5 9.79,5.65 -8.66,5 -9.79,-5.65"
   id="path28079"
   inkscape:connector-curvature="0" />

                <path
   style="fill:#cccccc;fill-rule:nonzero"
   d="m 2737.77,3190.65 8.66,-5 3.7,12.42 -8.66,5 -3.7,-12.42"
   id="path28081"
   inkscape:connector-curvature="0" />

                <path
   style="fill-opacity:0.3;fill-rule:nonzero"
   d="m 2741.47,3203.07 8.66,-5 -6.93,4 -8.66,5 6.93,-4"
   id="path28083"
   inkscape:connector-curvature="0" />

                <path
   style="fill:#cccccc;fill-rule:nonzero"
   d="m 2734.54,3207.07 8.66,-5 12.25,21.21 -8.66,5 -12.25,-21.21"
   id="path28085"
   inkscape:connector-curvature="0" />

                <path
   style="fill-opacity:0.3;fill-rule:nonzero"
   d="m 2746.79,3228.28 8.66,-5 6.92,-4 -8.66,5 -6.92,4"
   id="path28087"
   inkscape:connector-curvature="0" />

                <path
   style="fill:#cccccc;fill-rule:nonzero"
   d="m 2753.71,3224.28 8.66,-5 8.91,9.4 -8.66,5 -8.91,-9.4"
   id="path28089"
   inkscape:connector-curvature="0" />

                <path
   style="fill:#cccccc;fill-rule:nonzero"
   d="m 2762.62,3233.68 8.66,-5 V 3240 l -8.66,5 v -11.32"
   id="path28091"
   inkscape:connector-curvature="0" />

                <path
   style="fill:#cccccc;fill-rule:nonzero"
   d="m 2762.62,3245 8.66,-5 17.32,10 -8.66,5 -17.32,-10"
   id="path28093"
   inkscape:connector-curvature="0" />

                <path
   style="fill:#8da5b4;fill-rule:nonzero"
   d="m 2779.94,3255 8.66,-5 v -11.3 l -8.66,5 v 11.3"
   id="path28095"
   inkscape:connector-curvature="0" />

                <path
   style="fill:#cccccc;fill-rule:nonzero"
   d="m 2779.94,3243.7 8.66,-5 8.91,0.86 -8.66,5 -8.91,-0.86"
   id="path28097"
   inkscape:connector-curvature="0" />

                <path
   style="fill:#cccccc;fill-rule:nonzero"
   d="m 2788.85,3244.56 8.66,-5 6.93,12.01 -8.66,5 -6.93,-12.01"
   id="path28099"
   inkscape:connector-curvature="0" />

                <path
   style="fill-opacity:0.3;fill-rule:nonzero"
   d="m 2795.78,3256.57 8.66,-5 12.24,-7.07 -8.66,5 -12.24,7.07"
   id="path28101"
   inkscape:connector-curvature="0" />

                <path
   style="fill:#8da5b4;fill-rule:nonzero"
   d="m 2808.02,3249.5 8.66,-5 -6.92,-12 -8.66,5 6.92,12"
   id="path28103"
   inkscape:connector-curvature="0" />

                <path
   style="fill:#8da5b4;fill-rule:nonzero"
   d="m 2801.1,3237.5 8.66,-5 3.68,-8.16 -8.66,5 -3.68,8.16"
   id="path28105"
   inkscape:connector-curvature="0" />

                <path
   style="fill:#cccccc;fill-rule:nonzero"
   d="m 2804.78,3229.34 8.66,-5 9.8,5.66 -8.66,5 -9.8,-5.66"
   id="path28107"
   inkscape:connector-curvature="0" />

                <path
   style="fill:#8da5b4;fill-rule:nonzero"
   d="m 2814.58,3235 8.66,-5 v -20 l -8.66,5 v 20"
   id="path28109"
   inkscape:connector-curvature="0" />

                <path
   style="fill:#f1f4f7;fill-rule:nonzero"
   d="m 2814.58,3215 8.66,-5 -9.78,-5.65 -8.66,5 9.78,5.65"
   id="path28111"
   inkscape:connector-curvature="0" />

                <path
   style="fill:#8da5b4;fill-rule:nonzero"
   d="m 2804.8,3209.35 8.66,-5 -3.71,-12.42 -8.66,5 3.71,12.42"
   id="path28113"
   inkscape:connector-curvature="0" />

                <path
   style="fill-opacity:0.3;fill-rule:nonzero"
   d="m 2801.09,3196.93 8.66,-5 6.93,-4 -8.66,5 -6.93,4"
   id="path28115"
   inkscape:connector-curvature="0" />

                <path
   style="fill:#8da5b4;fill-rule:nonzero"
   d="m 2808.02,3192.93 8.66,-5 -12.24,-21.21 -8.66,5 12.24,21.21"
   id="path28117"
   inkscape:connector-curvature="0" />

                <path
   style="fill-opacity:0.3;fill-rule:nonzero"
   d="m 2795.78,3171.72 8.66,-5 -6.93,4 -8.66,5 6.93,-4"
   id="path28119"
   inkscape:connector-curvature="0" />

                <path
   style="fill:#f1f4f7;fill-rule:nonzero"
   d="m 2788.85,3175.72 8.66,-5 -8.91,-9.4 -8.66,5 8.91,9.4"
   id="path28121"
   inkscape:connector-curvature="0" />

                <path
   style="fill:#8da5b4;fill-rule:nonzero"
   d="m 2779.94,3166.32 8.66,-5 V 3150 l -8.66,5 v 11.32"
   id="path28123"
   inkscape:connector-curvature="0" />

                <path
   style="fill:#f1f4f7;fill-rule:nonzero"
   d="m 2779.94,3155 8.66,-5 -17.32,-10 -8.66,5 17.32,10"
   id="path28125"
   inkscape:connector-curvature="0" />

                <path
   style="fill-opacity:0.3;fill-rule:nonzero"
   d="m 2762.62,3145 8.66,-5 -8.66,5"
   id="path28127"
   inkscape:connector-curvature="0" />

                <path
   style="fill-opacity:0.3;fill-rule:nonzero"
   d="m 2771.28,3180 8.66,-5 -8.66,5"
   id="path28145"
   inkscape:connector-curvature="0" />

                <path
   style="fill-opacity:0.3;fill-rule:nonzero"
   d="m 2771.28,3180 8.66,-5 -8.66,5"
   id="path28147"
   inkscape:connector-curvature="0" />

                <path
   style="fill:#f1f4f7;fill-rule:nonzero"
   d="m 2737.78,3170.66 8.67,-5 -9.81,-5.66 -8.66,5 9.8,5.66"
   id="path28075"
   inkscape:connector-curvature="0" />

            </g>

            <g
   transform="matrix(0.229136,0.132292,0,0.264583,2468.17,2602.48)"
   id="path20286">
                <path
   id="path8612"
   style="fill:#cdd8e1;fill-rule:nonzero"
   d="m 1285.04,1407.95 v 42.71 c -13.64,3.55 -26.72,8.99 -38.86,16.17 l -30.25,-30.25 -53.44,53.45 30.23,30.23 c -7.14,12.15 -12.55,25.23 -16.07,38.87 h -42.79 v 75.59 h 42.71 c 3.55,13.64 8.99,26.72 16.17,38.86 l -30.25,30.25 53.44,53.44 30.24,-30.23 c 12.14,7.14 25.23,12.55 38.87,16.07 v 42.79 h 75.59 v -42.71 c 13.64,-3.55 26.72,-8.99 38.86,-16.17 l 30.25,30.25 53.44,-53.44 -30.23,-30.24 c 7.14,-12.14 12.55,-25.23 16.07,-38.87 h 42.79 v -75.59 h -42.71 c -3.55,-13.64 -8.99,-26.72 -16.17,-38.85 l 30.25,-30.25 -53.44,-53.45 -30.24,30.23 c -12.14,-7.14 -25.23,-12.55 -38.87,-16.07 v -42.79 z m 37.8,113.38 c 41.46,0 75.58,34.13 75.58,75.59 0,41.47 -34.12,75.6 -75.58,75.6 -41.47,0 -75.6,-34.13 -75.6,-75.6 0,-41.46 34.13,-75.59 75.6,-75.59 z"
   inkscape:connector-curvature="0" />

            </g>

        </g>

    </g>

</g>
</svg>
