<?xml version="1.0" encoding="UTF-8" standalone="no"?>
<svg
   xmlns:serif="http://www.serif.com/"
   xmlns:dc="http://purl.org/dc/elements/1.1/"
   xmlns:cc="http://creativecommons.org/ns#"
   xmlns:rdf="http://www.w3.org/1999/02/22-rdf-syntax-ns#"
   xmlns:svg="http://www.w3.org/2000/svg"
   xmlns="http://www.w3.org/2000/svg"
   xmlns:sodipodi="http://sodipodi.sourceforge.net/DTD/sodipodi-0.dtd"
   xmlns:inkscape="http://www.inkscape.org/namespaces/inkscape"
   width="60.373081mm"
   height="64.084564mm"
   viewBox="0 0 60.373081 64.084564"
   version="1.1"
   id="svg8"
   inkscape:version="1.0.1 (3bc2e813f5, 2020-09-07)"
   sodipodi:docname="alibaba_side.svg">
  <defs
     id="defs2" />
  <sodipodi:namedview
     id="base"
     pagecolor="#ffffff"
     bordercolor="#666666"
     borderopacity="1.0"
     inkscape:pageopacity="0.0"
     inkscape:pageshadow="2"
     inkscape:zoom="0.35"
     inkscape:cx="377.46688"
     inkscape:cy="254.36086"
     inkscape:document-units="mm"
     inkscape:current-layer="layer1"
     inkscape:document-rotation="0"
     showgrid="false"
     fit-margin-top="0"
     fit-margin-left="0"
     fit-margin-right="0"
     fit-margin-bottom="0"
     inkscape:window-width="1816"
     inkscape:window-height="1208"
     inkscape:window-x="2610"
     inkscape:window-y="107"
     inkscape:window-maximized="0" />
  <metadata
     id="metadata5">
    <rdf:RDF>
      <cc:Work
         rdf:about="">
        <dc:format>image/svg+xml</dc:format>
        <dc:type
           rdf:resource="http://purl.org/dc/dcmitype/StillImage" />
        <dc:title></dc:title>
      </cc:Work>
    </rdf:RDF>
  </metadata>
  <g
     inkscape:label="Calque 1"
     inkscape:groupmode="layer"
     id="layer1"
     transform="translate(-5.9618865,-80.867022)">
    

    

    

    

    

    

    

    

    

    

    

    

    <g
   transform="matrix(0.26458333,0,0,0.26458333,-213.04001,8.4566132)"
   id="g2346">
        <g
   id="Cloud-Alibaba--side-"
   serif:id="Cloud Alibaba (side)"
   transform="translate(-818.826,-1715.03)">
            <g
   transform="matrix(0.866025,-0.5,1,0.57735,1338.44,1456.69)"
   id="g2333">
                <path
   d="m -450,738.622 c 0,-1.547 -1.1,-2.5 -2.887,-2.5 -7.347,0 -26.983,0 -38.453,0 -1.786,0 -3.987,0.953 -5.773,2.5 -1.787,1.547 -2.887,3.453 -2.887,5 0,30.546 0,144.831 0,163.205 0,1.547 1.1,2.5 2.887,2.5 7.347,0 26.983,0 38.453,0 1.786,0 3.987,-0.953 5.773,-2.5 1.787,-1.547 2.887,-3.453 2.887,-5 0,-30.547 0,-144.832 0,-163.205 z"
   style="fill-opacity:0.2"
   id="path2331" />

            </g>

            <g
   id="path208045-8-9-5"
   transform="matrix(-0.498715,0,0,0.498715,5408.47,-4453.97)">
                <path
   d="m 7340.92,12918.6 c -48.25,-1.8 -104.29,50.7 -132.5,95.4 -2.55,-1.5 -5.08,-3 -7.45,-4.4 -21.82,-12.6 -52.87,16 -65.47,37.8 -8.04,13.9 -14.67,35.7 -12.75,53 -4.08,5.5 -7.72,11.1 -10.8,16.4 -25.2,43.6 -43.64,126 0,151.2 l 65.46,37.8 c 35.7,20.6 83.73,-13.9 113.82,-51 43.3,5.5 94.2,-36 125.85,-77.6 32.35,12.7 75.52,-27.7 93.54,-58.9 18.9,-32.7 32.73,-94.5 0,-113.4 -32.73,-18.8 -32.74,-18.8 -65.47,-37.7 -4.48,-2.6 -9.21,-4 -14.1,-4.5 l -63.14,-36.4 c -8.52,-5 -17.6,-7.4 -26.99,-7.7 z"
   style="fill:#ececec;fill-rule:nonzero"
   id="path2335" />

            </g>

            <g
   id="path208155-2-4-6"
   transform="matrix(-0.498715,0,0,0.498715,5408.47,-4453.97)">
                <path
   d="m 7406.38,12956.4 c -50.68,-1.9 -110.08,56.1 -136.66,102.1 -0.94,1.7 -1.84,3.5 -2.77,5.2 -1.52,-8.4 -5.29,-15.4 -12.3,-19.4 -21.82,-12.6 -52.86,16 -65.46,37.8 -10.49,18.2 -18.63,49.8 -8.44,67.1 -1.14,1.8 -2.32,3.6 -3.34,5.4 -25.2,43.6 -43.64,126 0,151.2 35.7,20.6 83.73,-13.9 113.82,-51 43.3,5.5 94.2,-36 125.85,-77.6 32.35,12.7 75.52,-27.7 93.54,-58.9 18.9,-32.7 32.73,-94.5 0,-113.4 -14.21,-8.2 -31.03,-4.7 -47.06,4.5 -4.17,-19.5 -13.56,-35.7 -30.18,-45.3 -8.53,-5 -17.61,-7.4 -27,-7.7 z"
   style="fill:#f9f9f9;fill-rule:nonzero"
   id="path2338" />

            </g>

            <g
   transform="matrix(1.63424,0.943528,0,1.88706,1690.29,2003.62)"
   id="g2343">
                <path
   d="M 8.702,12.35 C 5.785,12.95 2.652,15.28 1.35,17.834 0.048,20.388 0,21.016 0,31.767 c 0,5.737 0.096,10.462 0.24,11.2 0.856,4.376 4.278,7.798 8.654,8.654 1.326,0.24 18.585,0.362 18.585,0.096 0,-0.193 -1.47,-5.978 -1.543,-6.05 -0.024,-0.048 -3.086,-0.723 -6.798,-1.52 -8.654,-1.88 -8.4,-1.808 -9.112,-2.676 L 9.399,40.724 v -17.5 l 0.627,-0.76 c 0.723,-0.868 0.458,-0.795 9.112,-2.676 l 6.798,-1.52 c 0.074,-0.05 1.544,-5.836 1.544,-6.018 0,-0.23 -17.62,-0.12 -18.778,0.12 z m 27.938,0.036 c 0.024,0.434 1.374,5.737 1.52,5.882 0.048,0.072 3.35,0.82 7.304,1.663 3.954,0.843 7.473,1.7 7.786,1.88 0.424,0.246 0.78,0.594 1.037,1.012 0.386,0.675 0.434,1.398 0.434,9.16 0,7.762 -0.048,8.485 -0.434,9.16 -0.263,0.413 -0.618,0.759 -1.037,1.012 -0.313,0.17 -3.8,1.012 -7.786,1.88 L 38.16,45.71 c -0.145,0.145 -1.495,5.448 -1.52,5.882 0,0.265 1.736,0.313 9.353,0.24 10.5,-0.096 10.63,-0.12 13.306,-1.928 1.922,-1.323 3.374,-3.222 4.146,-5.424 0.554,-1.615 0.554,-1.76 0.554,-12.487 0,-10.727 0,-10.872 -0.554,-12.487 C 62.673,17.305 61.22,15.405 59.299,14.082 56.623,12.276 56.503,12.25 45.993,12.155 38.376,12.083 36.64,12.119 36.64,12.395 Z M 25.88,31.488 c -0.077,0.258 -0.094,0.53 -0.048,0.795 0.072,0.4 0.506,0.434 6.17,0.506 l 6.075,0.048 V 31.15 H 32.06 c -5.038,0 -6.075,0.048 -6.17,0.337 z"
   style="fill:#373c41;fill-rule:nonzero"
   id="path2341" />

            </g>

        </g>

    </g>

</g>
</svg>
