<?xml version="1.0" encoding="UTF-8" standalone="no"?>
<!-- Created with Inkscape (http://www.inkscape.org/) -->

<svg
   xmlns:dc="http://purl.org/dc/elements/1.1/"
   xmlns:cc="http://creativecommons.org/ns#"
   xmlns:rdf="http://www.w3.org/1999/02/22-rdf-syntax-ns#"
   xmlns:svg="http://www.w3.org/2000/svg"
   xmlns="http://www.w3.org/2000/svg"
   xmlns:sodipodi="http://sodipodi.sourceforge.net/DTD/sodipodi-0.dtd"
   xmlns:inkscape="http://www.inkscape.org/namespaces/inkscape"
   width="58.66964mm"
   height="51.912487mm"
   viewBox="0 0 58.66964 51.912487"
   version="1.1"
   id="svg8"
   inkscape:version="0.92.4 (5da689c313, 2019-01-14)"
   sodipodi:docname="digitalocean_front.svg">
  <defs
     id="defs2" />
  <sodipodi:namedview
     id="base"
     pagecolor="#ffffff"
     bordercolor="#666666"
     borderopacity="1.0"
     inkscape:pageopacity="0.0"
     inkscape:pageshadow="2"
     inkscape:zoom="0.35"
     inkscape:cx="-386.19968"
     inkscape:cy="245.7344"
     inkscape:document-units="mm"
     inkscape:current-layer="layer1"
     showgrid="false"
     fit-margin-top="0"
     fit-margin-left="0"
     fit-margin-right="0"
     fit-margin-bottom="0"
     inkscape:window-width="2100"
     inkscape:window-height="1234"
     inkscape:window-x="3191"
     inkscape:window-y="-9"
     inkscape:window-maximized="1" />
  <metadata
     id="metadata5">
    <rdf:RDF>
      <cc:Work
         rdf:about="">
        <dc:format>image/svg+xml</dc:format>
        <dc:type
           rdf:resource="http://purl.org/dc/dcmitype/StillImage" />
        <dc:title></dc:title>
      </cc:Work>
    </rdf:RDF>
  </metadata>
  <g
     inkscape:label="Layer 1"
     inkscape:groupmode="layer"
     id="layer1"
     transform="translate(-74.967716,-161.93807)">
    

    

    

    

    

    <g
   id="g4424"
   transform="matrix(0.26458333,0,0,0.26458333,-139.0332,-16.657711)">
        <g
   transform="matrix(0.94425,0,0,0.94425,-348.685,545.957)"
   id="g208356">
            <g
   transform="translate(18.2518,-4.35393)"
   id="g208348">
                <g
   id="g208342">
                    <g
   transform="matrix(0.52816,0,0,0.52816,-2534.78,-6682.04)"
   id="path208045-8">
                        <path
   id="path4410"
   style="fill:#f9f9f9;fill-rule:nonzero"
   d="m 7340.92,12918.6 c -48.25,-1.8 -104.29,50.7 -132.5,95.4 -2.55,-1.5 -5.08,-3 -7.45,-4.4 -21.82,-12.6 -52.87,16 -65.47,37.8 -8.04,13.9 -14.67,35.7 -12.75,53 -4.08,5.5 -7.72,11.1 -10.8,16.4 -25.2,43.6 -43.64,126 0,151.2 l 65.46,37.8 c 35.7,20.6 83.73,-13.9 113.82,-51 43.3,5.5 94.2,-36 125.85,-77.6 32.35,12.7 75.52,-27.7 93.54,-58.9 18.9,-32.7 32.73,-94.5 0,-113.4 -32.73,-18.8 -32.74,-18.8 -65.47,-37.7 -4.48,-2.6 -9.21,-4 -14.1,-4.5 l -63.14,-36.4 c -8.52,-5 -17.6,-7.4 -26.99,-7.7 z"
   inkscape:connector-curvature="0" />

                    </g>

                    <g
   transform="matrix(0.52816,0,0,0.52816,-2534.78,-6682.04)"
   id="path208155-2">
                        <path
   id="path4413"
   style="fill:#ececec;fill-rule:nonzero"
   d="m 7406.38,12956.4 c -50.68,-1.9 -110.08,56.1 -136.66,102.1 -0.94,1.7 -1.84,3.5 -2.77,5.2 -1.52,-8.4 -5.29,-15.4 -12.3,-19.4 -21.82,-12.6 -52.86,16 -65.46,37.8 -10.49,18.2 -18.63,49.8 -8.44,67.1 -1.14,1.8 -2.32,3.6 -3.34,5.4 -25.2,43.6 -43.64,126 0,151.2 35.7,20.6 83.73,-13.9 113.82,-51 43.3,5.5 94.2,-36 125.85,-77.6 32.35,12.7 75.52,-27.7 93.54,-58.9 18.9,-32.7 32.73,-94.5 0,-113.4 -14.21,-8.2 -31.03,-4.7 -47.06,4.5 -4.17,-19.5 -13.56,-35.7 -30.18,-45.3 -8.53,-5 -17.61,-7.4 -27,-7.7 z"
   inkscape:connector-curvature="0" />

                    </g>

                </g>

            </g>

            <g
   transform="matrix(0.572005,-0.330247,0,0.660494,1270.67,203.781)"
   id="XMLID_44_">
                <path
   style="fill:#0080ff;fill-rule:nonzero"
   d="m 177,221.5 v -34.2 c 36.2,0 64.3,-35.9 50.4,-74 -5.1,-14 -16.4,-25.3 -30.5,-30.4 -38.1,-13.8 -74,14.2 -74,50.4 H 88.8 c 0,-57.7 55.8,-102.7 116.3,-83.8 26.4,8.3 47.5,29.3 55.7,55.7 18.9,60.5 -26.1,116.3 -83.8,116.3 z"
   id="XMLID_49_"
   inkscape:connector-curvature="0" />

                <path
   style="fill:#0080ff"
   d="M 177.1,187.5 H 143 v -34.1 h 34.1 z"
   id="XMLID_47_"
   inkscape:connector-curvature="0" />

                <rect
   style="fill:#0080ff"
   height="26.1"
   width="26.1"
   y="187.5"
   x="116.9"
   id="XMLID_46_" />

                <rect
   style="fill:#0080ff"
   height="21.9"
   width="21.9"
   y="165.60001"
   x="95"
   id="XMLID_45_" />

            </g>

        </g>

    </g>

</g>
</svg>
