<?xml version="1.0" encoding="UTF-8" standalone="no"?>
<svg
   xmlns:serif="http://www.serif.com/"
   xmlns:dc="http://purl.org/dc/elements/1.1/"
   xmlns:cc="http://creativecommons.org/ns#"
   xmlns:rdf="http://www.w3.org/1999/02/22-rdf-syntax-ns#"
   xmlns:svg="http://www.w3.org/2000/svg"
   xmlns="http://www.w3.org/2000/svg"
   xmlns:sodipodi="http://sodipodi.sourceforge.net/DTD/sodipodi-0.dtd"
   xmlns:inkscape="http://www.inkscape.org/namespaces/inkscape"
   width="60.373081mm"
   height="64.084564mm"
   viewBox="0 0 60.373081 64.084564"
   version="1.1"
   id="svg8"
   inkscape:version="1.0.1 (3bc2e813f5, 2020-09-07)"
   sodipodi:docname="gcp_side.svg">
  <defs
     id="defs2" />
  <sodipodi:namedview
     id="base"
     pagecolor="#ffffff"
     bordercolor="#666666"
     borderopacity="1.0"
     inkscape:pageopacity="0.0"
     inkscape:pageshadow="2"
     inkscape:zoom="0.35"
     inkscape:cx="343.57087"
     inkscape:cy="215.00864"
     inkscape:document-units="mm"
     inkscape:current-layer="layer1"
     inkscape:document-rotation="0"
     showgrid="false"
     fit-margin-top="0"
     fit-margin-left="0"
     fit-margin-right="0"
     fit-margin-bottom="0"
     inkscape:window-width="1816"
     inkscape:window-height="1208"
     inkscape:window-x="2610"
     inkscape:window-y="107"
     inkscape:window-maximized="0" />
  <metadata
     id="metadata5">
    <rdf:RDF>
      <cc:Work
         rdf:about="">
        <dc:format>image/svg+xml</dc:format>
        <dc:type
           rdf:resource="http://purl.org/dc/dcmitype/StillImage" />
        <dc:title></dc:title>
      </cc:Work>
    </rdf:RDF>
  </metadata>
  <g
     inkscape:label="Calque 1"
     inkscape:groupmode="layer"
     id="layer1"
     transform="translate(-14.930207,-91.278964)">
    

    

    

    

    

    

    

    

    

    

    <g
   transform="matrix(0.26458333,0,0,0.26458333,-66.590487,18.868556)"
   id="g2252">
        <g
   id="Cloud-Google--side-"
   serif:id="Cloud Google (side)"
   transform="translate(-1338.44,-1715.03)">
            <g
   transform="matrix(0.866025,-0.5,1,0.57735,1338.44,1456.69)"
   id="g2227">
                <path
   d="m -450,738.622 c 0,-1.547 -1.1,-2.5 -2.887,-2.5 -7.347,0 -26.983,0 -38.453,0 -1.786,0 -3.987,0.953 -5.773,2.5 -1.787,1.547 -2.887,3.453 -2.887,5 0,30.546 0,144.831 0,163.205 0,1.547 1.1,2.5 2.887,2.5 7.347,0 26.983,0 38.453,0 1.786,0 3.987,-0.953 5.773,-2.5 1.787,-1.547 2.887,-3.453 2.887,-5 0,-30.547 0,-144.832 0,-163.205 z"
   style="fill-opacity:0.2"
   id="path2225" />

            </g>

            <g
   id="path208045-8-9-5"
   transform="matrix(-0.498715,0,0,0.498715,5408.47,-4453.97)">
                <path
   d="m 7340.92,12918.6 c -48.25,-1.8 -104.29,50.7 -132.5,95.4 -2.55,-1.5 -5.08,-3 -7.45,-4.4 -21.82,-12.6 -52.87,16 -65.47,37.8 -8.04,13.9 -14.67,35.7 -12.75,53 -4.08,5.5 -7.72,11.1 -10.8,16.4 -25.2,43.6 -43.64,126 0,151.2 l 65.46,37.8 c 35.7,20.6 83.73,-13.9 113.82,-51 43.3,5.5 94.2,-36 125.85,-77.6 32.35,12.7 75.52,-27.7 93.54,-58.9 18.9,-32.7 32.73,-94.5 0,-113.4 -32.73,-18.8 -32.74,-18.8 -65.47,-37.7 -4.48,-2.6 -9.21,-4 -14.1,-4.5 l -63.14,-36.4 c -8.52,-5 -17.6,-7.4 -26.99,-7.7 z"
   style="fill:#ececec;fill-rule:nonzero"
   id="path2229" />

            </g>

            <g
   id="path208155-2-4-6"
   transform="matrix(-0.498715,0,0,0.498715,5408.47,-4453.97)">
                <path
   d="m 7406.38,12956.4 c -50.68,-1.9 -110.08,56.1 -136.66,102.1 -0.94,1.7 -1.84,3.5 -2.77,5.2 -1.52,-8.4 -5.29,-15.4 -12.3,-19.4 -21.82,-12.6 -52.86,16 -65.46,37.8 -10.49,18.2 -18.63,49.8 -8.44,67.1 -1.14,1.8 -2.32,3.6 -3.34,5.4 -25.2,43.6 -43.64,126 0,151.2 35.7,20.6 83.73,-13.9 113.82,-51 43.3,5.5 94.2,-36 125.85,-77.6 32.35,12.7 75.52,-27.7 93.54,-58.9 18.9,-32.7 32.73,-94.5 0,-113.4 -14.21,-8.2 -31.03,-4.7 -47.06,4.5 -4.17,-19.5 -13.56,-35.7 -30.18,-45.3 -8.53,-5 -17.61,-7.4 -27,-7.7 z"
   style="fill:#f9f9f9;fill-rule:nonzero"
   id="path2232" />

            </g>

            <g
   transform="matrix(0.588517,0.33978,0,0.67956,1595.77,1886.14)"
   id="g2237">
                <path
   d="m 272.705,138.868 h 5.111 l 14.57,-14.569 0.715,-6.186 c -27.115,-23.933 -68.497,-21.353 -92.432,5.762 -6.647,7.532 -11.473,16.493 -14.104,26.188 1.623,-0.665 3.421,-0.772 5.111,-0.306 l 29.14,-4.806 c 0,0 1.482,-2.454 2.25,-2.3 12.961,-14.235 34.777,-15.895 49.74,-3.784 h -0.101 z"
   style="fill:#ea4335;fill-rule:nonzero"
   id="path2235" />

            </g>

            <g
   transform="matrix(0.588517,0.33978,0,0.67956,1595.77,1886.14)"
   id="g2241">
                <path
   d="m 313.143,150.063 c -3.349,-12.33 -10.226,-23.419 -19.783,-31.899 l -20.449,20.448 c 8.629,7.05 13.553,17.691 13.342,28.832 v 3.63 c 10.053,0 18.199,8.148 18.199,18.2 0,10.052 -8.146,18.199 -18.199,18.199 h -36.397 l -3.631,3.681 v 21.83 l 3.631,3.629 h 36.397 c 26.145,0.202 47.502,-20.825 47.705,-46.97 0.123,-15.83 -7.702,-30.711 -20.815,-39.58 z"
   style="fill:#4285f4;fill-rule:nonzero"
   id="path2239" />

            </g>

            <g
   transform="matrix(0.588517,0.33978,0,0.67956,1595.77,1886.14)"
   id="g2245">
                <path
   d="m 213.404,236.408 h 36.399 v -29.139 h -36.399 c -2.592,0 -5.154,-0.559 -7.515,-1.636 l -5.11,1.585 -14.673,14.568 -1.278,5.114 c 8.226,6.211 18.269,9.552 28.576,9.508 z"
   style="fill:#34a853;fill-rule:nonzero"
   id="path2243" />

            </g>

            <g
   transform="matrix(0.588517,0.33978,0,0.67956,1595.77,1886.14)"
   id="g2249">
                <path
   d="m 213.404,141.884 c -26.143,0.156 -47.21,21.477 -47.054,47.621 0.086,14.588 6.913,28.346 18.478,37.239 l 21.112,-21.112 c -9.159,-4.139 -13.229,-14.918 -9.09,-24.08 4.139,-9.159 14.917,-13.229 24.078,-9.091 4.035,1.823 7.269,5.056 9.092,9.091 l 21.111,-21.112 c -8.976,-11.735 -22.953,-18.609 -37.727,-18.556 z"
   style="fill:#fbbc05;fill-rule:nonzero"
   id="path2247" />

            </g>

        </g>

    </g>

</g>
</svg>
