<?xml version="1.0" encoding="UTF-8" standalone="no"?>
<!DOCTYPE svg PUBLIC "-//W3C//DTD SVG 1.1//EN" "http://www.w3.org/Graphics/SVG/1.1/DTD/svg11.dtd">
<svg width="100%" height="100%" viewBox="0 0 167 148" version="1.1" xmlns="http://www.w3.org/2000/svg" xmlns:xlink="http://www.w3.org/1999/xlink" xml:space="preserve" xmlns:serif="http://www.serif.com/" style="fill-rule:evenodd;clip-rule:evenodd;stroke-linejoin:round;stroke-miterlimit:2;">
    <g id="g208348" transform="matrix(0.249833,0,0,0.249833,-855.205,-99.8714)">
        <g id="g208342">
            <g id="path11527" transform="matrix(0.52816,0,0,0.52816,-7185.2,-18941.2)">
                <path d="M20808.9,36619.7C20672.1,36614.6 20513.3,36763.4 20433.3,36890.1C20426.1,36885.8 20418.9,36881.6 20412.2,36877.6C20350.3,36841.9 20262.3,36923 20226.6,36984.8C20203.8,37024.2 20185,37086 20190.5,37135C20178.9,37150.6 20168.6,37166.5 20159.9,37181.5C20088.4,37305.1 20036.2,37538.6 20159.9,37610.1L20345.4,37717.2C20446.6,37775.6 20582.8,37677.8 20668.1,37572.7C20790.8,37588.3 20935.1,37470.6 21024.8,37352.7C21116.5,37388.7 21238.9,37274.2 21289.9,37185.7C21343.5,37093 21382.7,36917.9 21289.9,36864.3C21197.2,36811 21197.1,36811 21104.4,36757.4C21091.7,36750 21078.3,36746.1 21064.4,36744.7L20885.4,36641.5C20861.3,36627.3 20835.5,36620.5 20808.9,36619.7L20808.9,36619.7Z" style="fill:rgb(249,249,249);fill-rule:nonzero;"/>
            </g>
            <g id="path11530" transform="matrix(0.52816,0,0,0.52816,-7185.2,-18941.2)">
                <path d="M20994.5,36726.8C20850.8,36721.4 20682.4,36885.8 20607.1,37016.2C20604.4,37021 20601.9,37026.1 20599.2,37031C20594.9,37007.2 20584.2,36987.3 20564.4,36976C20502.5,36940.3 20414.5,37021.3 20378.8,37083.1C20349.1,37134.7 20326,37224.3 20354.9,37273.3C20351.7,37278.4 20348.3,37283.5 20345.4,37288.6C20274,37412.2 20221.7,37645.8 20345.4,37717.2C20446.6,37775.6 20582.8,37677.8 20668.1,37572.7C20790.8,37588.3 20935.1,37470.6 21024.8,37352.7C21116.5,37388.7 21238.9,37274.2 21289.9,37185.7C21343.5,37093 21382.7,36917.9 21289.9,36864.3C21249.7,36841 21202,36851 21156.5,36877C21144.7,36821.8 21118.1,36775.8 21071,36748.6C21046.8,36734.5 21021.1,36727.7 20994.5,36726.8L20994.5,36726.8Z" style="fill:rgb(236,236,236);fill-rule:nonzero;"/>
            </g>
        </g>
    </g>
    <g id="HETZNER" transform="matrix(0.71228,-0.411235,3.95395e-17,0.82247,30.7745,109.641)">
        <path d="M174.05,14.12C175.701,13.835 177.257,13.148 178.58,12.12C179.8,10.843 180.413,9.1 180.26,7.34C180.265,5.907 179.87,4.501 179.12,3.28C178.014,1.394 176.024,0.192 173.84,0.09L172.75,0.09L170.2,0L158.66,0C157.96,0 157.66,0.29 157.66,1L157.66,21.22C157.66,21.92 157.95,22.22 158.66,22.22L161.66,22.22C162.36,22.22 162.66,21.93 162.66,21.22L162.66,14.52L166.33,14.52C167.137,14.562 167.904,14.884 168.5,15.43L174.32,21.28C174.85,21.822 175.563,22.15 176.32,22.2L180.79,22.2C181.49,22.2 181.66,21.79 181.17,21.29L174.05,14.12ZM173.29,9.82L162.64,9.82L162.64,4.72L173.29,4.72C174.366,4.852 175.178,5.786 175.16,6.87L175.16,7.66C175.179,8.746 174.368,9.683 173.29,9.82Z" style="fill:rgb(213,12,45);fill-rule:nonzero;"/>
        <path d="M153,17.52L136.47,17.52L136.47,13.35L149.66,13.35C150.36,13.35 150.66,13.06 150.66,12.35L150.66,9.92C150.66,9.22 150.37,8.92 149.66,8.92L136.46,8.92L136.46,4.76L153,4.76C153.7,4.76 154,4.47 154,3.76L154,1C154,0.3 153.71,0 153,0L132.38,0C131.68,0 131.38,0.29 131.38,1L131.38,21.24C131.38,21.94 131.67,22.24 132.38,22.24L153,22.24C153.7,22.24 154,21.95 154,21.24L154,18.51C154,17.81 153.67,17.52 153,17.52Z" style="fill:rgb(213,12,45);fill-rule:nonzero;"/>
        <path d="M127.73,7.3C127.752,5.885 127.359,4.494 126.6,3.3C125.486,1.367 123.467,0.124 121.24,0L106.08,0C105.37,0 105.08,0.29 105.08,1L105.08,21.22C105.08,21.92 105.37,22.22 106.08,22.22L109.34,22.22C110.04,22.22 110.34,21.94 110.34,21.22L110.34,4.73L119.12,4.73C120.99,4.73 122.81,5.97 122.81,7.84L122.81,21.24C122.81,21.94 123.1,22.24 123.81,22.24L126.76,22.24C127.47,22.24 127.76,21.95 127.76,21.24L127.73,7.3Z" style="fill:rgb(213,12,45);fill-rule:nonzero;"/>
        <path d="M100.47,17.39L86.22,17.39L100.5,4.84C101.079,4.397 101.443,3.727 101.5,3L101.5,1C101.5,0.3 101.2,0 100.5,0L79.83,0C79.13,0 78.83,0.29 78.83,1L78.83,3.77C78.83,4.47 79.12,4.77 79.83,4.77L93.08,4.77L79.79,17.24C79.216,17.687 78.853,18.355 78.79,19.08L78.79,21.25C78.79,21.95 79.08,22.25 79.79,22.25L100.44,22.25C101.14,22.25 101.44,21.96 101.44,21.25L101.44,18.38C101.46,17.68 101.17,17.39 100.47,17.39Z" style="fill:rgb(213,12,45);fill-rule:nonzero;"/>
        <path d="M74.19,0L53.55,0C52.84,0 52.55,0.28 52.55,1L52.55,3.76C52.55,4.46 52.83,4.76 53.55,4.76L61.33,4.76L61.33,21.24C61.33,21.94 61.62,22.24 62.33,22.24L65.63,22.24C66.33,22.24 66.63,21.95 66.63,21.24L66.63,4.75L74.2,4.75C74.9,4.75 75.2,4.46 75.2,3.75L75.2,1C75.18,0.32 74.89,0 74.19,0Z" style="fill:rgb(213,12,45);fill-rule:nonzero;"/>
        <path d="M47.91,17.52L31.41,17.52L31.41,13.35L44.6,13.35C45.3,13.35 45.6,13.06 45.6,12.35L45.6,9.92C45.6,9.22 45.32,8.92 44.6,8.92L31.41,8.92L31.41,4.76L47.91,4.76C48.61,4.76 48.91,4.47 48.91,3.76L48.91,1C48.91,0.3 48.62,0 47.91,0L27.33,0C26.63,0 26.33,0.29 26.33,1L26.33,21.24C26.33,21.94 26.62,22.24 27.33,22.24L47.91,22.24C48.61,22.24 48.91,21.95 48.91,21.24L48.91,18.51C48.9,17.81 48.61,17.52 47.91,17.52Z" style="fill:rgb(213,12,45);fill-rule:nonzero;"/>
        <path d="M21.63,0L18.52,0C17.82,0 17.52,0.29 17.52,1L17.52,8.87L5.13,8.87L5.13,1C5.13,0.3 4.84,0 4.13,0L1,0C0.29,0 0,0.29 0,1L0,21.25C0,21.96 0.29,22.25 1,22.25L4.13,22.25C4.83,22.25 5.13,21.97 5.13,21.25L5.13,13.25L17.53,13.25L17.53,21.25C17.53,21.95 17.82,22.25 18.53,22.25L21.64,22.25C22.34,22.25 22.64,21.96 22.64,21.25L22.64,1C22.62,0.32 22.33,0 21.63,0Z" style="fill:rgb(213,12,45);fill-rule:nonzero;"/>
    </g>
</svg>
