<?xml version="1.0" encoding="UTF-8" standalone="no"?>
<!-- Created with Inkscape (http://www.inkscape.org/) -->

<svg
   xmlns:dc="http://purl.org/dc/elements/1.1/"
   xmlns:cc="http://creativecommons.org/ns#"
   xmlns:rdf="http://www.w3.org/1999/02/22-rdf-syntax-ns#"
   xmlns:svg="http://www.w3.org/2000/svg"
   xmlns="http://www.w3.org/2000/svg"
   xmlns:sodipodi="http://sodipodi.sourceforge.net/DTD/sodipodi-0.dtd"
   xmlns:inkscape="http://www.inkscape.org/namespaces/inkscape"
   width="58.669209mm"
   height="51.906536mm"
   viewBox="0 0 58.669209 51.906536"
   version="1.1"
   id="svg8"
   inkscape:version="0.92.4 (5da689c313, 2019-01-14)"
   sodipodi:docname="hetzner_side.svg">
  <defs
     id="defs2" />
  <sodipodi:namedview
     id="base"
     pagecolor="#ffffff"
     bordercolor="#666666"
     borderopacity="1.0"
     inkscape:pageopacity="0.0"
     inkscape:pageshadow="2"
     inkscape:zoom="0.35"
     inkscape:cx="-641.67127"
     inkscape:cy="185.72433"
     inkscape:document-units="mm"
     inkscape:current-layer="layer1"
     showgrid="false"
     fit-margin-top="0"
     fit-margin-left="0"
     fit-margin-right="0"
     fit-margin-bottom="0"
     inkscape:window-width="2100"
     inkscape:window-height="1234"
     inkscape:window-x="3191"
     inkscape:window-y="-9"
     inkscape:window-maximized="1" />
  <metadata
     id="metadata5">
    <rdf:RDF>
      <cc:Work
         rdf:about="">
        <dc:format>image/svg+xml</dc:format>
        <dc:type
           rdf:resource="http://purl.org/dc/dcmitype/StillImage" />
        <dc:title></dc:title>
      </cc:Work>
    </rdf:RDF>
  </metadata>
  <g
     inkscape:label="Layer 1"
     inkscape:groupmode="layer"
     id="layer1"
     transform="translate(-142.56124,-146.06636)">
    

    

    <g
   id="g4276"
   transform="matrix(0.26458333,0,0,0.26458333,-59.079097,-63.437064)">
        <g
   transform="translate(-890.883,-1196.89)"
   id="Hetzner">
            <g
   transform="matrix(-0.498715,0,0,0.498715,4935.08,-4708.43)"
   id="path208045-6-5-1-9">
                <path
   id="path4241"
   style="fill:none;fill-rule:nonzero"
   d="m 6387.16,13428.8 c -47.19,1.5 -100.63,52.1 -127.95,95.5 -2.56,-1.6 -5.08,-3.1 -7.46,-4.5 -21.82,-12.6 -52.87,16 -65.47,37.8 -8.05,14 -14.67,35.8 -12.75,53 -4.08,5.6 -7.72,11.1 -10.8,16.4 -25.19,43.7 -43.64,126 0,151.2 l 65.47,37.8 c 35.7,20.6 83.72,-13.9 113.82,-51 43.3,5.5 94.18,-35.9 125.84,-77.5 32.35,12.7 75.52,-27.7 93.54,-58.9 18.9,-32.8 32.73,-94.5 0,-113.4 -32.73,-18.9 -32.73,-18.9 -65.46,-37.8 -4.48,-2.6 -9.22,-4 -14.11,-4.4 l -63.13,-36.5 c -8.52,-4.9 -17.61,-7.3 -27,-7.7 -1.5,0 -3.02,0 -4.54,0 z"
   inkscape:connector-curvature="0" />

                <clipPath
   id="_clip1">
                    <path
   id="path4243"
   d="m 6387.16,13428.8 c -47.19,1.5 -100.63,52.1 -127.95,95.5 -2.56,-1.6 -5.08,-3.1 -7.46,-4.5 -21.82,-12.6 -52.87,16 -65.47,37.8 -8.05,14 -14.67,35.8 -12.75,53 -4.08,5.6 -7.72,11.1 -10.8,16.4 -25.19,43.7 -43.64,126 0,151.2 l 65.47,37.8 c 35.7,20.6 83.72,-13.9 113.82,-51 43.3,5.5 94.18,-35.9 125.84,-77.5 32.35,12.7 75.52,-27.7 93.54,-58.9 18.9,-32.8 32.73,-94.5 0,-113.4 -32.73,-18.9 -32.73,-18.9 -65.46,-37.8 -4.48,-2.6 -9.22,-4 -14.11,-4.4 l -63.13,-36.5 c -8.52,-4.9 -17.61,-7.3 -27,-7.7 -1.5,0 -3.02,0 -4.54,0 z"
   inkscape:connector-curvature="0"
   style="clip-rule:nonzero" />

                </clipPath>

                <g
   id="g4254"
   clip-path="url(#_clip1)">
                    <g
   id="g4252"
   transform="matrix(-2.00515,0,0,2.00515,9895.59,9441.13)">
                        <g
   transform="matrix(-0.498715,0,0,0.498715,5408.47,-4453.97)"
   id="path208045-8-9-5">
                            <path
   id="path4246"
   style="fill:#ececec;fill-rule:nonzero"
   d="m 7340.92,12918.6 c -48.25,-1.8 -104.29,50.7 -132.5,95.4 -2.55,-1.5 -5.08,-3 -7.45,-4.4 -21.82,-12.6 -52.87,16 -65.47,37.8 -8.04,13.9 -14.67,35.7 -12.75,53 -4.08,5.5 -7.72,11.1 -10.8,16.4 -25.2,43.6 -43.64,126 0,151.2 l 65.46,37.8 c 35.7,20.6 83.73,-13.9 113.82,-51 43.3,5.5 94.2,-36 125.85,-77.6 32.35,12.7 75.52,-27.7 93.54,-58.9 18.9,-32.7 32.73,-94.5 0,-113.4 -32.73,-18.8 -32.74,-18.8 -65.47,-37.7 -4.48,-2.6 -9.21,-4 -14.1,-4.5 l -63.14,-36.4 c -8.52,-5 -17.6,-7.4 -26.99,-7.7 z"
   inkscape:connector-curvature="0" />

                        </g>

                        <g
   transform="matrix(-0.498715,0,0,0.498715,5408.47,-4453.97)"
   id="path208155-2-4-6">
                            <path
   id="path4249"
   style="fill:#f9f9f9;fill-rule:nonzero"
   d="m 7406.38,12956.4 c -50.68,-1.9 -110.08,56.1 -136.66,102.1 -0.94,1.7 -1.84,3.5 -2.77,5.2 -1.52,-8.4 -5.29,-15.4 -12.3,-19.4 -21.82,-12.6 -52.86,16 -65.46,37.8 -10.49,18.2 -18.63,49.8 -8.44,67.1 -1.14,1.8 -2.32,3.6 -3.34,5.4 -25.2,43.6 -43.64,126 0,151.2 35.7,20.6 83.73,-13.9 113.82,-51 43.3,5.5 94.2,-36 125.85,-77.6 32.35,12.7 75.52,-27.7 93.54,-58.9 18.9,-32.7 32.73,-94.5 0,-113.4 -14.21,-8.2 -31.03,-4.7 -47.06,4.5 -4.17,-19.5 -13.56,-35.7 -30.18,-45.3 -8.53,-5 -17.61,-7.4 -27,-7.7 z"
   inkscape:connector-curvature="0" />

                        </g>

                    </g>

                </g>

            </g>

            <g
   id="g4273"
   transform="matrix(0.672285,0.388144,0,0.776288,1033.77,1144.4)">
                <g
   id="g4259"
   transform="translate(979.031,611.873)">
                    <circle
   id="circle4257"
   style="fill:#d62d2c"
   r="66.900002"
   cy="70.900002"
   cx="70.900002" />

                </g>

                <g
   id="g4263"
   transform="translate(979.031,611.873)">
                    <path
   id="path4261"
   style="fill:#ededed;fill-rule:nonzero"
   d="M 70.8,141.7 C 31.8,141.7 0,109.9 0,70.8 0,31.7 31.8,0 70.8,0 c 39,0 70.9,31.8 70.9,70.9 0,39.1 -31.8,70.8 -70.9,70.8 z M 70.8,8 C 36.2,8 8,36.2 8,70.8 c 0,34.6 28.2,62.8 62.8,62.8 34.6,0 62.8,-28.2 62.8,-62.8 C 133.6,36.2 105.5,8 70.8,8 Z"
   inkscape:connector-curvature="0" />

                </g>

                <g
   id="g4267"
   transform="translate(979.031,611.873)">
                    <path
   id="path4265"
   style="fill:#ffffff;fill-rule:nonzero"
   d="m 83.6,42.1 -2.4,0.5 c -0.5,-0.7 -0.9,-1.5 -1.5,-2.2 l 1.4,-2.1 c 0.6,-1 0.4,-2.2 -0.6,-2.7 L 77,33.3 c -1,-0.6 -2.2,-0.4 -2.7,0.6 L 72.8,36 C 72,35.7 71.1,35.6 70.2,35.5 L 69.7,33.1 C 69.5,32 68.4,31.3 67.3,31.6 l -4.1,0.9 c -1.1,0.2 -1.8,1.3 -1.5,2.4 l 0.5,2.4 c -0.7,0.5 -1.5,0.9 -2.2,1.5 l -2,-1.3 c -1,-0.6 -2.2,-0.4 -2.7,0.6 L 53,41.5 c -0.6,1 -0.4,2.2 0.6,2.7 l 2.1,1.4 c -0.3,0.8 -0.4,1.7 -0.5,2.6 l -2.4,0.5 C 51.6,49 51,50 51.2,51.1 l 0.9,4.1 c 0.2,1.1 1.3,1.8 2.4,1.5 l 2.4,-0.5 c 0.5,0.7 0.9,1.5 1.5,2.2 L 57,60.5 c -0.6,1 -0.4,2.2 0.6,2.7 l 3.5,2.3 c 1,0.6 2.2,0.4 2.7,-0.6 l 1.4,-2.1 c 0.8,0.3 1.7,0.4 2.6,0.5 l 0.5,2.4 c 0.2,1.1 1.3,1.8 2.4,1.5 l 4.1,-0.9 c 1.1,-0.2 1.8,-1.3 1.5,-2.4 L 75.8,61.5 C 76.5,61 77.3,60.6 78,60 l 2.1,1.4 c 1,0.6 2.2,0.4 2.7,-0.6 l 2.3,-3.5 c 0.6,-1 0.4,-2.2 -0.6,-2.7 l -2.1,-1.4 c 0.3,-0.8 0.4,-1.7 0.5,-2.6 l 2.4,-0.5 c 1.1,-0.2 1.8,-1.3 1.5,-2.4 l -0.9,-4.1 c -0.2,-1 -1.2,-1.8 -2.3,-1.5 z M 70.9,57.8 c -4.6,1 -9.2,-1.9 -10.2,-6.5 -1,-4.6 1.9,-9.2 6.5,-10.2 4.6,-1 9.2,1.9 10.2,6.5 1,4.6 -1.9,9.2 -6.5,10.2 z M 51.5,74.2 50.6,72.8 c 0.3,-0.4 0.7,-0.9 1,-1.4 l 1.6,0.4 c 0.7,0.2 1.4,-0.3 1.5,-1 l 0.6,-2.6 c 0.2,-0.7 -0.3,-1.4 -1,-1.5 l -1.6,-0.4 c 0,-0.6 -0.1,-1.1 -0.3,-1.7 l 1.4,-0.9 c 0.6,-0.4 0.8,-1.2 0.4,-1.8 L 52.7,59.6 C 52.3,59 51.5,58.8 50.9,59.2 l -1.4,0.9 c -0.4,-0.3 -0.9,-0.7 -1.4,-1 l 0.4,-1.6 c 0.2,-0.7 -0.3,-1.4 -1,-1.5 L 45,55.6 c -0.7,-0.2 -1.4,0.3 -1.5,1 l -0.4,1.6 c -0.6,0 -1.1,0.1 -1.7,0.3 L 40.5,57 c -0.4,-0.6 -1.2,-0.8 -1.8,-0.4 l -2.3,1.5 c -0.6,0.4 -0.8,1.2 -0.4,1.8 l 0.9,1.4 c -0.3,0.4 -0.7,0.9 -1,1.4 l -1.6,-0.4 c -0.7,-0.2 -1.4,0.3 -1.5,1 l -0.6,2.6 c -0.2,0.7 0.3,1.4 1,1.5 l 1.6,0.4 c 0,0.6 0.1,1.1 0.3,1.7 l -1.4,0.9 c -0.6,0.4 -0.8,1.2 -0.4,1.8 l 1.5,2.3 c 0.4,0.6 1.2,0.8 1.8,0.4 L 38,74 c 0.4,0.3 0.9,0.7 1.4,1 L 39,76.4 c -0.2,0.7 0.3,1.4 1,1.5 l 2.6,0.6 c 0.7,0.2 1.4,-0.3 1.5,-1 l 0.4,-1.6 c 0.6,0 1.1,-0.1 1.7,-0.3 l 0.9,1.4 c 0.4,0.6 1.2,0.8 1.8,0.4 l 2.3,-1.5 c 0.4,-0.2 0.7,-1.1 0.3,-1.7 z M 39.1,70 c -1.6,-2.6 -0.9,-6 1.7,-7.6 2.6,-1.6 6,-0.9 7.6,1.7 1.6,2.6 0.9,6 -1.7,7.6 -2.5,1.7 -5.9,0.9 -7.6,-1.7 z m 65.1,1.5 -0.9,-1.4 c 0.3,-0.4 0.7,-0.9 1,-1.4 l 1.6,0.4 c 0.7,0.2 1.4,-0.3 1.5,-1 l 0.6,-2.6 c 0.2,-0.7 -0.3,-1.4 -1,-1.5 l -1.6,-0.4 c 0,-0.6 -0.1,-1.1 -0.3,-1.7 l 1.4,-0.9 c 0.6,-0.4 0.8,-1.2 0.4,-1.8 l -1.5,-2.3 c -0.4,-0.6 -1.2,-0.8 -1.8,-0.4 l -1.4,0.9 c -0.4,-0.3 -0.9,-0.7 -1.4,-1 l 0.4,-1.6 c 0.2,-0.7 -0.3,-1.4 -1,-1.5 l -2.6,-0.6 c -0.7,-0.2 -1.4,0.3 -1.5,1 l -0.4,1.6 c -0.6,0 -1.1,0.1 -1.7,0.3 L 93.1,54.2 C 92.7,53.6 91.9,53.4 91.3,53.8 L 89,55.3 c -0.6,0.4 -0.8,1.2 -0.4,1.8 l 0.9,1.4 c -0.3,0.4 -0.7,0.9 -1,1.4 l -1.6,-0.4 c -0.7,-0.2 -1.4,0.3 -1.5,1 L 85,63.1 c -0.2,0.7 0.3,1.4 1,1.5 l 1.6,0.4 c 0,0.6 0.1,1.1 0.3,1.7 l -1.4,0.9 c -0.6,0.4 -0.8,1.2 -0.4,1.8 l 1.5,2.3 c 0.4,0.6 1.2,0.8 1.8,0.4 l 1.4,-0.9 c 0.4,0.3 0.9,0.7 1.4,1 l -0.4,1.6 c -0.2,0.7 0.3,1.4 1,1.5 l 2.6,0.6 c 0.7,0.2 1.4,-0.3 1.5,-1 l 0.4,-1.6 c 0.6,0 1.1,-0.1 1.7,-0.3 l 0.9,1.4 c 0.4,0.6 1.2,0.8 1.8,0.4 l 2.3,-1.5 c 0.4,-0.4 0.6,-1.2 0.2,-1.8 z M 91.8,67.3 c -1.6,-2.6 -0.9,-6 1.7,-7.6 2.6,-1.6 6,-0.9 7.6,1.7 1.6,2.6 0.9,6 -1.7,7.6 -2.5,1.6 -6,0.8 -7.6,-1.7 z m 22.8,-13.8 c -1.1,-2.7 -2.8,-5.2 -4.9,-7.3 -4.3,-4.4 -10.1,-6.8 -16.2,-6.8 -1.3,-3 -3.2,-5.7 -5.6,-8.1 C 83.1,26.5 76.7,23.7 70,23.5 h -1.1 c -7.2,0 -13.9,2.8 -19,7.8 -1.1,1.1 -2.1,2.3 -3,3.5 l -0.1,0.1 c -0.1,0.1 -0.1,0.2 -0.2,0.3 -0.1,0.1 -0.1,0.2 -0.2,0.3 0,0 0,0.1 -0.1,0.1 -2.6,3.9 -4.1,8.5 -4.3,13.3 -4.4,0.2 -8.5,2.1 -11.6,5.2 -3.4,3.4 -5.2,7.9 -5.2,12.7 0,4.8 1.9,9.3 5.2,12.7 3.4,3.4 7.9,5.2 12.7,5.2 h 51.3 c 2.9,0 5.8,-0.6 8.5,-1.8 2.6,-1.1 4.9,-2.8 7,-4.8 4.2,-4.3 6.5,-9.9 6.5,-15.9 0,-3 -0.6,-5.9 -1.8,-8.7 z M 95.9,50.3 c 0,-2.3 -0.3,-4.6 -0.8,-6.7 9.7,0.8 17.3,9 17.3,18.7 0,10.1 -8.3,18.4 -17.8,18.4 H 43.3 c -7.7,0 -13.8,-6.1 -13.8,-13.8 0,-7.7 6.1,-13.8 13.8,-13.8 1.2,0 2.1,0 3.4,0.3 -0.3,-0.9 -0.3,-2.1 -0.3,-3.1 0,-4.7 1.4,-9.1 3.9,-12.7 4.1,-6 11,-10 18.9,-10 h 1 c 9.7,0.4 18.1,7 20.8,16.3 0.6,2.1 0.9,4.2 0.9,6.5 h 4 z"
   inkscape:connector-curvature="0" />

                </g>

                <g
   id="g4271"
   transform="translate(979.031,611.873)">
                    <path
   id="path4269"
   style="fill:#ffffff;fill-rule:nonzero"
   d="m 45.5,101.9 2.1,2.2 c -1.3,1.5 -3.3,2.8 -6,2.8 -4.3,0 -7.6,-3.1 -7.6,-7.6 0,-4.3 3.4,-7.6 7.7,-7.6 3,0 4.7,1.3 6,2.8 l -2,2.3 c -1.1,-1.3 -2.5,-1.9 -3.9,-1.9 -2.3,0 -4.5,1.6 -4.5,4.5 0,2.8 2,4.5 4.2,4.5 1.6,-0.1 3,-0.7 4,-2 z M 50.1,92 h 3.3 v 11.8 h 6.3 v 2.9 H 50.2 V 92 Z m 10.5,7.3 c 0,-4.3 3.4,-7.6 7.7,-7.6 4.3,0 7.7,3.3 7.7,7.6 0,4.3 -3.4,7.6 -7.7,7.6 -4.3,0 -7.7,-3.3 -7.7,-7.6 z m 3.4,0 c 0,2.6 1.9,4.7 4.3,4.7 2.5,0 4.4,-2.1 4.4,-4.7 0,-2.6 -1.9,-4.7 -4.4,-4.7 -2.4,0 -4.3,2.1 -4.3,4.7 z m 23.8,0.8 V 92 h 3.3 v 8.2 c 0,4.4 -2.8,6.6 -6.3,6.6 -3.5,0 -6.3,-2.2 -6.3,-6.6 V 92 h 3.3 v 8.1 c 0,2.4 1.2,3.8 3,3.8 1.9,0 3,-1.4 3,-3.8 z m 11.8,6.6 h -5 V 92 h 5.2 c 5.3,0 8.1,2.7 8.1,7.3 0,4.3 -2.4,7.4 -8.3,7.4 z m 0.1,-11.8 h -1.8 v 8.9 h 2.1 c 3,0 4.7,-1.5 4.7,-4.5 -0.1,-2.7 -1.6,-4.4 -5,-4.4 z"
   inkscape:connector-curvature="0" />

                </g>

            </g>

        </g>

    </g>

</g>
</svg>
