<?xml version="1.0" encoding="UTF-8" standalone="no"?>
<svg
   xmlns:serif="http://www.serif.com/"
   xmlns:dc="http://purl.org/dc/elements/1.1/"
   xmlns:cc="http://creativecommons.org/ns#"
   xmlns:rdf="http://www.w3.org/1999/02/22-rdf-syntax-ns#"
   xmlns:svg="http://www.w3.org/2000/svg"
   xmlns="http://www.w3.org/2000/svg"
   xmlns:sodipodi="http://sodipodi.sourceforge.net/DTD/sodipodi-0.dtd"
   xmlns:inkscape="http://www.inkscape.org/namespaces/inkscape"
   width="60.373081mm"
   height="64.084564mm"
   viewBox="0 0 60.373081 64.084564"
   version="1.1"
   id="svg8"
   inkscape:version="1.0.1 (3bc2e813f5, 2020-09-07)"
   sodipodi:docname="ibm_side.svg">
  <defs
     id="defs2" />
  <sodipodi:namedview
     id="base"
     pagecolor="#ffffff"
     bordercolor="#666666"
     borderopacity="1.0"
     inkscape:pageopacity="0.0"
     inkscape:pageshadow="2"
     inkscape:zoom="0.35"
     inkscape:cx="408.50577"
     inkscape:cy="219.42737"
     inkscape:document-units="mm"
     inkscape:current-layer="layer1"
     inkscape:document-rotation="0"
     showgrid="false"
     fit-margin-top="0"
     fit-margin-left="0"
     fit-margin-right="0"
     fit-margin-bottom="0"
     inkscape:window-width="1816"
     inkscape:window-height="1208"
     inkscape:window-x="2610"
     inkscape:window-y="107"
     inkscape:window-maximized="0" />
  <metadata
     id="metadata5">
    <rdf:RDF>
      <cc:Work
         rdf:about="">
        <dc:format>image/svg+xml</dc:format>
        <dc:type
           rdf:resource="http://purl.org/dc/dcmitype/StillImage" />
        <dc:title></dc:title>
      </cc:Work>
    </rdf:RDF>
  </metadata>
  <g
     inkscape:label="Calque 1"
     inkscape:groupmode="layer"
     id="layer1"
     transform="translate(2.2504849,-90.109842)">
    

    

    

    

    

    

    

    

    

    

    

    

    

    

    <g
   transform="matrix(0.26458333,0,0,0.26458333,-15.029784,-48.446399)"
   id="g2943">
        <g
   id="Cloud-IBM--side-"
   serif:id="Cloud IBM (side)"
   transform="translate(-1598.25,-1465.03)">
            <g
   transform="matrix(0.866025,-0.5,1,0.57735,1338.44,1456.69)"
   id="g2454">
                <path
   d="m -450,738.622 c 0,-1.547 -1.1,-2.5 -2.887,-2.5 -7.347,0 -26.983,0 -38.453,0 -1.786,0 -3.987,0.953 -5.773,2.5 -1.787,1.547 -2.887,3.453 -2.887,5 0,30.546 0,144.831 0,163.205 0,1.547 1.1,2.5 2.887,2.5 7.347,0 26.983,0 38.453,0 1.786,0 3.987,-0.953 5.773,-2.5 1.787,-1.547 2.887,-3.453 2.887,-5 0,-30.547 0,-144.832 0,-163.205 z"
   style="fill-opacity:0.2"
   id="path2452" />

            </g>

            <g
   id="path208045-8-9-5"
   transform="matrix(-0.498715,0,0,0.498715,5408.47,-4453.97)">
                <path
   d="m 7340.92,12918.6 c -48.25,-1.8 -104.29,50.7 -132.5,95.4 -2.55,-1.5 -5.08,-3 -7.45,-4.4 -21.82,-12.6 -52.87,16 -65.47,37.8 -8.04,13.9 -14.67,35.7 -12.75,53 -4.08,5.5 -7.72,11.1 -10.8,16.4 -25.2,43.6 -43.64,126 0,151.2 l 65.46,37.8 c 35.7,20.6 83.73,-13.9 113.82,-51 43.3,5.5 94.2,-36 125.85,-77.6 32.35,12.7 75.52,-27.7 93.54,-58.9 18.9,-32.7 32.73,-94.5 0,-113.4 -32.73,-18.8 -32.74,-18.8 -65.47,-37.7 -4.48,-2.6 -9.21,-4 -14.1,-4.5 l -63.14,-36.4 c -8.52,-5 -17.6,-7.4 -26.99,-7.7 z"
   style="fill:#ececec;fill-rule:nonzero"
   id="path2456" />

            </g>

            <g
   id="path208155-2-4-6"
   transform="matrix(-0.498715,0,0,0.498715,5408.47,-4453.97)">
                <path
   d="m 7406.38,12956.4 c -50.68,-1.9 -110.08,56.1 -136.66,102.1 -0.94,1.7 -1.84,3.5 -2.77,5.2 -1.52,-8.4 -5.29,-15.4 -12.3,-19.4 -21.82,-12.6 -52.86,16 -65.46,37.8 -10.49,18.2 -18.63,49.8 -8.44,67.1 -1.14,1.8 -2.32,3.6 -3.34,5.4 -25.2,43.6 -43.64,126 0,151.2 35.7,20.6 83.73,-13.9 113.82,-51 43.3,5.5 94.2,-36 125.85,-77.6 32.35,12.7 75.52,-27.7 93.54,-58.9 18.9,-32.7 32.73,-94.5 0,-113.4 -14.21,-8.2 -31.03,-4.7 -47.06,4.5 -4.17,-19.5 -13.56,-35.7 -30.18,-45.3 -8.53,-5 -17.61,-7.4 -27,-7.7 z"
   style="fill:#f9f9f9;fill-rule:nonzero"
   id="path2459" />

            </g>

            <g
   transform="matrix(0.570709,0.329499,0,0.658998,1685.83,1841.79)"
   id="g2464">
                <path
   d="m 96.4,265.8 c 0,-3.7 0,-7.4 -0.1,-11.2 0,-1.7 1,-2.6 2.2,-3.5 h 1.5 c 1.7,1 2.2,2.4 2.2,4.3 -0.1,4.5 0,9 0,13.5 0,0.9 0.2,1.9 -0.5,2.7 -1.5,-1.7 -0.5,-3.7 -0.8,-5.5 -0.1,-2.4 0,-4.9 0.5,-7.3 -0.1,1.8 -0.4,2 -3.6,0.9 -0.2,1.3 0.1,2.6 -0.1,3.9 -0.2,0.8 0.2,2 -1.3,2.2 z"
   style="fill:#33d9dd;fill-rule:nonzero"
   id="path2462" />

            </g>

            <g
   transform="matrix(0.570709,0.329499,0,0.658998,1685.83,1841.79)"
   id="g2468">
                <path
   d="m 51.3,389.8 c -11.8,-1.3 -20.4,-7.3 -26.1,-17.6 0.2,-1.7 1.4,-0.8 2,-0.6 1.5,0.6 2.9,1.4 4.2,2.3 -0.1,-0.6 -1.2,-1.4 0.1,-1.9 4.9,6.2 11,10.4 18.8,12 1,0.8 2.2,-0.1 3.2,0.5 -0.1,1.3 -1.2,0.9 -2,1.1 0.1,-0.1 0.3,0 0.4,0.1 3.4,3.1 7.6,3.1 11.8,2.9 0.6,0 1.2,0 1.8,0.3 0.3,0.1 0.5,0.4 0.6,0.6 0,0.3 -0.3,0.6 -0.6,0.6 -4.6,-0.2 -9.4,0.1 -14.2,-0.3 z"
   style="fill:#0062fe;fill-rule:nonzero"
   id="path2466" />

            </g>

            <g
   transform="matrix(0.570709,0.329499,0,0.658998,1685.83,1841.79)"
   id="g2472">
                <path
   d="m 41.8,306.6 c -0.8,0 -1.7,-0.3 -2.3,-0.8 L 27,298.6 c -1.8,-1.1 -3.2,-2.5 -1.9,-4.6 1.2,-2.2 3,-1.6 4.7,-0.6 4.3,2.5 8.6,4.9 12.9,7.4 1.4,0.8 2.3,2 1.8,3.7 -0.2,1.3 -1.4,2.2 -2.7,2.1 z"
   style="fill:#0c9eef;fill-rule:nonzero"
   id="path2470" />

            </g>

            <g
   transform="matrix(0.570709,0.329499,0,0.658998,1685.83,1841.79)"
   id="g2476">
                <path
   d="m 53.5,384.6 c -1,-0.3 -2.2,0.4 -3.1,-0.6 12.5,0.5 25,0.1 37.5,0.3 0.9,0 1.9,0.1 2.8,0.2 1.6,0.8 3.3,0.1 4.9,0.4 0.7,0.2 1.4,0.6 2,1.2 2.3,1.9 4.9,3.1 8,2.5 0.9,0.1 1.9,-0.1 2.4,1 -0.6,0.9 -1.6,0.5 -2.4,0.5 H 94.5 c -0.8,-0.2 -1.5,-0.3 -2.3,-0.2 -3.9,0.4 -7.4,-0.1 -10.3,-3.1 -0.9,-0.9 -2.1,-0.7 -3.2,-0.8 -8,-0.6 -16,-0.5 -24,-0.6 -0.4,-0.2 -0.9,-0.5 -1.2,-0.8 z"
   style="fill:#0676fc;fill-rule:nonzero"
   id="path2474" />

            </g>

            <g
   transform="matrix(0.570709,0.329499,0,0.658998,1685.83,1841.79)"
   id="g2480">
                <path
   d="m 95.9,385 c -1.7,-0.3 -3.6,0.7 -5.2,-0.6 6.8,-0.2 13.6,-0.2 20.4,0 1.9,0.7 3.9,0.3 5.9,0.3 1.2,-0.1 2.4,0.3 3.4,1.1 1.9,1.9 4.6,2.9 7.3,2.7 0.7,-0.1 2.4,-0.6 2,1.4 -6.5,0 -13,0.2 -19.5,-0.2 -0.8,0.1 -1.6,-0.1 -2.2,-0.5 h -2.6 c -3,-1.8 -5.9,-3.8 -9.5,-4.2 z"
   style="fill:#0080f9;fill-rule:nonzero"
   id="path2478" />

            </g>

            <g
   transform="matrix(0.570709,0.329499,0,0.658998,1685.83,1841.79)"
   id="g2484">
                <path
   d="m 64.1,270.4 c 1.4,2.3 2.8,4.6 4.1,6.9 1,1.7 0.9,3.5 -0.9,4.5 -1.8,1 -3.3,0.1 -4.3,-1.6 -2,-3.6 -4,-7.1 -6,-10.7 0.5,-2.1 1.9,-1.2 2.9,-0.8 1.5,0.6 2.9,1.2 4.2,1.7 z"
   style="fill:#20bce6;fill-rule:nonzero"
   id="path2482" />

            </g>

            <g
   transform="matrix(0.570709,0.329499,0,0.658998,1685.83,1841.79)"
   id="g2488">
                <path
   d="m 135.7,384.5 c 5.5,-0.1 11,-1.1 16.1,-3.1 2.8,0.1 4.7,1.6 4.8,3.6 -3.4,2.3 -7.4,3.8 -11.5,4.4 -0.1,-0.2 -0.1,-0.5 0.1,-0.7 0.3,-0.2 0.6,-0.2 1.5,-0.2 -1.3,0 -2.5,-0.6 -3.3,-1.5 -1.3,-1.4 -3.3,-2 -5.2,-1.5 -0.9,0.2 -2.2,0.7 -2.5,-1 z"
   style="fill:#0290f3;fill-rule:nonzero"
   id="path2486" />

            </g>

            <g
   transform="matrix(0.570709,0.329499,0,0.658998,1685.83,1841.79)"
   id="g2492">
                <path
   d="m 129.9,389.7 c -0.6,-0.5 -1.4,-0.7 -2.2,-0.4 -2.8,0.5 -5.7,-0.5 -7.6,-2.6 -1.5,-1.6 -3.2,-1.6 -5.1,-1.6 -1.3,0 -2.8,0.6 -3.9,-0.5 4.4,-0.2 8.7,-0.2 13.1,0 0.2,0.3 0.5,0.4 0.9,0.3 3.7,-0.4 7.1,0.1 9.9,3 1,1.1 2.6,0.6 4,0.7 1.1,0.1 2.5,-0.5 3,1.2 l -1.4,0.1 c -3.6,0.3 -7.1,0.3 -10.7,-0.2 z"
   style="fill:#0185f7;fill-rule:nonzero"
   id="path2490" />

            </g>

            <g
   transform="matrix(0.570709,0.329499,0,0.658998,1685.83,1841.79)"
   id="g2496">
                <path
   d="m 142,389.7 c -0.6,-0.5 -1.4,-0.7 -2.2,-0.5 -2.9,0.4 -5.4,-0.2 -7.4,-2.5 -1.5,-1.7 -3.4,-1.9 -5.6,-1.7 -0.9,0.1 -1.9,0.4 -2.6,-0.6 3.8,-0.2 7.7,-0.2 11.5,0 0.3,0.6 1,0.8 1.6,0.5 3.5,-1.5 5.6,0.6 8.1,2.5 1.5,1.1 0.2,1.3 -0.2,1.8 -1,0.6 -2.1,0.7 -3.2,0.5 z"
   style="fill:#018af5;fill-rule:nonzero"
   id="path2494" />

            </g>

            <g
   transform="matrix(0.570709,0.329499,0,0.658998,1685.83,1841.79)"
   id="g2500">
                <path
   d="m 171.2,298.6 -7.3,4.2 c -3.2,-0.4 -4.4,-1.3 -4.9,-3.7 2.5,-1.8 5.2,-3.3 8,-4.6 2,0.6 3.6,2.1 4.2,4.1 z"
   style="fill:#2fd5dd;fill-rule:nonzero"
   id="path2498" />

            </g>

            <g
   transform="matrix(0.570709,0.329499,0,0.658998,1685.83,1841.79)"
   id="g2504">
                <path
   d="m 31.6,372 c -0.7,1.4 1.1,1.7 1.2,3.3 -1.6,-0.9 -3,-1.7 -4.4,-2.4 -1,-0.5 -1.9,-1.6 -3.2,-0.6 -1.4,-2.4 -2.8,-4.7 -3.1,-7.5 -0.7,-2.1 0.5,-2.1 1.7,-1.3 1.3,0.8 2.5,1.5 4,1.2 0.5,2.8 2.8,4.7 3.8,7.3 z"
   style="fill:#0166fe;fill-rule:nonzero"
   id="path2502" />

            </g>

            <g
   transform="matrix(0.570709,0.329499,0,0.658998,1685.83,1841.79)"
   id="g2508">
                <path
   d="m 156.6,385 c -0.7,-2.4 -3.3,-2.3 -4.8,-3.6 l 8.3,-5.2 c 1.3,1.3 3.7,1.7 3.8,4.2 -2.2,1.8 -4.4,3.7 -7.3,4.6 z"
   style="fill:#0797f1;fill-rule:nonzero"
   id="path2506" />

            </g>

            <g
   transform="matrix(0.570709,0.329499,0,0.658998,1685.83,1841.79)"
   id="g2512">
                <path
   d="m 167,330.8 -3.1,-4.2 c 0.3,-2.5 2.2,-3.2 4.2,-3.8 2.6,2.8 4.7,6 6.2,9.4 -0.7,1.5 -1.8,0.9 -2.8,0.5 -1.5,-0.6 -3,-1.4 -4.5,-1.9 z"
   style="fill:#24c3e4;fill-rule:nonzero"
   id="path2510" />

            </g>

            <g
   transform="matrix(0.570709,0.329499,0,0.658998,1685.83,1841.79)"
   id="g2516">
                <path
   d="m 27.9,364.6 c -1.5,1.9 -2.6,0.4 -3.9,-0.5 -0.8,-0.6 -1.9,-1.7 -1.9,0.5 -0.8,-2.1 -1.2,-4.4 -1.1,-6.7 -0.3,-2.8 -0.2,-2.9 3.5,-2.9 1.5,0 2.1,0.8 2,2.3 -0.2,0.9 -0.1,1.7 0.2,2.5 z"
   style="fill:#016afe;fill-rule:nonzero"
   id="path2514" />

            </g>

            <g
   transform="matrix(0.570709,0.329499,0,0.658998,1685.83,1841.79)"
   id="g2520">
                <path
   d="m 129.9,389.7 10.7,0.1 c -1.2,0.4 -2.4,0.5 -3.6,0.3 H 55.2 c -1.3,0 -2.6,0.2 -3.9,-0.3 l 14.8,-0.1 c 1.6,-1.1 3.3,-0.6 5,-0.6 2,-0.1 4,0 6,-0.1 5.8,-0.3 11.4,0.7 17.2,0.7 3.9,0 7.9,0 11.8,0.1 0.7,0 1.4,0.1 1.9,-0.5 7.3,0.4 14.6,0.6 21.9,0.4 z"
   style="fill:#067cfa;fill-rule:nonzero"
   id="path2518" />

            </g>

            <g
   transform="matrix(0.570709,0.329499,0,0.658998,1685.83,1841.79)"
   id="g2524">
                <path
   d="m 177.1,358 c -0.3,2.3 -0.7,4.6 -2.2,6.6 -2,-0.3 -4.1,-0.2 -4.9,-2.7 1.2,-3.5 2,-7.2 2.3,-10.9 0.9,0 1,0.7 1,1.2 -0.1,2.2 1.1,3.5 3,4.2 0.6,0.1 0.9,0.7 0.8,1.2 0.1,0.2 0.1,0.3 0,0.4 z"
   style="fill:#17adeb;fill-rule:nonzero"
   id="path2522" />

            </g>

            <g
   transform="matrix(0.570709,0.329499,0,0.658998,1685.83,1841.79)"
   id="g2528">
                <path
   d="m 156,313.4 c 4.3,1.8 8.2,4.7 11.1,8.3 0.5,2.2 -1.6,2.3 -2.7,3.2 -0.8,0.6 -1.5,-0.5 -2,-1.1 -2.2,-2.6 -4.3,-5.4 -6.6,-8 -1.2,-1.5 -1.1,-1.9 0.2,-2.4 z"
   style="fill:#28c7e3;fill-rule:nonzero"
   id="path2526" />

            </g>

            <g
   transform="matrix(0.570709,0.329499,0,0.658998,1685.83,1841.79)"
   id="g2532">
                <path
   d="m 64.1,270.4 c -1.5,1 -2.6,-0.2 -3.7,-0.9 -1.1,-0.7 -2.1,-1.2 -3.2,0 -0.7,-1 -1.3,-2 -1.9,-3.1 -0.7,-1.4 -0.2,-3.1 1.2,-3.8 1.6,-0.9 2.9,-0.3 3.8,1 1.4,2.3 2.5,4.6 3.8,6.8 z"
   style="fill:#24c1e5;fill-rule:nonzero"
   id="path2530" />

            </g>

            <g
   transform="matrix(0.570709,0.329499,0,0.658998,1685.83,1841.79)"
   id="g2536">
                <path
   d="m 135.6,268.3 c 0.9,-1.6 1.7,-3.2 2.7,-4.7 0.9,-1.3 2.3,-2 3.8,-1 1.4,0.7 1.9,2.4 1.2,3.8 0,0.1 -0.1,0.2 -0.2,0.3 -0.9,1.5 -1.7,3 -2.6,4.4 -2.2,0 -3.7,-1.1 -4.9,-2.8 z"
   style="fill:#36e3da;fill-rule:nonzero"
   id="path2534" />

            </g>

            <g
   transform="matrix(0.570709,0.329499,0,0.658998,1685.83,1841.79)"
   id="g2540">
                <path
   d="m 135.6,268.3 4.9,2.8 c -1.2,2.1 -2.1,4.4 -3.6,6.3 -2.1,0.2 -4,-0.9 -4.9,-2.8 z"
   style="fill:#32dcdc;fill-rule:nonzero"
   id="path2538" />

            </g>

            <g
   transform="matrix(0.570709,0.329499,0,0.658998,1685.83,1841.79)"
   id="g2544">
                <path
   d="m 96.4,265.8 c 1.3,-2.3 0,-4.9 0.8,-7.5 1.2,0.3 1.9,1.8 3.1,1.5 1.6,-0.3 0.4,-2 1.4,-3.3 v 9.2 c -0.2,0.3 -0.3,0.6 -0.3,1 -0.2,2.1 -0.7,2.4 -2.6,1.6 -0.4,-0.2 -0.6,-0.6 -1.1,-0.6 -0.3,1.4 0.4,3 -0.8,4.2 -1.2,-1.9 -0.4,-4 -0.5,-6.1 z"
   style="fill:#2dd3de;fill-rule:nonzero"
   id="path2542" />

            </g>

            <g
   transform="matrix(0.570709,0.329499,0,0.658998,1685.83,1841.79)"
   id="g2548">
                <path
   d="m 159,299.1 c 1,2.1 3,2.8 4.9,3.7 -1.7,1.1 -3.5,2.2 -5.3,3.2 -1.6,0.8 -3.2,1.1 -4.3,-0.9 -0.9,-1.7 -0.3,-3.2 1.2,-4.3 1.2,-0.6 2.4,-1.1 3.5,-1.7 z"
   style="fill:#2ed0e0;fill-rule:nonzero"
   id="path2546" />

            </g>

            <g
   transform="matrix(0.570709,0.329499,0,0.658998,1685.83,1841.79)"
   id="g2552">
                <path
   d="m 163.9,380.3 c -0.6,-2 -3.4,-2 -3.8,-4.2 l 4.9,-5.2 c 1.3,1.4 3.3,2 4.3,3.7 -1.5,2.2 -3.3,4.1 -5.4,5.7 z"
   style="fill:#0c9eef;fill-rule:nonzero"
   id="path2550" />

            </g>

            <g
   transform="matrix(0.570709,0.329499,0,0.658998,1685.83,1841.79)"
   id="g2556">
                <path
   d="m 175.9,336.4 c 2.3,6 2.8,12.6 1.7,19 -1.2,-1.1 -0.8,-2.6 -0.9,-3.9 0,-1.8 0.1,-3.7 0,-5.5 -0.5,-1.7 -2.2,-2 -3.4,-2.7 -0.7,0.7 -0.2,1.8 -1.1,2.3 l -1.5,-6.9 c -0.6,-1.5 -0.1,-2 1.3,-1.4 1.4,0.6 2.8,0.4 3.9,-0.9 z"
   style="fill:#21bce6;fill-rule:nonzero"
   id="path2554" />

            </g>

            <g
   transform="matrix(0.570709,0.329499,0,0.658998,1685.83,1841.79)"
   id="g2560">
                <path
   d="m 175.9,336.4 c -0.4,2.1 -1.5,2.6 -3.4,1.5 -0.3,-0.2 -2,-1.6 -1.8,0.6 -1.2,-2.6 -2.5,-5.2 -3.7,-7.8 1.7,-0.6 2.8,0.6 4.2,1.2 1,0.4 2,1.2 3.1,0.3 0.8,1.3 1.3,2.7 1.6,4.2 z"
   style="fill:#22bfe5;fill-rule:nonzero"
   id="path2558" />

            </g>

            <g
   transform="matrix(0.570709,0.329499,0,0.658998,1685.83,1841.79)"
   id="g2564">
                <path
   d="m 177.5,344.8 c 0,3.5 0.1,7.1 0.1,10.6 0.1,0.9 -0.1,1.8 -0.5,2.6 0,-0.2 0,-0.5 -0.1,-0.5 -3.2,-1 -4.5,-3.3 -4.6,-6.5 v -0.6 c 0.3,-1.7 0.3,-3.7 3,-2.4 0.9,0.4 0.8,-0.6 0.9,-1.2 0.3,-0.6 -0.2,-1.8 1.2,-2 z"
   style="fill:#1cb4e8;fill-rule:nonzero"
   id="path2562" />

            </g>

            <g
   transform="matrix(0.570709,0.329499,0,0.658998,1685.83,1841.79)"
   id="g2568">
                <path
   d="m 58.7,302.2 c 3.7,-4.7 8.3,-8.6 13.6,-11.4 1.3,-0.5 1.5,0.1 1,1.1 -0.6,0.9 -1.2,1.7 -2,2.3 -2.2,2.2 -4.6,4.2 -7.1,6 -1.1,1 -2.4,1.8 -3.7,2.5 -0.9,0.6 -0.9,0.5 -1.8,-0.5 z"
   style="fill:#24b1ec;fill-rule:nonzero"
   id="path2566" />

            </g>

            <g
   transform="matrix(0.570709,0.329499,0,0.658998,1685.83,1841.79)"
   id="g2572">
                <path
   d="m 131.9,274.6 c 1.5,1.2 3.1,2.2 4.9,2.8 -0.6,1.1 -1.1,2.3 -1.8,3.4 -0.9,1.4 -2.3,2 -3.8,1.1 -1.5,-0.9 -2.2,-2.2 -1.2,-4 0.6,-1.1 1.3,-2.2 1.9,-3.3 z"
   style="fill:#32d7dd;fill-rule:nonzero"
   id="path2570" />

            </g>

            <g
   transform="matrix(0.570709,0.329499,0,0.658998,1685.83,1841.79)"
   id="g2576">
                <path
   d="m 156,313.4 c -1.3,0.9 -0.2,1.4 0.3,1.9 2,2.4 4,4.7 6,7.1 2.2,2.6 3.2,2.5 4.8,-0.8 0.5,0.2 0.9,0.6 1,1.1 -1.4,1.2 -3.3,2 -4.2,3.8 l -5.7,-5.2 c -1.6,-3.1 -4.1,-5.5 -6.1,-8.2 -0.7,-0.9 -1.5,-1.7 0.6,-1.4 0.9,1 2.5,0.4 3.3,1.7 z"
   style="fill:#31c8e4;fill-rule:nonzero"
   id="path2574" />

            </g>

            <g
   transform="matrix(0.570709,0.329499,0,0.658998,1685.83,1841.79)"
   id="g2580">
                <path
   d="m 169.2,374.7 c -1.5,-1.1 -3.9,-1.3 -4.3,-3.7 l 3,-4.8 c 1.7,1 3.1,2.4 4.4,3.9 -0.9,1.5 -1.5,3.3 -3.1,4.6 z"
   style="fill:#10a3ee;fill-rule:nonzero"
   id="path2578" />

            </g>

            <g
   transform="matrix(0.570709,0.329499,0,0.658998,1685.83,1841.79)"
   id="g2584">
                <path
   d="m 80.1,287.2 c 1.5,-0.8 3.1,-1.3 4.7,-1.6 1.4,-0.3 1.7,0.3 0.7,1.2 -2.3,2.1 -4.4,4.4 -6.3,6.8 l -6.3,3.6 c -1.4,-1 -0.2,-1.7 0.3,-2.4 1.6,-1.9 3.3,-3.6 5.1,-5.2 0.7,-0.7 1.9,-1.1 1.8,-2.4 z"
   style="fill:#35bdea;fill-rule:nonzero"
   id="path2582" />

            </g>

            <g
   transform="matrix(0.570709,0.329499,0,0.658998,1685.83,1841.79)"
   id="g2588">
                <path
   d="m 172.4,370 c -1.9,-0.7 -3.5,-2.1 -4.4,-3.9 0.7,-1.4 1.4,-2.8 2.1,-4.2 1.2,1.6 3.2,1.7 4.9,2.7 -0.8,1.9 -1.1,4 -2.6,5.4 z"
   style="fill:#14a7ed;fill-rule:nonzero"
   id="path2586" />

            </g>

            <g
   transform="matrix(0.570709,0.329499,0,0.658998,1685.83,1841.79)"
   id="g2592">
                <path
   d="m 21.1,352.4 c 0,-2.1 0.4,-4.2 1.1,-6.1 2.1,1.7 3.7,4 4.4,6.6 0.5,1.7 -0.1,2.9 -2.2,2.5 h -0.8 c -2.9,0.1 -2.9,0.1 -2.5,-3 z"
   style="fill:#0677fd;fill-rule:nonzero"
   id="path2590" />

            </g>

            <g
   transform="matrix(0.570709,0.329499,0,0.658998,1685.83,1841.79)"
   id="g2596">
                <path
   d="m 64.2,304.5 -3.8,4.7 c -2.9,1.1 -4.6,3.9 -7.3,5.3 -0.5,0.3 -0.9,0.9 -1.5,0.9 -1,0.1 -1,-0.4 -0.6,-1.1 0.1,-0.8 0.5,-1.6 1,-2.1 2.7,-2.6 5.6,-5.1 8.6,-7.3 0.8,-0.5 1.4,-1.3 2.4,-1.3 0.6,0.1 1,0.4 1.2,0.9 z"
   style="fill:#39aff1;fill-rule:nonzero"
   id="path2594" />

            </g>

            <g
   transform="matrix(0.570709,0.329499,0,0.658998,1685.83,1841.79)"
   id="g2600">
                <path
   d="m 177.5,344.8 c -0.6,0.5 -0.5,1.3 -0.5,1.9 0,2.1 0.1,3.6 -2.7,1.7 -2,-1.3 -0.9,1.6 -1.9,2 l -0.2,-5 c 0.2,-3.6 0.3,-3.7 3.5,-1.7 0.6,0.4 1.5,0.4 1.8,1.1 z"
   style="fill:#1eb7e7;fill-rule:nonzero"
   id="path2598" />

            </g>

            <g
   transform="matrix(0.570709,0.329499,0,0.658998,1685.83,1841.79)"
   id="g2604">
                <path
   d="m 86.5,290.9 c -0.4,0.4 -1,0.5 -1.6,0.4 -1.3,-0.4 -1.3,-1.1 -0.6,-2 0.4,-0.5 0.8,-0.9 1.2,-1.3 0.8,-0.9 1.7,-1.7 2.7,-2.3 0.4,0.1 0,-0.5 0,-0.2 0,0.1 -0.1,0.1 -0.2,0.1 -0.4,0 -0.9,-0.2 -1.1,-0.5 2,-0.8 4.1,-1.1 6.2,-1.1 0.6,-0.2 1.2,-0.5 1.7,0.1 0.3,0.3 0,0.7 -0.3,0.9 -2.5,2.1 -4.7,4.8 -8,5.9 z"
   style="fill:#46c8e9;fill-rule:nonzero"
   id="path2602" />

            </g>

            <g
   transform="matrix(0.570709,0.329499,0,0.658998,1685.83,1841.79)"
   id="g2608">
                <path
   d="M 64.2,304.5 63,304 c -0.4,-0.7 -0.1,-1.4 0.1,-2.2 0.3,-0.6 0.7,-1 1.2,-1.4 2.3,-1.6 4.4,-3.4 6.6,-5.2 0.8,-0.3 1.7,-0.8 2.5,-0.1 -0.3,0.7 -1.2,1.2 -0.5,2.1 -3,2.2 -6,4.7 -8.7,7.3 z"
   style="fill:#33b4ed;fill-rule:nonzero"
   id="path2606" />

            </g>

            <g
   transform="matrix(0.570709,0.329499,0,0.658998,1685.83,1841.79)"
   id="g2612">
                <path
   d="m 86.9,285.1 h 2.3 c -1.5,1.6 -2.8,3 -4.2,4.3 -0.7,0.7 -1.2,1.2 -0.2,2 l -5.7,2.2 c 1,-3.2 3.6,-5.1 5.9,-7.2 0.9,-0.8 0.1,-0.6 -0.3,-0.8 0.7,-0.5 1.5,-0.6 2.2,-0.5 z"
   style="fill:#3cc2e9;fill-rule:nonzero"
   id="path2610" />

            </g>

            <g
   transform="matrix(0.570709,0.329499,0,0.658998,1685.83,1841.79)"
   id="g2616">
                <path
   d="m 128.4,292.5 c 1.5,0.4 2.8,1.3 3.7,2.6 -0.7,2 -2.6,3.3 -4.7,3.1 l -4.2,-2.6 c 1.7,-1 3.2,-2.4 5.2,-3.1 z"
   style="fill:#e1f7fa;fill-rule:nonzero"
   id="path2614" />

            </g>

            <g
   transform="matrix(0.570709,0.329499,0,0.658998,1685.83,1841.79)"
   id="g2620">
                <path
   d="m 171.2,298.6 -4.2,-4.1 c 0.7,-0.4 1.3,-0.8 2,-1.2 1.7,-1.2 3.3,-1.2 4.5,0.7 1.1,1.9 0.3,3.2 -1.3,4.2 -0.3,0.1 -0.6,0.3 -1,0.4 z"
   style="fill:#34dbdc;fill-rule:nonzero"
   id="path2618" />

            </g>

            <g
   transform="matrix(0.570709,0.329499,0,0.658998,1685.83,1841.79)"
   id="g2624">
                <path
   d="m 97,272 v -5.5 c 2,1.4 4,3.1 4.7,-0.7 0,2 0,3.9 0.1,5.9 -1.6,2.1 -2.9,2.2 -4.8,0.3 z"
   style="fill:#2bcfe0;fill-rule:nonzero"
   id="path2622" />

            </g>

            <g
   transform="matrix(0.570709,0.329499,0,0.658998,1685.83,1841.79)"
   id="g2628">
                <path
   d="m 50.9,314.4 c 0.1,0.6 0.3,1.1 0.9,0.5 1.9,-1.9 4.5,-2.9 6.1,-5.1 0.6,-0.9 1.4,-1.3 2.4,-0.5 l -2.6,4.2 c -2,0.7 -3.3,2.2 -4.7,3.6 -0.8,0.8 -1.7,1.5 -2.6,2.1 -0.5,0.3 -1.2,0.6 -1.1,-0.6 0.2,-1.7 0.8,-3 1.6,-4.2 z"
   style="fill:#40aff2;fill-rule:nonzero"
   id="path2626" />

            </g>

            <g
   transform="matrix(0.570709,0.329499,0,0.658998,1685.83,1841.79)"
   id="g2632">
                <path
   d="m 53,348.9 c 1.3,3.5 0.8,4.8 -2.5,6.4 -0.6,0.3 -1,0.2 -1.2,-0.3 -0.6,-0.8 -1,-1.9 -1,-2.9 1.2,-2.8 2.4,-3.6 4.7,-3.2 z"
   style="fill:#e5f1fe;fill-rule:nonzero"
   id="path2630" />

            </g>

            <g
   transform="matrix(0.570709,0.329499,0,0.658998,1685.83,1841.79)"
   id="g2636">
                <path
   d="m 152.6,311.7 c -0.3,0.2 -1.2,-0.1 -0.4,0.8 1.8,2 3.6,4.1 5.2,6.3 0.5,0.7 1.5,1.4 0.7,2.5 l -4.2,-2.6 c -1.2,-2.4 -3.4,-4.2 -4.7,-6.5 -0.4,-0.7 -1.5,-2 0.7,-1.5 1,0.1 2,0.4 2.7,1 z"
   style="fill:#3dcbe6;fill-rule:nonzero"
   id="path2634" />

            </g>

            <g
   transform="matrix(0.570709,0.329499,0,0.658998,1685.83,1841.79)"
   id="g2640">
                <path
   d="m 86.5,290.9 8.2,-6.7 -1.5,-0.2 c 1.6,-0.8 3.2,-0.4 4.8,-0.4 0.2,0.4 0.1,0.9 -0.3,1.2 -2.1,1.6 -3.4,4.1 -6,5 z"
   style="fill:#4fccea;fill-rule:nonzero"
   id="path2638" />

            </g>

            <g
   transform="matrix(0.570709,0.329499,0,0.658998,1685.83,1841.79)"
   id="g2644">
                <path
   d="m 91.8,289.8 6.3,-6.2 h 3.7 c 0.6,0.9 0.1,1.5 -0.5,2 -1.9,1.5 -3.5,3.7 -6.3,3.8 -1.1,0.6 -2.2,0.3 -3.2,0.4 z"
   style="fill:#59d0ea;fill-rule:nonzero"
   id="path2642" />

            </g>

            <g
   transform="matrix(0.570709,0.329499,0,0.658998,1685.83,1841.79)"
   id="g2648">
                <path
   d="m 47.3,348.4 -0.5,-2.6 c 0.4,-1.3 1.5,-1.9 2.4,-2.6 1.2,-0.7 1.8,-2 1.6,-3.3 v -3.7 c 0.2,-1.1 -0.4,-2.5 1.2,-3 v 10 c 0.5,3.1 -0.7,5 -3.4,5.8 -0.5,0.1 -1.1,-0.1 -1.3,-0.6 z"
   style="fill:#d1e8fd;fill-rule:nonzero"
   id="path2646" />

            </g>

            <g
   transform="matrix(0.570709,0.329499,0,0.658998,1685.83,1841.79)"
   id="g2652">
                <path
   d="m 130.9,309.6 c 3.6,-1.6 7.4,-1.2 11.1,-0.5 -0.1,0.2 -0.4,0.4 -0.6,0.5 -0.5,0.2 -1.1,0.2 -1.6,0.2 h -2.7 c -0.6,-0.1 -1.2,0 -1.5,-0.5 0.8,2 2.9,3.1 3.8,5.1 h -3.1 c -2.6,-0.5 -4.6,-2.3 -5.4,-4.8 z"
   style="fill:#79d8ee;fill-rule:nonzero"
   id="path2650" />

            </g>

            <g
   transform="matrix(0.570709,0.329499,0,0.658998,1685.83,1841.79)"
   id="g2656">
                <path
   d="m 49.3,318.4 c 1.9,0.3 2.5,-1.5 3.7,-2.4 1.1,-0.9 2.1,-1.8 3.1,-2.8 0.6,-0.6 1.1,-0.1 1.7,0.1 l -2.1,4.2 c -2.2,1.2 -4.2,2.6 -6.1,4.2 -0.8,0.6 -1.6,1.3 -1.2,-0.6 -0.1,-0.9 0.2,-1.9 0.9,-2.7 z"
   style="fill:#47aff4;fill-rule:nonzero"
   id="path2654" />

            </g>

            <g
   transform="matrix(0.570709,0.329499,0,0.658998,1685.83,1841.79)"
   id="g2660">
                <path
   d="m 64.6,300.8 -1,1 c -1.9,3 -5,4.6 -7.8,6.6 -0.7,0.5 -1.7,0.6 -1.1,-0.9 1.1,-2 2.5,-3.8 4.1,-5.4 0.9,1.3 1.5,-0.1 2.1,-0.4 1.1,-0.6 2.2,-1.4 3.2,-2.1 0.3,0.4 0.5,0.8 0.5,1.2 z"
   style="fill:#2aadef;fill-rule:nonzero"
   id="path2658" />

            </g>

            <g
   transform="matrix(0.570709,0.329499,0,0.658998,1685.83,1841.79)"
   id="g2664">
                <path
   d="m 128.4,292.5 c -1.5,1.4 -2.9,3.1 -5.2,3.1 l -2.6,-1.6 c 1.2,-1.6 2.9,-2.9 4.7,-3.6 1.3,0.1 2.1,1.2 3.1,2.1 z"
   style="fill:#d8f4f9;fill-rule:nonzero"
   id="path2662" />

            </g>

            <g
   transform="matrix(0.570709,0.329499,0,0.658998,1685.83,1841.79)"
   id="g2668">
                <path
   d="m 54.6,307.6 c 0.1,0.7 0.3,0.9 0.9,0.4 2.6,-2.1 5.3,-4.1 8,-6.1 0,0.7 -0.1,1.5 -0.5,2.1 -3.5,2.5 -6.9,5.2 -10,8.1 -0.3,0.3 -0.6,0.7 -1,0.1 0.3,-1.8 1.6,-3.1 2.6,-4.6 z"
   style="fill:#30adf0;fill-rule:nonzero"
   id="path2666" />

            </g>

            <g
   transform="matrix(0.570709,0.329499,0,0.658998,1685.83,1841.79)"
   id="g2672">
                <path
   d="m 24.8,355.2 c 2.5,-0.3 1.7,-1.8 1,-3.1 -1.2,-1.9 -2.7,-3.7 -3.6,-5.8 0,-0.6 0.1,-1.1 0.5,-1.6 2,0.6 4,3.5 4.2,5.8 l -0.1,9.3 c -0.9,-0.8 -0.5,-1.7 -0.5,-2.7 0,-1.1 -0.5,-1.6 -1.6,-1.5 -0.2,-0.1 -0.2,-0.2 -0.2,-0.3 0.2,0 0.2,-0.1 0.3,-0.1 z"
   style="fill:#1e86fd;fill-rule:nonzero"
   id="path2670" />

            </g>

            <g
   transform="matrix(0.570709,0.329499,0,0.658998,1685.83,1841.79)"
   id="g2676">
                <path
   d="m 51.4,336.4 v 2.1 c -1.6,1.4 -2.6,3.5 -5.2,3.2 -0.8,-3.4 -0.8,-7 0,-10.5 l 0.3,0.2 c 0.2,0.5 0.4,1 0.3,1.5 v 3.4 c 0,0.5 0,1.1 0.1,1.6 1.6,-0.4 2.6,-2.7 4.5,-1.5 z"
   style="fill:#aed6fc;fill-rule:nonzero"
   id="path2674" />

            </g>

            <g
   transform="matrix(0.570709,0.329499,0,0.658998,1685.83,1841.79)"
   id="g2680">
                <path
   d="m 47.3,348.4 c 2.8,-0.1 4.7,-2.2 4.7,-5.2 0.9,1.8 0.4,3.9 1,5.8 -2.3,-0.1 -3.2,1.9 -4.7,3.2 -0.6,-1.2 -1,-2.5 -1,-3.8 z"
   style="fill:#d9ebfe;fill-rule:nonzero"
   id="path2678" />

            </g>

            <g
   transform="matrix(0.570709,0.329499,0,0.658998,1685.83,1841.79)"
   id="g2684">
                <path
   d="m 48.3,321.2 c 0.1,0.3 0,1.1 0.6,0.3 1.4,-1.7 3.6,-2.3 5,-4.1 0.5,-0.6 1.1,-0.2 1.6,0.1 -0.1,0.8 -0.4,1.5 -0.9,2.1 -1.5,2.2 -4.1,3.1 -6,4.9 -0.2,0.2 -0.6,0.5 -0.9,0.2 -0.6,-0.5 -0.3,-1.1 -0.1,-1.7 0.1,-0.6 0.3,-1.3 0.7,-1.8 z"
   style="fill:#52b2f5;fill-rule:nonzero"
   id="path2682" />

            </g>

            <g
   transform="matrix(0.570709,0.329499,0,0.658998,1685.83,1841.79)"
   id="g2688">
                <path
   d="M 103.2,289.3 98,289.2 c 0,-1 0.8,-0.9 1.4,-1.1 h 1.6 c 3,0.5 4.5,-2 6.8,-3.4 0.2,0 -0.1,-0.2 -0.2,-0.1 -0.7,0.4 -1.3,0.5 -1.3,-0.6 2.1,-0.4 3.7,1.4 5.7,1.1 -2.5,2.3 -4.7,5.3 -8.8,4.2 z"
   style="fill:#7fdced;fill-rule:nonzero"
   id="path2686" />

            </g>

            <g
   transform="matrix(0.570709,0.329499,0,0.658998,1685.83,1841.79)"
   id="g2692">
                <path
   d="m 51.4,336.4 c -2.1,0 -3.3,1.8 -5.2,3.1 v -3.1 c 0.7,-1.4 2,-2.1 3.1,-3 0.9,-0.6 1.5,-1.4 1.7,-2.5 0.2,-0.5 0.4,-1 1,-0.8 0,1 0,2.1 -0.1,3.1 -0.8,1 -0.3,2.1 -0.5,3.2 z"
   style="fill:#98ccfb;fill-rule:nonzero"
   id="path2690" />

            </g>

            <g
   transform="matrix(0.570709,0.329499,0,0.658998,1685.83,1841.79)"
   id="g2696">
                <path
   d="m 139.9,309.2 h 1.6 c 1.9,0.6 3.5,1.9 4.5,3.6 0.6,0.9 1.1,1.8 0.1,2.8 l -2.6,-0.6 c -0.6,-0.6 -1.5,-0.1 -2.1,-0.5 0.4,-0.6 0.3,-1.4 -0.1,-2 -0.6,-1 -1.9,-1.8 -1.4,-3.3 z"
   style="fill:#63d3eb;fill-rule:nonzero"
   id="path2694" />

            </g>

            <g
   transform="matrix(0.570709,0.329499,0,0.658998,1685.83,1841.79)"
   id="g2700">
                <path
   d="m 149.9,310.7 c -1,0.1 -0.9,0.5 -0.3,1.1 1.3,1.6 2.5,3.3 3.9,4.9 0.5,0.6 1.1,1.2 0.5,2 l -3.1,-1.6 c -0.7,-2.2 -2.6,-3.6 -4.1,-5.2 -0.4,-0.5 -0.9,-1 -0.5,-1.6 0.4,-0.6 1.1,-0.4 1.6,-0.1 0.7,-0.1 1.4,0.1 2,0.5 z"
   style="fill:#4acee7;fill-rule:nonzero"
   id="path2698" />

            </g>

            <g
   transform="matrix(0.570709,0.329499,0,0.658998,1685.83,1841.79)"
   id="g2704">
                <path
   d="m 128.9,315.5 -3.7,1 c -1.9,-0.8 -3.4,-2.3 -4.2,-4.2 1.1,-0.8 2.3,-1.4 3.7,-1.5 0.9,1.9 2.4,3.6 4.2,4.7 z"
   style="fill:#9ee0f3;fill-rule:nonzero"
   id="path2702" />

            </g>

            <g
   transform="matrix(0.570709,0.329499,0,0.658998,1685.83,1841.79)"
   id="g2708">
                <path
   d="m 73.4,295.1 -2.6,0.5 c -0.1,-0.4 0,-0.7 0.3,-1 2.2,-2.1 4.4,-4.2 6.5,-6.4 l 2.5,-1.1 c 0.8,0.2 1.5,0.3 0.4,1.2 -2.4,2.3 -4.7,4.5 -7.1,6.8 z"
   style="fill:#2dbae9;fill-rule:nonzero"
   id="path2706" />

            </g>

            <g
   transform="matrix(0.570709,0.329499,0,0.658998,1685.83,1841.79)"
   id="g2712">
                <path
   d="m 114.7,322.8 c -0.6,0.8 -1.7,1.1 -2.1,2.1 -2.2,-0.3 -3.9,-2 -4.2,-4.2 0.6,-1 1.3,-1.9 2.6,-2.1 1,1.6 2.2,3.1 3.7,4.2 z"
   style="fill:#d8f0fb;fill-rule:nonzero"
   id="path2710" />

            </g>

            <g
   transform="matrix(0.570709,0.329499,0,0.658998,1685.83,1841.79)"
   id="g2716">
                <path
   d="m 108.5,320.7 c 1.2,1.6 2.3,3.2 4.2,4.2 -0.4,1 -1.5,1.3 -2.1,2.1 -2.2,-0.5 -3.2,-2.1 -3.7,-4.2 0.1,-1 0.7,-1.8 1.6,-2.1 z"
   style="fill:#e2f4fc;fill-rule:nonzero"
   id="path2714" />

            </g>

            <g
   transform="matrix(0.570709,0.329499,0,0.658998,1685.83,1841.79)"
   id="g2720">
                <path
   d="m 99.6,288.8 c -0.6,0 -1.2,-0.1 -1.6,0.5 l -3.1,0.1 c 2.8,-1.2 5.1,-3.2 6.8,-5.8 1.4,-0.2 2.8,0 4.2,0.4 0.1,0.1 0.2,0.3 0.2,0.4 0,0.2 -0.1,0.2 -0.1,0.2 -2.7,0.7 -4.2,2.9 -6.4,4.2 z"
   style="fill:#65d4eb;fill-rule:nonzero"
   id="path2718" />

            </g>

            <g
   transform="matrix(0.570709,0.329499,0,0.658998,1685.83,1841.79)"
   id="g2724">
                <path
   d="m 130.9,309.6 c 1.9,1.5 3,3.8 5.2,4.8 h -1.5 c -2.1,0.6 -3.9,0.4 -4.9,-1.9 -0.4,-1 -1.9,-1 -1.9,-2.2 1,-0.8 2.1,-0.5 3.1,-0.7 z"
   style="fill:#84daf0;fill-rule:nonzero"
   id="path2722" />

            </g>

            <g
   transform="matrix(0.570709,0.329499,0,0.658998,1685.83,1841.79)"
   id="g2728">
                <path
   d="m 77.6,288.2 c 0.3,0.1 1.1,0.3 0.6,0.6 -2.6,1.7 -4.3,4.4 -6.8,6.2 -0.4,-0.2 -0.8,-0.5 -0.5,-1 0.7,-0.8 1.4,-1.5 2,-2.3 0.6,-0.8 0,-0.8 -0.5,-0.9 1.5,-1.1 3.3,-2 5.2,-2.6 z"
   style="fill:#28b8e9;fill-rule:nonzero"
   id="path2726" />

            </g>

            <g
   transform="matrix(0.570709,0.329499,0,0.658998,1685.83,1841.79)"
   id="g2732">
                <path
   d="m 128.9,315.5 c -2.4,-0.3 -4.2,-2.3 -4.2,-4.7 l 1.6,-0.5 c 2.1,1 3,3.3 4.7,4.7 -0.5,0.6 -1.3,0.4 -2.1,0.5 z"
   style="fill:#93ddf2;fill-rule:nonzero"
   id="path2730" />

            </g>

            <g
   transform="matrix(0.570709,0.329499,0,0.658998,1685.83,1841.79)"
   id="g2736">
                <path
   d="m 103.2,289.3 c 1.8,0.2 3.6,-0.4 4.8,-1.7 1.1,-1.1 2.7,-1.6 4.1,-2.4 0.8,0 1.5,0 1.7,1 -2,1.4 -3.5,3.9 -6.4,3.7 -1.4,-0.2 -2.9,0.3 -4.2,-0.6 z"
   style="fill:#8ce0ef;fill-rule:nonzero"
   id="path2734" />

            </g>

            <g
   transform="matrix(0.570709,0.329499,0,0.658998,1685.83,1841.79)"
   id="g2740">
                <path
   d="m 146.1,315.6 c 0.1,-3.3 -2.8,-4.5 -4.6,-6.4 l 0.6,-0.1 c 0.7,-0.1 1.5,0.2 2,0.7 2.8,1.2 4.7,3.8 5.2,6.8 -1.1,-0.2 -2.2,-0.5 -3.2,-1 z"
   style="fill:#5ad1ea;fill-rule:nonzero"
   id="path2738" />

            </g>

            <g
   transform="matrix(0.570709,0.329499,0,0.658998,1685.83,1841.79)"
   id="g2744">
                <path
   d="m 141.5,314.4 c 0.7,0.1 1.6,-0.2 2.1,0.6 -1.4,0.1 -2.8,-0.1 -4.2,-0.5 -2.1,-1.1 -3.2,-3 -4.4,-4.9 0.6,-0.5 1.2,-0.3 1.7,-0.3 1.9,1.4 4.1,2.5 4.8,5.1 z"
   style="fill:#71d6ed;fill-rule:nonzero"
   id="path2742" />

            </g>

            <g
   transform="matrix(0.570709,0.329499,0,0.658998,1685.83,1841.79)"
   id="g2748">
                <path
   d="m 119.5,319.2 c -0.3,0.6 -0.9,1 -1.6,1 -2.6,0.2 -3.2,-2 -4.2,-3.7 0.4,-0.9 1.3,-1.2 2.1,-1.5 1.8,0.9 3.3,2.1 3.7,4.2 z"
   style="fill:#bee8f8;fill-rule:nonzero"
   id="path2746" />

            </g>

            <g
   transform="matrix(0.570709,0.329499,0,0.658998,1685.83,1841.79)"
   id="g2752">
                <path
   d="m 47.7,323.1 0.2,1.3 c 2.1,-1.9 4.4,-3.5 6.8,-4.8 -0.2,1.1 -0.5,2.2 -1.1,3.1 -1.9,0.9 -3.3,2.3 -5,3.6 -0.4,0.3 -0.9,0.9 -1.3,0.5 -0.4,-0.3 -0.3,-1.1 -0.1,-1.6 -0.1,-0.7 0.1,-1.4 0.5,-2.1 z"
   style="fill:#5ab4f6;fill-rule:nonzero"
   id="path2750" />

            </g>

            <g
   transform="matrix(0.570709,0.329499,0,0.658998,1685.83,1841.79)"
   id="g2756">
                <path
   d="m 26.9,350.6 c -1.4,-2 -2.3,-4.3 -4.2,-5.8 0.1,-1 0.4,-1.9 1,-2.6 2,1.7 3.6,3.6 3.7,6.4 0.1,0.7 0,1.4 -0.5,2 z"
   style="fill:#2e8efc;fill-rule:nonzero"
   id="path2754" />

            </g>

            <g
   transform="matrix(0.570709,0.329499,0,0.658998,1685.83,1841.79)"
   id="g2760">
                <path
   d="m 53.5,323.3 c -0.1,1.3 -0.4,2.5 -1,3.6 -2.1,1.3 -3.6,3.6 -6.2,4.1 l -0.2,0.1 c 0.2,-1.1 -0.2,-2.2 0.6,-3.2 2.1,-1 3.6,-2.9 5.5,-4.1 0.5,-0.2 0.7,-0.7 1.3,-0.5 z"
   style="fill:#71bcf8;fill-rule:nonzero"
   id="path2758" />

            </g>

            <g
   transform="matrix(0.570709,0.329499,0,0.658998,1685.83,1841.79)"
   id="g2764">
                <path
   d="m 53.5,323.3 c -1.6,2.4 -4.7,3.1 -6.4,5.6 -0.3,0.4 -0.2,-0.7 -0.4,-1 -0.1,-0.9 0,-1.8 0.5,-2.6 0.4,0.1 -0.6,1.9 0.8,0.7 1.2,-1 2.5,-1.9 3.7,-2.9 0.6,-0.5 1.1,-0.8 1.9,-0.3 0,0.2 0,0.4 -0.1,0.5 z"
   style="fill:#67b9f8;fill-rule:nonzero"
   id="path2762" />

            </g>

            <g
   transform="matrix(0.570709,0.329499,0,0.658998,1685.83,1841.79)"
   id="g2768">
                <path
   d="m 125.2,290.4 c -1.3,1.5 -2.9,2.8 -4.7,3.7 -1,-0.1 -1.9,-0.5 -2.6,-1.1 1.7,-1.2 3.3,-2.7 5.2,-3.7 0.8,0.1 1.6,0.5 2.1,1.1 z"
   style="fill:#ccf1f7;fill-rule:nonzero"
   id="path2766" />

            </g>

            <g
   transform="matrix(0.570709,0.329499,0,0.658998,1685.83,1841.79)"
   id="g2772">
                <path
   d="m 113.7,316.5 c 1.7,0.9 2.3,3.1 4.2,3.7 -0.4,0.9 -1.4,1.1 -2.1,1.6 -1.9,-0.8 -3.5,-1.9 -3.7,-4.2 0.3,-0.7 0.9,-1.1 1.6,-1.1 z"
   style="fill:#c5ebf9;fill-rule:nonzero"
   id="path2770" />

            </g>

            <g
   transform="matrix(0.570709,0.329499,0,0.658998,1685.83,1841.79)"
   id="g2776">
                <path
   d="m 131,315 c -2.6,-0.5 -3.2,-3.1 -4.7,-4.7 h 1.6 c 0.9,0.6 2.3,0.6 2.6,1.9 0.6,2.4 2.4,2.4 4.2,2.3 -1.1,0.7 -2.4,0.3 -3.7,0.5 z"
   style="fill:#8bdbf0;fill-rule:nonzero"
   id="path2774" />

            </g>

            <g
   transform="matrix(0.570709,0.329499,0,0.658998,1685.83,1841.79)"
   id="g2780">
                <path
   d="m 149.3,316.5 c -1.4,-2.5 -2.9,-5 -5.2,-6.8 1.3,-0.1 2.6,-0.4 3.7,0.4 -1,0 -1.9,0 -0.7,1.3 1.2,1.1 2.3,2.3 3.3,3.6 0.4,0.7 1,1.2 0.4,2.1 z"
   style="fill:#52cfe8;fill-rule:nonzero"
   id="path2778" />

            </g>

            <g
   transform="matrix(0.570709,0.329499,0,0.658998,1685.83,1841.79)"
   id="g2784">
                <path
   d="m 51.5,340 c 0.5,1.9 -0.7,2.8 -2,3.8 -0.9,0.7 -1.8,1.3 -2.7,2 -0.4,-0.6 -0.6,-1.4 -0.5,-2.1 1.2,-2 2.6,-3.6 5.2,-3.7 z"
   style="fill:#c3e0fc;fill-rule:nonzero"
   id="path2782" />

            </g>

            <g
   transform="matrix(0.570709,0.329499,0,0.658998,1685.83,1841.79)"
   id="g2788">
                <path
   d="m 30.4,332.1 c 0.2,-0.9 1,-1.1 1.6,-1.6 1.9,1 3,3.1 2.6,5.2 -0.2,0.5 -0.6,0.9 -1.1,1 -2,-0.7 -2.5,-2.6 -3.1,-4.6 z"
   style="fill:#9ccdfc;fill-rule:nonzero"
   id="path2786" />

            </g>

            <g
   transform="matrix(0.570709,0.329499,0,0.658998,1685.83,1841.79)"
   id="g2792">
                <path
   d="m 29.6,342.8 c -0.1,0.9 -0.5,1.8 -1.1,2.6 -1.4,-2 -3.1,-3.8 -3.2,-6.4 0.1,-0.7 0.4,-1.2 0.9,-1.6 2.2,1.1 2.9,3.2 3.4,5.4 z"
   style="fill:#59a7fc;fill-rule:nonzero"
   id="path2790" />

            </g>

            <g
   transform="matrix(0.570709,0.329499,0,0.658998,1685.83,1841.79)"
   id="g2796">
                <path
   d="m 112.2,317.6 c 0.9,1.7 2.6,2.6 3.7,4.2 l -1.1,1 c -2.5,-0.3 -3.3,-2 -3.6,-4.2 z"
   style="fill:#ceedfa;fill-rule:nonzero"
   id="path2794" />

            </g>

            <g
   transform="matrix(0.570709,0.329499,0,0.658998,1685.83,1841.79)"
   id="g2800">
                <path
   d="m 121,312.3 c 1.6,1.2 3,2.6 4.2,4.2 -0.8,0.6 -1.7,0.9 -2.6,1 -1.7,-1 -2.7,-2.8 -2.7,-4.8 0.3,-0.3 0.7,-0.4 1.1,-0.4 z"
   style="fill:#a4e1f4;fill-rule:nonzero"
   id="path2798" />

            </g>

            <g
   transform="matrix(0.570709,0.329499,0,0.658998,1685.83,1841.79)"
   id="g2804">
                <path
   d="M 105.9,284.6 V 284 h 0.5 c 0.3,0.8 1.3,0.2 1.8,1 -2.2,1.5 -3.8,4.2 -7.1,3.7 -0.6,-0.9 0.1,-1.2 0.6,-1.6 1.3,-0.9 2.7,-1.8 4.2,-2.5 z"
   style="fill:#73d9ec;fill-rule:nonzero"
   id="path2802" />

            </g>

            <g
   transform="matrix(0.570709,0.329499,0,0.658998,1685.83,1841.79)"
   id="g2808">
                <path
   d="m 115.3,286.2 c 0.9,-0.2 1.8,0.2 2.1,1 -1.3,1.2 -2.9,2 -4,3.5 -0.2,0.4 -0.8,0.5 -1.2,0.3 l -0.1,-0.1 c -0.7,-0.1 -1.5,0.2 -2.1,-0.5 0.7,-2.7 3.2,-3.3 5.3,-4.2 z"
   style="fill:#9de5f1;fill-rule:nonzero"
   id="path2806" />

            </g>

            <g
   transform="matrix(0.570709,0.329499,0,0.658998,1685.83,1841.79)"
   id="g2812">
                <path
   d="m 34.7,335.8 c -0.3,-2 -1.7,-3.5 -2.6,-5.2 0.4,-0.7 0.9,-1.2 1.6,-1.5 1.8,1.1 2.8,3.1 2.6,5.2 -0.3,0.7 -0.9,1.2 -1.6,1.5 z"
   style="fill:#aed5fc;fill-rule:nonzero"
   id="path2810" />

            </g>

            <g
   transform="matrix(0.570709,0.329499,0,0.658998,1685.83,1841.79)"
   id="g2816">
                <path
   d="m 120,312.8 2.7,4.8 c -0.2,0.4 -0.6,0.6 -1,0.5 -2,-0.2 -3.1,-1.4 -3.7,-4.2 0.4,-0.6 1.2,-1 2,-1.1 z"
   style="fill:#ade4f6;fill-rule:nonzero"
   id="path2814" />

            </g>

            <g
   transform="matrix(0.570709,0.329499,0,0.658998,1685.83,1841.79)"
   id="g2820">
                <path
   d="m 117.9,313.8 c 1.5,1.2 1.5,3.7 3.7,4.2 l -2.1,1.1 -3.7,-4.2 c 0.7,-0.3 1.2,-1 2.1,-1.1 z"
   style="fill:#b4e5f6;fill-rule:nonzero"
   id="path2818" />

            </g>

            <g
   transform="matrix(0.570709,0.329499,0,0.658998,1685.83,1841.79)"
   id="g2824">
                <path
   d="m 46.3,331.1 c 2.1,-1.3 3.4,-3.8 6.2,-4.1 0.1,0.9 -0.1,1.8 -0.5,2.6 -1.3,0.4 -2.2,1.3 -3.3,2 -0.8,0.5 -1.3,1.4 -2.5,1.1 z"
   style="fill:#79bff8;fill-rule:nonzero"
   id="path2822" />

            </g>

            <g
   transform="matrix(0.570709,0.329499,0,0.658998,1685.83,1841.79)"
   id="g2828">
                <path
   d="m 25.3,339 c 0.9,2.2 2.9,3.9 3.2,6.4 -0.2,0.4 -0.3,0.8 -0.5,1.2 -1.7,-1.5 -3.2,-3.1 -3.8,-5.4 0.1,-0.9 0.5,-1.7 1.1,-2.2 z"
   style="fill:#499efb;fill-rule:nonzero"
   id="path2826" />

            </g>

            <g
   transform="matrix(0.570709,0.329499,0,0.658998,1685.83,1841.79)"
   id="g2832">
                <path
   d="m 34.2,328.5 1.6,-1.1 c 2.2,0.1 3.4,2.1 3.2,4.7 l -1.6,1.1 c -1.3,-1.4 -2.3,-3 -3.2,-4.7 z"
   style="fill:#c9e4fc;fill-rule:nonzero"
   id="path2830" />

            </g>

            <g
   transform="matrix(0.570709,0.329499,0,0.658998,1685.83,1841.79)"
   id="g2836">
                <path
   d="m 120,287.8 2.1,1 c -1.3,1.9 -2.9,3.4 -5.2,3.7 -0.6,0 -1.2,0.1 -1.6,-0.5 0.7,-2.5 3.1,-2.9 4.7,-4.2 z"
   style="fill:#b8ecf5;fill-rule:nonzero"
   id="path2834" />

            </g>

            <g
   transform="matrix(0.570709,0.329499,0,0.658998,1685.83,1841.79)"
   id="g2840">
                <path
   d="m 24.2,341 c 1.2,1.9 3.1,3.2 3.8,5.4 0.1,0.7 -0.1,1.4 -0.6,2 L 23.7,342 c 0,-0.3 0.2,-0.7 0.5,-1 z"
   style="fill:#3d97fb;fill-rule:nonzero"
   id="path2838" />

            </g>

            <g
   transform="matrix(0.570709,0.329499,0,0.658998,1685.83,1841.79)"
   id="g2844">
                <path
   d="m 38.9,332.2 c -0.8,-1.7 -1,-3.9 -3.2,-4.7 l 1.6,-1 c 2.2,0.7 3.2,2.3 3.1,4.7 z"
   style="fill:#d7ebfd;fill-rule:nonzero"
   id="path2842" />

            </g>

            <g
   transform="matrix(0.570709,0.329499,0,0.658998,1685.83,1841.79)"
   id="g2848">
                <path
   d="m 112.1,290.9 c 1.3,-0.6 1.7,-2.1 3,-2.8 0.7,-0.5 1.5,-0.8 2.3,-0.9 l 1,0.1 c -0.4,2.4 -3,2.9 -4.2,4.6 z"
   style="fill:#a7e7f2;fill-rule:nonzero"
   id="path2846" />

            </g>

            <g
   transform="matrix(0.570709,0.329499,0,0.658998,1685.83,1841.79)"
   id="g2852">
                <path
   d="m 116.8,292.5 5.2,-3.7 c 0.4,0 0.8,0.2 1,0.5 -1.4,1.7 -2.9,3.4 -5.2,3.7 -0.3,0 -0.7,-0.2 -1,-0.5 z"
   style="fill:#c1eef6;fill-rule:nonzero"
   id="path2850" />

            </g>

            <g
   transform="matrix(0.570709,0.329499,0,0.658998,1685.83,1841.79)"
   id="g2856">
                <path
   d="m 115.3,286.2 c -1.6,1.6 -3.8,2.4 -5.2,4.2 -0.9,-0.1 -1.9,0.2 -2.6,-0.5 1.6,-0.4 2.8,-1.5 4,-2.6 0.7,-0.6 1.6,-1 2.5,-1.2 z"
   style="fill:#93e2f0;fill-rule:nonzero"
   id="path2854" />

            </g>

            <g
   transform="matrix(0.570709,0.329499,0,0.658998,1685.83,1841.79)"
   id="g2860">
                <path
   d="m 31.1,340.1 c -0.1,0.4 -0.1,0.8 -0.6,0.9 -2.3,-0.6 -3,-2.6 -3.6,-4.6 0.3,-0.6 0.4,-1.2 1,-1.6 1.9,1.1 3.1,3.1 3.2,5.3 z"
   style="fill:#70b4fc;fill-rule:nonzero"
   id="path2858" />

            </g>

            <g
   transform="matrix(0.570709,0.329499,0,0.658998,1685.83,1841.79)"
   id="g2864">
                <path
   d="m 114.2,291.9 c 0.4,-2.4 3.1,-2.7 4.2,-4.6 l 1.6,0.5 c -0.9,2.1 -3.4,2.5 -4.7,4.2 z"
   style="fill:#afeaf3;fill-rule:nonzero"
   id="path2862" />

            </g>

            <g
   transform="matrix(0.570709,0.329499,0,0.658998,1685.83,1841.79)"
   id="g2868">
                <path
   d="m 46.3,332.7 3.4,-2.6 c 0.7,-0.5 1.4,-1 2.3,-0.5 v 0.5 c -0.4,0.2 -0.6,0.6 -0.5,1 -1.7,1.1 -2.8,3.3 -5.2,3.1 z"
   style="fill:#82c3f9;fill-rule:nonzero"
   id="path2866" />

            </g>

            <g
   transform="matrix(0.570709,0.329499,0,0.658998,1685.83,1841.79)"
   id="g2872">
                <path
   d="m 34.2,328.5 c 1.7,1 2.8,2.8 3.1,4.7 l -1.1,1 -2.6,-5.2 z"
   style="fill:#bbddfc;fill-rule:nonzero"
   id="path2870" />

            </g>

            <g
   transform="matrix(0.570709,0.329499,0,0.658998,1685.83,1841.79)"
   id="g2876">
                <path
   d="m 40.5,331.2 c -0.8,-1.7 -1.4,-3.6 -3.1,-4.7 0.7,-0.5 1.6,-1.7 2.2,-0.2 0.5,1.4 3.4,2.7 0.9,4.9 z"
   style="fill:#e5f2fe;fill-rule:nonzero"
   id="path2874" />

            </g>

            <g
   transform="matrix(0.570709,0.329499,0,0.658998,1685.83,1841.79)"
   id="g2880">
                <path
   d="m 51.5,340 c -2,0.9 -3.5,2.3 -5.2,3.6 0,-0.7 0,-1.4 -0.1,-2.1 2.1,-0.5 3.2,-2.7 5.2,-3.2 0.1,0.7 0.1,1.2 0.1,1.7 z"
   style="fill:#b6dafc;fill-rule:nonzero"
   id="path2878" />

            </g>

            <g
   transform="matrix(0.570709,0.329499,0,0.658998,1685.83,1841.79)"
   id="g2884">
                <path
   d="m 127.3,298.2 c 1.8,-0.6 3.4,-1.7 4.7,-3.1 0.3,0.3 0.9,0.6 0.8,0.9 -0.2,1.7 -3.9,3.2 -5.5,2.2 z"
   style="fill:#eefafc;fill-rule:nonzero"
   id="path2882" />

            </g>

            <g
   transform="matrix(0.570709,0.329499,0,0.658998,1685.83,1841.79)"
   id="g2888">
                <path
   d="m 26.9,336.4 c 1.2,1.5 2,3.3 3.6,4.6 l -0.9,1.8 -3.4,-5.4 c 0.2,-0.4 0.5,-0.7 0.7,-1 z"
   style="fill:#63acfc;fill-rule:nonzero"
   id="path2886" />

            </g>

            <g
   transform="matrix(0.570709,0.329499,0,0.658998,1685.83,1841.79)"
   id="g2892">
                <path
   d="m 31.1,340.1 -3.2,-5.3 c 0.3,-0.4 0.7,-0.7 1,-1.1 1.7,1.5 3.3,3.1 2.6,5.8 z"
   style="fill:#7abafc;fill-rule:nonzero"
   id="path2890" />

            </g>

            <g
   transform="matrix(0.570709,0.329499,0,0.658998,1685.83,1841.79)"
   id="g2896">
                <path
   d="m 30.4,332.1 3.2,4.7 -1,1.2 c -1.9,-1 -2.4,-3.1 -3.3,-4.8 z"
   style="fill:#8dc5fb;fill-rule:nonzero"
   id="path2894" />

            </g>

            <g
   transform="matrix(0.570709,0.329499,0,0.658998,1685.83,1841.79)"
   id="g2900">
                <path
   d="m 106.9,322.8 c 1.3,1.3 2.1,3.1 3.7,4.2 -1.9,1.2 -2.5,-0.7 -3.3,-1.6 -0.4,-0.6 -2.3,-1.5 -0.4,-2.6 z"
   style="fill:#f1f9fd;fill-rule:nonzero"
   id="path2898" />

            </g>

            <g
   transform="matrix(0.570709,0.329499,0,0.658998,1685.83,1841.79)"
   id="g2904">
                <path
   d="m 29.4,333.2 c 1.5,1.3 2.1,3.3 3.3,4.8 l -1.1,1.5 c 0.1,-2.4 -2.2,-3.6 -2.6,-5.8 z"
   style="fill:#86c0fb;fill-rule:nonzero"
   id="path2902" />

            </g>

            <g
   transform="matrix(0.570709,0.329499,0,0.658998,1685.83,1841.79)"
   id="g2908">
                <path
   d="m 24.8,355.2 v 0.5 c -1.6,0.2 -3.9,-0.9 -3.7,2.2 -0.5,-1.8 -0.5,-3.7 0,-5.5 -0.5,3.2 1.7,3 3.7,2.8 z"
   style="fill:#1e82fe;fill-rule:nonzero"
   id="path2906" />

            </g>

            <g
   transform="matrix(0.570709,0.329499,0,0.658998,1685.83,1841.79)"
   id="g2912">
                <path
   d="M 94.3,389.7 H 77.1 c -2.7,-0.4 -5.5,-0.1 -8.2,-0.2 -0.9,-0.1 -1.9,0.2 -2.8,-0.2 h -0.5 c -0.6,-0.6 -1.6,-0.8 -2.1,-1.4 -1.4,-1.7 -3.4,-2.1 -5.5,-2.1 -1.1,0 -2.6,0.6 -3.3,-1.1 8.7,-0.3 17.3,0.1 25.9,0.4 0.8,0 1.5,0.3 2,0.9 2.1,2.3 4.6,3.8 8,3.3 1.1,-0.2 2.5,-0.5 3.7,0.4 z"
   style="fill:#006afe;fill-rule:nonzero"
   id="path2910" />

            </g>

            <g
   transform="matrix(0.570709,0.329499,0,0.658998,1685.83,1841.79)"
   id="g2916">
                <path
   d="m 54.7,384.6 c 1.1,0.9 2.4,0.5 3.5,0.4 3.7,-0.5 5.6,1.7 7.5,4.2 -1.8,-0.1 -3.6,-0.1 -5.5,0.1 -3.8,0.7 -6.3,-1.6 -8.9,-3.7 0.6,-1 1.8,-0.1 2.3,-1 z"
   style="fill:#0167fe;fill-rule:nonzero"
   id="path2914" />

            </g>

            <g
   transform="matrix(0.570709,0.329499,0,0.658998,1685.83,1841.79)"
   id="g2920">
                <path
   d="m 66.1,389.2 c 3.6,0.3 7.3,-0.5 10.9,0.5 H 66.1 Z"
   style="fill:#0167fe;fill-rule:nonzero"
   id="path2918" />

            </g>

            <g
   transform="matrix(0.570709,0.329499,0,0.658998,1685.83,1841.79)"
   id="g2924">
                <path
   d="m 95.9,385 c 4.1,-0.8 7,1.3 9.4,4.2 -4,0.6 -7,-1.2 -9.4,-4.2 z"
   style="fill:#067cfa;fill-rule:nonzero"
   id="path2922" />

            </g>

            <g
   transform="matrix(0.570709,0.329499,0,0.658998,1685.83,1841.79)"
   id="g2928">
                <path
   d="m 70.8,294 0.5,1 -0.5,0.5 c -1.6,2.4 -4.1,3.6 -6.3,5.2 -0.4,-0.2 -0.6,-0.6 -0.5,-1 z"
   style="fill:#2ab3eb;fill-rule:nonzero"
   id="path2926" />

            </g>

            <g
   transform="matrix(0.570709,0.329499,0,0.658998,1685.83,1841.79)"
   id="g2932">
                <path
   d="m 141.5,314.4 c -1.5,-1.8 -3.5,-3.2 -4.7,-5.2 h 3.1 l 1.5,2.3 c 0.6,1 1.2,1.9 0.1,2.9 z"
   style="fill:#69d4ec;fill-rule:nonzero"
   id="path2930" />

            </g>

            <g
   transform="matrix(0.570709,0.329499,0,0.658998,1685.83,1841.79)"
   id="g2936">
                <path
   d="m 46.2,334.3 c 2,-0.6 3,-3 5.2,-3.1 0.2,2.3 -2.1,2.5 -3.1,3.8 -0.6,0.6 -1.3,1.1 -2.1,1.4 z"
   style="fill:#90c8fa;fill-rule:nonzero"
   id="path2934" />

            </g>

            <g
   transform="matrix(0.570709,0.329499,0,0.658998,1685.83,1841.79)"
   id="g2940">
                <path
   d="m 105.9,284.6 c -0.7,1.4 -2.2,1.9 -3.4,2.7 -0.6,0.4 -1.3,0.6 -1.3,1.5 h -1.6 c 1.7,-2 3,-4.5 6.3,-4.2 z"
   style="fill:#69d5eb;fill-rule:nonzero"
   id="path2938" />

            </g>

        </g>

    </g>

</g>
</svg>
