<?xml version="1.0" encoding="UTF-8" standalone="no"?>
<!DOCTYPE svg PUBLIC "-//W3C//DTD SVG 1.1//EN" "http://www.w3.org/Graphics/SVG/1.1/DTD/svg11.dtd">
<svg width="100%" height="100%" viewBox="0 0 234 243" version="1.1" xmlns="http://www.w3.org/2000/svg" xmlns:xlink="http://www.w3.org/1999/xlink" xml:space="preserve" xmlns:serif="http://www.serif.com/" style="fill-rule:evenodd;clip-rule:evenodd;stroke-linejoin:round;stroke-miterlimit:2;">
    <g transform="matrix(1,0,0,1,-822.851,-773.711)">
        <g id="Cloud-t-systems--side-" serif:id="Cloud t-systems (side)" transform="matrix(1,-2.22045e-16,0,1,-818.699,-1214.98)">
            <g transform="matrix(0.866025,-0.5,1,0.57735,1338.44,1456.69)">
                <path d="M-450,738.622C-450,737.075 -451.1,736.122 -452.887,736.122C-460.234,736.122 -479.87,736.122 -491.34,736.122C-493.126,736.122 -495.327,737.075 -497.113,738.622C-498.9,740.169 -500,742.075 -500,743.622C-500,774.168 -500,888.453 -500,906.827C-500,908.374 -498.9,909.327 -497.113,909.327C-489.766,909.327 -470.13,909.327 -458.66,909.327C-456.874,909.327 -454.673,908.374 -452.887,906.827C-451.1,905.28 -450,903.374 -450,901.827C-450,871.28 -450,756.995 -450,738.622Z" style="fill-opacity:0.2;"/>
            </g>
            <g id="path208045-8-9-5" transform="matrix(-0.498715,0,0,0.498715,5408.47,-4453.97)">
                <path d="M7340.92,12918.6C7292.67,12916.8 7236.63,12969.3 7208.42,13014C7205.87,13012.5 7203.34,13011 7200.97,13009.6C7179.15,12997 7148.1,13025.6 7135.5,13047.4C7127.46,13061.3 7120.83,13083.1 7122.75,13100.4C7118.67,13105.9 7115.03,13111.5 7111.95,13116.8C7086.75,13160.4 7068.31,13242.8 7111.95,13268L7177.41,13305.8C7213.11,13326.4 7261.14,13291.9 7291.23,13254.8C7334.53,13260.3 7385.43,13218.8 7417.08,13177.2C7449.43,13189.9 7492.6,13149.5 7510.62,13118.3C7529.52,13085.6 7543.35,13023.8 7510.62,13004.9C7477.89,12986.1 7477.88,12986.1 7445.15,12967.2C7440.67,12964.6 7435.94,12963.2 7431.05,12962.7L7367.91,12926.3C7359.39,12921.3 7350.31,12918.9 7340.92,12918.6Z" style="fill:rgb(236,236,236);fill-rule:nonzero;"/>
            </g>
            <g id="path208155-2-4-6" transform="matrix(-0.498715,0,0,0.498715,5408.47,-4453.97)">
                <path d="M7406.38,12956.4C7355.7,12954.5 7296.3,13012.5 7269.72,13058.5C7268.78,13060.2 7267.88,13062 7266.95,13063.7C7265.43,13055.3 7261.66,13048.3 7254.65,13044.3C7232.83,13031.7 7201.79,13060.3 7189.19,13082.1C7178.7,13100.3 7170.56,13131.9 7180.75,13149.2C7179.61,13151 7178.43,13152.8 7177.41,13154.6C7152.21,13198.2 7133.77,13280.6 7177.41,13305.8C7213.11,13326.4 7261.14,13291.9 7291.23,13254.8C7334.53,13260.3 7385.43,13218.8 7417.08,13177.2C7449.43,13189.9 7492.6,13149.5 7510.62,13118.3C7529.52,13085.6 7543.35,13023.8 7510.62,13004.9C7496.41,12996.7 7479.59,13000.2 7463.56,13009.4C7459.39,12989.9 7450,12973.7 7433.38,12964.1C7424.85,12959.1 7415.77,12956.7 7406.38,12956.4Z" style="fill:rgb(249,249,249);fill-rule:nonzero;"/>
            </g>
            <g transform="matrix(0.356033,0.205556,-1.97638e-17,0.411112,1668.25,2040.32)">
                <rect x="0" y="28.677" width="10.571" height="10.572" style="fill:rgb(226,0,116);fill-rule:nonzero;"/>
            </g>
            <g transform="matrix(0.356033,0.205556,-1.97638e-17,0.411112,1668.25,2040.32)">
                <rect x="38.084" y="28.677" width="10.572" height="10.572" style="fill:rgb(226,0,116);fill-rule:nonzero;"/>
            </g>
            <g transform="matrix(0.356033,0.205556,-1.97638e-17,0.411112,1668.25,2040.32)">
                <rect x="70.757" y="28.677" width="10.572" height="10.572" style="fill:rgb(226,0,116);fill-rule:nonzero;"/>
            </g>
            <g transform="matrix(0.356033,0.205556,-1.97638e-17,0.411112,1668.25,2040.32)">
                <rect x="103.43" y="28.677" width="10.571" height="10.572" style="fill:rgb(226,0,116);fill-rule:nonzero;"/>
            </g>
            <g transform="matrix(0.356033,0.205556,-1.97638e-17,0.411112,1668.25,2040.32)">
                <path d="M155.249,21.092C154.167,15.742 152.764,11.796 151.039,9.252C148.291,5.189 144.783,3.157 140.515,3.157C137.913,3.157 135.721,3.946 133.937,5.525C131.774,7.455 130.692,9.998 130.692,13.155C130.692,16.488 131.861,19.119 134.2,21.048C135.633,22.247 138.395,23.548 142.488,24.951C148.481,27.027 152.501,28.825 154.547,30.345C158.903,33.561 161.081,38.034 161.081,43.764C161.081,49.26 159.298,53.85 155.731,57.534C152.457,60.954 148.408,62.664 143.584,62.664C141.011,62.664 138.629,62.196 136.436,61.261C135.5,60.881 133.966,60.019 131.832,58.674C131.13,58.236 130.443,58.017 129.771,58.017C128.982,58.017 128.266,58.425 127.623,59.245C127.331,59.654 126.936,60.312 126.439,61.219L123.676,61.219L123.676,39.51L126.527,39.51C127.579,45.006 129.027,49.201 130.868,52.096C133.967,56.978 138.045,59.418 143.102,59.418C146.055,59.418 148.51,58.557 150.469,56.831C152.954,54.609 154.196,51.555 154.196,47.666C154.196,43.047 152.267,39.627 148.408,37.405C147.18,36.703 143.804,35.417 138.278,33.546C134.361,32.231 131.291,30.593 129.069,28.635C125.795,25.77 124.158,21.823 124.158,16.795C124.158,11.357 125.941,7.06 129.508,3.902C132.402,1.3 135.925,-0 140.076,-0C142.327,-0 144.549,0.438 146.742,1.315C147.648,1.695 149.066,2.47 150.995,3.639C151.609,3.99 152.164,4.165 152.661,4.165C153.568,4.165 154.474,3.229 155.381,1.359L157.836,1.359L157.836,21.092L155.249,21.092Z" style="fill:rgb(226,0,116);fill-rule:nonzero;"/>
            </g>
            <g transform="matrix(0.356033,0.205556,-1.97638e-17,0.411112,1668.25,2040.32)">
                <path d="M163.493,19.908L182.218,19.908L182.218,22.671L180.595,22.671C178.169,22.671 176.955,23.329 176.955,24.644C176.955,25.17 177.16,25.975 177.569,27.056L186.558,50.56L194.364,28.81C194.92,27.29 195.197,26.106 195.197,25.258C195.197,23.533 193.882,22.671 191.251,22.671L189.277,22.671L189.277,19.908L204.011,19.908L204.011,22.671L203.046,22.671C202.11,22.671 201.336,22.985 200.722,23.614C200.108,24.243 199.509,25.317 198.924,26.837L184.06,66.829C182.657,70.542 181.107,73.217 179.412,74.854C177.658,76.549 175.494,77.397 172.922,77.397C170.73,77.397 168.888,76.768 167.397,75.511C165.584,73.962 164.678,72.032 164.678,69.723C164.678,68.29 165.087,67.092 165.906,66.127C166.783,65.045 167.982,64.504 169.503,64.504C171.169,64.504 172.441,65.118 173.317,66.346C173.843,67.077 174.106,67.91 174.106,68.846C174.106,70.191 173.625,71.316 172.66,72.222C172.075,72.778 171.301,73.128 170.336,73.275C171.008,74.035 171.929,74.416 173.099,74.416C174.824,74.416 176.329,73.728 177.616,72.354C178.785,71.097 180.086,68.452 181.518,64.416L182.483,61.61L170.161,28.458C169.196,25.944 168.378,24.38 167.706,23.766C166.945,23.035 165.791,22.67 164.241,22.67L163.496,22.67L163.496,19.908L163.493,19.908Z" style="fill:rgb(226,0,116);fill-rule:nonzero;"/>
            </g>
            <g transform="matrix(0.356033,0.205556,-1.97638e-17,0.411112,1668.25,2040.32)">
                <path d="M233.523,19.908L233.523,32.976L230.804,32.976C229.342,25.404 225.849,21.619 220.324,21.619C218.336,21.619 216.728,22.218 215.501,23.417C214.214,24.645 213.571,26.15 213.571,27.934C213.571,29.98 214.463,31.603 216.246,32.802C217.123,33.386 218.717,34.059 221.025,34.819C225.996,36.398 229.328,37.816 231.024,39.072C234.297,41.557 235.935,44.817 235.935,48.85C235.935,52.944 234.517,56.291 231.681,58.893C229.284,61.056 226.2,62.137 222.428,62.137C220.294,62.137 218.321,61.757 216.508,60.997C215.486,60.588 214.126,59.857 212.43,58.805C211.992,58.541 211.641,58.41 211.378,58.41C210.793,58.41 210.223,59.346 209.667,61.217L207.124,61.217L207.124,46L209.667,46C210.69,49.713 211.802,52.432 213,54.156C215.368,57.547 218.511,59.243 222.428,59.243C224.679,59.243 226.463,58.469 227.779,56.919C229.036,55.486 229.665,53.82 229.665,51.92C229.665,49.172 228.436,47.037 225.981,45.518C224.666,44.729 222.019,43.691 218.043,42.405C214.477,41.235 211.838,39.672 210.128,37.713C208.418,35.755 207.563,33.299 207.563,30.346C207.563,26.867 208.791,24.061 211.247,21.927C213.469,19.998 216.275,19.033 219.666,19.033C222.678,19.033 225.514,19.837 228.174,21.445C228.7,21.766 229.139,21.927 229.489,21.927C230.074,21.927 230.512,21.255 230.804,19.91L233.523,19.91L233.523,19.908Z" style="fill:rgb(226,0,116);fill-rule:nonzero;"/>
            </g>
            <g transform="matrix(0.356033,0.205556,-1.97638e-17,0.411112,1668.25,2040.32)">
                <path d="M251.195,22.978L251.195,47.842C251.195,51.029 251.415,53.381 251.853,54.903C252.525,57.212 253.943,58.367 256.107,58.367C258.094,58.367 259.512,57.358 260.36,55.341C261.178,53.411 261.589,51.059 261.589,48.281L261.589,47.053L264.57,47.053L264.57,48.719C264.57,57.664 261.033,62.137 253.958,62.137C250.45,62.137 247.849,61.129 246.152,59.112C244.895,57.592 244.135,55.764 243.872,53.631C243.697,52.023 243.609,50.094 243.609,47.843L243.609,22.978L237.119,22.978L237.119,20.435C241.182,19.529 244.004,17.892 245.583,15.524C247.22,12.922 248.229,9.194 248.608,4.342L251.195,4.342L251.195,19.909L263.255,19.909L263.255,22.979L251.195,22.978Z" style="fill:rgb(226,0,116);fill-rule:nonzero;"/>
            </g>
            <g transform="matrix(0.356033,0.205556,-1.97638e-17,0.411112,1668.25,2040.32)">
                <path d="M300.222,40.256L275.665,40.256C275.694,46.044 276.293,50.326 277.463,53.104C279.1,57.022 281.906,58.981 285.882,58.981C288.981,58.981 291.569,57.752 293.644,55.297C294.785,53.951 295.924,52.096 297.065,49.727L299.74,51.131C295.969,58.702 290.882,62.488 284.479,62.488C279.773,62.488 275.914,60.88 272.903,57.664C269.161,53.659 267.29,47.871 267.29,40.299C267.29,33.341 269.161,27.773 272.903,23.592C275.855,20.289 279.407,18.637 283.558,18.637C289.727,18.637 294.361,21.736 297.459,27.933C299.125,31.237 300.046,35.344 300.222,40.256ZM291.934,37.098C291.934,33.444 291.539,30.432 290.75,28.064C289.317,23.884 287.066,21.793 283.996,21.793C280.547,21.793 278.105,24.366 276.673,29.511C276.089,31.587 275.781,34.115 275.752,37.097L291.934,37.097L291.934,37.098Z" style="fill:rgb(226,0,116);fill-rule:nonzero;"/>
            </g>
            <g transform="matrix(0.356033,0.205556,-1.97638e-17,0.411112,1668.25,2040.32)">
                <path d="M352.096,61.217L352.096,35.958C352.096,30.754 351.733,27.392 351.001,25.872C350.008,23.884 348.458,22.89 346.354,22.89C343.839,22.89 341.805,24.308 340.256,27.143C339.408,28.693 338.853,30.388 338.589,32.23C338.385,33.575 338.284,36.118 338.284,39.861L338.284,51.174C338.313,54.536 338.677,56.598 339.379,57.358C339.963,58.059 341.12,58.424 342.845,58.454L344.115,58.454L344.115,61.218L330.697,61.218L330.697,37.362C330.697,33.269 330.609,30.609 330.433,29.381C329.82,25.025 327.937,22.847 324.78,22.847C322.237,22.847 320.232,24.294 318.77,27.188C318.04,28.591 317.542,30.068 317.279,31.617C316.987,33.196 316.841,35.944 316.841,39.862L316.841,51.175C316.87,54.537 317.206,56.599 317.852,57.359C318.466,58.06 319.648,58.425 321.402,58.455L322.676,58.455L322.676,61.219L303.248,61.219L303.248,58.455L304.695,58.455C306.361,58.426 307.502,58.06 308.115,57.359C308.846,56.629 309.226,54.567 309.256,51.175L309.256,29.863C309.227,26.501 308.847,24.454 308.115,23.724C307.502,23.022 306.361,22.671 304.695,22.671L303.686,22.671L303.686,19.908L316.273,19.294L316.273,26.573C316.855,25.111 317.676,23.81 318.728,22.67C320.977,20.244 323.666,19.03 326.797,19.03C330.128,19.03 332.801,20.243 334.818,22.67C335.695,23.723 336.513,25.213 337.273,27.143C339.876,21.735 343.576,19.031 348.37,19.031C350.27,19.031 352.024,19.448 353.633,20.281C355.24,21.114 356.51,22.261 357.446,23.723C358.499,25.36 359.141,27.231 359.376,29.336C359.58,31.031 359.685,32.902 359.685,34.949L359.685,51.174C359.714,54.536 360.078,56.598 360.78,57.358C361.365,58.059 362.521,58.424 364.246,58.454L365.253,58.454L365.253,61.218L352.096,61.217Z" style="fill:rgb(226,0,116);fill-rule:nonzero;"/>
            </g>
            <g transform="matrix(0.356033,0.205556,-1.97638e-17,0.411112,1668.25,2040.32)">
                <path d="M395.863,19.908L395.863,32.976L393.144,32.976C391.682,25.404 388.187,21.619 382.662,21.619C380.674,21.619 379.066,22.218 377.838,23.417C376.552,24.645 375.909,26.15 375.909,27.934C375.909,29.98 376.803,31.603 378.586,32.802C379.463,33.386 381.054,34.059 383.363,34.819C388.333,36.398 391.666,37.816 393.361,39.072C396.635,41.557 398.273,44.817 398.273,48.85C398.273,52.944 396.857,56.291 394.021,58.893C391.624,61.056 388.538,62.137 384.766,62.137C382.632,62.137 380.661,61.757 378.848,60.997C377.826,60.588 376.464,59.857 374.768,58.805C374.33,58.541 373.979,58.41 373.716,58.41C373.131,58.41 372.563,59.346 372.007,61.217L369.464,61.217L369.464,46L372.007,46C373.03,49.713 374.142,52.432 375.34,54.156C377.708,57.547 380.849,59.243 384.766,59.243C387.017,59.243 388.8,58.469 390.117,56.919C391.374,55.486 392.005,53.82 392.005,51.92C392.005,49.172 390.776,47.037 388.321,45.518C387.006,44.729 384.357,43.691 380.382,42.405C376.816,41.235 374.176,39.672 372.468,37.713C370.755,35.755 369.904,33.299 369.904,30.346C369.904,26.867 371.132,24.061 373.588,21.927C375.81,19.998 378.616,19.033 382.007,19.033C385.019,19.033 387.855,19.837 390.515,21.445C391.041,21.766 391.48,21.927 391.83,21.927C392.415,21.927 392.853,21.255 393.145,19.91L395.863,19.91L395.863,19.908Z" style="fill:rgb(226,0,116);fill-rule:nonzero;"/>
            </g>
            <g transform="matrix(0.356033,0.205556,-1.97638e-17,0.411112,1668.25,2040.32)">
                <rect x="406.282" y="28.677" width="10.571" height="10.572" style="fill:rgb(226,0,116);fill-rule:nonzero;"/>
            </g>
            <g transform="matrix(0.356033,0.205556,-1.97638e-17,0.411112,1668.25,2040.32)">
                <path d="M29.242,4.298L29.242,49.552C29.242,52.826 29.415,54.844 29.762,55.604C30.362,57.387 32.381,58.308 35.818,58.367L38.089,58.367L38.089,61.261L11.451,61.261L11.451,58.367L13.722,58.367C16.214,58.367 17.918,57.914 18.832,57.008C19.464,56.452 19.857,55.619 20.016,54.508C20.204,53.368 20.3,51.716 20.3,49.553L20.3,4.298L18.312,4.298C15.19,4.298 12.382,5.146 9.891,6.841C6.137,9.413 3.96,14.573 3.361,22.32L0.522,22.188L1.043,1.402L48.783,1.402L49.162,22.188L46.275,22.32C45.613,17.408 44.509,13.593 42.963,10.875C41.575,8.448 39.841,6.724 37.759,5.701C35.898,4.795 33.547,4.327 30.709,4.298L29.242,4.298Z" style="fill:rgb(226,0,116);fill-rule:nonzero;"/>
            </g>
        </g>
    </g>
</svg>
