<?xml version="1.0" encoding="UTF-8" standalone="no"?>
<svg
   xmlns:serif="http://www.serif.com/"
   xmlns:dc="http://purl.org/dc/elements/1.1/"
   xmlns:cc="http://creativecommons.org/ns#"
   xmlns:rdf="http://www.w3.org/1999/02/22-rdf-syntax-ns#"
   xmlns:svg="http://www.w3.org/2000/svg"
   xmlns="http://www.w3.org/2000/svg"
   xmlns:sodipodi="http://sodipodi.sourceforge.net/DTD/sodipodi-0.dtd"
   xmlns:inkscape="http://www.inkscape.org/namespaces/inkscape"
   width="60.373081mm"
   height="64.084564mm"
   viewBox="0 0 60.373081 64.084564"
   version="1.1"
   id="svg8"
   inkscape:version="1.0.1 (3bc2e813f5, 2020-09-07)"
   sodipodi:docname="oracle_side.svg">
  <defs
     id="defs2" />
  <sodipodi:namedview
     id="base"
     pagecolor="#ffffff"
     bordercolor="#666666"
     borderopacity="1.0"
     inkscape:pageopacity="0.0"
     inkscape:pageshadow="2"
     inkscape:zoom="0.35"
     inkscape:cx="360.12919"
     inkscape:cy="244.03697"
     inkscape:document-units="mm"
     inkscape:current-layer="layer1"
     inkscape:document-rotation="0"
     showgrid="false"
     fit-margin-top="0"
     fit-margin-left="0"
     fit-margin-right="0"
     fit-margin-bottom="0"
     inkscape:window-width="1816"
     inkscape:window-height="1208"
     inkscape:window-x="2610"
     inkscape:window-y="107"
     inkscape:window-maximized="0" />
  <metadata
     id="metadata5">
    <rdf:RDF>
      <cc:Work
         rdf:about="">
        <dc:format>image/svg+xml</dc:format>
        <dc:type
           rdf:resource="http://purl.org/dc/dcmitype/StillImage" />
        <dc:title></dc:title>
      </cc:Work>
    </rdf:RDF>
  </metadata>
  <g
     inkscape:label="Calque 1"
     inkscape:groupmode="layer"
     id="layer1"
     transform="translate(-10.549152,-83.598551)">
    

    

    

    

    

    

    

    

    

    

    

    

    

    <g
   transform="matrix(0.26458333,0,0,0.26458333,-277.19361,11.188143)"
   id="g2415">
        <g
   id="Cloud-Oracle--side-"
   serif:id="Cloud Oracle (side)"
   transform="translate(-559.018,-1715.03)">
            <g
   transform="matrix(0.866025,-0.5,1,0.57735,1338.44,1456.69)"
   id="g2368">
                <path
   d="m -450,738.622 c 0,-1.547 -1.1,-2.5 -2.887,-2.5 -7.347,0 -26.983,0 -38.453,0 -1.786,0 -3.987,0.953 -5.773,2.5 -1.787,1.547 -2.887,3.453 -2.887,5 0,30.546 0,144.831 0,163.205 0,1.547 1.1,2.5 2.887,2.5 7.347,0 26.983,0 38.453,0 1.786,0 3.987,-0.953 5.773,-2.5 1.787,-1.547 2.887,-3.453 2.887,-5 0,-30.547 0,-144.832 0,-163.205 z"
   style="fill-opacity:0.2"
   id="path2366" />

            </g>

            <g
   id="path208045-8-9-5"
   transform="matrix(-0.498715,0,0,0.498715,5408.47,-4453.97)">
                <path
   d="m 7340.92,12918.6 c -48.25,-1.8 -104.29,50.7 -132.5,95.4 -2.55,-1.5 -5.08,-3 -7.45,-4.4 -21.82,-12.6 -52.87,16 -65.47,37.8 -8.04,13.9 -14.67,35.7 -12.75,53 -4.08,5.5 -7.72,11.1 -10.8,16.4 -25.2,43.6 -43.64,126 0,151.2 l 65.46,37.8 c 35.7,20.6 83.73,-13.9 113.82,-51 43.3,5.5 94.2,-36 125.85,-77.6 32.35,12.7 75.52,-27.7 93.54,-58.9 18.9,-32.7 32.73,-94.5 0,-113.4 -32.73,-18.8 -32.74,-18.8 -65.47,-37.7 -4.48,-2.6 -9.21,-4 -14.1,-4.5 l -63.14,-36.4 c -8.52,-5 -17.6,-7.4 -26.99,-7.7 z"
   style="fill:#ececec;fill-rule:nonzero"
   id="path2370" />

            </g>

            <g
   id="path208155-2-4-6"
   transform="matrix(-0.498715,0,0,0.498715,5408.47,-4453.97)">
                <path
   d="m 7406.38,12956.4 c -50.68,-1.9 -110.08,56.1 -136.66,102.1 -0.94,1.7 -1.84,3.5 -2.77,5.2 -1.52,-8.4 -5.29,-15.4 -12.3,-19.4 -21.82,-12.6 -52.86,16 -65.46,37.8 -10.49,18.2 -18.63,49.8 -8.44,67.1 -1.14,1.8 -2.32,3.6 -3.34,5.4 -25.2,43.6 -43.64,126 0,151.2 35.7,20.6 83.73,-13.9 113.82,-51 43.3,5.5 94.2,-36 125.85,-77.6 32.35,12.7 75.52,-27.7 93.54,-58.9 18.9,-32.7 32.73,-94.5 0,-113.4 -14.21,-8.2 -31.03,-4.7 -47.06,4.5 -4.17,-19.5 -13.56,-35.7 -30.18,-45.3 -8.53,-5 -17.61,-7.4 -27,-7.7 z"
   style="fill:#f9f9f9;fill-rule:nonzero"
   id="path2373" />

            </g>

            <g
   transform="matrix(0.162091,0.0935834,0,0.187167,1661.54,1962.15)"
   id="g2412">
                <g
   id="g2392">
                    <g
   id="g2390">
                        <path
   d="m 423.553,418.709 h 58.186 l -30.726,-49.611 -56.445,89.597 -25.768,0.003 68.697,-107.543 c 2.938,-4.343 7.972,-6.987 13.472,-6.987 5.389,0 10.332,2.551 13.267,6.795 l 68.9,107.732 -25.701,-0.003 -12.115,-20.027 h -58.918 l -12.849,-19.956"
   style="fill:#e2231a;fill-rule:nonzero"
   id="path2376" />

                        <path
   d="m 690.524,438.667 v -93.403 h -21.848 v 102.587 c 0,2.799 1.175,5.532 3.221,7.514 2.08,2.147 4.945,3.33 7.952,3.33 h 99.379 l 12.95,-20.028 H 690.524"
   style="fill:#e2231a;fill-rule:nonzero"
   id="path2378" />

                        <path
   d="m 329.696,421.965 c 21.242,0 38.309,-17.179 38.309,-38.357 0,-21.188 -17.066,-38.344 -38.309,-38.344 H 234.257 V 458.7 h 21.813 v -93.393 h 72.161 c 10.141,0 18.354,8.176 18.354,18.305 0,10.101 -8.211,18.405 -18.354,18.405 l -61.494,-0.044 65.146,56.724 h 31.642 l -43.76,-36.729 h 9.931"
   style="fill:#e2231a;fill-rule:nonzero"
   id="path2380" />

                        <path
   d="m 100.061,458.695 c -31.322,0 -56.736,-25.342 -56.736,-56.68 0,-31.36 25.414,-56.756 56.736,-56.756 h 65.942 c 31.372,0 56.626,25.394 56.626,56.756 0,31.338 -25.252,56.683 -56.626,56.683 l -65.942,-0.003 m 64.435,-19.956 c 20.328,0 36.733,-16.478 36.733,-36.724 0,-20.315 -16.405,-36.713 -36.733,-36.713 H 101.52 c -20.273,0 -36.683,16.397 -36.683,36.713 0,20.247 16.417,36.724 36.683,36.724 h 62.976"
   style="fill:#e2231a;fill-rule:nonzero"
   id="path2382" />

                        <path
   d="m 578.686,458.695 c -31.357,0 -56.813,-25.342 -56.813,-56.68 0,-31.36 25.456,-56.756 56.813,-56.756 h 78.326 l -12.884,20.039 h -63.952 c -20.361,0 -36.767,16.397 -36.767,36.711 0,20.247 16.405,36.724 36.767,36.724 h 78.561 l -12.74,19.957 h -67.311"
   style="fill:#e2231a;fill-rule:nonzero"
   id="path2384" />

                        <path
   d="m 845.435,438.739 c -16.814,0 -30.977,-11.288 -35.351,-26.717 h 93.206 l 12.85,-19.996 H 810.086 c 4.356,-15.468 18.534,-26.722 35.349,-26.722 h 63.996 l 12.789,-20.039 h -78.253 c -31.294,0 -56.688,25.394 -56.688,56.754 0,31.338 25.397,56.68 56.688,56.68 h 67.313 l 12.779,-19.957 h -78.624"
   style="fill:#e2231a;fill-rule:nonzero"
   id="path2386" />

                        <path
   d="m 933.899,357.372 c 0,-5.538 4.483,-10.021 10.088,-10.021 5.589,0 10.017,4.483 10.017,10.021 0,5.509 -4.428,9.999 -10.017,9.999 -5.604,0 -10.088,-4.49 -10.088,-9.999 m 10.094,12.748 c 7.047,0 12.683,-5.64 12.683,-12.694 0,-7.04 -5.636,-12.802 -12.683,-12.802 -7.104,0 -12.773,5.763 -12.773,12.802 -0.011,7.053 5.667,12.694 12.773,12.694 m -1.237,-20.275 c 1.914,0 2.795,0.09 3.787,0.365 2.48,0.817 2.706,3.168 2.706,3.996 0,0.185 -0.063,0.655 -0.133,1.176 -0.143,0.56 -0.441,1.722 -1.77,2.476 -0.154,0.115 -0.264,0.19 -0.552,0.34 l 3.274,5.909 h -3.192 l -2.938,-5.494 h -1.917 v 5.494 h -2.845 v -14.262 h 3.58 m 1.007,6.458 c 0.866,0 1.785,-0.086 2.327,-0.915 0.381,-0.324 0.434,-0.734 0.434,-1.195 0,-0.81 -0.467,-1.424 -1.114,-1.752 -0.739,-0.304 -1.298,-0.304 -2.655,-0.304 h -0.734 v 4.172 h 1.743"
   style="fill:#e2231a;fill-rule:nonzero"
   id="path2388" />

                    </g>

                </g>

                <g
   id="g2398">
                    <g
   id="g2396">
                        <rect
   x="43.324001"
   y="516.25702"
   width="880.737"
   height="6.2820001"
   id="rect2394" />

                    </g>

                </g>

                <g
   id="g2410">
                    <path
   d="m 349.922,604.209 c -0.306,-2.561 -1.221,-12.972 -11.958,-12.972 -11.756,0 -16.664,12.264 -16.664,27.491 0,4.399 0,25.351 15.435,25.351 6.645,0 12.983,-4.183 13.296,-13.996 h 16.663 c -0.301,4.399 -0.714,11.242 -6.639,17.382 -6.546,6.733 -14.831,8.283 -21.569,8.283 -25.455,0 -33.751,-18.817 -33.751,-37.131 0,-23.411 13.088,-38.957 33.843,-38.957 16.16,0 27.511,9.823 27.511,24.549 z"
   style="fill-rule:nonzero"
   id="path2400" />

                    <path
   d="m 381.5,580.181 h 16.159 v 61.247 h 31.697 v 12.574 H 381.5 Z"
   style="fill-rule:nonzero"
   id="path2402" />

                    <path
   d="m 470.734,578.536 c 7.879,0 18.709,1.841 25.978,10.023 7.877,9 9.394,20.554 9.394,27.813 0,10.736 -3.259,22.182 -9.291,28.933 -8.183,9.202 -20.138,10.528 -26.273,10.528 -9.713,0 -19.438,-3.068 -26.184,-10.128 -8.075,-8.583 -9.101,-20.837 -9.101,-27.601 0,-19.621 8.907,-39.568 35.477,-39.568 z m -13.389,59.714 c 2.249,3.072 6.034,5.935 13.39,5.935 6.444,0 10.84,-2.245 13.81,-6.848 2.456,-3.681 5.008,-9.399 5.008,-21.163 0,-3.569 -0.301,-8.693 -1.842,-13.19 -3.075,-9.098 -9.309,-13.089 -16.875,-13.089 -5.927,0 -10.629,2.454 -13.588,6.246 -4.205,5.113 -5.426,13.083 -5.426,21.468 0.01,7.044 1.124,14.922 5.523,20.641 z"
   style="fill-rule:nonzero"
   id="path2404" />

                    <path
   d="m 534.715,580.276 v 44.995 c 0,8.077 0.62,18.205 16.042,18.205 2.563,0 10.23,-0.108 14.317,-6.439 1.531,-2.251 2.355,-5.121 2.355,-12.586 v -44.172 h 15.448 v 46.123 c 0,21.98 -17.485,29.043 -32.42,29.043 -7.359,0 -20.854,-1.64 -27.817,-12.776 -3.568,-5.626 -3.783,-11.351 -3.783,-18.215 v -44.173 h 15.857 v -0.005 z"
   style="fill-rule:nonzero"
   id="path2406" />

                    <path
   d="m 601.838,580.276 24.438,0.101 c 4.086,0 16.572,0.101 25.451,6.645 9.307,6.858 12.587,18.504 12.587,29.046 0,22.698 -12.163,34.561 -26.172,37.12 -2.769,0.512 -5.831,0.812 -13.303,0.812 h -23.003 z m 16.059,61.552 c 1.725,0.106 4.397,0.208 6.24,0.208 6.749,0 12.571,-0.502 17.172,-5.111 6.246,-6.243 6.645,-17.289 6.645,-20.857 0,-10.434 -3.583,-20.046 -13.498,-22.8 -3.285,-0.929 -7.461,-1.437 -16.567,-1.03 v 49.591 h 0.008 z"
   style="fill-rule:nonzero"
   id="path2408" />

                </g>

            </g>

        </g>

    </g>

</g>
</svg>
