<?xml version="1.0" encoding="UTF-8" standalone="no"?>
<!-- Created with Inkscape (http://www.inkscape.org/) -->

<svg
   xmlns:dc="http://purl.org/dc/elements/1.1/"
   xmlns:cc="http://creativecommons.org/ns#"
   xmlns:rdf="http://www.w3.org/1999/02/22-rdf-syntax-ns#"
   xmlns:svg="http://www.w3.org/2000/svg"
   xmlns="http://www.w3.org/2000/svg"
   xmlns:sodipodi="http://sodipodi.sourceforge.net/DTD/sodipodi-0.dtd"
   xmlns:inkscape="http://www.inkscape.org/namespaces/inkscape"
   width="58.669632mm"
   height="51.912479mm"
   viewBox="0 0 58.669632 51.912479"
   version="1.1"
   id="svg8"
   inkscape:version="0.92.4 (5da689c313, 2019-01-14)"
   sodipodi:docname="scaleway_side.svg">
  <defs
     id="defs2" />
  <sodipodi:namedview
     id="base"
     pagecolor="#ffffff"
     bordercolor="#666666"
     borderopacity="1.0"
     inkscape:pageopacity="0.0"
     inkscape:pageshadow="2"
     inkscape:zoom="0.35"
     inkscape:cx="-372.54221"
     inkscape:cy="156.20466"
     inkscape:document-units="mm"
     inkscape:current-layer="layer1"
     showgrid="false"
     fit-margin-top="0"
     fit-margin-left="0"
     fit-margin-right="0"
     fit-margin-bottom="0"
     inkscape:window-width="2100"
     inkscape:window-height="1234"
     inkscape:window-x="3191"
     inkscape:window-y="-9"
     inkscape:window-maximized="1" />
  <metadata
     id="metadata5">
    <rdf:RDF>
      <cc:Work
         rdf:about="">
        <dc:format>image/svg+xml</dc:format>
        <dc:type
           rdf:resource="http://purl.org/dc/dcmitype/StillImage" />
        <dc:title></dc:title>
      </cc:Work>
    </rdf:RDF>
  </metadata>
  <g
     inkscape:label="Layer 1"
     inkscape:groupmode="layer"
     id="layer1"
     transform="translate(-71.354173,-138.25001)">
    

    <g
   id="g4219"
   transform="matrix(0.26458333,0,0,0.26458333,-165.56265,0.98106289)">
        <g
   transform="translate(-753.411,-1463.66)"
   id="Scaleway">
            <g
   id="g4206"
   transform="translate(-4.14328,-6.23537)">
                <g
   transform="matrix(-0.498715,0,0,0.498715,5408.47,-4453.97)"
   id="path208045-8-9-5">
                    <path
   id="path4200"
   style="fill:#ececec;fill-rule:nonzero"
   d="m 7340.92,12918.6 c -48.25,-1.8 -104.29,50.7 -132.5,95.4 -2.55,-1.5 -5.08,-3 -7.45,-4.4 -21.82,-12.6 -52.87,16 -65.47,37.8 -8.04,13.9 -14.67,35.7 -12.75,53 -4.08,5.5 -7.72,11.1 -10.8,16.4 -25.2,43.6 -43.64,126 0,151.2 l 65.46,37.8 c 35.7,20.6 83.73,-13.9 113.82,-51 43.3,5.5 94.2,-36 125.85,-77.6 32.35,12.7 75.52,-27.7 93.54,-58.9 18.9,-32.7 32.73,-94.5 0,-113.4 -32.73,-18.8 -32.74,-18.8 -65.47,-37.7 -4.48,-2.6 -9.21,-4 -14.1,-4.5 l -63.14,-36.4 c -8.52,-5 -17.6,-7.4 -26.99,-7.7 z"
   inkscape:connector-curvature="0" />

                </g>

                <g
   transform="matrix(-0.498715,0,0,0.498715,5408.47,-4453.97)"
   id="path208155-2-4-6">
                    <path
   id="path4203"
   style="fill:#f9f9f9;fill-rule:nonzero"
   d="m 7406.38,12956.4 c -50.68,-1.9 -110.08,56.1 -136.66,102.1 -0.94,1.7 -1.84,3.5 -2.77,5.2 -1.52,-8.4 -5.29,-15.4 -12.3,-19.4 -21.82,-12.6 -52.86,16 -65.46,37.8 -10.49,18.2 -18.63,49.8 -8.44,67.1 -1.14,1.8 -2.32,3.6 -3.34,5.4 -25.2,43.6 -43.64,126 0,151.2 35.7,20.6 83.73,-13.9 113.82,-51 43.3,5.5 94.2,-36 125.85,-77.6 32.35,12.7 75.52,-27.7 93.54,-58.9 18.9,-32.7 32.73,-94.5 0,-113.4 -14.21,-8.2 -31.03,-4.7 -47.06,4.5 -4.17,-19.5 -13.56,-35.7 -30.18,-45.3 -8.53,-5 -17.61,-7.4 -27,-7.7 z"
   inkscape:connector-curvature="0" />

                </g>

            </g>

            <g
   id="g4216"
   transform="matrix(0.349526,0.201799,0,0.403597,1633.58,1418.35)">
                <g
   id="g4210"
   transform="translate(194.52,1370.74)">
                    <path
   id="path4208"
   style="fill:#543197;fill-rule:nonzero"
   d="m 90.21,179.94 h 38.41 c 8.396,-1.014 14.9,-8.003 15.31,-16.45 v -55.41 c 0,-7.307 -6.013,-13.32 -13.32,-13.32 -7.307,0 -13.32,6.013 -13.32,13.32 v 35.21 c 0,5.486 -4.514,10 -10,10 H 89.88 c -7.304,0.005 -13.311,6.016 -13.311,13.32 0,0.06 0,0.12 10e-4,0.18 0.205,7.32 6.318,13.212 13.64,13.15 z M 107.53,53.44 H 69.11 c -8.396,1.014 -14.9,8.003 -15.31,16.45 v 55.4 c 0,7.307 6.013,13.32 13.32,13.32 7.307,0 13.32,-6.013 13.32,-13.32 v -35.2 c 0,-5.486 4.514,-10 10,-10 h 17.4 c 7.304,-0.005 13.311,-6.016 13.311,-13.32 0,-0.06 0,-0.12 -10e-4,-0.18 -0.2,-7.314 -6.303,-13.207 -13.62,-13.15 z"
   inkscape:connector-curvature="0" />

                </g>

                <g
   id="g4214"
   transform="translate(194.52,1370.74)">
                    <path
   id="path4212"
   style="fill:#543197;fill-rule:nonzero"
   d="m 114,26.64 c 31.039,0.033 56.572,25.561 56.61,56.6 V 192.1 c -1.294,7.522 -7.381,13.361 -14.95,14.34 H 83.27 c -31.066,0 -56.63,-25.564 -56.63,-56.63 V 44.15 c 0,-9.606 7.904,-17.51 17.51,-17.51 H 114 M 114,0 H 44.15 C 19.93,0 0,19.93 0,44.15 v 105.67 c 0,45.681 37.589,83.27 83.27,83.27 H 157 c 21.02,-1.722 38.014,-18.281 40.28,-39.25 v -110.6 0 C 197.28,37.576 159.704,0 114.04,0 114.027,0 114.013,0 114,0 Z"
   inkscape:connector-curvature="0" />

                </g>

            </g>

        </g>

    </g>

</g>
</svg>
