<?xml version="1.0" encoding="UTF-8" standalone="no"?>
<!DOCTYPE svg PUBLIC "-//W3C//DTD SVG 1.1//EN" "http://www.w3.org/Graphics/SVG/1.1/DTD/svg11.dtd">
<svg width="100%" height="100%" viewBox="0 0 205 221" version="1.1" xmlns="http://www.w3.org/2000/svg" xmlns:xlink="http://www.w3.org/1999/xlink" xml:space="preserve" xmlns:serif="http://www.serif.com/" style="fill-rule:evenodd;clip-rule:evenodd;">
    <g transform="matrix(1,0,0,1,-854.857,-1026.4)">
        <g transform="matrix(1,0,0,1,72.1994,998.436)">
            <g transform="matrix(0.999999,0,0,0.999999,-1040.51,-1365.78)">
                <path d="M1912.47,1612.47C1912.47,1612.47 1934.32,1612.47 1940,1612.47C1940.88,1612.47 1941.74,1612.24 1942.5,1611.8C1950.78,1607.02 2001.16,1577.94 2020.44,1566.8C2021.99,1565.91 2022.94,1564.26 2022.94,1562.47C2022.94,1560.69 2021.99,1559.04 2020.44,1558.14C2008.05,1550.99 1984.64,1537.47 1984.64,1537.47L1984.64,1556.37C1984.64,1565.31 1979.88,1573.56 1972.14,1578.02C1951.48,1589.95 1912.47,1612.47 1912.47,1612.47Z" style="fill-opacity:0.2;"/>
            </g>
        </g>
        <g transform="matrix(1,0,0,1,72.1994,998.436)">
            <g transform="matrix(1,0,0,-1,366.782,363.238)">
                <path d="M580.013,162.425L580.014,162.5L580.014,262.5C580.014,264.071 579.126,265.641 577.35,266.667C562.917,275 519.615,300 505.181,308.333C501.936,310.207 493.993,310.207 490.748,308.333C476.314,300 433.013,275 418.579,266.667C416.803,265.641 415.915,264.071 415.915,262.5L415.915,162.5C415.915,164.071 416.803,165.641 418.579,166.667C433.013,175 476.314,200 490.748,208.333C493.993,210.207 501.936,210.207 505.181,208.333C519.615,200 562.917,175 577.35,166.667C579.154,165.625 580.042,164.021 580.013,162.425ZM415.916,162.425L415.915,162.5L415.916,162.425ZM580.012,162.353C580.012,162.353 580.008,162.278 580.008,162.278L580.012,162.353ZM415.921,162.278L415.917,162.353C415.917,162.353 415.921,162.278 415.921,162.278ZM580.004,162.206C580.004,162.206 579.997,162.131 579.997,162.131L580.004,162.206ZM415.932,162.131L415.925,162.206C415.925,162.206 415.932,162.131 415.932,162.131ZM579.991,162.059C579.991,162.059 579.982,161.984 579.982,161.984L579.991,162.059ZM415.948,161.984L415.938,162.059C415.938,162.059 415.948,161.984 415.948,161.984ZM579.973,161.912C579.973,161.912 579.961,161.838 579.961,161.838L579.973,161.912ZM415.968,161.838L415.956,161.912C415.956,161.912 415.968,161.838 415.968,161.838ZM579.949,161.766C579.949,161.766 579.935,161.692 579.935,161.692L579.949,161.766ZM415.994,161.692L415.98,161.766C415.98,161.766 415.994,161.692 415.994,161.692ZM579.921,161.62C579.921,161.62 579.903,161.546 579.903,161.546L579.921,161.62ZM416.026,161.546L416.009,161.62C416.009,161.62 416.026,161.546 416.026,161.546ZM579.887,161.475C579.887,161.475 579.867,161.401 579.867,161.401L579.887,161.475ZM416.062,161.401L416.042,161.475C416.042,161.475 416.062,161.401 416.062,161.401ZM579.848,161.331C579.848,161.331 579.825,161.257 579.825,161.257L579.848,161.331ZM416.104,161.257L416.081,161.331C416.081,161.331 416.104,161.257 416.104,161.257ZM579.804,161.187C579.804,161.187 579.778,161.114 579.778,161.114L579.804,161.187ZM416.151,161.114L416.126,161.187C416.126,161.187 416.151,161.114 416.151,161.114ZM579.754,161.044C579.754,161.044 579.726,160.972 579.726,160.972L579.754,161.044ZM416.203,160.972L416.175,161.044C416.175,161.044 416.203,160.972 416.203,160.972ZM579.7,160.902C579.7,160.902 579.669,160.83 579.669,160.83L579.7,160.902ZM416.26,160.83L416.23,160.902C416.23,160.902 416.26,160.83 416.26,160.83ZM579.64,160.762C579.64,160.762 579.606,160.69 579.606,160.69L579.64,160.762ZM416.323,160.69L416.289,160.762C416.289,160.762 416.323,160.69 416.323,160.69ZM579.575,160.622C579.575,160.622 579.539,160.552 579.539,160.552L579.575,160.622ZM416.391,160.552L416.355,160.622C416.355,160.622 416.391,160.552 416.391,160.552ZM579.504,160.484C579.504,160.484 579.466,160.414 579.466,160.414L579.504,160.484ZM416.464,160.414L416.425,160.484C416.425,160.484 416.464,160.414 416.464,160.414ZM579.429,160.347C579.429,160.347 579.388,160.278 579.388,160.278L579.429,160.347ZM416.542,160.278L416.5,160.347C416.5,160.347 416.542,160.278 416.542,160.278ZM579.348,160.212C579.348,160.212 579.304,160.143 579.304,160.143L579.348,160.212ZM416.625,160.143L416.581,160.212C416.581,160.212 416.625,160.143 416.625,160.143ZM579.262,160.079C579.262,160.079 579.215,160.01 579.215,160.01L579.262,160.079ZM416.714,160.01L416.667,160.079C416.667,160.079 416.714,160.01 416.714,160.01ZM579.171,159.947C579.171,159.947 579.122,159.879 579.122,159.879L579.171,159.947ZM416.808,159.879L416.758,159.947C416.758,159.947 416.808,159.879 416.808,159.879ZM579.075,159.816C579.075,159.816 579.023,159.75 579.023,159.75L579.075,159.816ZM416.907,159.75L416.854,159.816C416.854,159.816 416.907,159.75 416.907,159.75ZM578.974,159.688C578.974,159.688 578.918,159.622 578.918,159.622L578.974,159.688ZM417.011,159.622L416.956,159.688C416.956,159.688 417.011,159.622 417.011,159.622ZM578.867,159.562C578.867,159.562 578.809,159.497 578.809,159.497L578.867,159.562ZM417.121,159.497L417.062,159.562C417.062,159.562 417.121,159.497 417.121,159.497ZM578.755,159.438C578.755,159.438 578.694,159.374 578.694,159.374L578.755,159.438ZM417.236,159.374L417.174,159.438C417.174,159.438 417.236,159.374 417.236,159.374ZM578.638,159.316C578.638,159.316 578.573,159.253 578.573,159.253L578.638,159.316ZM417.356,159.253L417.291,159.316C417.291,159.316 417.356,159.253 417.356,159.253ZM578.516,159.196C578.516,159.196 578.448,159.134 578.448,159.134L578.516,159.196ZM417.481,159.134L417.413,159.196C417.413,159.196 417.481,159.134 417.481,159.134ZM578.388,159.079C578.388,159.079 578.317,159.017 578.317,159.017L578.388,159.079ZM417.612,159.017L417.541,159.079C417.541,159.079 417.612,159.017 417.612,159.017ZM578.256,158.964C578.256,158.964 578.181,158.903 578.181,158.903L578.256,158.964ZM417.749,158.903L417.674,158.964C417.674,158.964 417.749,158.903 417.749,158.903ZM578.118,158.852C578.118,158.852 578.038,158.791 578.038,158.791L578.118,158.852ZM417.891,158.791L417.811,158.852C417.811,158.852 417.891,158.791 417.891,158.791ZM577.975,158.742C577.975,158.742 577.89,158.682 577.89,158.682L577.975,158.742ZM418.039,158.682L417.955,158.742C417.955,158.742 418.039,158.682 418.039,158.682ZM577.826,158.636C577.826,158.636 577.734,158.573 577.734,158.573L577.826,158.636ZM418.195,158.574L418.103,158.636C418.103,158.636 418.195,158.574 418.195,158.574ZM577.673,158.532C577.673,158.532 577.567,158.465 577.567,158.465L577.673,158.532ZM418.362,158.465L418.256,158.532C418.256,158.532 418.362,158.465 418.362,158.465ZM577.514,158.431L577.35,158.333C577.406,158.366 577.461,158.398 577.514,158.431ZM418.579,158.333L418.415,158.431C418.415,158.431 418.579,158.333 418.579,158.333Z" style="fill:url(#_Linear1);"/>
            </g>
        </g>
        <g transform="matrix(1,0,0,1,72.1994,998.436)">
            <g id="path18052" transform="matrix(0.264583,0,0,0.264583,-3367.23,-2242.47)">
                <path d="M15722.1,8888.19L15749.4,8903.94L15995.2,8762.04L15995.2,8636.05L15722.1,8793.7L15722.1,8888.19Z" style="fill:rgb(249,249,249);stroke:rgb(204,204,204);stroke-width:3.78px;"/>
            </g>
        </g>
        <g transform="matrix(1,0,0,1,72.1994,998.436)">
            <g id="path180521" serif:id="path18052" transform="matrix(0.264583,0,0,0.264583,-3367.23,-2242.47)">
                <path d="M15722.1,8888.19L15749.4,8903.94L15995.2,8762.04L15995.2,8636.05L15722.1,8793.7L15722.1,8888.19Z" style="fill:rgb(249,249,249);stroke:rgb(204,204,204);stroke-width:3.78px;"/>
            </g>
        </g>
        <g transform="matrix(1,0,0,1,72.1994,998.436)">
            <g id="path180522" serif:id="path18052" transform="matrix(0.264583,0,0,0.264583,-3360.09,-2238.35)">
                <path d="M15722.1,8888.19L15749.4,8903.94L15995.2,8762.04L15995.2,8636.05L15722.1,8793.7L15722.1,8888.19Z" style="fill:rgb(249,249,249);stroke:rgb(204,204,204);stroke-width:3.78px;"/>
            </g>
        </g>
        <g transform="matrix(1,0,0,1,72.1994,998.436)">
            <g id="path180523" serif:id="path18052" transform="matrix(0.264583,0,0,0.264583,-3355.68,-2235.8)">
                <path d="M15733,8894.49L15760.3,8910.24L15978.5,8784.25L15978.5,8563.78L15733,8705.51L15733,8894.49Z" style="fill:rgb(249,249,249);stroke:rgb(204,204,204);stroke-width:3.78px;"/>
            </g>
        </g>
        <g transform="matrix(1,0,0,1,72.1994,998.436)">
            <g id="path18054" transform="matrix(0.264583,0,0,0.264583,-3348.46,-2231.64)">
                <path d="M15733,8894.49L15760.3,8910.24L16005.8,8768.5L16005.8,8642.52L15733,8800L15733,8894.49Z" style="fill:rgb(249,249,249);stroke:rgb(204,204,204);stroke-width:3.78px;"/>
            </g>
        </g>
        <g transform="matrix(1,0,0,1,72.1994,998.436)">
            <g id="path18056" transform="matrix(0.264583,0,0,0.264583,-3341.25,-2227.47)">
                <path d="M15733.3,8894.65L15760.3,8910.24L16005.8,8768.5L16005.8,8642.52L15733,8800L15733.3,8894.65Z" style="fill:rgb(249,249,249);stroke:rgb(204,204,204);stroke-width:3.78px;"/>
            </g>
        </g>
        <g transform="matrix(1,0,0,1,72.1994,998.436)">
            <g id="path18058" transform="matrix(0.264583,0,0,0.264583,-3334.03,-2223.3)">
                <path d="M15733,8894.49L15760.3,8910.24L16006.4,8768.84L16005.8,8642.52L15733,8800L15733,8894.49Z" style="fill:rgb(249,249,249);stroke:rgb(204,204,204);stroke-width:3.78px;"/>
            </g>
        </g>
        <g transform="matrix(1,0,0,1,72.1994,998.436)">
            <g id="path18060" transform="matrix(0.264583,0,0,0.264583,-3332.59,-2242.47)">
                <path d="M15754.8,8982.68L15782.1,8998.42L16000.9,8872.77L16000.3,8651.97L15754.8,8793.7L15754.8,8982.68Z" style="fill:rgb(249,249,249);stroke:rgb(204,204,204);stroke-width:3.78px;"/>
            </g>
        </g>
        <g transform="matrix(1,0,0,1,72.1994,998.436)">
            <g id="path18062" transform="matrix(0.264583,0,0,0.264583,-3323.93,-2217.47)">
                <path d="M15750,8904.27L15776.7,8919.68L16022.2,8777.95L16022.2,8651.97L15749.4,8809.45L15750,8904.27Z" style="fill:rgb(249,249,249);stroke:rgb(204,204,204);stroke-width:3.78px;"/>
            </g>
        </g>
        <g transform="matrix(1,0,0,1,72.1994,998.436)">
            <g id="path18064" transform="matrix(0.264583,0,0,0.264583,-3315.27,-2212.47)">
                <path d="M15743.9,8900.79L15772.4,8917.2L16016.7,8774.8L16016.7,8648.82L15743.9,8806.3L15743.9,8900.79Z" style="fill:rgb(249,249,249);stroke:rgb(204,204,204);stroke-width:3.78px;"/>
            </g>
        </g>
        <g transform="matrix(1,0,0,1,72.1994,998.436)">
            <g id="path18066" transform="matrix(0.264583,0,0,0.264583,-3306.61,-2207.47)">
                <path d="M15738.5,8897.64L15765.8,8913.39L16011.2,8771.65L16011.2,8645.67L15738.5,8803.15L15738.5,8897.64Z" style="fill:rgb(249,249,249);stroke:rgb(204,204,204);stroke-width:3.78px;"/>
            </g>
        </g>
        <g transform="matrix(1,0,0,1,72.1994,998.436)">
            <g id="path18068" transform="matrix(0.264583,0,0,0.264583,-3297.95,-2202.47)">
                <path d="M15733,8894.49L15760.3,8910.24L16005.8,8768.5L16005.8,8642.52L15733,8800L15733,8894.49Z" style="fill:rgb(249,249,249);stroke:rgb(204,204,204);stroke-width:3.78px;"/>
            </g>
        </g>
        <g transform="matrix(1,0,0,1,72.1994,998.436)">
            <g transform="matrix(1,0,0,1,366.782,-61.6388)">
                <path d="M580.013,162.425L580.014,162.5L580.014,262.5C580.014,264.071 579.126,265.641 577.35,266.667C562.917,275 519.615,300 505.181,308.333C501.936,310.207 493.993,310.207 490.748,308.333C476.314,300 433.013,275 418.579,266.667C416.803,265.641 415.915,264.071 415.915,262.5L415.915,162.5C415.915,164.071 416.803,165.641 418.579,166.667C433.013,175 476.314,200 490.748,208.333C493.993,210.207 501.936,210.207 505.181,208.333C519.615,200 562.917,175 577.35,166.667C579.154,165.625 580.042,164.021 580.013,162.425ZM415.916,162.425L415.915,162.5L415.916,162.425ZM580.012,162.353C580.012,162.353 580.008,162.278 580.008,162.278L580.012,162.353ZM415.921,162.278L415.917,162.353C415.917,162.353 415.921,162.278 415.921,162.278ZM580.004,162.206C580.004,162.206 579.997,162.131 579.997,162.131L580.004,162.206ZM415.932,162.131L415.925,162.206C415.925,162.206 415.932,162.131 415.932,162.131ZM579.991,162.059C579.991,162.059 579.982,161.984 579.982,161.984L579.991,162.059ZM415.948,161.984L415.938,162.059C415.938,162.059 415.948,161.984 415.948,161.984ZM579.973,161.912C579.973,161.912 579.961,161.838 579.961,161.838L579.973,161.912ZM415.968,161.838L415.956,161.912C415.956,161.912 415.968,161.838 415.968,161.838ZM579.949,161.766C579.949,161.766 579.935,161.692 579.935,161.692L579.949,161.766ZM415.994,161.692L415.98,161.766C415.98,161.766 415.994,161.692 415.994,161.692ZM579.921,161.62C579.921,161.62 579.903,161.546 579.903,161.546L579.921,161.62ZM416.026,161.546L416.009,161.62C416.009,161.62 416.026,161.546 416.026,161.546ZM579.887,161.475C579.887,161.475 579.867,161.401 579.867,161.401L579.887,161.475ZM416.062,161.401L416.042,161.475C416.042,161.475 416.062,161.401 416.062,161.401ZM579.848,161.331C579.848,161.331 579.825,161.257 579.825,161.257L579.848,161.331ZM416.104,161.257L416.081,161.331C416.081,161.331 416.104,161.257 416.104,161.257ZM579.804,161.187C579.804,161.187 579.778,161.114 579.778,161.114L579.804,161.187ZM416.151,161.114L416.126,161.187C416.126,161.187 416.151,161.114 416.151,161.114ZM579.754,161.044C579.754,161.044 579.726,160.972 579.726,160.972L579.754,161.044ZM416.203,160.972L416.175,161.044C416.175,161.044 416.203,160.972 416.203,160.972ZM579.7,160.902C579.7,160.902 579.669,160.83 579.669,160.83L579.7,160.902ZM416.26,160.83L416.23,160.902C416.23,160.902 416.26,160.83 416.26,160.83ZM579.64,160.762C579.64,160.762 579.606,160.69 579.606,160.69L579.64,160.762ZM416.323,160.69L416.289,160.762C416.289,160.762 416.323,160.69 416.323,160.69ZM579.575,160.622C579.575,160.622 579.539,160.552 579.539,160.552L579.575,160.622ZM416.391,160.552L416.355,160.622C416.355,160.622 416.391,160.552 416.391,160.552ZM579.504,160.484C579.504,160.484 579.466,160.414 579.466,160.414L579.504,160.484ZM416.464,160.414L416.425,160.484C416.425,160.484 416.464,160.414 416.464,160.414ZM579.429,160.347C579.429,160.347 579.388,160.278 579.388,160.278L579.429,160.347ZM416.542,160.278L416.5,160.347C416.5,160.347 416.542,160.278 416.542,160.278ZM579.348,160.212C579.348,160.212 579.304,160.143 579.304,160.143L579.348,160.212ZM416.625,160.143L416.581,160.212C416.581,160.212 416.625,160.143 416.625,160.143ZM579.262,160.079C579.262,160.079 579.215,160.01 579.215,160.01L579.262,160.079ZM416.714,160.01L416.667,160.079C416.667,160.079 416.714,160.01 416.714,160.01ZM579.171,159.947C579.171,159.947 579.122,159.879 579.122,159.879L579.171,159.947ZM416.808,159.879L416.758,159.947C416.758,159.947 416.808,159.879 416.808,159.879ZM579.075,159.816C579.075,159.816 579.023,159.75 579.023,159.75L579.075,159.816ZM416.907,159.75L416.854,159.816C416.854,159.816 416.907,159.75 416.907,159.75ZM578.974,159.688C578.974,159.688 578.918,159.622 578.918,159.622L578.974,159.688ZM417.011,159.622L416.956,159.688C416.956,159.688 417.011,159.622 417.011,159.622ZM578.867,159.562C578.867,159.562 578.809,159.497 578.809,159.497L578.867,159.562ZM417.121,159.497L417.062,159.562C417.062,159.562 417.121,159.497 417.121,159.497ZM578.755,159.438C578.755,159.438 578.694,159.374 578.694,159.374L578.755,159.438ZM417.236,159.374L417.174,159.438C417.174,159.438 417.236,159.374 417.236,159.374ZM578.638,159.316C578.638,159.316 578.573,159.253 578.573,159.253L578.638,159.316ZM417.356,159.253L417.291,159.316C417.291,159.316 417.356,159.253 417.356,159.253ZM578.516,159.196C578.516,159.196 578.448,159.134 578.448,159.134L578.516,159.196ZM417.481,159.134L417.413,159.196C417.413,159.196 417.481,159.134 417.481,159.134ZM578.388,159.079C578.388,159.079 578.317,159.017 578.317,159.017L578.388,159.079ZM417.612,159.017L417.541,159.079C417.541,159.079 417.612,159.017 417.612,159.017ZM578.256,158.964C578.256,158.964 578.181,158.903 578.181,158.903L578.256,158.964ZM417.749,158.903L417.674,158.964C417.674,158.964 417.749,158.903 417.749,158.903ZM578.118,158.852C578.118,158.852 578.038,158.791 578.038,158.791L578.118,158.852ZM417.891,158.791L417.811,158.852C417.811,158.852 417.891,158.791 417.891,158.791ZM577.975,158.742C577.975,158.742 577.89,158.682 577.89,158.682L577.975,158.742ZM418.039,158.682L417.955,158.742C417.955,158.742 418.039,158.682 418.039,158.682ZM577.826,158.636C577.826,158.636 577.734,158.573 577.734,158.573L577.826,158.636ZM418.195,158.574L418.103,158.636C418.103,158.636 418.195,158.574 418.195,158.574ZM577.673,158.532C577.673,158.532 577.567,158.465 577.567,158.465L577.673,158.532ZM418.362,158.465L418.256,158.532C418.256,158.532 418.362,158.465 418.362,158.465ZM577.514,158.431L577.35,158.333C577.406,158.366 577.461,158.398 577.514,158.431ZM418.579,158.333L418.415,158.431C418.415,158.431 418.579,158.333 418.579,158.333Z" style="fill:url(#_Linear2);"/>
            </g>
        </g>
        <g transform="matrix(1,0,0,1,72.1994,998.436)">
            <g transform="matrix(0.866025,0.5,-0.866025,0.5,670.307,-419.731)">
                <path d="M699.519,383.333L699.519,466.667C699.519,470.414 694.933,475 691.186,475C674.519,475 624.519,475 607.852,475" style="fill:none;stroke:rgb(102,102,102);stroke-width:4.24px;stroke-linecap:round;stroke-miterlimit:1.5;"/>
            </g>
        </g>
        <g transform="matrix(1,0,0,1,72.1994,998.436)">
            <g transform="matrix(0.999999,0,0,0.999999,215.228,-324.138)">
                <path d="M591.784,475L635.085,500" style="fill:none;stroke:rgb(140,140,140);stroke-width:2px;stroke-linejoin:round;stroke-miterlimit:1.5;"/>
                <path d="M577.35,475L591.784,483.333" style="fill:none;stroke:rgb(140,140,140);stroke-width:2px;stroke-linejoin:round;stroke-miterlimit:1.5;"/>
                <g transform="matrix(1,0,0,1,-7.21688,-12.5)">
                    <path d="M577.35,475L591.784,483.333" style="fill:none;stroke:rgb(140,140,140);stroke-width:2px;stroke-linejoin:round;stroke-miterlimit:1.5;"/>
                </g>
                <path d="M599.001,487.5L635.085,508.333" style="fill:none;stroke:rgb(140,140,140);stroke-width:2px;stroke-linejoin:round;stroke-miterlimit:1.5;"/>
                <path d="M577.35,483.333L591.784,491.667" style="fill:none;stroke:rgb(140,140,140);stroke-width:2px;stroke-linejoin:round;stroke-miterlimit:1.5;"/>
                <path d="M599.001,495.833L635.085,516.667" style="fill:none;stroke:rgb(140,140,140);stroke-width:2px;stroke-linejoin:round;stroke-miterlimit:1.5;"/>
                <path d="M584.567,495.833L599.001,504.167" style="fill:none;stroke:rgb(140,140,140);stroke-width:2px;stroke-linejoin:round;stroke-miterlimit:1.5;"/>
                <path d="M606.218,508.333L635.085,525" style="fill:none;stroke:rgb(140,140,140);stroke-width:2px;stroke-linejoin:round;stroke-miterlimit:1.5;"/>
                <g transform="matrix(1,0,0,1,0,-8.33333)">
                    <path d="M570.133,504.167L584.567,512.5" style="fill:none;stroke:rgb(140,140,140);stroke-width:2px;stroke-linejoin:round;stroke-miterlimit:1.5;"/>
                </g>
                <g transform="matrix(1,0,0,1,0,-8.33333)">
                    <path d="M591.784,516.667L635.085,541.667" style="fill:none;stroke:rgb(140,140,140);stroke-width:2px;stroke-linejoin:round;stroke-miterlimit:1.5;"/>
                </g>
                <g transform="matrix(1,0,0,1,0,-8.33333)">
                    <path d="M570.133,512.5L584.567,520.833" style="fill:none;stroke:rgb(140,140,140);stroke-width:2px;stroke-linejoin:round;stroke-miterlimit:1.5;"/>
                </g>
                <g transform="matrix(1,0,0,1,0,-8.33333)">
                    <path d="M591.784,525L635.085,550" style="fill:none;stroke:rgb(140,140,140);stroke-width:2px;stroke-linejoin:round;stroke-miterlimit:1.5;"/>
                </g>
            </g>
        </g>
        <g transform="matrix(1,0,0,1,72.1994,998.436)">
            <g transform="matrix(0.999999,0,0,0.999999,691.542,-49.1385)">
                <path d="M209.29,279.167L209.29,262.5L223.726,254.165L223.726,270.832" style="fill:none;stroke:rgb(102,102,102);stroke-width:1px;stroke-miterlimit:1.5;"/>
                <g transform="matrix(0.311799,-0.180017,-1.84723e-17,0.415681,25.5308,148.257)">
                    <ellipse cx="612.5" cy="537.657" rx="4.166" ry="3.609" style="fill:rgb(140,140,140);"/>
                </g>
                <g transform="matrix(0.519666,-0.300029,3.33099e-17,0.692802,-101.785,77.9425)">
                    <ellipse cx="612.5" cy="537.657" rx="4.166" ry="3.609" style="fill:rgb(77,77,77);"/>
                </g>
            </g>
        </g>
        <g transform="matrix(1,0,0,1,72.1994,998.436)">
            <g transform="matrix(0.999999,0,0,0.999999,691.542,-49.1385)">
                <g transform="matrix(1,0,0,1,-21.6507,12.5001)">
                    <path d="M209.29,279.167L209.29,262.5L223.726,254.165L223.726,270.832" style="fill:none;stroke:rgb(102,102,102);stroke-width:1px;stroke-miterlimit:1.5;"/>
                </g>
                <g transform="matrix(0.311799,-0.180017,-1.84723e-17,0.415681,3.88006,160.757)">
                    <ellipse cx="612.5" cy="537.657" rx="4.166" ry="3.609" style="fill:rgb(140,140,140);"/>
                </g>
                <g transform="matrix(0.519666,-0.300029,3.33099e-17,0.692802,-123.436,90.4425)">
                    <ellipse cx="612.5" cy="537.657" rx="4.166" ry="3.609" style="fill:rgb(77,77,77);"/>
                </g>
            </g>
        </g>
        <g transform="matrix(1,0,0,1,72.1994,998.436)">
            <g transform="matrix(0.999999,0,0,0.999999,691.542,-49.1385)">
                <g transform="matrix(1,0,0,1,21.6479,-12.4984)">
                    <path d="M209.29,279.167L209.29,262.5L223.726,254.165L223.726,270.832" style="fill:none;stroke:rgb(102,102,102);stroke-width:1px;stroke-miterlimit:1.5;"/>
                </g>
                <g transform="matrix(0.311799,-0.180017,-1.84723e-17,0.415681,47.1787,135.758)">
                    <ellipse cx="612.5" cy="537.657" rx="4.166" ry="3.609" style="fill:rgb(140,140,140);"/>
                </g>
                <g transform="matrix(0.519666,-0.300029,3.33099e-17,0.692802,-80.1369,65.444)">
                    <ellipse cx="612.5" cy="537.657" rx="4.166" ry="3.609" style="fill:rgb(77,77,77);"/>
                </g>
            </g>
        </g>
        <g transform="matrix(1,0,0,1,72.1994,998.436)">
            <g transform="matrix(0.999999,0,0,0.999999,691.542,-49.1385)">
                <g transform="matrix(1,0,0,1,21.6479,-12.4984)">
                    <path d="M209.29,279.167L209.29,262.5L223.726,254.165L223.726,270.832" style="fill:none;stroke:rgb(102,102,102);stroke-width:1px;stroke-miterlimit:1.5;"/>
                </g>
                <g transform="matrix(0.311799,-0.180017,-1.84723e-17,0.415681,47.1787,135.758)">
                    <ellipse cx="612.5" cy="537.657" rx="4.166" ry="3.609" style="fill:rgb(140,140,140);"/>
                </g>
                <g transform="matrix(0.519666,-0.300029,3.33099e-17,0.692802,-80.1369,65.444)">
                    <ellipse cx="612.5" cy="537.657" rx="4.166" ry="3.609" style="fill:rgb(77,77,77);"/>
                </g>
            </g>
        </g>
        <g transform="matrix(1,0,0,1,72.1994,998.436)">
            <g transform="matrix(0.999999,0,0,0.999999,561.635,-49.1401)">
                <g transform="matrix(1,0,0,1,21.6479,-12.4984)">
                    <path d="M209.29,270.83L209.29,254.164L223.726,262.498L223.726,279.165" style="fill:none;stroke:rgb(128,128,128);stroke-width:1px;stroke-miterlimit:1.5;"/>
                </g>
                <g transform="matrix(0.311799,0.180017,-7.84227e-17,0.415681,47.1787,-84.7657)">
                    <ellipse cx="612.5" cy="537.657" rx="4.166" ry="3.609" style="fill:rgb(140,140,140);"/>
                </g>
                <g transform="matrix(0.519666,0.300029,-6.66074e-17,0.692802,-80.1369,-302.091)">
                    <ellipse cx="612.5" cy="537.657" rx="4.166" ry="3.609" style="fill:rgb(77,77,77);"/>
                </g>
            </g>
        </g>
        <g transform="matrix(1,0,0,1,72.1994,998.436)">
            <g transform="matrix(0.999999,0,0,0.999999,583.289,-36.6385)">
                <g transform="matrix(1,0,0,1,21.6479,-12.4984)">
                    <path d="M209.29,270.83L209.29,254.164L223.726,262.498L223.726,279.165" style="fill:none;stroke:rgb(128,128,128);stroke-width:1px;stroke-miterlimit:1.5;"/>
                </g>
                <g transform="matrix(0.311799,0.180017,-7.84227e-17,0.415681,47.1787,-84.7657)">
                    <ellipse cx="612.5" cy="537.657" rx="4.166" ry="3.609" style="fill:rgb(140,140,140);"/>
                </g>
                <g transform="matrix(0.519666,0.300029,-6.66074e-17,0.692802,-80.1369,-302.091)">
                    <ellipse cx="612.5" cy="537.657" rx="4.166" ry="3.609" style="fill:rgb(77,77,77);"/>
                </g>
            </g>
        </g>
        <g transform="matrix(1,0,0,1,72.1994,998.436)">
            <g transform="matrix(0.999999,0,0,0.999999,604.939,-24.1386)">
                <g transform="matrix(1,0,0,1,21.6479,-12.4984)">
                    <path d="M209.29,270.83L209.29,254.164L223.726,262.498L223.726,279.165" style="fill:none;stroke:rgb(128,128,128);stroke-width:1px;stroke-miterlimit:1.5;"/>
                </g>
                <g transform="matrix(0.311799,0.180017,-7.84227e-17,0.415681,47.1787,-84.7657)">
                    <ellipse cx="612.5" cy="537.657" rx="4.166" ry="3.609" style="fill:rgb(140,140,140);"/>
                </g>
                <g transform="matrix(0.519666,0.300029,-6.66074e-17,0.692802,-80.1369,-302.091)">
                    <ellipse cx="612.5" cy="537.657" rx="4.166" ry="3.609" style="fill:rgb(77,77,77);"/>
                </g>
            </g>
        </g>
    </g>
    <defs>
        <linearGradient id="_Linear1" x1="0" y1="0" x2="1" y2="0" gradientUnits="userSpaceOnUse" gradientTransform="matrix(-14.4782,0,-5.68434e-13,-106.878,505.226,245.077)"><stop offset="0" style="stop-color:rgb(204,204,204);stop-opacity:1"/><stop offset="1" style="stop-color:rgb(128,128,128);stop-opacity:1"/></linearGradient>
        <linearGradient id="_Linear2" x1="0" y1="0" x2="1" y2="0" gradientUnits="userSpaceOnUse" gradientTransform="matrix(86.6025,0,0,106.878,418.579,246.298)"><stop offset="0" style="stop-color:rgb(204,204,204);stop-opacity:1"/><stop offset="0.65" style="stop-color:rgb(193,193,193);stop-opacity:1"/><stop offset="0.84" style="stop-color:rgb(163,163,163);stop-opacity:1"/><stop offset="1" style="stop-color:rgb(128,128,128);stop-opacity:1"/></linearGradient>
    </defs>
</svg>
