<?xml version="1.0" encoding="UTF-8" standalone="no"?>
<!DOCTYPE svg PUBLIC "-//W3C//DTD SVG 1.1//EN" "http://www.w3.org/Graphics/SVG/1.1/DTD/svg11.dtd">
<svg width="100%" height="100%" viewBox="0 0 205 195" version="1.1" xmlns="http://www.w3.org/2000/svg" xmlns:xlink="http://www.w3.org/1999/xlink" xml:space="preserve" xmlns:serif="http://www.serif.com/" style="fill-rule:evenodd;clip-rule:evenodd;stroke-linecap:round;stroke-miterlimit:1.5;">
    <g transform="matrix(1,0,0,1,-833.814,-1039.21)">
        <g transform="matrix(1,0,0,1,51.1567,985.566)">
            <g transform="matrix(0.999999,0,0,0.999999,-1040.51,-1365.78)">
                <path d="M1912.47,1612.47C1912.47,1612.47 1934.32,1612.47 1940,1612.47C1940.88,1612.47 1941.74,1612.24 1942.5,1611.8C1950.78,1607.02 2001.16,1577.94 2020.44,1566.8C2021.99,1565.91 2022.94,1564.26 2022.94,1562.47C2022.94,1560.69 2021.99,1559.04 2020.44,1558.14C2008.05,1550.99 1984.64,1537.47 1984.64,1537.47L1984.64,1556.37C1984.64,1565.31 1979.88,1573.56 1972.14,1578.02C1951.48,1589.95 1912.47,1612.47 1912.47,1612.47Z" style="fill-opacity:0.2;"/>
            </g>
        </g>
        <g transform="matrix(1,0,0,1,51.1567,985.566)">
            <g transform="matrix(0.999999,0,0,0.999999,215.261,-274.12)">
                <path d="M567.469,375C567.469,373.429 568.357,371.859 570.133,370.833C584.567,362.5 627.868,337.5 642.302,329.167C645.547,327.293 653.491,327.293 656.736,329.167C671.17,337.5 714.471,362.5 728.905,370.833C730.681,371.859 731.569,373.429 731.569,375L731.569,475C731.569,476.571 730.681,478.141 728.905,479.167C714.471,487.5 671.17,512.5 656.736,520.833C653.491,522.707 645.547,522.707 642.302,520.833C627.868,512.5 584.567,487.5 570.133,479.167C568.357,478.141 567.469,476.571 567.469,475L567.469,375Z" style="fill:url(#_Linear1);"/>
            </g>
        </g>
        <g transform="matrix(1,0,0,1,51.1567,985.566)">
            <g transform="matrix(0.866025,0.5,-0.866025,0.5,670.34,-436.379)">
                <path d="M599.519,383.333C599.519,379.586 604.105,375 607.852,375L691.186,375C695.287,375 699.519,379.232 699.519,383.333L699.519,466.667C699.519,470.414 694.933,475 691.186,475L607.852,475C603.751,475 599.519,470.768 599.519,466.667L599.519,383.333Z" style="fill:rgb(242,242,242);"/>
            </g>
        </g>
        <g transform="matrix(1,0,0,1,51.1567,985.566)">
            <g transform="matrix(0.288675,0.166667,-0.288675,0.166667,835.912,-15.7865)">
                <path d="M480,391.34C480,396.699 476.699,400 471.34,400C447.933,400 382.705,400 345.981,400C340.622,400 334.019,396.699 328.66,391.34C323.301,385.981 320,379.378 320,374.019C320,344.465 320,297.825 320,278.66C320,273.301 323.301,270 328.66,270C329.549,270 330.451,270 331.34,270C336.699,270 340,266.699 340,261.34C340,260.527 340,260 340,260C340,226.885 366.885,200 400,200C433.115,200 460,226.885 460,260L460,266.773C460,267.439 460.41,268.259 461.076,268.924C461.741,269.59 462.561,270 463.227,270C463.23,270 463.234,270 463.237,270C466.695,270 470.955,272.13 474.412,275.588C477.87,279.045 480,283.305 480,286.763C480,314.752 480,370.03 480,391.34ZM399.971,384.992C398.762,384.674 360,373.92 360,305C360,304.825 400,305.345 400,285L400,285.119C400.16,305.343 440,304.825 440,305C440,375.012 400,385 400,385L399.971,384.992ZM399.978,374.994C399.071,374.755 370,366.69 370,315C370,314.868 400,315.259 400,300L400,300.089C400.12,315.257 430,314.869 430,315C430,367.509 400,375 400,375L399.978,374.994ZM406.295,337.768C408.555,335.934 410,333.134 410,330C410,324.481 405.519,320 400,320C394.481,320 390,324.481 390,330C390,333.134 391.445,335.934 393.705,337.768L390,360L410,360L406.295,337.768ZM431.34,270C436.699,270 440,266.699 440,261.34C440,260.527 440,260 440,260C440,237.923 422.077,220 400,220C377.923,220 360,237.923 360,260L360,260.003C360,262.065 361.27,264.605 363.332,266.668C365.395,268.73 367.935,270 369.997,270C385.826,270 416.39,270 431.34,270Z" style="fill:rgb(204,204,204);"/>
            </g>
        </g>
        <g transform="matrix(1,0,0,1,51.1567,985.566)">
            <g transform="matrix(0.866025,0.5,-0.866025,0.5,670.307,-419.731)">
                <path d="M699.519,383.333L699.519,466.667C699.519,470.414 694.933,475 691.186,475C674.519,475 624.519,475 607.852,475" style="fill:none;stroke:rgb(102,102,102);stroke-width:4.24px;"/>
            </g>
        </g>
        <g transform="matrix(1,0,0,1,51.1567,985.566)">
            <g transform="matrix(0.999999,0,0,0.999999,215.228,-324.138)">
                <path d="M591.784,475L635.085,500" style="fill:none;stroke:rgb(140,140,140);stroke-width:2px;stroke-linecap:butt;stroke-linejoin:round;"/>
                <path d="M577.35,475L591.784,483.333" style="fill:none;stroke:rgb(140,140,140);stroke-width:2px;stroke-linecap:butt;stroke-linejoin:round;"/>
                <g transform="matrix(1,0,0,1,-7.21688,-12.5)">
                    <path d="M577.35,475L591.784,483.333" style="fill:none;stroke:rgb(140,140,140);stroke-width:2px;stroke-linecap:butt;stroke-linejoin:round;"/>
                </g>
                <path d="M599.001,487.5L635.085,508.333" style="fill:none;stroke:rgb(140,140,140);stroke-width:2px;stroke-linecap:butt;stroke-linejoin:round;"/>
                <path d="M577.35,483.333L591.784,491.667" style="fill:none;stroke:rgb(140,140,140);stroke-width:2px;stroke-linecap:butt;stroke-linejoin:round;"/>
                <path d="M599.001,495.833L635.085,516.667" style="fill:none;stroke:rgb(140,140,140);stroke-width:2px;stroke-linecap:butt;stroke-linejoin:round;"/>
                <path d="M584.567,495.833L599.001,504.167" style="fill:none;stroke:rgb(140,140,140);stroke-width:2px;stroke-linecap:butt;stroke-linejoin:round;"/>
                <path d="M606.218,508.333L635.085,525" style="fill:none;stroke:rgb(140,140,140);stroke-width:2px;stroke-linecap:butt;stroke-linejoin:round;"/>
                <g transform="matrix(1,0,0,1,0,-8.33333)">
                    <path d="M570.133,504.167L584.567,512.5" style="fill:none;stroke:rgb(140,140,140);stroke-width:2px;stroke-linecap:butt;stroke-linejoin:round;"/>
                </g>
                <g transform="matrix(1,0,0,1,0,-8.33333)">
                    <path d="M591.784,516.667L635.085,541.667" style="fill:none;stroke:rgb(140,140,140);stroke-width:2px;stroke-linecap:butt;stroke-linejoin:round;"/>
                </g>
                <g transform="matrix(1,0,0,1,0,-8.33333)">
                    <path d="M570.133,512.5L584.567,520.833" style="fill:none;stroke:rgb(140,140,140);stroke-width:2px;stroke-linecap:butt;stroke-linejoin:round;"/>
                </g>
                <g transform="matrix(1,0,0,1,0,-8.33333)">
                    <path d="M591.784,525L635.085,550" style="fill:none;stroke:rgb(140,140,140);stroke-width:2px;stroke-linecap:butt;stroke-linejoin:round;"/>
                </g>
            </g>
        </g>
        <g transform="matrix(1,0,0,1,51.1567,985.566)">
            <g transform="matrix(0.999999,0,0,0.999999,691.542,-49.1385)">
                <path d="M209.29,279.167L209.29,262.5L223.726,254.165L223.726,270.832" style="fill:none;stroke:rgb(102,102,102);stroke-width:1px;stroke-linecap:butt;"/>
                <g transform="matrix(0.311799,-0.180017,-1.84723e-17,0.415681,25.5308,148.257)">
                    <ellipse cx="612.5" cy="537.657" rx="4.166" ry="3.609" style="fill:rgb(140,140,140);"/>
                </g>
                <g transform="matrix(0.519666,-0.300029,3.33099e-17,0.692802,-101.785,77.9425)">
                    <ellipse cx="612.5" cy="537.657" rx="4.166" ry="3.609" style="fill:rgb(77,77,77);"/>
                </g>
            </g>
        </g>
        <g transform="matrix(1,0,0,1,51.1567,985.566)">
            <g transform="matrix(0.999999,0,0,0.999999,691.542,-49.1385)">
                <g transform="matrix(1,0,0,1,-21.6507,12.5001)">
                    <path d="M209.29,279.167L209.29,262.5L223.726,254.165L223.726,270.832" style="fill:none;stroke:rgb(102,102,102);stroke-width:1px;stroke-linecap:butt;"/>
                </g>
                <g transform="matrix(0.311799,-0.180017,-1.84723e-17,0.415681,3.88006,160.757)">
                    <ellipse cx="612.5" cy="537.657" rx="4.166" ry="3.609" style="fill:rgb(140,140,140);"/>
                </g>
                <g transform="matrix(0.519666,-0.300029,3.33099e-17,0.692802,-123.436,90.4425)">
                    <ellipse cx="612.5" cy="537.657" rx="4.166" ry="3.609" style="fill:rgb(77,77,77);"/>
                </g>
            </g>
        </g>
        <g transform="matrix(1,0,0,1,51.1567,985.566)">
            <g transform="matrix(0.999999,0,0,0.999999,691.542,-49.1385)">
                <g transform="matrix(1,0,0,1,21.6479,-12.4984)">
                    <path d="M209.29,279.167L209.29,262.5L223.726,254.165L223.726,270.832" style="fill:none;stroke:rgb(102,102,102);stroke-width:1px;stroke-linecap:butt;"/>
                </g>
                <g transform="matrix(0.311799,-0.180017,-1.84723e-17,0.415681,47.1787,135.758)">
                    <ellipse cx="612.5" cy="537.657" rx="4.166" ry="3.609" style="fill:rgb(140,140,140);"/>
                </g>
                <g transform="matrix(0.519666,-0.300029,3.33099e-17,0.692802,-80.1369,65.444)">
                    <ellipse cx="612.5" cy="537.657" rx="4.166" ry="3.609" style="fill:rgb(77,77,77);"/>
                </g>
            </g>
        </g>
        <g transform="matrix(1,0,0,1,51.1567,985.566)">
            <g transform="matrix(0.999999,0,0,0.999999,691.542,-49.1385)">
                <g transform="matrix(1,0,0,1,21.6479,-12.4984)">
                    <path d="M209.29,279.167L209.29,262.5L223.726,254.165L223.726,270.832" style="fill:none;stroke:rgb(102,102,102);stroke-width:1px;stroke-linecap:butt;"/>
                </g>
                <g transform="matrix(0.311799,-0.180017,-1.84723e-17,0.415681,47.1787,135.758)">
                    <ellipse cx="612.5" cy="537.657" rx="4.166" ry="3.609" style="fill:rgb(140,140,140);"/>
                </g>
                <g transform="matrix(0.519666,-0.300029,3.33099e-17,0.692802,-80.1369,65.444)">
                    <ellipse cx="612.5" cy="537.657" rx="4.166" ry="3.609" style="fill:rgb(77,77,77);"/>
                </g>
            </g>
        </g>
        <g transform="matrix(1,0,0,1,51.1567,985.566)">
            <g transform="matrix(0.999999,0,0,0.999999,561.635,-49.1401)">
                <g transform="matrix(1,0,0,1,21.6479,-12.4984)">
                    <path d="M209.29,270.83L209.29,254.164L223.726,262.498L223.726,279.165" style="fill:none;stroke:rgb(128,128,128);stroke-width:1px;stroke-linecap:butt;"/>
                </g>
                <g transform="matrix(0.311799,0.180017,-7.84227e-17,0.415681,47.1787,-84.7657)">
                    <ellipse cx="612.5" cy="537.657" rx="4.166" ry="3.609" style="fill:rgb(140,140,140);"/>
                </g>
                <g transform="matrix(0.519666,0.300029,-6.66074e-17,0.692802,-80.1369,-302.091)">
                    <ellipse cx="612.5" cy="537.657" rx="4.166" ry="3.609" style="fill:rgb(77,77,77);"/>
                </g>
            </g>
        </g>
        <g transform="matrix(1,0,0,1,51.1567,985.566)">
            <g transform="matrix(0.999999,0,0,0.999999,583.289,-36.6385)">
                <g transform="matrix(1,0,0,1,21.6479,-12.4984)">
                    <path d="M209.29,270.83L209.29,254.164L223.726,262.498L223.726,279.165" style="fill:none;stroke:rgb(128,128,128);stroke-width:1px;stroke-linecap:butt;"/>
                </g>
                <g transform="matrix(0.311799,0.180017,-7.84227e-17,0.415681,47.1787,-84.7657)">
                    <ellipse cx="612.5" cy="537.657" rx="4.166" ry="3.609" style="fill:rgb(140,140,140);"/>
                </g>
                <g transform="matrix(0.519666,0.300029,-6.66074e-17,0.692802,-80.1369,-302.091)">
                    <ellipse cx="612.5" cy="537.657" rx="4.166" ry="3.609" style="fill:rgb(77,77,77);"/>
                </g>
            </g>
        </g>
        <g transform="matrix(1,0,0,1,51.1567,985.566)">
            <g transform="matrix(0.999999,0,0,0.999999,604.939,-24.1386)">
                <g transform="matrix(1,0,0,1,21.6479,-12.4984)">
                    <path d="M209.29,270.83L209.29,254.164L223.726,262.498L223.726,279.165" style="fill:none;stroke:rgb(128,128,128);stroke-width:1px;stroke-linecap:butt;"/>
                </g>
                <g transform="matrix(0.311799,0.180017,-7.84227e-17,0.415681,47.1787,-84.7657)">
                    <ellipse cx="612.5" cy="537.657" rx="4.166" ry="3.609" style="fill:rgb(140,140,140);"/>
                </g>
                <g transform="matrix(0.519666,0.300029,-6.66074e-17,0.692802,-80.1369,-302.091)">
                    <ellipse cx="612.5" cy="537.657" rx="4.166" ry="3.609" style="fill:rgb(77,77,77);"/>
                </g>
            </g>
        </g>
    </g>
    <defs>
        <linearGradient id="_Linear1" x1="0" y1="0" x2="1" y2="0" gradientUnits="userSpaceOnUse" gradientTransform="matrix(86.6025,0,0,131.775,570.133,444.02)"><stop offset="0" style="stop-color:rgb(204,204,204);stop-opacity:1"/><stop offset="0.65" style="stop-color:rgb(193,193,193);stop-opacity:1"/><stop offset="0.84" style="stop-color:rgb(163,163,163);stop-opacity:1"/><stop offset="1" style="stop-color:rgb(128,128,128);stop-opacity:1"/></linearGradient>
    </defs>
</svg>
