<?xml version="1.0" encoding="UTF-8" standalone="no"?>
<!DOCTYPE svg PUBLIC "-//W3C//DTD SVG 1.1//EN" "http://www.w3.org/Graphics/SVG/1.1/DTD/svg11.dtd">
<svg width="100%" height="100%" viewBox="0 0 205 195" version="1.1" xmlns="http://www.w3.org/2000/svg" xmlns:xlink="http://www.w3.org/1999/xlink" xml:space="preserve" xmlns:serif="http://www.serif.com/" style="fill-rule:evenodd;clip-rule:evenodd;stroke-linejoin:round;stroke-miterlimit:2;">
    <g transform="matrix(1,0,0,1,-654.072,-777.638)">
        <g id="Package-cyan-dark" serif:id="Package cyan dark" transform="matrix(1,0,0,1,-128.628,724.061)">
            <g transform="matrix(0.999996,0,0,0.999996,-1040.5,-1365.7)">
                <path d="M1912.47,1612.47C1912.47,1612.47 1934.32,1612.47 1940,1612.47C1940.88,1612.47 1941.74,1612.24 1942.5,1611.8C1950.78,1607.02 2001.16,1577.94 2020.44,1566.8C2021.99,1565.91 2022.94,1564.26 2022.94,1562.47C2022.94,1560.69 2021.99,1559.04 2020.44,1558.14C2008.05,1550.99 1984.64,1537.47 1984.64,1537.47L1984.64,1556.37C1984.64,1565.31 1979.88,1573.56 1972.14,1578.02C1951.48,1589.95 1912.47,1612.47 1912.47,1612.47Z" style="fill-opacity:0.2;"/>
            </g>
            <g transform="matrix(1,0,0,-1,366.782,363.315)">
                <path d="M580.013,162.425L580.014,162.5L580.014,262.5C580.014,264.071 579.126,265.641 577.35,266.667C562.917,275 519.615,300 505.181,308.333C501.936,310.207 493.993,310.207 490.748,308.333C476.314,300 433.013,275 418.579,266.667C416.803,265.641 415.915,264.071 415.915,262.5L415.915,162.5C415.915,164.071 416.803,165.641 418.579,166.667C433.013,175 476.314,200 490.748,208.333C493.993,210.207 501.936,210.207 505.181,208.333C519.615,200 562.917,175 577.35,166.667C579.154,165.625 580.042,164.021 580.013,162.425ZM415.916,162.425L415.915,162.5L415.916,162.425ZM580.012,162.353C580.012,162.353 580.008,162.278 580.008,162.278L580.012,162.353ZM415.921,162.278L415.917,162.353C415.917,162.353 415.921,162.278 415.921,162.278ZM580.004,162.206C580.004,162.206 579.997,162.131 579.997,162.131L580.004,162.206ZM415.932,162.131L415.925,162.206C415.925,162.206 415.932,162.131 415.932,162.131ZM579.991,162.059C579.991,162.059 579.982,161.984 579.982,161.984L579.991,162.059ZM415.948,161.984L415.938,162.059C415.938,162.059 415.948,161.984 415.948,161.984ZM579.973,161.912C579.973,161.912 579.961,161.838 579.961,161.838L579.973,161.912ZM415.968,161.838L415.956,161.912C415.956,161.912 415.968,161.838 415.968,161.838ZM579.949,161.766C579.949,161.766 579.935,161.692 579.935,161.692L579.949,161.766ZM415.994,161.692L415.98,161.766C415.98,161.766 415.994,161.692 415.994,161.692ZM579.921,161.62C579.921,161.62 579.903,161.546 579.903,161.546L579.921,161.62ZM416.026,161.546L416.009,161.62C416.009,161.62 416.026,161.546 416.026,161.546ZM579.887,161.475C579.887,161.475 579.867,161.401 579.867,161.401L579.887,161.475ZM416.062,161.401L416.042,161.475C416.042,161.475 416.062,161.401 416.062,161.401ZM579.848,161.331C579.848,161.331 579.825,161.257 579.825,161.257L579.848,161.331ZM416.104,161.257L416.081,161.331C416.081,161.331 416.104,161.257 416.104,161.257ZM579.804,161.187C579.804,161.187 579.778,161.114 579.778,161.114L579.804,161.187ZM416.151,161.114L416.126,161.187C416.126,161.187 416.151,161.114 416.151,161.114ZM579.754,161.044C579.754,161.044 579.726,160.972 579.726,160.972L579.754,161.044ZM416.203,160.972L416.175,161.044C416.175,161.044 416.203,160.972 416.203,160.972ZM579.7,160.902C579.7,160.902 579.669,160.83 579.669,160.83L579.7,160.902ZM416.26,160.83L416.23,160.902C416.23,160.902 416.26,160.83 416.26,160.83ZM579.64,160.762C579.64,160.762 579.606,160.69 579.606,160.69L579.64,160.762ZM416.323,160.69L416.289,160.762C416.289,160.762 416.323,160.69 416.323,160.69ZM579.575,160.622C579.575,160.622 579.539,160.552 579.539,160.552L579.575,160.622ZM416.391,160.552L416.355,160.622C416.355,160.622 416.391,160.552 416.391,160.552ZM579.504,160.484C579.504,160.484 579.466,160.414 579.466,160.414L579.504,160.484ZM416.464,160.414L416.425,160.484C416.425,160.484 416.464,160.414 416.464,160.414ZM579.429,160.347C579.429,160.347 579.388,160.278 579.388,160.278L579.429,160.347ZM416.542,160.278L416.5,160.347C416.5,160.347 416.542,160.278 416.542,160.278ZM579.348,160.212C579.348,160.212 579.304,160.143 579.304,160.143L579.348,160.212ZM416.625,160.143L416.581,160.212C416.581,160.212 416.625,160.143 416.625,160.143ZM579.262,160.079C579.262,160.079 579.215,160.01 579.215,160.01L579.262,160.079ZM416.714,160.01L416.667,160.079C416.667,160.079 416.714,160.01 416.714,160.01ZM579.171,159.947C579.171,159.947 579.122,159.879 579.122,159.879L579.171,159.947ZM416.808,159.879L416.758,159.947C416.758,159.947 416.808,159.879 416.808,159.879ZM579.075,159.816C579.075,159.816 579.023,159.75 579.023,159.75L579.075,159.816ZM416.907,159.75L416.854,159.816C416.854,159.816 416.907,159.75 416.907,159.75ZM578.974,159.688C578.974,159.688 578.918,159.622 578.918,159.622L578.974,159.688ZM417.011,159.622L416.956,159.688C416.956,159.688 417.011,159.622 417.011,159.622ZM578.867,159.562C578.867,159.562 578.809,159.497 578.809,159.497L578.867,159.562ZM417.121,159.497L417.062,159.562C417.062,159.562 417.121,159.497 417.121,159.497ZM578.755,159.438C578.755,159.438 578.694,159.374 578.694,159.374L578.755,159.438ZM417.236,159.374L417.174,159.438C417.174,159.438 417.236,159.374 417.236,159.374ZM578.638,159.316C578.638,159.316 578.573,159.253 578.573,159.253L578.638,159.316ZM417.356,159.253L417.291,159.316C417.291,159.316 417.356,159.253 417.356,159.253ZM578.516,159.196C578.516,159.196 578.448,159.134 578.448,159.134L578.516,159.196ZM417.481,159.134L417.413,159.196C417.413,159.196 417.481,159.134 417.481,159.134ZM578.388,159.079C578.388,159.079 578.317,159.017 578.317,159.017L578.388,159.079ZM417.612,159.017L417.541,159.079C417.541,159.079 417.612,159.017 417.612,159.017ZM578.256,158.964C578.256,158.964 578.181,158.903 578.181,158.903L578.256,158.964ZM417.749,158.903L417.674,158.964C417.674,158.964 417.749,158.903 417.749,158.903ZM578.118,158.852C578.118,158.852 578.038,158.791 578.038,158.791L578.118,158.852ZM417.891,158.791L417.811,158.852C417.811,158.852 417.891,158.791 417.891,158.791ZM577.975,158.742C577.975,158.742 577.89,158.682 577.89,158.682L577.975,158.742ZM418.039,158.682L417.955,158.742C417.955,158.742 418.039,158.682 418.039,158.682ZM577.826,158.636C577.826,158.636 577.734,158.573 577.734,158.573L577.826,158.636ZM418.195,158.574L418.103,158.636C418.103,158.636 418.195,158.574 418.195,158.574ZM577.673,158.532C577.673,158.532 577.567,158.465 577.567,158.465L577.673,158.532ZM418.362,158.465L418.256,158.532C418.256,158.532 418.362,158.465 418.362,158.465ZM577.514,158.431L577.35,158.333C577.406,158.366 577.461,158.398 577.514,158.431ZM418.579,158.333L418.415,158.431C418.415,158.431 418.579,158.333 418.579,158.333Z" style="fill:url(#_Linear1);"/>
            </g>
            <g transform="matrix(1,0,0,1,431.919,-11.74)">
                <g transform="matrix(1,0,0,1,64.976,-112.486)">
                    <g>
                        <path d="M421.566,279.185C421.558,280.687 420.563,282.188 418.579,283.333C414.604,285.628 408.154,285.633 404.169,283.347L404.169,283.347L368.061,262.5L368.037,195.819L382.47,187.486L418.579,208.333L418.603,208.347C420.579,209.496 421.543,210.985 421.542,212.488L421.566,279.185Z" style="fill:url(#_Linear2);"/>
                    </g>
                    <g transform="matrix(1,0,0,1,-43.3013,8.33334)">
                        <path d="M461.88,200C465.863,202.3 465.863,206.034 461.88,208.333C457.897,210.633 451.43,210.633 447.446,208.333C447.446,208.333 411.362,187.5 411.362,187.5L425.772,179.153L461.88,200Z" style="fill:rgb(241,244,247);"/>
                    </g>
                    <g transform="matrix(0.938283,0,0,0.938283,48.1322,-87.1296)">
                        <path d="M345.056,299.218L352.272,295.051L390.73,317.255C392.722,318.405 392.722,320.272 390.73,321.422C388.739,322.571 385.505,322.571 383.514,321.422L345.056,299.218Z" style="fill:white;"/>
                    </g>
                </g>
                <g transform="matrix(1,0,0,1,59.559,-98.9469)">
                    <g>
                        <path d="M421.566,279.185C421.558,280.687 420.563,282.188 418.579,283.333C414.604,285.628 408.154,285.633 404.169,283.347L404.169,283.347L368.061,262.5L368.037,195.819L382.47,187.486L418.579,208.333L418.603,208.347C420.579,209.496 421.543,210.985 421.542,212.488L421.566,279.185Z" style="fill:url(#_Linear3);"/>
                    </g>
                    <g transform="matrix(1,0,0,1,-43.3013,8.33334)">
                        <path d="M461.88,200C465.863,202.3 465.863,206.034 461.88,208.333C457.897,210.633 451.43,210.633 447.446,208.333C447.446,208.333 411.362,187.5 411.362,187.5L425.772,179.153L461.88,200Z" style="fill:rgb(241,244,247);"/>
                    </g>
                    <g transform="matrix(0.938283,0,0,0.938283,48.1322,-87.1296)">
                        <path d="M345.056,299.218L352.272,295.051L390.73,317.255C392.722,318.405 392.722,320.272 390.73,321.422C388.739,322.571 385.505,322.571 383.514,321.422L345.056,299.218Z" style="fill:white;"/>
                    </g>
                </g>
                <g transform="matrix(1,0,0,1,38.2353,-94.5915)">
                    <g>
                        <path d="M421.566,279.185C421.558,280.687 420.563,282.188 418.579,283.333C414.604,285.628 408.154,285.633 404.169,283.347L404.169,283.347L368.061,262.5L368.037,195.819L382.47,187.486L418.579,208.333L418.603,208.347C420.579,209.496 421.543,210.985 421.542,212.488L421.566,279.185Z" style="fill:url(#_Linear4);"/>
                    </g>
                    <g transform="matrix(1,0,0,1,-43.3013,8.33334)">
                        <path d="M461.88,200C465.863,202.3 465.863,206.034 461.88,208.333C457.897,210.633 451.43,210.633 447.446,208.333C447.446,208.333 411.362,187.5 411.362,187.5L425.772,179.153L461.88,200Z" style="fill:rgb(241,244,247);"/>
                    </g>
                    <g transform="matrix(0.938283,0,0,0.938283,48.1322,-87.1296)">
                        <path d="M345.056,299.218L352.272,295.051L390.73,317.255C392.722,318.405 392.722,320.272 390.73,321.422C388.739,322.571 385.505,322.571 383.514,321.422L345.056,299.218Z" style="fill:white;"/>
                    </g>
                </g>
            </g>
            <g id="g28400" transform="matrix(1,0,0,1,-1929.44,-3061.74)">
                <g id="rect12456" transform="matrix(0.229136,0.132292,0,0.264583,2476.83,2597.48)">
                    <path d="M1285.04,1407.95L1285.04,1450.66C1271.4,1454.21 1258.32,1459.65 1246.18,1466.83L1215.93,1436.58L1162.49,1490.03L1192.72,1520.26C1185.58,1532.41 1180.17,1545.49 1176.65,1559.13L1133.86,1559.13L1133.86,1634.72L1176.57,1634.72C1180.12,1648.36 1185.56,1661.44 1192.74,1673.58L1162.49,1703.83L1215.93,1757.27L1246.17,1727.04C1258.31,1734.18 1271.4,1739.59 1285.04,1743.11L1285.04,1785.9L1360.63,1785.9L1360.63,1743.19C1374.27,1739.64 1387.35,1734.2 1399.49,1727.02L1429.74,1757.27L1483.18,1703.83L1452.95,1673.59C1460.09,1661.45 1465.5,1648.36 1469.02,1634.72L1511.81,1634.72L1511.81,1559.13L1469.1,1559.13C1465.55,1545.49 1460.11,1532.41 1452.93,1520.28L1483.18,1490.03L1429.74,1436.58L1399.5,1466.81C1387.36,1459.67 1374.27,1454.26 1360.63,1450.74L1360.63,1407.95L1285.04,1407.95ZM1322.84,1521.33C1364.3,1521.33 1398.42,1555.46 1398.42,1596.92C1398.42,1638.39 1364.3,1672.52 1322.84,1672.52C1281.37,1672.52 1247.24,1638.39 1247.24,1596.92C1247.24,1555.46 1281.37,1521.33 1322.84,1521.33Z" style="fill:rgb(204,204,204);fill-rule:nonzero;"/>
                </g>
                <g id="g28149">
                    <path id="path28063" d="M2762.62,3145L2771.28,3140L2771.28,3151.3L2762.62,3156.3L2762.62,3145" style="fill:rgb(204,204,204);fill-rule:nonzero;"/>
                    <path id="path28065" d="M2762.62,3156.3L2771.28,3151.3L2762.38,3150.44L2753.72,3155.44L2762.62,3156.3" style="fill:white;fill-rule:nonzero;"/>
                    <path id="path28067" d="M2753.72,3155.44L2762.38,3150.44L2755.45,3138.43L2746.79,3143.43L2753.72,3155.44" style="fill:rgb(204,204,204);fill-rule:nonzero;"/>
                    <path id="path28069" d="M2746.79,3143.43L2755.45,3138.43L2743.2,3145.5L2734.54,3150.5L2746.79,3143.43" style="fill-opacity:0.3;fill-rule:nonzero;"/>
                    <path id="path28071" d="M2734.54,3150.5L2743.2,3145.5L2750.13,3157.5L2741.47,3162.5L2734.54,3150.5" style="fill:rgb(204,204,204);fill-rule:nonzero;"/>
                    <path id="path28073" d="M2741.47,3162.5L2750.13,3157.5L2746.45,3165.66L2737.78,3170.66L2741.47,3162.5" style="fill:rgb(204,204,204);fill-rule:nonzero;"/>
                    <path id="path28077" d="M2727.98,3165L2736.64,3160L2736.64,3180L2727.98,3185L2727.98,3165" style="fill:rgb(204,204,204);fill-rule:nonzero;"/>
                    <path id="path28079" d="M2727.98,3185L2736.64,3180L2746.43,3185.65L2737.77,3190.65L2727.98,3185" style="fill:rgb(204,204,204);fill-rule:nonzero;"/>
                    <path id="path28081" d="M2737.77,3190.65L2746.43,3185.65L2750.13,3198.07L2741.47,3203.07L2737.77,3190.65" style="fill:rgb(204,204,204);fill-rule:nonzero;"/>
                    <path id="path28083" d="M2741.47,3203.07L2750.13,3198.07L2743.2,3202.07L2734.54,3207.07L2741.47,3203.07" style="fill-opacity:0.3;fill-rule:nonzero;"/>
                    <path id="path28085" d="M2734.54,3207.07L2743.2,3202.07L2755.45,3223.28L2746.79,3228.28L2734.54,3207.07" style="fill:rgb(204,204,204);fill-rule:nonzero;"/>
                    <path id="path28087" d="M2746.79,3228.28L2755.45,3223.28L2762.37,3219.28L2753.71,3224.28L2746.79,3228.28" style="fill-opacity:0.3;fill-rule:nonzero;"/>
                    <path id="path28089" d="M2753.71,3224.28L2762.37,3219.28L2771.28,3228.68L2762.62,3233.68L2753.71,3224.28" style="fill:rgb(204,204,204);fill-rule:nonzero;"/>
                    <path id="path28091" d="M2762.62,3233.68L2771.28,3228.68L2771.28,3240L2762.62,3245L2762.62,3233.68" style="fill:rgb(204,204,204);fill-rule:nonzero;"/>
                    <path id="path28093" d="M2762.62,3245L2771.28,3240L2788.6,3250L2779.94,3255L2762.62,3245" style="fill:rgb(204,204,204);fill-rule:nonzero;"/>
                    <path id="path28095" d="M2779.94,3255L2788.6,3250L2788.6,3238.7L2779.94,3243.7L2779.94,3255" style="fill:rgb(204,204,204);fill-rule:nonzero;"/>
                    <path id="path28097" d="M2779.94,3243.7L2788.6,3238.7L2797.51,3239.56L2788.85,3244.56L2779.94,3243.7" style="fill:rgb(204,204,204);fill-rule:nonzero;"/>
                    <path id="path28099" d="M2788.85,3244.56L2797.51,3239.56L2804.44,3251.57L2795.78,3256.57L2788.85,3244.56" style="fill:rgb(204,204,204);fill-rule:nonzero;"/>
                    <path id="path28101" d="M2795.78,3256.57L2804.44,3251.57L2816.68,3244.5L2808.02,3249.5L2795.78,3256.57" style="fill-opacity:0.3;fill-rule:nonzero;"/>
                    <path id="path28103" d="M2808.02,3249.5L2816.68,3244.5L2809.76,3232.5L2801.1,3237.5L2808.02,3249.5" style="fill:rgb(204,204,204);fill-rule:nonzero;"/>
                    <path id="path28105" d="M2801.1,3237.5L2809.76,3232.5L2813.44,3224.34L2804.78,3229.34L2801.1,3237.5" style="fill:rgb(204,204,204);fill-rule:nonzero;"/>
                    <path id="path28107" d="M2804.78,3229.34L2813.44,3224.34L2823.24,3230L2814.58,3235L2804.78,3229.34" style="fill:rgb(204,204,204);fill-rule:nonzero;"/>
                    <path id="path28109" d="M2814.58,3235L2823.24,3230L2823.24,3210L2814.58,3215L2814.58,3235" style="fill:rgb(204,204,204);fill-rule:nonzero;"/>
                    <path id="path28111" d="M2814.58,3215L2823.24,3210L2813.46,3204.35L2804.8,3209.35L2814.58,3215" style="fill:white;fill-rule:nonzero;"/>
                    <path id="path28113" d="M2804.8,3209.35L2813.46,3204.35L2809.75,3191.93L2801.09,3196.93L2804.8,3209.35" style="fill:rgb(204,204,204);fill-rule:nonzero;"/>
                    <path id="path28115" d="M2801.09,3196.93L2809.75,3191.93L2816.68,3187.93L2808.02,3192.93L2801.09,3196.93" style="fill-opacity:0.3;fill-rule:nonzero;"/>
                    <path id="path28117" d="M2808.02,3192.93L2816.68,3187.93L2804.44,3166.72L2795.78,3171.72L2808.02,3192.93" style="fill:rgb(204,204,204);fill-rule:nonzero;"/>
                    <path id="path28119" d="M2795.78,3171.72L2804.44,3166.72L2797.51,3170.72L2788.85,3175.72L2795.78,3171.72" style="fill-opacity:0.3;fill-rule:nonzero;"/>
                    <path id="path28121" d="M2788.85,3175.72L2797.51,3170.72L2788.6,3161.32L2779.94,3166.32L2788.85,3175.72" style="fill:white;fill-rule:nonzero;"/>
                    <path id="path28123" d="M2779.94,3166.32L2788.6,3161.32L2788.6,3150L2779.94,3155L2779.94,3166.32" style="fill:rgb(204,204,204);fill-rule:nonzero;"/>
                    <path id="path28125" d="M2779.94,3155L2788.6,3150L2771.28,3140L2762.62,3145L2779.94,3155" style="fill:white;fill-rule:nonzero;"/>
                    <path id="path28127" d="M2762.62,3145L2771.28,3140L2762.62,3145" style="fill-opacity:0.3;fill-rule:nonzero;"/>
                    <path id="path28145" d="M2771.28,3180L2779.94,3175L2771.28,3180" style="fill-opacity:0.3;fill-rule:nonzero;"/>
                    <path id="path28147" d="M2771.28,3180L2779.94,3175L2771.28,3180" style="fill-opacity:0.3;fill-rule:nonzero;"/>
                    <path id="path28075" d="M2737.78,3170.66L2746.45,3165.66L2736.64,3160L2727.98,3165L2737.78,3170.66" style="fill:white;fill-rule:nonzero;"/>
                </g>
                <g id="path20286" transform="matrix(0.229136,0.132292,0,0.264583,2468.17,2602.48)">
                    <path d="M1285.04,1407.95L1285.04,1450.66C1271.4,1454.21 1258.32,1459.65 1246.18,1466.83L1215.93,1436.58L1162.49,1490.03L1192.72,1520.26C1185.58,1532.41 1180.17,1545.49 1176.65,1559.13L1133.86,1559.13L1133.86,1634.72L1176.57,1634.72C1180.12,1648.36 1185.56,1661.44 1192.74,1673.58L1162.49,1703.83L1215.93,1757.27L1246.17,1727.04C1258.31,1734.18 1271.4,1739.59 1285.04,1743.11L1285.04,1785.9L1360.63,1785.9L1360.63,1743.19C1374.27,1739.64 1387.35,1734.2 1399.49,1727.02L1429.74,1757.27L1483.18,1703.83L1452.95,1673.59C1460.09,1661.45 1465.5,1648.36 1469.02,1634.72L1511.81,1634.72L1511.81,1559.13L1469.1,1559.13C1465.55,1545.49 1460.11,1532.41 1452.93,1520.28L1483.18,1490.03L1429.74,1436.58L1399.5,1466.81C1387.36,1459.67 1374.27,1454.26 1360.63,1450.74L1360.63,1407.95L1285.04,1407.95ZM1322.84,1521.33C1364.3,1521.33 1398.42,1555.46 1398.42,1596.92C1398.42,1638.39 1364.3,1672.52 1322.84,1672.52C1281.37,1672.52 1247.24,1638.39 1247.24,1596.92C1247.24,1555.46 1281.37,1521.33 1322.84,1521.33Z" style="fill:rgb(242,242,242);fill-rule:nonzero;"/>
                </g>
            </g>
            <g transform="matrix(0.866029,0.500002,-0.866019,0.499996,670.302,-436.321)">
                <path d="M599.519,383.333C599.519,379.586 604.105,375 607.852,375L691.186,375C695.287,375 699.519,379.232 699.519,383.333L699.519,466.667C699.519,470.414 694.933,475 691.186,475L607.852,475C603.751,475 599.519,470.768 599.519,466.667L599.519,383.333ZM602.983,385.065C602.983,383.586 604.006,382.036 605.281,380.762C606.555,379.487 608.105,378.464 609.584,378.464L692.918,378.464C693.728,378.464 694.538,378.74 695.158,379.361C695.779,379.981 696.055,380.791 696.055,381.601L696.055,464.935C696.055,466.414 695.032,467.964 693.758,469.238C692.483,470.513 690.933,471.536 689.454,471.536L606.12,471.536C605.31,471.536 604.5,471.26 603.88,470.639C603.259,470.019 602.983,469.209 602.983,468.399L602.983,385.065Z" style="fill:rgb(0,188,212);"/>
            </g>
            <g transform="matrix(1,0,0,1,366.782,-61.5621)">
                <path d="M580.013,162.425L580.014,162.5L580.014,262.5C580.014,264.071 579.126,265.641 577.35,266.667C562.917,275 519.615,300 505.181,308.333C501.936,310.207 493.993,310.207 490.748,308.333C476.314,300 433.013,275 418.579,266.667C416.803,265.641 415.915,264.071 415.915,262.5L415.915,162.5C415.915,164.071 416.803,165.641 418.579,166.667C433.013,175 476.314,200 490.748,208.333C493.993,210.207 501.936,210.207 505.181,208.333C519.615,200 562.917,175 577.35,166.667C579.154,165.625 580.042,164.021 580.013,162.425ZM415.916,162.425L415.915,162.5L415.916,162.425ZM580.012,162.353C580.012,162.353 580.008,162.278 580.008,162.278L580.012,162.353ZM415.921,162.278L415.917,162.353C415.917,162.353 415.921,162.278 415.921,162.278ZM580.004,162.206C580.004,162.206 579.997,162.131 579.997,162.131L580.004,162.206ZM415.932,162.131L415.925,162.206C415.925,162.206 415.932,162.131 415.932,162.131ZM579.991,162.059C579.991,162.059 579.982,161.984 579.982,161.984L579.991,162.059ZM415.948,161.984L415.938,162.059C415.938,162.059 415.948,161.984 415.948,161.984ZM579.973,161.912C579.973,161.912 579.961,161.838 579.961,161.838L579.973,161.912ZM415.968,161.838L415.956,161.912C415.956,161.912 415.968,161.838 415.968,161.838ZM579.949,161.766C579.949,161.766 579.935,161.692 579.935,161.692L579.949,161.766ZM415.994,161.692L415.98,161.766C415.98,161.766 415.994,161.692 415.994,161.692ZM579.921,161.62C579.921,161.62 579.903,161.546 579.903,161.546L579.921,161.62ZM416.026,161.546L416.009,161.62C416.009,161.62 416.026,161.546 416.026,161.546ZM579.887,161.475C579.887,161.475 579.867,161.401 579.867,161.401L579.887,161.475ZM416.062,161.401L416.042,161.475C416.042,161.475 416.062,161.401 416.062,161.401ZM579.848,161.331C579.848,161.331 579.825,161.257 579.825,161.257L579.848,161.331ZM416.104,161.257L416.081,161.331C416.081,161.331 416.104,161.257 416.104,161.257ZM579.804,161.187C579.804,161.187 579.778,161.114 579.778,161.114L579.804,161.187ZM416.151,161.114L416.126,161.187C416.126,161.187 416.151,161.114 416.151,161.114ZM579.754,161.044C579.754,161.044 579.726,160.972 579.726,160.972L579.754,161.044ZM416.203,160.972L416.175,161.044C416.175,161.044 416.203,160.972 416.203,160.972ZM579.7,160.902C579.7,160.902 579.669,160.83 579.669,160.83L579.7,160.902ZM416.26,160.83L416.23,160.902C416.23,160.902 416.26,160.83 416.26,160.83ZM579.64,160.762C579.64,160.762 579.606,160.69 579.606,160.69L579.64,160.762ZM416.323,160.69L416.289,160.762C416.289,160.762 416.323,160.69 416.323,160.69ZM579.575,160.622C579.575,160.622 579.539,160.552 579.539,160.552L579.575,160.622ZM416.391,160.552L416.355,160.622C416.355,160.622 416.391,160.552 416.391,160.552ZM579.504,160.484C579.504,160.484 579.466,160.414 579.466,160.414L579.504,160.484ZM416.464,160.414L416.425,160.484C416.425,160.484 416.464,160.414 416.464,160.414ZM579.429,160.347C579.429,160.347 579.388,160.278 579.388,160.278L579.429,160.347ZM416.542,160.278L416.5,160.347C416.5,160.347 416.542,160.278 416.542,160.278ZM579.348,160.212C579.348,160.212 579.304,160.143 579.304,160.143L579.348,160.212ZM416.625,160.143L416.581,160.212C416.581,160.212 416.625,160.143 416.625,160.143ZM579.262,160.079C579.262,160.079 579.215,160.01 579.215,160.01L579.262,160.079ZM416.714,160.01L416.667,160.079C416.667,160.079 416.714,160.01 416.714,160.01ZM579.171,159.947C579.171,159.947 579.122,159.879 579.122,159.879L579.171,159.947ZM416.808,159.879L416.758,159.947C416.758,159.947 416.808,159.879 416.808,159.879ZM579.075,159.816C579.075,159.816 579.023,159.75 579.023,159.75L579.075,159.816ZM416.907,159.75L416.854,159.816C416.854,159.816 416.907,159.75 416.907,159.75ZM578.974,159.688C578.974,159.688 578.918,159.622 578.918,159.622L578.974,159.688ZM417.011,159.622L416.956,159.688C416.956,159.688 417.011,159.622 417.011,159.622ZM578.867,159.562C578.867,159.562 578.809,159.497 578.809,159.497L578.867,159.562ZM417.121,159.497L417.062,159.562C417.062,159.562 417.121,159.497 417.121,159.497ZM578.755,159.438C578.755,159.438 578.694,159.374 578.694,159.374L578.755,159.438ZM417.236,159.374L417.174,159.438C417.174,159.438 417.236,159.374 417.236,159.374ZM578.638,159.316C578.638,159.316 578.573,159.253 578.573,159.253L578.638,159.316ZM417.356,159.253L417.291,159.316C417.291,159.316 417.356,159.253 417.356,159.253ZM578.516,159.196C578.516,159.196 578.448,159.134 578.448,159.134L578.516,159.196ZM417.481,159.134L417.413,159.196C417.413,159.196 417.481,159.134 417.481,159.134ZM578.388,159.079C578.388,159.079 578.317,159.017 578.317,159.017L578.388,159.079ZM417.612,159.017L417.541,159.079C417.541,159.079 417.612,159.017 417.612,159.017ZM578.256,158.964C578.256,158.964 578.181,158.903 578.181,158.903L578.256,158.964ZM417.749,158.903L417.674,158.964C417.674,158.964 417.749,158.903 417.749,158.903ZM578.118,158.852C578.118,158.852 578.038,158.791 578.038,158.791L578.118,158.852ZM417.891,158.791L417.811,158.852C417.811,158.852 417.891,158.791 417.891,158.791ZM577.975,158.742C577.975,158.742 577.89,158.682 577.89,158.682L577.975,158.742ZM418.039,158.682L417.955,158.742C417.955,158.742 418.039,158.682 418.039,158.682ZM577.826,158.636C577.826,158.636 577.734,158.573 577.734,158.573L577.826,158.636ZM418.195,158.574L418.103,158.636C418.103,158.636 418.195,158.574 418.195,158.574ZM577.673,158.532C577.673,158.532 577.567,158.465 577.567,158.465L577.673,158.532ZM418.362,158.465L418.256,158.532C418.256,158.532 418.362,158.465 418.362,158.465ZM577.514,158.431L577.35,158.333C577.406,158.366 577.461,158.398 577.514,158.431ZM418.579,158.333L418.415,158.431C418.415,158.431 418.579,158.333 418.579,158.333Z" style="fill:url(#_Linear5);"/>
            </g>
            <g transform="matrix(0.999999,0,0,0.999999,734.843,25.938)">
                <path d="M86.702,117.493C102.529,126.631 115.378,148.887 115.378,167.162C115.378,185.437 102.529,192.856 86.702,183.718C70.875,174.58 58.026,152.325 58.026,134.05C58.026,115.774 70.875,108.356 86.702,117.493ZM89.008,170.833C87.68,170.067 86.603,168.2 86.603,166.667C86.603,165.134 87.68,164.511 89.008,165.278L120.281,183.333C121.609,184.1 122.687,185.967 122.687,187.5C122.687,189.033 121.609,189.656 120.281,188.889C120.281,188.889 89.008,170.833 89.008,170.833ZM99.809,155.334C100.673,156.431 101.202,157.814 101.202,158.977C101.202,160.14 100.673,160.913 99.809,161.013C94.439,161.633 85.063,162.715 79.574,163.349C78.689,163.451 77.585,162.831 76.686,161.724C75.787,160.617 75.231,159.195 75.231,158.002L75.231,129.964C75.231,128.771 75.787,127.991 76.686,127.923C77.585,127.854 78.689,128.507 79.574,129.632C85.063,136.603 94.439,148.513 99.809,155.334Z" style="fill:rgb(0,96,100);"/>
            </g>
        </g>
    </g>
    <defs>
        <linearGradient id="_Linear1" x1="0" y1="0" x2="1" y2="0" gradientUnits="userSpaceOnUse" gradientTransform="matrix(-86.6025,5.68434e-14,-5.68434e-13,-106.878,577.35,245.077)"><stop offset="0" style="stop-color:rgb(0,172,193);stop-opacity:1"/><stop offset="0.65" style="stop-color:rgb(0,169,189);stop-opacity:1"/><stop offset="0.84" style="stop-color:rgb(0,161,179);stop-opacity:1"/><stop offset="1" style="stop-color:rgb(0,151,167);stop-opacity:1"/></linearGradient>
        <linearGradient id="_Linear2" x1="0" y1="0" x2="1" y2="0" gradientUnits="userSpaceOnUse" gradientTransform="matrix(14.4338,-5.68434e-14,3.97904e-13,66.1134,404.145,241.667)"><stop offset="0" style="stop-color:rgb(205,216,225);stop-opacity:1"/><stop offset="0.56" style="stop-color:rgb(192,205,216);stop-opacity:1"/><stop offset="1" style="stop-color:rgb(141,165,180);stop-opacity:1"/></linearGradient>
        <linearGradient id="_Linear3" x1="0" y1="0" x2="1" y2="0" gradientUnits="userSpaceOnUse" gradientTransform="matrix(14.4338,-5.68434e-14,3.97904e-13,66.1134,404.145,241.667)"><stop offset="0" style="stop-color:rgb(205,216,225);stop-opacity:1"/><stop offset="0.56" style="stop-color:rgb(192,205,216);stop-opacity:1"/><stop offset="1" style="stop-color:rgb(141,165,180);stop-opacity:1"/></linearGradient>
        <linearGradient id="_Linear4" x1="0" y1="0" x2="1" y2="0" gradientUnits="userSpaceOnUse" gradientTransform="matrix(14.4338,-5.68434e-14,3.97904e-13,66.1134,404.145,241.667)"><stop offset="0" style="stop-color:rgb(205,216,225);stop-opacity:1"/><stop offset="0.56" style="stop-color:rgb(192,205,216);stop-opacity:1"/><stop offset="1" style="stop-color:rgb(141,165,180);stop-opacity:1"/></linearGradient>
        <linearGradient id="_Linear5" x1="0" y1="0" x2="1" y2="0" gradientUnits="userSpaceOnUse" gradientTransform="matrix(86.6025,0,0,106.878,418.579,246.298)"><stop offset="0" style="stop-color:rgb(0,172,193);stop-opacity:1"/><stop offset="0.65" style="stop-color:rgb(0,169,189);stop-opacity:1"/><stop offset="0.84" style="stop-color:rgb(0,161,179);stop-opacity:1"/><stop offset="1" style="stop-color:rgb(0,151,167);stop-opacity:1"/></linearGradient>
    </defs>
</svg>
